<svg width="1440" height="101" viewBox="0 0 1440 101" fill="none" xmlns="http://www.w3.org/2000/svg">
<g filter="url(#filter0_d_1_444)">
<path d="M633.094 63.9688V71H612.156V63.9688H633.094ZM615.344 34.5938V71H606.344V34.5938H615.344ZM630.406 48.6562V55.6875H612.156V48.6562H630.406ZM633.125 34.5938V41.6562H612.156V34.5938H633.125ZM658.806 61.25L667.244 34.5938H676.713L663.431 71H656.869L658.806 61.25ZM649.838 34.5938L658.15 61.1562L660.244 71H653.588L640.369 34.5938H649.838ZM712.956 63.9688V71H692.019V63.9688H712.956ZM695.206 34.5938V71H686.206V34.5938H695.206ZM710.269 48.6562V55.6875H692.019V48.6562H710.269ZM712.988 34.5938V41.6562H692.019V34.5938H712.988ZM755.856 34.5938V71H746.825L732.419 47.8125V71H723.419V34.5938H732.419L746.825 57.7812V34.5938H755.856ZM787.069 34.5938V71H778.006V34.5938H787.069ZM798.913 34.5938V41.6562H766.413V34.5938H798.913ZM829.844 61.25C829.844 60.6667 829.729 60.1354 829.5 59.6562C829.271 59.1562 828.885 58.7083 828.344 58.3125C827.823 57.9167 827.115 57.5417 826.219 57.1875C825.323 56.8333 824.208 56.5 822.875 56.1875C820.583 55.6458 818.594 55.0521 816.906 54.4062C815.24 53.7396 813.854 52.9792 812.75 52.125C811.667 51.25 810.854 50.2083 810.312 49C809.771 47.7917 809.5 46.375 809.5 44.75C809.5 43.1875 809.844 41.75 810.531 40.4375C811.219 39.125 812.188 38 813.438 37.0625C814.688 36.125 816.167 35.3958 817.875 34.875C819.583 34.3542 821.448 34.0938 823.469 34.0938C826.406 34.0938 829 34.5521 831.25 35.4688C833.521 36.3854 835.292 37.6875 836.562 39.375C837.833 41.0417 838.469 43.0521 838.469 45.4062H829.469C829.469 44.5312 829.229 43.7292 828.75 43C828.292 42.2708 827.625 41.6875 826.75 41.25C825.875 40.7917 824.792 40.5625 823.5 40.5625C822.25 40.5625 821.219 40.7604 820.406 41.1562C819.594 41.5312 818.99 42.0208 818.594 42.625C818.219 43.2083 818.031 43.8125 818.031 44.4375C818.031 44.9583 818.146 45.4375 818.375 45.875C818.625 46.3125 819.01 46.7188 819.531 47.0938C820.073 47.4479 820.771 47.7917 821.625 48.125C822.5 48.4375 823.552 48.75 824.781 49.0625C827.073 49.5625 829.062 50.1562 830.75 50.8438C832.458 51.5104 833.875 52.3125 835 53.25C836.146 54.1875 837 55.3021 837.562 56.5938C838.125 57.8646 838.406 59.3333 838.406 61C838.406 62.6667 838.062 64.1562 837.375 65.4688C836.708 66.7604 835.74 67.8542 834.469 68.75C833.219 69.6458 831.708 70.3333 829.938 70.8125C828.188 71.2708 826.229 71.5 824.062 71.5C822.125 71.5 820.219 71.2708 818.344 70.8125C816.469 70.3542 814.771 69.6458 813.25 68.6875C811.729 67.7083 810.51 66.4583 809.594 64.9375C808.698 63.4167 808.25 61.5938 808.25 59.4688H817.281C817.281 60.4688 817.427 61.3229 817.719 62.0312C818.031 62.7396 818.49 63.3229 819.094 63.7812C819.719 64.2188 820.479 64.5417 821.375 64.75C822.292 64.9583 823.344 65.0625 824.531 65.0625C825.865 65.0625 826.917 64.875 827.688 64.5C828.479 64.1042 829.031 63.6146 829.344 63.0312C829.677 62.4479 829.844 61.8542 829.844 61.25Z" fill="white"/>
<path d="M633.094 63.9688H634.094V62.9688H633.094V63.9688ZM633.094 71V72H634.094V71H633.094ZM612.156 71H611.156V72H612.156V71ZM612.156 63.9688V62.9688H611.156V63.9688H612.156ZM615.344 34.5938H616.344V33.5938H615.344V34.5938ZM615.344 71V72H616.344V71H615.344ZM606.344 71H605.344V72H606.344V71ZM606.344 34.5938V33.5938H605.344V34.5938H606.344ZM630.406 48.6562H631.406V47.6562H630.406V48.6562ZM630.406 55.6875V56.6875H631.406V55.6875H630.406ZM612.156 55.6875H611.156V56.6875H612.156V55.6875ZM612.156 48.6562V47.6562H611.156V48.6562H612.156ZM633.125 34.5938H634.125V33.5938H633.125V34.5938ZM633.125 41.6562V42.6562H634.125V41.6562H633.125ZM612.156 41.6562H611.156V42.6562H612.156V41.6562ZM612.156 34.5938V33.5938H611.156V34.5938H612.156ZM632.094 63.9688V71H634.094V63.9688H632.094ZM633.094 70H612.156V72H633.094V70ZM613.156 71V63.9688H611.156V71H613.156ZM612.156 64.9688H633.094V62.9688H612.156V64.9688ZM614.344 34.5938V71H616.344V34.5938H614.344ZM615.344 70H606.344V72H615.344V70ZM607.344 71V34.5938H605.344V71H607.344ZM606.344 35.5938H615.344V33.5938H606.344V35.5938ZM629.406 48.6562V55.6875H631.406V48.6562H629.406ZM630.406 54.6875H612.156V56.6875H630.406V54.6875ZM613.156 55.6875V48.6562H611.156V55.6875H613.156ZM612.156 49.6562H630.406V47.6562H612.156V49.6562ZM632.125 34.5938V41.6562H634.125V34.5938H632.125ZM633.125 40.6562H612.156V42.6562H633.125V40.6562ZM613.156 41.6562V34.5938H611.156V41.6562H613.156ZM612.156 35.5938H633.125V33.5938H612.156V35.5938ZM658.806 61.25L657.853 60.9482L657.836 61.0009L657.825 61.0551L658.806 61.25ZM667.244 34.5938V33.5938H666.511L666.29 34.292L667.244 34.5938ZM676.713 34.5938L677.652 34.9365L678.142 33.5938H676.713V34.5938ZM663.431 71V72H664.131L664.371 71.3427L663.431 71ZM656.869 71L655.888 70.8051L655.65 72H656.869V71ZM649.838 34.5938L650.792 34.2951L650.572 33.5938H649.838V34.5938ZM658.15 61.1562L659.128 60.9482L659.118 60.9023L659.104 60.8576L658.15 61.1562ZM660.244 71V72H661.479L661.222 70.792L660.244 71ZM653.588 71L652.648 71.3413L652.887 72H653.588V71ZM640.369 34.5938V33.5938H638.942L639.429 34.935L640.369 34.5938ZM659.76 61.5518L668.197 34.8955L666.29 34.292L657.853 60.9482L659.76 61.5518ZM667.244 35.5938H676.713V33.5938H667.244V35.5938ZM675.773 34.251L662.492 70.6573L664.371 71.3427L677.652 34.9365L675.773 34.251ZM663.431 70H656.869V72H663.431V70ZM657.85 71.1949L659.787 61.4449L657.825 61.0551L655.888 70.8051L657.85 71.1949ZM648.883 34.8924L657.196 61.4549L659.104 60.8576L650.792 34.2951L648.883 34.8924ZM657.172 61.3643L659.266 71.208L661.222 70.792L659.128 60.9482L657.172 61.3643ZM660.244 70H653.588V72H660.244V70ZM654.527 70.6587L641.309 34.2525L639.429 34.935L652.648 71.3413L654.527 70.6587ZM640.369 35.5938H649.838V33.5938H640.369V35.5938ZM712.956 63.9688H713.956V62.9688H712.956V63.9688ZM712.956 71V72H713.956V71H712.956ZM692.019 71H691.019V72H692.019V71ZM692.019 63.9688V62.9688H691.019V63.9688H692.019ZM695.206 34.5938H696.206V33.5938H695.206V34.5938ZM695.206 71V72H696.206V71H695.206ZM686.206 71H685.206V72H686.206V71ZM686.206 34.5938V33.5938H685.206V34.5938H686.206ZM710.269 48.6562H711.269V47.6562H710.269V48.6562ZM710.269 55.6875V56.6875H711.269V55.6875H710.269ZM692.019 55.6875H691.019V56.6875H692.019V55.6875ZM692.019 48.6562V47.6562H691.019V48.6562H692.019ZM712.988 34.5938H713.988V33.5938H712.988V34.5938ZM712.988 41.6562V42.6562H713.988V41.6562H712.988ZM692.019 41.6562H691.019V42.6562H692.019V41.6562ZM692.019 34.5938V33.5938H691.019V34.5938H692.019ZM711.956 63.9688V71H713.956V63.9688H711.956ZM712.956 70H692.019V72H712.956V70ZM693.019 71V63.9688H691.019V71H693.019ZM692.019 64.9688H712.956V62.9688H692.019V64.9688ZM694.206 34.5938V71H696.206V34.5938H694.206ZM695.206 70H686.206V72H695.206V70ZM687.206 71V34.5938H685.206V71H687.206ZM686.206 35.5938H695.206V33.5938H686.206V35.5938ZM709.269 48.6562V55.6875H711.269V48.6562H709.269ZM710.269 54.6875H692.019V56.6875H710.269V54.6875ZM693.019 55.6875V48.6562H691.019V55.6875H693.019ZM692.019 49.6562H710.269V47.6562H692.019V49.6562ZM711.988 34.5938V41.6562H713.988V34.5938H711.988ZM712.988 40.6562H692.019V42.6562H712.988V40.6562ZM693.019 41.6562V34.5938H691.019V41.6562H693.019ZM692.019 35.5938H712.988V33.5938H692.019V35.5938ZM755.856 34.5938H756.856V33.5938H755.856V34.5938ZM755.856 71V72H756.856V71H755.856ZM746.825 71L745.976 71.5277L746.269 72H746.825V71ZM732.419 47.8125L733.268 47.2848L731.419 44.3081V47.8125H732.419ZM732.419 71V72H733.419V71H732.419ZM723.419 71H722.419V72H723.419V71ZM723.419 34.5938V33.5938H722.419V34.5938H723.419ZM732.419 34.5938L733.268 34.066L732.975 33.5938H732.419V34.5938ZM746.825 57.7812L745.976 58.309L747.825 61.2857V57.7812H746.825ZM746.825 34.5938V33.5938H745.825V34.5938H746.825ZM754.856 34.5938V71H756.856V34.5938H754.856ZM755.856 70H746.825V72H755.856V70ZM747.674 70.4723L733.268 47.2848L731.569 48.3402L745.976 71.5277L747.674 70.4723ZM731.419 47.8125V71H733.419V47.8125H731.419ZM732.419 70H723.419V72H732.419V70ZM724.419 71V34.5938H722.419V71H724.419ZM723.419 35.5938H732.419V33.5938H723.419V35.5938ZM731.569 35.1215L745.976 58.309L747.674 57.2535L733.268 34.066L731.569 35.1215ZM747.825 57.7812V34.5938H745.825V57.7812H747.825ZM746.825 35.5938H755.856V33.5938H746.825V35.5938ZM787.069 34.5938H788.069V33.5938H787.069V34.5938ZM787.069 71V72H788.069V71H787.069ZM778.006 71H777.006V72H778.006V71ZM778.006 34.5938V33.5938H777.006V34.5938H778.006ZM798.913 34.5938H799.913V33.5938H798.913V34.5938ZM798.913 41.6562V42.6562H799.913V41.6562H798.913ZM766.413 41.6562H765.413V42.6562H766.413V41.6562ZM766.413 34.5938V33.5938H765.413V34.5938H766.413ZM786.069 34.5938V71H788.069V34.5938H786.069ZM787.069 70H778.006V72H787.069V70ZM779.006 71V34.5938H777.006V71H779.006ZM778.006 35.5938H787.069V33.5938H778.006V35.5938ZM797.913 34.5938V41.6562H799.913V34.5938H797.913ZM798.913 40.6562H766.413V42.6562H798.913V40.6562ZM767.413 41.6562V34.5938H765.413V41.6562H767.413ZM766.413 35.5938H798.913V33.5938H766.413V35.5938ZM829.5 59.6562L828.591 60.0729L828.594 60.0803L828.598 60.0877L829.5 59.6562ZM828.344 58.3125L827.739 59.1087L827.746 59.1143L827.754 59.1199L828.344 58.3125ZM822.875 56.1875L822.645 57.1607L822.647 57.1611L822.875 56.1875ZM816.906 54.4062L816.535 55.3347L816.542 55.3375L816.549 55.3402L816.906 54.4062ZM812.75 52.125L812.122 52.9029L812.13 52.9095L812.138 52.916L812.75 52.125ZM810.312 49L809.4 49.4091L810.312 49ZM831.25 35.4688L830.873 36.3948L830.876 36.396L831.25 35.4688ZM836.562 39.375L835.764 39.9766L835.767 39.9813L836.562 39.375ZM838.469 45.4062V46.4062H839.469V45.4062H838.469ZM829.469 45.4062H828.469V46.4062H829.469V45.4062ZM828.75 43L827.903 43.5322L827.909 43.5407L827.914 43.5492L828.75 43ZM826.75 41.25L826.286 42.1358L826.294 42.1402L826.303 42.1444L826.75 41.25ZM820.406 41.1562L820.825 42.0642L820.835 42.0598L820.844 42.0552L820.406 41.1562ZM818.594 42.625L817.757 42.077L817.753 42.0842L818.594 42.625ZM818.375 45.875L817.489 46.339L817.498 46.3552L817.507 46.3711L818.375 45.875ZM819.531 47.0938L818.947 47.9053L818.965 47.9184L818.984 47.9307L819.531 47.0938ZM821.625 48.125L821.261 49.0566L821.275 49.0619L821.289 49.0667L821.625 48.125ZM824.781 49.0625L824.535 50.0317L824.551 50.0359L824.568 50.0395L824.781 49.0625ZM830.75 50.8438L830.373 51.7698L830.38 51.7726L830.386 51.7753L830.75 50.8438ZM835 53.25L834.36 54.0183L834.367 54.024L835 53.25ZM837.562 56.5938L836.646 56.993L836.648 56.9985L837.562 56.5938ZM837.375 65.4688L836.489 65.0047L836.486 65.0101L837.375 65.4688ZM834.469 68.75L833.893 67.9326L833.886 67.9372L834.469 68.75ZM829.938 70.8125L830.191 71.7799L830.199 71.7778L829.938 70.8125ZM813.25 68.6875L812.709 69.5283L812.717 69.5335L813.25 68.6875ZM809.594 64.9375L808.732 65.4451L808.737 65.4537L809.594 64.9375ZM808.25 59.4688V58.4688H807.25V59.4688H808.25ZM817.281 59.4688H818.281V58.4688H817.281V59.4688ZM817.719 62.0312L816.794 62.412L816.799 62.4235L816.804 62.4349L817.719 62.0312ZM819.094 63.7812L818.489 64.5779L818.505 64.5895L818.52 64.6005L819.094 63.7812ZM821.375 64.75L821.148 65.724L821.153 65.7251L821.375 64.75ZM827.688 64.5L828.125 65.3993L828.135 65.3944L827.688 64.5ZM829.344 63.0312L828.476 62.5351L828.469 62.547L828.462 62.559L829.344 63.0312ZM830.844 61.25C830.844 60.5322 830.702 59.8515 830.402 59.2248L828.598 60.0877C828.756 60.4194 828.844 60.8011 828.844 61.25H830.844ZM830.409 59.2396C830.095 58.5535 829.583 57.9798 828.934 57.5051L827.754 59.1199C828.188 59.4369 828.447 59.759 828.591 60.0729L830.409 59.2396ZM828.949 57.5163C828.33 57.0459 827.531 56.631 826.586 56.2575L825.851 58.1175C826.698 58.4523 827.316 58.7874 827.739 59.1087L828.949 57.5163ZM826.586 56.2575C825.631 55.8797 824.466 55.5333 823.103 55.2139L822.647 57.1611C823.951 57.4667 825.015 57.787 825.851 58.1175L826.586 56.2575ZM823.105 55.2143C820.844 54.68 818.899 54.0983 817.264 53.4723L816.549 55.3402C818.288 56.0058 820.322 56.6117 822.645 57.1607L823.105 55.2143ZM817.278 53.4778C815.674 52.8363 814.375 52.1179 813.362 51.334L812.138 52.916C813.333 53.8404 814.805 54.6429 816.535 55.3347L817.278 53.4778ZM813.378 51.3471C812.411 50.5657 811.699 49.6482 811.225 48.5909L809.4 49.4091C810.009 50.7684 810.922 51.9343 812.122 52.9029L813.378 51.3471ZM811.225 48.5909C810.753 47.537 810.5 46.2653 810.5 44.75H808.5C808.5 46.4847 808.789 48.0463 809.4 49.4091L811.225 48.5909ZM810.5 44.75C810.5 43.34 810.809 42.063 811.417 40.9015L809.645 39.9735C808.879 41.437 808.5 43.035 808.5 44.75H810.5ZM811.417 40.9015C812.032 39.7281 812.9 38.7157 814.038 37.8625L812.837 36.2625C811.475 37.2843 810.406 38.5219 809.645 39.9735L811.417 40.9015ZM814.038 37.8625C815.182 37.0039 816.554 36.3233 818.167 35.8315L817.583 33.9185C815.78 34.4684 814.193 35.2461 812.837 36.2625L814.038 37.8625ZM818.167 35.8315C819.769 35.343 821.534 35.0938 823.469 35.0938V33.0938C821.362 33.0938 819.398 33.3653 817.583 33.9185L818.167 35.8315ZM823.469 35.0938C826.303 35.0938 828.765 35.536 830.873 36.3948L831.627 34.5427C829.235 33.5681 826.509 33.0938 823.469 33.0938V35.0938ZM830.876 36.396C833.005 37.2557 834.619 38.456 835.764 39.9766L837.361 38.7734C835.965 36.919 834.036 35.5151 831.624 34.5415L830.876 36.396ZM835.767 39.9813C836.889 41.4525 837.469 43.2428 837.469 45.4062H839.469C839.469 42.8614 838.778 40.6308 837.358 38.7687L835.767 39.9813ZM838.469 44.4062H829.469V46.4062H838.469V44.4062ZM830.469 45.4062C830.469 44.3367 830.172 43.3436 829.586 42.4508L827.914 43.5492C828.286 44.1147 828.469 44.7258 828.469 45.4062H830.469ZM829.597 42.4678C829.028 41.5634 828.213 40.8636 827.197 40.3556L826.303 42.1444C827.037 42.5114 827.555 42.9783 827.903 43.5322L829.597 42.4678ZM827.214 40.3642C826.159 39.8113 824.905 39.5625 823.5 39.5625V41.5625C824.678 41.5625 825.591 41.772 826.286 42.1358L827.214 40.3642ZM823.5 39.5625C822.153 39.5625 820.959 39.7745 819.968 40.2573L820.844 42.0552C821.478 41.7463 822.347 41.5625 823.5 41.5625V39.5625ZM819.987 40.2483C819.045 40.6831 818.278 41.2825 817.757 42.077L819.43 43.173C819.701 42.7592 820.142 42.3794 820.825 42.0642L819.987 40.2483ZM817.753 42.0842C817.286 42.8106 817.031 43.6001 817.031 44.4375H819.031C819.031 44.0249 819.152 43.6061 819.435 43.1658L817.753 42.0842ZM817.031 44.4375C817.031 45.1109 817.181 45.7505 817.489 46.339L819.261 45.411C819.111 45.1245 819.031 44.8058 819.031 44.4375H817.031ZM817.507 46.3711C817.844 46.962 818.341 47.4688 818.947 47.9053L820.116 46.2822C819.68 45.9687 819.406 45.663 819.243 45.3789L817.507 46.3711ZM818.984 47.9307C819.602 48.3347 820.367 48.7076 821.261 49.0566L821.989 47.1934C821.174 46.8757 820.544 46.5611 820.079 46.2568L818.984 47.9307ZM821.289 49.0667C822.202 49.3928 823.285 49.714 824.535 50.0317L825.028 48.0933C823.819 47.786 822.798 47.4822 821.961 47.1833L821.289 49.0667ZM824.568 50.0395C826.819 50.5306 828.751 51.1091 830.373 51.7698L831.127 49.9177C829.374 49.2034 827.327 48.5944 824.994 48.0855L824.568 50.0395ZM830.386 51.7753C832.019 52.4123 833.335 53.1646 834.36 54.0182L835.64 52.4818C834.415 51.4604 832.898 50.6086 831.114 49.9122L830.386 51.7753ZM834.367 54.024C835.396 54.8661 836.15 55.8544 836.646 56.993L838.479 56.1945C837.85 54.7497 836.896 53.5089 835.633 52.476L834.367 54.024ZM836.648 56.9985C837.144 58.1191 837.406 59.4455 837.406 61H839.406C839.406 59.2212 839.106 57.6101 838.477 56.189L836.648 56.9985ZM837.406 61C837.406 62.5255 837.093 63.8525 836.489 65.0047L838.261 65.9328C839.032 64.46 839.406 62.8079 839.406 61H837.406ZM836.486 65.0101C835.899 66.1489 835.041 67.1229 833.893 67.9327L835.045 69.5673C836.438 68.5854 837.518 67.3719 838.264 65.9274L836.486 65.0101ZM833.886 67.9372C832.75 68.7514 831.353 69.3934 829.676 69.8472L830.199 71.7778C832.063 71.2733 833.687 70.5403 835.051 69.5628L833.886 67.9372ZM829.684 69.8451C828.031 70.278 826.16 70.5 824.062 70.5V72.5C826.298 72.5 828.344 72.2636 830.191 71.7799L829.684 69.8451ZM824.062 70.5C822.205 70.5 820.378 70.2804 818.581 69.8411L818.106 71.7839C820.059 72.2613 822.045 72.5 824.062 72.5V70.5ZM818.581 69.8411C816.803 69.4065 815.206 68.7383 813.783 67.8415L812.717 69.5335C814.335 70.5534 816.134 71.3019 818.106 71.7839L818.581 69.8411ZM813.791 67.8467C812.396 66.9486 811.286 65.8088 810.45 64.4213L808.737 65.4537C809.734 67.1079 811.062 68.468 812.709 69.5283L813.791 67.8467ZM810.455 64.43C809.667 63.0916 809.25 61.4517 809.25 59.4688H807.25C807.25 61.7358 807.729 63.7418 808.732 65.445L810.455 64.43ZM808.25 60.4688H817.281V58.4688H808.25V60.4688ZM816.281 59.4688C816.281 60.5614 816.44 61.5521 816.794 62.412L818.643 61.6505C818.414 61.0937 818.281 60.3761 818.281 59.4688H816.281ZM816.804 62.4349C817.183 63.2951 817.747 64.0148 818.489 64.5779L819.698 62.9846C819.232 62.631 818.879 62.1841 818.634 61.6276L816.804 62.4349ZM818.52 64.6005C819.269 65.1247 820.153 65.4925 821.148 65.724L821.602 63.776C820.805 63.5908 820.168 63.3128 819.667 62.962L818.52 64.6005ZM821.153 65.7251C822.159 65.9536 823.288 66.0625 824.531 66.0625V64.0625C823.4 64.0625 822.424 63.963 821.597 63.7749L821.153 65.7251ZM824.531 66.0625C825.94 66.0625 827.163 65.8672 828.125 65.3992L827.25 63.6008C826.67 63.8828 825.789 64.0625 824.531 64.0625V66.0625ZM828.135 65.3944C829.05 64.9369 829.787 64.3215 830.225 63.5035L828.462 62.559C828.275 62.9077 827.909 63.2715 827.24 63.6056L828.135 65.3944ZM830.212 63.5274C830.622 62.8103 830.844 62.0471 830.844 61.25H828.844C828.844 61.6612 828.732 62.0856 828.476 62.5351L830.212 63.5274Z" fill="#FDC32D"/>
</g>
<g filter="url(#filter1_d_1_444)">
<path d="M353.069 16H-166L-152.069 22.5H339.539L306.631 75H150.807L137.392 83H311.275L353.069 16Z" fill="#D9D9D9"/>
<path d="M353.069 16H-166L-152.069 22.5H339.539L306.631 75H150.807L137.392 83H311.275L353.069 16Z" stroke="#00FFFF"/>
</g>
<g filter="url(#filter2_d_1_444)">
<path d="M1085.93 16H1605L1591.07 22.5H1100.08L1132.37 75H1288.19L1301.61 83H1127.73L1085.93 16Z" fill="#D9D9D9"/>
<path d="M1085.93 16H1605L1591.07 22.5H1100.08L1132.37 75H1288.19L1301.61 83H1127.73L1085.93 16Z" stroke="#00FFFF"/>
</g>
<g filter="url(#filter3_d_1_444)">
<path d="M353 82.5L394.206 17H404.046L363.455 82.5H353Z" fill="white"/>
<path d="M381.29 82.5L419.421 17H429.876L391.131 82.5H381.29Z" fill="white"/>
<path d="M353 82.5L394.206 17H404.046L363.455 82.5H353Z" stroke="#FF037D"/>
<path d="M381.29 82.5L419.421 17H429.876L391.131 82.5H381.29Z" stroke="#FF037D"/>
</g>
<g filter="url(#filter4_d_1_444)">
<path d="M1085.88 82.5L1044.67 17H1034.83L1075.42 82.5H1085.88Z" fill="white"/>
<path d="M1057.59 82.5L1019.46 17H1009L1047.75 82.5H1057.59Z" fill="white"/>
<path d="M1085.88 82.5L1044.67 17H1034.83L1075.42 82.5H1085.88Z" stroke="#FF037D"/>
<path d="M1057.59 82.5L1019.46 17H1009L1047.75 82.5H1057.59Z" stroke="#FF037D"/>
</g>
<defs>
<filter id="filter0_d_1_444" x="599.344" y="27.0938" width="248.125" height="53.4062" filterUnits="userSpaceOnUse" color-interpolation-filters="sRGB">
<feFlood flood-opacity="0" result="BackgroundImageFix"/>
<feColorMatrix in="SourceAlpha" type="matrix" values="0 0 0 0 0 0 0 0 0 0 0 0 0 0 0 0 0 0 127 0" result="hardAlpha"/>
<feOffset dx="1" dy="1"/>
<feGaussianBlur stdDeviation="4"/>
<feComposite in2="hardAlpha" operator="out"/>
<feColorMatrix type="matrix" values="0 0 0 0 0.992157 0 0 0 0 0.764706 0 0 0 0 0.176471 0 0 0 1 0"/>
<feBlend mode="normal" in2="BackgroundImageFix" result="effect1_dropShadow_1_444"/>
<feBlend mode="normal" in="SourceGraphic" in2="effect1_dropShadow_1_444" result="shape"/>
</filter>
<filter id="filter1_d_1_444" x="-181.211" y="0.5" width="552.181" height="100" filterUnits="userSpaceOnUse" color-interpolation-filters="sRGB">
<feFlood flood-opacity="0" result="BackgroundImageFix"/>
<feColorMatrix in="SourceAlpha" type="matrix" values="0 0 0 0 0 0 0 0 0 0 0 0 0 0 0 0 0 0 127 0" result="hardAlpha"/>
<feOffset dx="1" dy="1"/>
<feGaussianBlur stdDeviation="8"/>
<feComposite in2="hardAlpha" operator="out"/>
<feColorMatrix type="matrix" values="0 0 0 0 0 0 0 0 0 1 0 0 0 0 1 0 0 0 1 0"/>
<feBlend mode="normal" in2="BackgroundImageFix" result="effect1_dropShadow_1_444"/>
<feBlend mode="normal" in="SourceGraphic" in2="effect1_dropShadow_1_444" result="shape"/>
</filter>
<filter id="filter2_d_1_444" x="1070.03" y="0.5" width="552.181" height="100" filterUnits="userSpaceOnUse" color-interpolation-filters="sRGB">
<feFlood flood-opacity="0" result="BackgroundImageFix"/>
<feColorMatrix in="SourceAlpha" type="matrix" values="0 0 0 0 0 0 0 0 0 0 0 0 0 0 0 0 0 0 127 0" result="hardAlpha"/>
<feOffset dx="1" dy="1"/>
<feGaussianBlur stdDeviation="8"/>
<feComposite in2="hardAlpha" operator="out"/>
<feColorMatrix type="matrix" values="0 0 0 0 0 0 0 0 0 1 0 0 0 0 1 0 0 0 1 0"/>
<feBlend mode="normal" in2="BackgroundImageFix" result="effect1_dropShadow_1_444"/>
<feBlend mode="normal" in="SourceGraphic" in2="effect1_dropShadow_1_444" result="shape"/>
</filter>
<filter id="filter3_d_1_444" x="337.095" y="1.5" width="110.658" height="98.5" filterUnits="userSpaceOnUse" color-interpolation-filters="sRGB">
<feFlood flood-opacity="0" result="BackgroundImageFix"/>
<feColorMatrix in="SourceAlpha" type="matrix" values="0 0 0 0 0 0 0 0 0 0 0 0 0 0 0 0 0 0 127 0" result="hardAlpha"/>
<feOffset dx="1" dy="1"/>
<feGaussianBlur stdDeviation="8"/>
<feComposite in2="hardAlpha" operator="out"/>
<feColorMatrix type="matrix" values="0 0 0 0 1 0 0 0 0 0.0100001 0 0 0 0 0.491905 0 0 0 1 0"/>
<feBlend mode="normal" in2="BackgroundImageFix" result="effect1_dropShadow_1_444"/>
<feBlend mode="normal" in="SourceGraphic" in2="effect1_dropShadow_1_444" result="shape"/>
</filter>
<filter id="filter4_d_1_444" x="993.123" y="1.5" width="110.658" height="98.5" filterUnits="userSpaceOnUse" color-interpolation-filters="sRGB">
<feFlood flood-opacity="0" result="BackgroundImageFix"/>
<feColorMatrix in="SourceAlpha" type="matrix" values="0 0 0 0 0 0 0 0 0 0 0 0 0 0 0 0 0 0 127 0" result="hardAlpha"/>
<feOffset dx="1" dy="1"/>
<feGaussianBlur stdDeviation="8"/>
<feComposite in2="hardAlpha" operator="out"/>
<feColorMatrix type="matrix" values="0 0 0 0 1 0 0 0 0 0.0100001 0 0 0 0 0.491905 0 0 0 1 0"/>
<feBlend mode="normal" in2="BackgroundImageFix" result="effect1_dropShadow_1_444"/>
<feBlend mode="normal" in="SourceGraphic" in2="effect1_dropShadow_1_444" result="shape"/>
</filter>
</defs>
</svg>
