<svg width="89" height="108" viewBox="0 0 89 108" fill="none" xmlns="http://www.w3.org/2000/svg">
<path d="M78.9193 6.96573L85.1872 2.58584L85.4736 2.99569L87.8051 1.36649L87.7582 4.21043L88.2581 4.21868L88.132 11.8642L87.6321 11.856L87.5059 19.5015L88.0059 19.5097L87.8797 27.1553L87.3798 27.147L87.2537 34.7926L87.7536 34.8008L87.6275 42.4464L87.1276 42.4381L87.0014 50.0836L87.5014 50.0919L87.3752 57.7374L86.8753 57.7292L86.7492 65.3747L87.2491 65.383L87.123 73.0285L86.6231 73.0203L86.4969 80.6658L86.9969 80.674L86.8707 88.3196L86.3708 88.3113L86.2447 95.9569L86.7446 95.9651L86.6185 103.611L86.1185 103.602L86.069 106.608L83.2074 105.087L82.9727 105.528L75.8073 101.719L76.042 101.277L68.8766 97.4672L68.6419 97.9086L61.4765 94.0987L61.7112 93.6572L54.5458 89.8473L54.3111 90.2888L47.1456 86.4789L47.3804 86.0374L40.215 82.2275L39.9802 82.6689L32.8148 78.859L33.0495 78.4176L25.8841 74.6076L25.6494 75.0491L18.484 71.2392L18.7187 70.7977L11.5533 66.9878L11.3186 67.4293L4.15315 63.6194L4.38789 63.1779L1.52638 61.6564L3.99081 59.9343L3.70441 59.5244L9.97232 55.1445L10.2587 55.5544L16.5266 51.1745L16.2402 50.7647L22.5081 46.3848L22.7945 46.7946L29.0624 42.4147L28.776 42.0049L35.044 37.625L35.3303 38.0348L41.5983 33.6549L41.3119 33.2451L47.5798 28.8652L47.8662 29.275L54.1341 24.8952L53.8477 24.4853L60.1156 20.1054L60.402 20.5153L66.6699 16.1354L66.3835 15.7255L72.6514 11.3456L72.9378 11.7555L79.2057 7.37558L78.9193 6.96573Z" stroke="#FF037D" stroke-dasharray="8 8"/>
</svg>
