<svg width="110" height="106" viewBox="0 0 110 106" fill="none" xmlns="http://www.w3.org/2000/svg">
<path d="M97.6476 22.9012L105.432 24.6598L105.322 25.1476L108.342 25.83L106.181 28.0475L106.539 28.3965L100.968 34.1111L100.61 33.7621L95.0394 39.4767L95.3975 39.8257L89.8268 45.5403L89.4688 45.1912L83.8981 50.9058L84.2562 51.2548L78.6855 56.9694L78.3275 56.6204L72.7568 62.335L73.1149 62.684L67.5442 68.3986L67.1862 68.0496L61.6155 73.7642L61.9736 74.1132L56.4029 79.8278L56.0449 79.4788L50.4742 85.1934L50.8323 85.5424L45.2616 91.257L44.9036 90.908L39.3329 96.6226L39.6909 96.9716L34.1203 102.686L33.7623 102.337L31.5722 104.584L30.7075 101.665L30.2281 101.807L28.0144 94.3336L28.4939 94.1916L26.2802 86.7183L25.8008 86.8603L23.5871 79.3871L24.0665 79.2451L21.8528 71.7718L21.3734 71.9138L19.1597 64.4406L19.6391 64.2986L17.4255 56.8253L16.946 56.9673L14.7324 49.494L15.2118 49.352L12.9981 41.8788L12.5187 42.0208L10.305 34.5475L10.7844 34.4055L8.57073 26.9323L8.09132 27.0743L5.87764 19.601L6.35705 19.459L4.14337 11.9857L3.66396 12.1277L1.45028 4.65449L1.92969 4.51248L1.06505 1.59349L4.12544 2.2849L4.23562 1.7972L12.0199 3.55586L11.9098 4.04357L19.6941 5.80223L19.8043 5.31452L27.5886 7.07319L27.4784 7.5609L35.2628 9.31956L35.3729 8.83186L43.1573 10.5905L43.0471 11.0782L50.8314 12.8369L50.9416 12.3492L58.7259 14.1079L58.6158 14.5956L66.4001 16.3542L66.5103 15.8665L74.2946 17.6252L74.1844 18.1129L81.9688 19.8716L82.0789 19.3839L89.8633 21.1425L89.7531 21.6302L97.5374 23.3889L97.6476 22.9012Z" stroke="white" stroke-dasharray="8 8"/>
</svg>
