<svg width="97" height="98" viewBox="0 0 97 98" fill="none" xmlns="http://www.w3.org/2000/svg">
<path d="M84.7191 4.40947L92.6992 1.74009L92.8578 2.21426L95.9372 1.1842L95.0152 4.29762L95.4946 4.43959L93.1054 12.508L92.6259 12.366L90.2367 20.4344L90.7161 20.5764L88.3268 28.6448L87.8474 28.5028L85.4582 36.5712L85.9376 36.7131L83.5483 44.7815L83.0689 44.6396L80.6797 52.708L81.1591 52.8499L78.7698 60.9183L78.2904 60.7764L75.9011 68.8447L76.3805 68.9867L73.9913 77.0551L73.5119 76.9131L71.1226 84.9815L71.602 85.1235L69.2128 93.1919L68.7334 93.0499L67.7727 96.294L65.5701 94.1669L65.2227 94.5266L59.6319 89.1276L59.9792 88.7679L54.3884 83.3689L54.0411 83.7286L48.4502 78.3296L48.7976 77.9699L43.2067 72.5709L42.8594 72.9306L37.2686 67.5316L37.6159 67.1719L32.0251 61.7729L31.6777 62.1326L26.0869 56.7335L26.4342 56.3739L20.8434 50.9749L20.4961 51.3345L14.9052 45.9355L15.2526 45.5759L9.66174 40.1769L9.31441 40.5365L3.72358 35.1375L4.07091 34.7779L1.86826 32.6508L5.07682 31.5775L4.91821 31.1033L12.8983 28.434L13.0569 28.9081L21.037 26.2387L20.8784 25.7646L28.8585 23.0952L29.0171 23.5694L36.9972 20.9L36.8386 20.4258L44.8187 17.7564L44.9773 18.2306L52.9574 15.5612L52.7988 15.087L60.7788 12.4176L60.9375 12.8918L68.9175 10.2224L68.7589 9.74824L76.739 7.07886L76.8976 7.55303L84.8777 4.88365L84.7191 4.40947Z" stroke="#FDC32D" stroke-dasharray="8 8"/>
</svg>
