<svg width="943" height="83" viewBox="0 0 943 83" fill="none" xmlns="http://www.w3.org/2000/svg">
<g filter="url(#filter0_f_1_4)">
<path d="M46.1696 5.1875H48.1696V3.1875H46.1696V5.1875ZM46.1696 78V80H48.1696V78H46.1696ZM28.0446 78H26.0446V80H28.0446V78ZM28.0446 5.1875V3.1875H26.0446V5.1875H28.0446ZM69.8571 5.1875H71.8571V3.1875H69.8571V5.1875ZM69.8571 19.3125V21.3125H71.8571V19.3125H69.8571ZM4.85706 19.3125H2.85706V21.3125H4.85706V19.3125ZM4.85706 5.1875V3.1875H2.85706V5.1875H4.85706ZM44.1696 5.1875V78H48.1696V5.1875H44.1696ZM46.1696 76H28.0446V80H46.1696V76ZM30.0446 78V5.1875H26.0446V78H30.0446ZM28.0446 7.1875H46.1696V3.1875H28.0446V7.1875ZM67.8571 5.1875V19.3125H71.8571V5.1875H67.8571ZM69.8571 17.3125H4.85706V21.3125H69.8571V17.3125ZM6.85706 19.3125V5.1875H2.85706V19.3125H6.85706ZM4.85706 7.1875H69.8571V3.1875H4.85706V7.1875ZM157.395 63.9375H159.395V61.9375H157.395V63.9375ZM157.395 78V80H159.395V78H157.395ZM115.52 78H113.52V80H115.52V78ZM115.52 63.9375V61.9375H113.52V63.9375H115.52ZM121.895 5.1875H123.895V3.1875H121.895V5.1875ZM121.895 78V80H123.895V78H121.895ZM103.895 78H101.895V80H103.895V78ZM103.895 5.1875V3.1875H101.895V5.1875H103.895ZM152.02 33.3125H154.02V31.3125H152.02V33.3125ZM152.02 47.375V49.375H154.02V47.375H152.02ZM115.52 47.375H113.52V49.375H115.52V47.375ZM115.52 33.3125V31.3125H113.52V33.3125H115.52ZM157.457 5.1875H159.457V3.1875H157.457V5.1875ZM157.457 19.3125V21.3125H159.457V19.3125H157.457ZM115.52 19.3125H113.52V21.3125H115.52V19.3125ZM115.52 5.1875V3.1875H113.52V5.1875H115.52ZM155.395 63.9375V78H159.395V63.9375H155.395ZM157.395 76H115.52V80H157.395V76ZM117.52 78V63.9375H113.52V78H117.52ZM115.52 65.9375H157.395V61.9375H115.52V65.9375ZM119.895 5.1875V78H123.895V5.1875H119.895ZM121.895 76H103.895V80H121.895V76ZM105.895 78V5.1875H101.895V78H105.895ZM103.895 7.1875H121.895V3.1875H103.895V7.1875ZM150.02 33.3125V47.375H154.02V33.3125H150.02ZM152.02 45.375H115.52V49.375H152.02V45.375ZM117.52 47.375V33.3125H113.52V47.375H117.52ZM115.52 35.3125H152.02V31.3125H115.52V35.3125ZM155.457 5.1875V19.3125H159.457V5.1875H155.457ZM157.457 17.3125H115.52V21.3125H157.457V17.3125ZM117.52 19.3125V5.1875H113.52V19.3125H117.52ZM115.52 7.1875H157.457V3.1875H115.52V7.1875ZM235.87 53.1875V51.1875H233.961L233.872 53.0938L235.87 53.1875ZM253.932 53.1875L255.929 53.3002L256.048 51.1875H253.932V53.1875ZM249.495 66.75L247.847 65.6162L249.495 66.75ZM238.432 75.8125L239.255 77.6354L239.261 77.6324L239.268 77.6294L238.432 75.8125ZM207.87 76.5625L207.123 78.4181L207.13 78.4208L207.87 76.5625ZM191.057 58.3125L189.16 58.945L189.162 58.9531L189.165 58.9612L191.057 58.3125ZM191.182 24.9375L193.068 25.6022L193.07 25.5966L191.182 24.9375ZM197.807 13.6875L196.344 12.3236L197.807 13.6875ZM208.12 6.625L208.872 8.47793L208.881 8.47458L208.889 8.47115L208.12 6.625ZM238.62 7.5625L237.732 9.35458L237.738 9.35772L238.62 7.5625ZM249.432 17L247.744 18.0726L247.751 18.0829L247.757 18.0931L249.432 17ZM253.995 30.5625V32.5625H256.183L255.986 30.3829L253.995 30.5625ZM235.995 30.5625L233.997 30.6695L234.099 32.5625H235.995V30.5625ZM234.37 24.3125L232.589 25.2227L232.593 25.2309L232.597 25.239L234.37 24.3125ZM229.807 19.875L228.87 21.6417L228.877 21.6456L228.884 21.6494L229.807 19.875ZM215.182 19.5625L214.321 17.7575L215.182 19.5625ZM210.557 23.5625L208.917 22.4181L208.908 22.4311L208.899 22.4442L210.557 23.5625ZM207.807 30.3125L209.754 30.7689L209.756 30.7622L207.807 30.3125ZM207.682 53L205.721 53.3922L205.724 53.4067L205.727 53.4211L207.682 53ZM210.37 59.75L208.711 60.8683L208.718 60.8774L208.724 60.8864L210.37 59.75ZM214.995 63.6875L214.149 65.4999L214.156 65.5034L214.164 65.5069L214.995 63.6875ZM229.37 63.75L230.125 65.6017L230.141 65.5951L230.157 65.5883L229.37 63.75ZM235.87 55.1875H253.932V51.1875H235.87V55.1875ZM251.935 53.0748C251.662 57.9133 250.285 62.0729 247.847 65.6162L251.142 67.8838C254.037 63.6771 255.619 58.795 255.929 53.3002L251.935 53.0748ZM247.847 65.6162C245.405 69.165 242.012 71.9637 237.596 73.9956L239.268 77.6294C244.269 75.328 248.251 72.085 251.142 67.8838L247.847 65.6162ZM237.609 73.9896C233.213 75.9739 227.963 77 221.807 77V81C228.401 81 234.235 79.9011 239.255 77.6354L237.609 73.9896ZM221.807 77C216.806 77 212.418 76.22 208.609 74.7042L207.13 78.4208C211.488 80.155 216.391 81 221.807 81V77ZM208.616 74.7069C204.839 73.1885 201.653 71.0017 199.03 68.1468L196.084 70.8532C199.128 74.165 202.817 76.6865 207.123 78.4181L208.616 74.7069ZM199.03 68.1468C196.402 65.2872 194.369 61.805 192.949 57.6638L189.165 58.9612C190.745 63.57 193.045 67.5462 196.084 70.8532L199.03 68.1468ZM192.954 57.68C191.576 53.5453 190.87 48.8062 190.87 43.4375H186.87C186.87 49.1521 187.621 54.3297 189.16 58.945L192.954 57.68ZM190.87 43.4375V39.8125H186.87V43.4375H190.87ZM190.87 39.8125C190.87 34.4544 191.615 29.7267 193.068 25.6022L189.296 24.2728C187.666 28.8983 186.87 34.0873 186.87 39.8125H190.87ZM193.07 25.5966C194.531 21.413 196.604 17.9107 199.27 15.0514L196.344 12.3236C193.26 15.631 190.917 19.6287 189.294 24.2784L193.07 25.5966ZM199.27 15.0514C201.942 12.186 205.135 9.99621 208.872 8.47793L207.367 4.77207C203.104 6.50379 199.422 9.02233 196.344 12.3236L199.27 15.0514ZM208.889 8.47115C212.612 6.91964 216.825 6.125 221.557 6.125V2.125C216.372 2.125 211.627 2.99702 207.35 4.77885L208.889 8.47115ZM221.557 6.125C228.09 6.125 233.454 7.2351 237.732 9.35457L239.508 5.77043C234.535 3.30657 228.524 2.125 221.557 2.125V6.125ZM237.738 9.35772C242.108 11.5035 245.418 14.4128 247.744 18.0726L251.12 15.9274C248.362 11.5872 244.465 8.20482 239.501 5.76728L237.738 9.35772ZM247.757 18.0931C250.148 21.7559 251.571 25.9579 252.003 30.7421L255.986 30.3829C255.501 25.0004 253.883 20.1608 251.107 15.9069L247.757 18.0931ZM253.995 28.5625H235.995V32.5625H253.995V28.5625ZM237.992 30.4555C237.853 27.8732 237.249 25.5043 236.142 23.386L232.597 25.239C233.406 26.7874 233.886 28.5851 233.997 30.6695L237.992 30.4555ZM236.15 23.4023C234.981 21.1148 233.138 19.3527 230.73 18.1006L228.884 21.6494C230.643 22.564 231.841 23.7602 232.589 25.2227L236.15 23.4023ZM230.744 18.1083C228.306 16.8144 225.193 16.25 221.557 16.25V20.25C224.838 20.25 227.225 20.7689 228.87 21.6417L230.744 18.1083ZM221.557 16.25C218.898 16.25 216.469 16.732 214.321 17.7575L216.044 21.3675C217.562 20.643 219.383 20.25 221.557 20.25V16.25ZM214.321 17.7575C212.151 18.7928 210.349 20.3647 208.917 22.4181L212.197 24.7069C213.265 23.177 214.546 22.0822 216.044 21.3675L214.321 17.7575ZM208.899 22.4442C207.521 24.4879 206.523 26.9808 205.858 29.8628L209.756 30.7622C210.341 28.2275 211.177 26.2204 212.215 24.6808L208.899 22.4442ZM205.86 29.8561C205.191 32.7115 204.87 36.0176 204.87 39.75H208.87C208.87 36.2324 209.174 33.2468 209.754 30.7689L205.86 29.8561ZM204.87 39.75V43.4375H208.87V39.75H204.87ZM204.87 43.4375C204.87 47.1959 205.147 50.5207 205.721 53.3922L209.643 52.6078C209.134 50.0626 208.87 47.0124 208.87 43.4375H204.87ZM205.727 53.4211C206.349 56.3114 207.327 58.8149 208.711 60.8683L212.028 58.6317C210.996 57.1017 210.181 55.1052 209.637 52.5789L205.727 53.4211ZM208.724 60.8864C210.128 62.9203 211.943 64.4703 214.149 65.4999L215.84 61.8751C214.297 61.1547 213.028 60.0797 212.015 58.6136L208.724 60.8864ZM214.164 65.5069C216.397 66.5264 218.964 67 221.807 67V63C219.4 63 217.425 62.5986 215.825 61.8681L214.164 65.5069ZM221.807 67C224.979 67 227.774 66.5614 230.125 65.6017L228.614 61.8983C226.882 62.6053 224.635 63 221.807 63V67ZM230.157 65.5883C232.545 64.5649 234.441 62.9927 235.758 60.8652L232.357 58.7598C231.507 60.1323 230.277 61.1851 228.582 61.9117L230.157 65.5883ZM235.758 60.8652C237.065 58.7526 237.731 56.1894 237.867 53.2812L233.872 53.0938C233.758 55.519 233.215 57.3724 232.357 58.7598L235.758 60.8652ZM341.657 35.25H343.657V33.25H341.657V35.25ZM341.657 49.3125V51.3125H343.657V49.3125H341.657ZM301.095 49.3125H299.095V51.3125H301.095V49.3125ZM301.095 35.25V33.25H299.095V35.25H301.095ZM306.97 5.1875H308.97V3.1875H306.97V5.1875ZM306.97 78V80H308.97V78H306.97ZM288.97 78H286.97V80H288.97V78ZM288.97 5.1875V3.1875H286.97V5.1875H288.97ZM353.907 5.1875H355.907V3.1875H353.907V5.1875ZM353.907 78V80H355.907V78H353.907ZM335.907 78H333.907V80H335.907V78ZM335.907 5.1875V3.1875H333.907V5.1875H335.907ZM339.657 35.25V49.3125H343.657V35.25H339.657ZM341.657 47.3125H301.095V51.3125H341.657V47.3125ZM303.095 49.3125V35.25H299.095V49.3125H303.095ZM301.095 37.25H341.657V33.25H301.095V37.25ZM304.97 5.1875V78H308.97V5.1875H304.97ZM306.97 76H288.97V80H306.97V76ZM290.97 78V5.1875H286.97V78H290.97ZM288.97 7.1875H306.97V3.1875H288.97V7.1875ZM351.907 5.1875V78H355.907V5.1875H351.907ZM353.907 76H335.907V80H353.907V76ZM337.907 78V5.1875H333.907V78H337.907ZM335.907 7.1875H353.907V3.1875H335.907V7.1875ZM456.82 5.1875H458.82V3.1875H456.82V5.1875ZM456.82 78V80H458.82V78H456.82ZM438.757 78L437.058 79.0555L437.645 80H438.757V78ZM409.945 31.625L411.643 30.5695L407.945 24.6161V31.625H409.945ZM409.945 78V80H411.945V78H409.945ZM391.945 78H389.945V80H391.945V78ZM391.945 5.1875V3.1875H389.945V5.1875H391.945ZM409.945 5.1875L411.643 4.13203L411.057 3.1875H409.945V5.1875ZM438.757 51.5625L437.058 52.618L440.757 58.5714V51.5625H438.757ZM438.757 5.1875V3.1875H436.757V5.1875H438.757ZM454.82 5.1875V78H458.82V5.1875H454.82ZM456.82 76H438.757V80H456.82V76ZM440.456 76.9445L411.643 30.5695L408.246 32.6805L437.058 79.0555L440.456 76.9445ZM407.945 31.625V78H411.945V31.625H407.945ZM409.945 76H391.945V80H409.945V76ZM393.945 78V5.1875H389.945V78H393.945ZM391.945 7.1875H409.945V3.1875H391.945V7.1875ZM408.246 6.24297L437.058 52.618L440.456 50.507L411.643 4.13203L408.246 6.24297ZM440.757 51.5625V5.1875H436.757V51.5625H440.757ZM438.757 7.1875H456.82V3.1875H438.757V7.1875ZM558.045 58.0625L556.173 57.3564L556.17 57.3641L556.168 57.3719L558.045 58.0625ZM540.357 76.5625L541.09 78.4233L541.1 78.4195L540.357 76.5625ZM512.92 76.5625L512.17 78.4169L512.182 78.4214L512.193 78.4258L512.92 76.5625ZM502.17 69.375L500.736 70.77L502.17 69.375ZM495.045 25.1875L493.173 24.4814L493.17 24.4911L495.045 25.1875ZM502.045 13.875L500.602 12.4895L500.602 12.4899L502.045 13.875ZM512.795 6.6875L513.528 8.54834L513.537 8.54445L512.795 6.6875ZM540.232 6.6875L539.483 8.54186L539.494 8.5464L539.505 8.55081L540.232 6.6875ZM551.045 13.875L549.602 15.2605L549.611 15.27L551.045 13.875ZM558.045 25.1875L556.168 25.8781L556.172 25.8888L556.176 25.8995L558.045 25.1875ZM541.357 30.75L539.422 31.2561L539.427 31.2738L539.432 31.2915L541.357 30.75ZM538.232 23.9375L536.602 25.0965L536.617 25.1172L536.632 25.1375L538.232 23.9375ZM533.232 19.6875L532.323 21.4687L532.345 21.4802L532.368 21.4911L533.232 19.6875ZM519.732 19.6875L520.611 21.4839L520.619 21.4802L520.626 21.4764L519.732 19.6875ZM514.795 23.9375L516.412 25.1138L516.418 25.1052L516.424 25.0965L514.795 23.9375ZM511.732 30.75L509.797 30.2439L509.794 30.2544L509.792 30.2649L511.732 30.75ZM511.732 52.375L509.79 52.853L509.793 52.8671L509.797 52.8811L511.732 52.375ZM514.857 59.3125L513.232 60.4783L513.238 60.4868L513.244 60.4952L514.857 59.3125ZM519.857 63.625L518.948 65.4062L518.97 65.4177L518.993 65.4286L519.857 63.625ZM533.357 63.625L534.236 65.4214L534.251 65.4139L534.267 65.4062L533.357 63.625ZM538.295 59.3125L536.669 58.1467L536.665 58.1535L538.295 59.3125ZM558.545 40.125V43.125H562.545V40.125H558.545ZM558.545 43.125C558.545 48.4666 557.741 53.2009 556.173 57.3564L559.916 58.7686C561.681 54.0907 562.545 48.8667 562.545 43.125H558.545ZM556.168 57.3719C554.63 61.5522 552.457 65.0807 549.664 67.9899L552.55 70.7601C555.757 67.4193 558.21 63.4061 559.922 58.7531L556.168 57.3719ZM549.664 67.9899C546.869 70.9022 543.526 73.1407 539.614 74.7055L541.1 78.4195C545.521 76.651 549.346 74.0978 552.55 70.7601L549.664 67.9899ZM539.624 74.7017C535.76 76.2237 531.451 77 526.67 77V81C531.889 81 536.704 80.1513 541.09 78.4233L539.624 74.7017ZM526.67 77C521.889 77 517.556 76.2238 513.646 74.6992L512.193 78.4258C516.617 80.1512 521.45 81 526.67 81V77ZM513.669 74.7081C509.796 73.1433 506.447 70.902 503.603 67.98L500.736 70.77C503.976 74.098 507.793 76.6484 512.17 78.4169L513.669 74.7081ZM503.603 67.98C500.768 65.0679 498.556 61.5372 496.978 57.3564L493.236 58.7686C494.992 63.4211 497.488 67.4321 500.736 70.77L503.603 67.98ZM496.978 57.3564C495.41 53.2009 494.607 48.4666 494.607 43.125H490.607C490.607 48.8667 491.471 54.0907 493.236 58.7686L496.978 57.3564ZM494.607 43.125V40.125H490.607V43.125H494.607ZM494.607 40.125C494.607 34.7339 495.392 29.9971 496.919 25.8839L493.17 24.4911C491.447 29.1279 490.607 34.3494 490.607 40.125H494.607ZM496.916 25.8936C498.496 21.707 500.691 18.1731 503.487 15.2601L500.602 12.4899C497.398 15.8269 494.927 19.8347 493.173 24.4814L496.916 25.8936ZM503.487 15.2605C506.327 12.3035 509.668 10.0688 513.528 8.54832L512.062 4.82668C507.671 6.55616 503.845 9.11313 500.602 12.4895L503.487 15.2605ZM513.537 8.54445C517.442 6.98249 521.77 6.1875 526.545 6.1875V2.1875C521.319 2.1875 516.48 3.05918 512.052 4.83055L513.537 8.54445ZM526.545 6.1875C531.319 6.1875 535.624 6.98259 539.483 8.54186L540.981 4.83314C536.591 3.05908 531.77 2.1875 526.545 2.1875V6.1875ZM539.505 8.55081C543.407 10.0724 546.765 12.3071 549.602 15.2605L552.487 12.4895C549.24 9.10957 545.391 6.55264 540.959 4.82419L539.505 8.55081ZM549.611 15.27C552.442 18.1784 554.632 21.7036 556.168 25.8781L559.922 24.4969C558.207 19.838 555.73 15.8216 552.478 12.48L549.611 15.27ZM556.176 25.8995C557.741 30.008 558.545 34.7392 558.545 40.125H562.545C562.545 34.3441 561.682 29.117 559.914 24.4755L556.176 25.8995ZM544.482 43.125V40H540.482V43.125H544.482ZM544.482 40C544.482 36.3627 544.093 33.0906 543.282 30.2085L539.432 31.2915C540.121 33.7427 540.482 36.6373 540.482 40H544.482ZM543.292 30.2439C542.532 27.3388 541.393 24.8187 539.832 22.7375L536.632 25.1375C537.821 26.723 538.765 28.7445 539.422 31.2561L543.292 30.2439ZM539.862 22.7785C538.34 20.6379 536.414 18.9943 534.096 17.8839L532.368 21.4911C534.05 22.2974 535.458 23.4871 536.602 25.0965L539.862 22.7785ZM534.142 17.9063C531.865 16.7439 529.317 16.1875 526.545 16.1875V20.1875C528.772 20.1875 530.682 20.6311 532.323 21.4687L534.142 17.9063ZM526.545 16.1875C523.735 16.1875 521.151 16.7419 518.838 17.8986L520.626 21.4764C522.313 20.6331 524.271 20.1875 526.545 20.1875V16.1875ZM518.853 17.8911C516.578 19.0041 514.68 20.6473 513.165 22.7785L516.424 25.0965C517.576 23.4778 518.969 22.2876 520.611 21.4839L518.853 17.8911ZM513.177 22.7612C511.667 24.8374 510.554 27.3491 509.797 30.2439L513.667 31.2561C514.327 28.7342 515.255 26.7043 516.412 25.1138L513.177 22.7612ZM509.792 30.2649C509.076 33.1265 508.732 36.3786 508.732 40H512.732C512.732 36.6214 513.054 33.7068 513.672 31.2351L509.792 30.2649ZM508.732 40V43.125H512.732V40H508.732ZM508.732 43.125C508.732 46.7077 509.077 49.9562 509.79 52.853L513.674 51.897C513.054 49.3771 512.732 46.459 512.732 43.125H508.732ZM509.797 52.8811C510.556 55.7831 511.69 58.3292 513.232 60.4783L516.482 58.1467C515.274 56.4625 514.325 54.3835 513.667 51.8689L509.797 52.8811ZM513.244 60.4952C514.793 62.607 516.695 64.2562 518.948 65.4062L520.767 61.8438C519.102 60.9938 517.671 59.768 516.47 58.1298L513.244 60.4952ZM518.993 65.4286C521.299 66.5339 523.872 67.0625 526.67 67.0625V63.0625C524.383 63.0625 522.415 62.6328 520.721 61.8214L518.993 65.4286ZM526.67 67.0625C529.43 67.0625 531.967 66.5321 534.236 65.4214L532.478 61.8286C530.831 62.6346 528.91 63.0625 526.67 63.0625V67.0625ZM534.267 65.4062C536.525 64.253 538.414 62.5963 539.924 60.4715L536.665 58.1535C535.509 59.7787 534.106 60.997 532.448 61.8438L534.267 65.4062ZM539.92 60.4783C541.461 58.3292 542.595 55.7831 543.354 52.8811L539.485 51.8689C538.827 54.3835 537.878 56.4625 536.669 58.1467L539.92 60.4783ZM543.354 52.8811C544.115 49.9741 544.482 46.7158 544.482 43.125H540.482C540.482 46.4509 540.141 49.3592 539.485 51.8689L543.354 52.8811ZM626.02 58.5L624.113 57.8965L624.079 58.0018L624.058 58.1102L626.02 58.5ZM642.895 5.1875V3.1875H641.43L640.988 4.58395L642.895 5.1875ZM661.832 5.1875L663.711 5.87293L664.691 3.1875H661.832V5.1875ZM635.27 78V80H636.669L637.148 78.6854L635.27 78ZM622.145 78L620.183 77.6102L619.708 80H622.145V78ZM608.082 5.1875L609.991 4.59018L609.552 3.1875H608.082V5.1875ZM624.707 58.3125L626.663 57.8964L626.644 57.8047L626.616 57.7152L624.707 58.3125ZM628.895 78V80H631.365L630.851 77.5839L628.895 78ZM615.582 78L613.702 78.6826L614.18 80H615.582V78ZM589.145 5.1875V3.1875H586.291L587.265 5.87008L589.145 5.1875ZM627.926 59.1035L644.801 5.79105L640.988 4.58395L624.113 57.8965L627.926 59.1035ZM642.895 7.1875H661.832V3.1875H642.895V7.1875ZM659.953 4.50207L633.391 77.3146L637.148 78.6854L663.711 5.87293L659.953 4.50207ZM635.27 76H622.145V80H635.27V76ZM624.106 78.3898L627.981 58.8898L624.058 58.1102L620.183 77.6102L624.106 78.3898ZM606.173 5.78482L622.798 58.9098L626.616 57.7152L609.991 4.59018L606.173 5.78482ZM622.751 58.7286L626.938 78.4161L630.851 77.5839L626.663 57.8964L622.751 58.7286ZM628.895 76H615.582V80H628.895V76ZM617.462 77.3174L591.024 4.50492L587.265 5.87008L613.702 78.6826L617.462 77.3174ZM589.145 7.1875H608.082V3.1875H589.145V7.1875ZM724.807 24.125L726.689 24.8018L726.743 24.6516L726.773 24.4948L724.807 24.125ZM705.432 78V80H706.838L707.314 78.6768L705.432 78ZM687.245 78L685.384 77.2655L684.305 80H687.245V78ZM715.995 5.1875V3.1875H714.634L714.134 4.45298L715.995 5.1875ZM728.37 5.1875L730.335 5.55725L730.781 3.1875H728.37V5.1875ZM743.932 78L742.054 78.6884L742.535 80H743.932V78ZM724.182 24.125L722.218 24.501L722.248 24.6607L722.304 24.8134L724.182 24.125ZM720.557 5.1875V3.1875H718.138L718.593 5.56351L720.557 5.1875ZM733.12 5.1875L734.978 4.44884L734.477 3.1875H733.12V5.1875ZM762.057 78V80H765.004L763.916 77.2613L762.057 78ZM743.557 50.9375H745.557V48.9375H743.557V50.9375ZM743.557 63.75V65.75H745.557V63.75H743.557ZM703.307 63.75H701.307V65.75H703.307V63.75ZM703.307 50.9375V48.9375H701.307V50.9375H703.307ZM722.925 23.4482L703.55 77.3232L707.314 78.6768L726.689 24.8018L722.925 23.4482ZM705.432 76H687.245V80H705.432V76ZM689.105 78.7345L717.855 5.92202L714.134 4.45298L685.384 77.2655L689.105 78.7345ZM715.995 7.1875H728.37V3.1875H715.995V7.1875ZM726.404 4.81775L722.842 23.7552L726.773 24.4948L730.335 5.55725L726.404 4.81775ZM745.81 77.3116L726.06 23.4366L722.304 24.8134L742.054 78.6884L745.81 77.3116ZM726.146 23.749L722.521 4.81149L718.593 5.56351L722.218 24.501L726.146 23.749ZM720.557 7.1875H733.12V3.1875H720.557V7.1875ZM731.261 5.92616L760.198 78.7387L763.916 77.2613L734.978 4.44884L731.261 5.92616ZM762.057 76H743.932V80H762.057V76ZM741.557 50.9375V63.75H745.557V50.9375H741.557ZM743.557 61.75H703.307V65.75H743.557V61.75ZM705.307 63.75V50.9375H701.307V63.75H705.307ZM703.307 52.9375H743.557V48.9375H703.307V52.9375ZM827.095 5.1875H829.095V3.1875H827.095V5.1875ZM827.095 78V80H829.095V78H827.095ZM808.97 78H806.97V80H808.97V78ZM808.97 5.1875V3.1875H806.97V5.1875H808.97ZM850.782 5.1875H852.782V3.1875H850.782V5.1875ZM850.782 19.3125V21.3125H852.782V19.3125H850.782ZM785.782 19.3125H783.782V21.3125H785.782V19.3125ZM785.782 5.1875V3.1875H783.782V5.1875H785.782ZM825.095 5.1875V78H829.095V5.1875H825.095ZM827.095 76H808.97V80H827.095V76ZM810.97 78V5.1875H806.97V78H810.97ZM808.97 7.1875H827.095V3.1875H808.97V7.1875ZM848.782 5.1875V19.3125H852.782V5.1875H848.782ZM850.782 17.3125H785.782V21.3125H850.782V17.3125ZM787.782 19.3125V5.1875H783.782V19.3125H787.782ZM785.782 7.1875H850.782V3.1875H785.782V7.1875ZM938.32 63.9375H940.32V61.9375H938.32V63.9375ZM938.32 78V80H940.32V78H938.32ZM896.445 78H894.445V80H896.445V78ZM896.445 63.9375V61.9375H894.445V63.9375H896.445ZM902.82 5.1875H904.82V3.1875H902.82V5.1875ZM902.82 78V80H904.82V78H902.82ZM884.82 78H882.82V80H884.82V78ZM884.82 5.1875V3.1875H882.82V5.1875H884.82ZM932.945 33.3125H934.945V31.3125H932.945V33.3125ZM932.945 47.375V49.375H934.945V47.375H932.945ZM896.445 47.375H894.445V49.375H896.445V47.375ZM896.445 33.3125V31.3125H894.445V33.3125H896.445ZM938.382 5.1875H940.382V3.1875H938.382V5.1875ZM938.382 19.3125V21.3125H940.382V19.3125H938.382ZM896.445 19.3125H894.445V21.3125H896.445V19.3125ZM896.445 5.1875V3.1875H894.445V5.1875H896.445ZM936.32 63.9375V78H940.32V63.9375H936.32ZM938.32 76H896.445V80H938.32V76ZM898.445 78V63.9375H894.445V78H898.445ZM896.445 65.9375H938.32V61.9375H896.445V65.9375ZM900.82 5.1875V78H904.82V5.1875H900.82ZM902.82 76H884.82V80H902.82V76ZM886.82 78V5.1875H882.82V78H886.82ZM884.82 7.1875H902.82V3.1875H884.82V7.1875ZM930.945 33.3125V47.375H934.945V33.3125H930.945ZM932.945 45.375H896.445V49.375H932.945V45.375ZM898.445 47.375V33.3125H894.445V47.375H898.445ZM896.445 35.3125H932.945V31.3125H896.445V35.3125ZM936.382 5.1875V19.3125H940.382V5.1875H936.382ZM938.382 17.3125H896.445V21.3125H938.382V17.3125ZM898.445 19.3125V5.1875H894.445V19.3125H898.445ZM896.445 7.1875H938.382V3.1875H896.445V7.1875Z" fill="white"/>
</g>
<defs>
<filter id="filter0_f_1_4" x="0.857056" y="0.125" width="941.525" height="82.875" filterUnits="userSpaceOnUse" color-interpolation-filters="sRGB">
<feFlood flood-opacity="0" result="BackgroundImageFix"/>
<feBlend mode="normal" in="SourceGraphic" in2="BackgroundImageFix" result="shape"/>
<feGaussianBlur stdDeviation="2" result="effect1_foregroundBlur_1_4"/>
</filter>
</defs>
</svg>
