<svg width="1440" height="69" viewBox="0 0 1440 69" fill="none" xmlns="http://www.w3.org/2000/svg">
<g filter="url(#filter0_d_1_432)">
<path d="M598.927 46.7305H588.136L588.07 40.4551H597.632C598.96 40.4551 600.056 40.3001 600.919 39.9902C601.782 39.6582 602.424 39.1823 602.845 38.5625C603.266 37.9427 603.476 37.168 603.476 36.2383C603.476 35.1758 603.266 34.3236 602.845 33.6816C602.447 33.0176 601.816 32.5417 600.952 32.2539C600.111 31.9661 599.049 31.8223 597.765 31.8223H591.689V63H582.126V24.3184H597.001C599.525 24.3184 601.771 24.5397 603.741 24.9824C605.734 25.403 607.427 26.056 608.822 26.9414C610.216 27.8268 611.279 28.9447 612.009 30.2949C612.74 31.623 613.105 33.1836 613.105 34.9766C613.105 36.5482 612.728 38.0423 611.976 39.459C611.245 40.8757 610.039 42.0156 608.357 42.8789C606.697 43.7422 604.45 44.1738 601.616 44.1738L598.927 46.7305ZM598.495 63H585.779L589.132 55.5293H598.495C599.912 55.5293 601.052 55.3411 601.915 54.9648C602.779 54.5664 603.409 54.0462 603.808 53.4043C604.206 52.7402 604.406 52.0319 604.406 51.2793C604.406 50.3496 604.217 49.5527 603.841 48.8887C603.487 48.2025 602.9 47.6712 602.081 47.2949C601.284 46.9186 600.233 46.7305 598.927 46.7305H590.56L590.593 40.4551H600.687L602.911 43.0117C605.656 42.8346 607.837 43.1999 609.452 44.1074C611.068 44.9928 612.219 46.1549 612.906 47.5938C613.614 49.0104 613.968 50.4492 613.968 51.9102C613.968 53.8138 613.636 55.4629 612.972 56.8574C612.308 58.252 611.323 59.403 610.017 60.3105C608.711 61.2181 607.095 61.8932 605.169 62.3359C603.243 62.7786 601.019 63 598.495 63ZM625.185 24.3184H641.355C643.746 24.3184 645.904 24.5729 647.83 25.082C649.756 25.569 651.394 26.2995 652.744 27.2734C654.116 28.2474 655.168 29.4648 655.898 30.9258C656.629 32.3646 656.994 34.0358 656.994 35.9395C656.994 38.1973 656.618 40.0788 655.865 41.584C655.112 43.0892 654.072 44.3177 652.744 45.2695C651.416 46.2214 649.877 47.0182 648.129 47.6602L644.941 49.5195H631.195L631.129 42.0488H641.422C642.75 42.0488 643.857 41.8496 644.742 41.4512C645.627 41.0306 646.291 40.4329 646.734 39.6582C647.177 38.8835 647.398 37.9648 647.398 36.9023C647.398 35.8177 647.166 34.8991 646.701 34.1465C646.236 33.3939 645.55 32.8184 644.642 32.4199C643.757 32.0215 642.661 31.8223 641.355 31.8223H634.781V63H625.185V24.3184ZM648.129 63L638.865 45.9336L649.025 45.834L658.455 62.6016V63H648.129ZM685.344 34.3789L675.051 63H665.389L680.662 24.3184H687.237L685.344 34.3789ZM695.504 63L685.012 34.3789L683.086 24.3184H689.76L705.133 63H695.504ZM695.305 48.623V55.4297H673.922V48.623H695.305ZM748.392 24.3184V63H738.796L723.489 38.3633V63H713.927V24.3184H723.489L738.796 48.9551V24.3184H748.392ZM770.699 24.3184V63H761.103V24.3184H770.699ZM800.012 34.3789L789.719 63H780.057L795.33 24.3184H801.904L800.012 34.3789ZM810.172 63L799.68 34.3789L797.754 24.3184H804.428L819.801 63H810.172ZM809.973 48.623V55.4297H788.59V48.623H809.973ZM851.903 49.8184H861.499C861.344 52.5632 860.558 54.9648 859.141 57.0234C857.725 59.082 855.766 60.6868 853.264 61.8379C850.763 62.9668 847.819 63.5312 844.432 63.5312C841.665 63.5312 839.197 63.0996 837.028 62.2363C834.881 61.373 833.055 60.1224 831.549 58.4844C830.044 56.8464 828.893 54.8652 828.096 52.541C827.322 50.2168 826.934 47.5827 826.934 44.6387V42.7129C826.934 39.7689 827.344 37.1348 828.163 34.8105C828.982 32.4642 830.155 30.472 831.682 28.834C833.21 27.196 835.036 25.9453 837.161 25.082C839.286 24.1966 841.665 23.7539 844.299 23.7539C847.885 23.7539 850.907 24.3626 853.364 25.5801C855.843 26.7975 857.758 28.4688 859.108 30.5938C860.48 32.6966 861.288 35.0983 861.532 37.7988H851.969C851.903 36.5592 851.615 35.4525 851.106 34.4785C850.597 33.4824 849.789 32.6966 848.682 32.1211C847.598 31.5456 846.137 31.2578 844.299 31.2578C843.016 31.2578 841.887 31.4902 840.913 31.9551C839.939 32.4199 839.12 33.1283 838.456 34.0801C837.814 35.0319 837.327 36.2272 836.995 37.666C836.663 39.0827 836.497 40.7539 836.497 42.6797V44.6387C836.497 46.5866 836.641 48.2799 836.928 49.7188C837.238 51.1576 837.714 52.3529 838.356 53.3047C838.998 54.2344 839.817 54.9316 840.813 55.3965C841.831 55.8613 843.038 56.0938 844.432 56.0938C846.026 56.0938 847.365 55.8724 848.45 55.4297C849.534 54.9648 850.365 54.2676 850.94 53.3379C851.516 52.4082 851.837 51.235 851.903 49.8184Z" fill="white"/>
<path d="M598.927 46.7305V48.7305H599.726L600.305 48.18L598.927 46.7305ZM588.136 46.7305L586.136 46.7516L586.157 48.7305H588.136V46.7305ZM588.07 40.4551V38.4551H586.048L586.07 40.4762L588.07 40.4551ZM600.919 39.9902L601.595 41.8726L601.616 41.865L601.637 41.8569L600.919 39.9902ZM602.845 33.6816L601.13 34.7106L601.15 34.7446L601.172 34.7777L602.845 33.6816ZM600.952 32.2539L600.305 34.1462L600.312 34.1488L600.32 34.1513L600.952 32.2539ZM591.689 31.8223V29.8223H589.689V31.8223H591.689ZM591.689 63V65H593.689V63H591.689ZM582.126 63H580.126V65H582.126V63ZM582.126 24.3184V22.3184H580.126V24.3184H582.126ZM603.741 24.9824L603.303 26.9338L603.316 26.9366L603.328 26.9393L603.741 24.9824ZM612.009 30.2949L610.25 31.2466L610.257 31.2588L612.009 30.2949ZM611.976 39.459L610.21 38.5207L610.204 38.5315L610.198 38.5424L611.976 39.459ZM608.357 42.8789L607.444 41.0995L607.434 41.1045L608.357 42.8789ZM601.616 44.1738V42.1738H600.818L600.238 42.7243L601.616 44.1738ZM585.779 63L583.954 62.181L582.689 65H585.779V63ZM589.132 55.5293V53.5293H587.838L587.307 54.7103L589.132 55.5293ZM601.915 54.9648L602.714 56.7982L602.734 56.7897L602.753 56.7808L601.915 54.9648ZM603.808 53.4043L605.507 54.459L605.515 54.4462L605.523 54.4333L603.808 53.4043ZM603.841 48.8887L602.064 49.806L602.082 49.8407L602.101 49.8747L603.841 48.8887ZM602.081 47.2949L601.227 49.1034L601.237 49.1079L601.246 49.1123L602.081 47.2949ZM590.56 46.7305L588.56 46.7199L588.549 48.7305H590.56V46.7305ZM590.593 40.4551V38.4551H588.604L588.593 40.4445L590.593 40.4551ZM600.687 40.4551L602.196 39.1422L601.598 38.4551H600.687V40.4551ZM602.911 43.0117L601.403 44.3246L602.052 45.0713L603.04 45.0076L602.911 43.0117ZM609.452 44.1074L608.473 45.8512L608.482 45.8563L608.491 45.8614L609.452 44.1074ZM612.906 47.5938L611.1 48.4547L611.108 48.4715L611.117 48.4882L612.906 47.5938ZM598.927 44.7305H588.136V48.7305H598.927V44.7305ZM590.136 46.7093L590.069 40.4339L586.07 40.4762L586.136 46.7516L590.136 46.7093ZM588.07 42.4551H597.632V38.4551H588.07V42.4551ZM597.632 42.4551C599.096 42.4551 600.441 42.2868 601.595 41.8726L600.243 38.1078C599.671 38.3135 598.824 38.4551 597.632 38.4551V42.4551ZM601.637 41.8569C602.791 41.4132 603.801 40.7151 604.5 39.6855L601.19 37.4395C601.048 37.6495 600.774 37.9032 600.201 38.1235L601.637 41.8569ZM604.5 39.6855C605.194 38.6622 605.476 37.4712 605.476 36.2383H601.476C601.476 36.8647 601.337 37.2232 601.19 37.4395L604.5 39.6855ZM605.476 36.2383C605.476 34.9309 605.219 33.6561 604.518 32.5856L601.172 34.7777C601.312 34.991 601.476 35.4207 601.476 36.2383H605.476ZM604.56 32.6526C603.874 31.5096 602.818 30.7674 601.585 30.3565L600.32 34.1513C600.814 34.3159 601.019 34.5256 601.13 34.7106L604.56 32.6526ZM601.6 30.3616C600.48 29.9785 599.18 29.8223 597.765 29.8223V33.8223C598.918 33.8223 599.743 33.9538 600.305 34.1462L601.6 30.3616ZM597.765 29.8223H591.689V33.8223H597.765V29.8223ZM589.689 31.8223V63H593.689V31.8223H589.689ZM591.689 61H582.126V65H591.689V61ZM584.126 63V24.3184H580.126V63H584.126ZM582.126 26.3184H597.001V22.3184H582.126V26.3184ZM597.001 26.3184C599.412 26.3184 601.507 26.5302 603.303 26.9338L604.18 23.0311C602.036 22.5492 599.637 22.3184 597.001 22.3184V26.3184ZM603.328 26.9393C605.139 27.3216 606.598 27.8985 607.75 28.6298L609.894 25.253C608.256 24.2135 606.328 23.4844 604.155 23.0256L603.328 26.9393ZM607.75 28.6298C608.878 29.3466 609.694 30.2192 610.25 31.2466L613.768 29.3433C612.863 27.6702 611.554 26.307 609.894 25.253L607.75 28.6298ZM610.257 31.2588C610.797 32.2419 611.105 33.4589 611.105 34.9766H615.105C615.105 32.9083 614.682 31.0042 613.761 29.3311L610.257 31.2588ZM611.105 34.9766C611.105 36.214 610.812 37.3867 610.21 38.5207L613.742 40.3973C614.645 38.6979 615.105 36.8823 615.105 34.9766H611.105ZM610.198 38.5424C609.692 39.5233 608.826 40.3902 607.444 41.0995L609.27 44.6583C611.252 43.641 612.798 42.228 613.753 40.3756L610.198 38.5424ZM607.434 41.1045C606.168 41.7628 604.28 42.1738 601.616 42.1738V46.1738C604.62 46.1738 607.225 45.7216 609.279 44.6533L607.434 41.1045ZM600.238 42.7243L597.549 45.2809L600.305 48.18L602.994 45.6234L600.238 42.7243ZM598.495 61H585.779V65H598.495V61ZM587.603 63.819L590.957 56.3483L587.307 54.7103L583.954 62.181L587.603 63.819ZM589.132 57.5293H598.495V53.5293H589.132V57.5293ZM598.495 57.5293C600.061 57.5293 601.505 57.3255 602.714 56.7982L601.116 53.1315C600.599 53.3568 599.763 53.5293 598.495 53.5293V57.5293ZM602.753 56.7808C603.88 56.2606 604.855 55.51 605.507 54.459L602.109 52.3496C601.964 52.5825 601.677 52.8722 601.077 53.1489L602.753 56.7808ZM605.523 54.4333C606.102 53.4679 606.406 52.4053 606.406 51.2793H602.406C602.406 51.6585 602.31 52.0126 602.093 52.3753L605.523 54.4333ZM606.406 51.2793C606.406 50.0789 606.161 48.9265 605.581 47.9026L602.101 49.8747C602.273 50.179 602.406 50.6203 602.406 51.2793H606.406ZM605.618 47.9714C605.026 46.8244 604.07 46.0078 602.916 45.4776L601.246 49.1123C601.73 49.3347 601.948 49.5806 602.064 49.806L605.618 47.9714ZM602.935 45.4864C601.774 44.9382 600.398 44.7305 598.927 44.7305V48.7305C600.068 48.7305 600.795 48.8991 601.227 49.1034L602.935 45.4864ZM598.927 44.7305H590.56V48.7305H598.927V44.7305ZM592.56 46.7411L592.593 40.4657L588.593 40.4445L588.56 46.7199L592.56 46.7411ZM590.593 42.4551H600.687V38.4551H590.593V42.4551ZM599.178 41.7679L601.403 44.3246L604.42 41.6989L602.196 39.1422L599.178 41.7679ZM603.04 45.0076C605.575 44.8441 607.321 45.2039 608.473 45.8512L610.432 42.3636C608.352 41.1958 605.738 40.8252 602.783 41.0159L603.04 45.0076ZM608.491 45.8614C609.799 46.5776 610.622 47.4517 611.1 48.4547L614.711 46.7328C613.817 44.8582 612.338 43.408 610.413 42.3535L608.491 45.8614ZM611.117 48.4882C611.698 49.651 611.968 50.7853 611.968 51.9102H615.968C615.968 50.1131 615.53 48.3699 614.694 46.6993L611.117 48.4882ZM611.968 51.9102C611.968 53.584 611.676 54.9267 611.166 55.9976L614.778 57.7173C615.596 55.9991 615.968 54.0437 615.968 51.9102H611.968ZM611.166 55.9976C610.656 57.0683 609.905 57.9531 608.876 58.6682L611.158 61.9529C612.741 60.8529 613.959 59.4356 614.778 57.7173L611.166 55.9976ZM608.876 58.6682C607.823 59.3996 606.457 59.9878 604.721 60.3868L605.617 64.2851C607.733 63.7986 609.599 63.0366 611.158 61.9529L608.876 58.6682ZM604.721 60.3868C602.976 60.7879 600.907 61 598.495 61V65C601.13 65 603.511 64.7694 605.617 64.2851L604.721 60.3868ZM625.185 24.3184V22.3184H623.185V24.3184H625.185ZM647.83 25.082L647.319 27.0156L647.329 27.0184L647.34 27.021L647.83 25.082ZM652.744 27.2734L651.574 28.8955L651.58 28.9L651.586 28.9045L652.744 27.2734ZM655.898 30.9258L654.109 31.8202L654.115 31.8312L655.898 30.9258ZM655.865 41.584L654.076 40.6896L655.865 41.584ZM652.744 45.2695L651.579 43.6439L652.744 45.2695ZM648.129 47.6602L647.44 45.7827L647.274 45.8436L647.121 45.9326L648.129 47.6602ZM644.941 49.5195V51.5195H645.482L645.949 51.2471L644.941 49.5195ZM631.195 49.5195L629.195 49.5373L629.213 51.5195H631.195V49.5195ZM631.129 42.0488V40.0488H629.111L629.129 42.0666L631.129 42.0488ZM644.742 41.4512L645.563 43.275L645.582 43.2666L645.6 43.2577L644.742 41.4512ZM644.642 32.4199L643.822 34.2438L643.83 34.2475L643.838 34.2512L644.642 32.4199ZM634.781 31.8223V29.8223H632.781V31.8223H634.781ZM634.781 63V65H636.781V63H634.781ZM625.185 63H623.185V65H625.185V63ZM648.129 63L646.371 63.9541L646.939 65H648.129V63ZM638.865 45.9336L638.845 43.9337L635.522 43.9663L637.107 46.8877L638.865 45.9336ZM649.025 45.834L650.768 44.8536L650.189 43.8225L649.006 43.8341L649.025 45.834ZM658.455 62.6016H660.455V62.0778L660.198 61.6212L658.455 62.6016ZM658.455 63V65H660.455V63H658.455ZM625.185 26.3184H641.355V22.3184H625.185V26.3184ZM641.355 26.3184C643.607 26.3184 645.589 26.5583 647.319 27.0156L648.341 23.1485C646.219 22.5875 643.885 22.3184 641.355 22.3184V26.3184ZM647.34 27.021C649.067 27.4578 650.464 28.0946 651.574 28.8955L653.914 25.6514C652.324 24.5044 650.444 23.6802 648.32 23.1431L647.34 27.021ZM651.586 28.9045C652.7 29.6944 653.53 30.662 654.109 31.8202L657.687 30.0314C656.805 28.2677 655.533 26.8004 653.901 25.6424L651.586 28.9045ZM654.115 31.8312C654.679 32.9432 654.994 34.2941 654.994 35.9395H658.994C658.994 33.7775 658.578 31.786 657.682 30.0204L654.115 31.8312ZM654.994 35.9395C654.994 37.988 654.651 39.5403 654.076 40.6896L657.654 42.4784C658.584 40.6173 658.994 38.4066 658.994 35.9395H654.994ZM654.076 40.6896C653.464 41.913 652.635 42.8873 651.579 43.6439L653.909 46.8952C655.509 45.7481 656.76 44.2654 657.654 42.4784L654.076 40.6896ZM651.579 43.6439C650.416 44.4772 649.042 45.1943 647.44 45.7827L648.818 49.5377C650.713 48.8421 652.416 47.9655 653.909 46.8952L651.579 43.6439ZM647.121 45.9326L643.933 47.792L645.949 51.2471L649.136 49.3877L647.121 45.9326ZM644.941 47.5195H631.195V51.5195H644.941V47.5195ZM633.195 49.5018L633.129 42.0311L629.129 42.0666L629.195 49.5373L633.195 49.5018ZM631.129 44.0488H641.422V40.0488H631.129V44.0488ZM641.422 44.0488C642.935 44.0488 644.343 43.824 645.563 43.275L643.921 39.6273C643.37 39.8752 642.565 40.0488 641.422 40.0488V44.0488ZM645.6 43.2577C646.817 42.6799 647.805 41.8149 648.471 40.6505L644.998 38.6659C644.778 39.051 644.438 39.3813 643.884 39.6446L645.6 43.2577ZM648.471 40.6505C649.116 39.5206 649.398 38.2463 649.398 36.9023H645.398C645.398 37.6833 645.237 38.2463 644.998 38.6659L648.471 40.6505ZM649.398 36.9023C649.398 35.5305 649.102 34.2285 648.403 33.0955L644.999 35.1975C645.229 35.5697 645.398 36.105 645.398 36.9023H649.398ZM648.403 33.0955C647.699 31.9569 646.679 31.1297 645.446 30.5886L643.838 34.2512C644.421 34.507 644.773 34.8308 644.999 35.1975L648.403 33.0955ZM645.463 30.5961C644.247 30.0488 642.852 29.8223 641.355 29.8223V33.8223C642.471 33.8223 643.267 33.9942 643.822 34.2438L645.463 30.5961ZM641.355 29.8223H634.781V33.8223H641.355V29.8223ZM632.781 31.8223V63H636.781V31.8223H632.781ZM634.781 61H625.185V65H634.781V61ZM627.185 63V24.3184H623.185V63H627.185ZM649.886 62.0459L640.623 44.9795L637.107 46.8877L646.371 63.9541L649.886 62.0459ZM638.885 47.9335L649.045 47.8339L649.006 43.8341L638.845 43.9337L638.885 47.9335ZM647.282 46.8143L656.712 63.5819L660.198 61.6212L650.768 44.8536L647.282 46.8143ZM656.455 62.6016V63H660.455V62.6016H656.455ZM658.455 61H648.129V65H658.455V61ZM685.344 34.3789L687.226 35.0557L687.28 34.9055L687.31 34.7487L685.344 34.3789ZM675.051 63V65H676.457L676.933 63.6768L675.051 63ZM665.389 63L663.529 62.2655L662.449 65H665.389V63ZM680.662 24.3184V22.3184H679.302L678.802 23.5838L680.662 24.3184ZM687.237 24.3184L689.202 24.6881L689.648 22.3184H687.237V24.3184ZM695.504 63L693.626 63.6884L694.107 65H695.504V63ZM685.012 34.3789L683.048 34.7549L683.078 34.9146L683.134 35.0673L685.012 34.3789ZM683.086 24.3184V22.3184H680.667L681.122 24.6944L683.086 24.3184ZM689.76 24.3184L691.619 23.5797L691.117 22.3184H689.76V24.3184ZM705.133 63V65H708.08L706.992 62.2613L705.133 63ZM695.305 48.623H697.305V46.623H695.305V48.623ZM695.305 55.4297V57.4297H697.305V55.4297H695.305ZM673.922 55.4297H671.922V57.4297H673.922V55.4297ZM673.922 48.623V46.623H671.922V48.623H673.922ZM683.462 33.7021L673.169 62.3232L676.933 63.6768L687.226 35.0557L683.462 33.7021ZM675.051 61H665.389V65H675.051V61ZM667.249 63.7345L682.523 25.0529L678.802 23.5838L663.529 62.2655L667.249 63.7345ZM680.662 26.3184H687.237V22.3184H680.662V26.3184ZM685.271 23.9486L683.379 34.0092L687.31 34.7487L689.202 24.6881L685.271 23.9486ZM697.382 62.3116L686.89 33.6905L683.134 35.0673L693.626 63.6884L697.382 62.3116ZM686.976 34.0029L685.051 23.9423L681.122 24.6944L683.048 34.7549L686.976 34.0029ZM683.086 26.3184H689.76V22.3184H683.086V26.3184ZM687.902 25.057L703.275 63.7387L706.992 62.2613L691.619 23.5797L687.902 25.057ZM705.133 61H695.504V65H705.133V61ZM693.305 48.623V55.4297H697.305V48.623H693.305ZM695.305 53.4297H673.922V57.4297H695.305V53.4297ZM675.922 55.4297V48.623H671.922V55.4297H675.922ZM673.922 50.623H695.305V46.623H673.922V50.623ZM748.392 24.3184H750.392V22.3184H748.392V24.3184ZM748.392 63V65H750.392V63H748.392ZM738.796 63L737.097 64.0555L737.684 65H738.796V63ZM723.489 38.3633L725.188 37.3078L721.489 31.3544V38.3633H723.489ZM723.489 63V65H725.489V63H723.489ZM713.927 63H711.927V65H713.927V63ZM713.927 24.3184V22.3184H711.927V24.3184H713.927ZM723.489 24.3184L725.188 23.2629L724.601 22.3184H723.489V24.3184ZM738.796 48.9551L737.097 50.0105L740.796 55.964V48.9551H738.796ZM738.796 24.3184V22.3184H736.796V24.3184H738.796ZM746.392 24.3184V63H750.392V24.3184H746.392ZM748.392 61H738.796V65H748.392V61ZM740.495 61.9445L725.188 37.3078L721.79 39.4187L737.097 64.0555L740.495 61.9445ZM721.489 38.3633V63H725.489V38.3633H721.489ZM723.489 61H713.927V65H723.489V61ZM715.927 63V24.3184H711.927V63H715.927ZM713.927 26.3184H723.489V22.3184H713.927V26.3184ZM721.79 25.3738L737.097 50.0105L740.495 47.8996L725.188 23.2629L721.79 25.3738ZM740.796 48.9551V24.3184H736.796V48.9551H740.796ZM738.796 26.3184H748.392V22.3184H738.796V26.3184ZM770.699 24.3184H772.699V22.3184H770.699V24.3184ZM770.699 63V65H772.699V63H770.699ZM761.103 63H759.103V65H761.103V63ZM761.103 24.3184V22.3184H759.103V24.3184H761.103ZM768.699 24.3184V63H772.699V24.3184H768.699ZM770.699 61H761.103V65H770.699V61ZM763.103 63V24.3184H759.103V63H763.103ZM761.103 26.3184H770.699V22.3184H761.103V26.3184ZM800.012 34.3789L801.894 35.0557L801.948 34.9055L801.977 34.7487L800.012 34.3789ZM789.719 63V65H791.125L791.601 63.6768L789.719 63ZM780.057 63L778.196 62.2655L777.117 65H780.057V63ZM795.33 24.3184V22.3184H793.97L793.47 23.5838L795.33 24.3184ZM801.904 24.3184L803.87 24.6881L804.316 22.3184H801.904V24.3184ZM810.172 63L808.294 63.6884L808.775 65H810.172V63ZM799.68 34.3789L797.715 34.7549L797.746 34.9146L797.802 35.0673L799.68 34.3789ZM797.754 24.3184V22.3184H795.335L795.79 24.6944L797.754 24.3184ZM804.428 24.3184L806.286 23.5797L805.785 22.3184H804.428V24.3184ZM819.801 63V65H822.748L821.659 62.2613L819.801 63ZM809.973 48.623H811.973V46.623H809.973V48.623ZM809.973 55.4297V57.4297H811.973V55.4297H809.973ZM788.59 55.4297H786.59V57.4297H788.59V55.4297ZM788.59 48.623V46.623H786.59V48.623H788.59ZM798.13 33.7021L787.837 62.3232L791.601 63.6768L801.894 35.0557L798.13 33.7021ZM789.719 61H780.057V65H789.719V61ZM781.917 63.7345L797.19 25.0529L793.47 23.5838L778.196 62.2655L781.917 63.7345ZM795.33 26.3184H801.904V22.3184H795.33V26.3184ZM799.939 23.9486L798.046 34.0092L801.977 34.7487L803.87 24.6881L799.939 23.9486ZM812.05 62.3116L801.558 33.6905L797.802 35.0673L808.294 63.6884L812.05 62.3116ZM801.644 34.0029L799.718 23.9423L795.79 24.6944L797.715 34.7549L801.644 34.0029ZM797.754 26.3184H804.428V22.3184H797.754V26.3184ZM802.569 25.057L817.942 63.7387L821.659 62.2613L806.286 23.5797L802.569 25.057ZM819.801 61H810.172V65H819.801V61ZM807.973 48.623V55.4297H811.973V48.623H807.973ZM809.973 53.4297H788.59V57.4297H809.973V53.4297ZM790.59 55.4297V48.623H786.59V55.4297H790.59ZM788.59 50.623H809.973V46.623H788.59V50.623ZM851.903 49.8184V47.8184H849.995L849.905 49.7247L851.903 49.8184ZM861.499 49.8184L863.495 49.9311L863.615 47.8184H861.499V49.8184ZM859.141 57.0234L857.494 55.8896L859.141 57.0234ZM853.264 61.8379L854.087 63.6608L854.094 63.6578L854.1 63.6548L853.264 61.8379ZM837.028 62.2363L836.282 64.092L836.288 64.0946L837.028 62.2363ZM828.096 52.541L826.199 53.1735L826.202 53.1816L826.204 53.1897L828.096 52.541ZM828.163 34.8105L830.049 35.4753L830.051 35.4697L828.163 34.8105ZM831.682 28.834L830.219 27.4701L831.682 28.834ZM837.161 25.082L837.914 26.935L837.922 26.9316L837.93 26.9282L837.161 25.082ZM853.364 25.5801L852.476 27.3722L852.482 27.3753L853.364 25.5801ZM859.108 30.5938L857.42 31.6664L857.427 31.6766L857.433 31.6868L859.108 30.5938ZM861.532 37.7988V39.7988H863.72L863.524 37.6192L861.532 37.7988ZM851.969 37.7988L849.972 37.9058L850.074 39.7988H851.969V37.7988ZM851.106 34.4785L849.325 35.3887L849.329 35.3969L849.334 35.405L851.106 34.4785ZM848.682 32.1211L847.745 33.8878L847.752 33.8917L847.76 33.8955L848.682 32.1211ZM840.913 31.9551L840.051 30.1501L840.913 31.9551ZM838.456 34.0801L836.815 32.9357L836.806 32.9487L836.798 32.9618L838.456 34.0801ZM836.995 37.666L838.942 38.1224L838.944 38.1157L836.995 37.666ZM836.928 49.7188L834.967 50.111L834.97 50.1254L834.973 50.1399L836.928 49.7188ZM838.356 53.3047L836.698 54.423L836.704 54.4321L836.71 54.4411L838.356 53.3047ZM840.813 55.3965L839.967 57.2089L839.975 57.2124L839.983 57.2159L840.813 55.3965ZM848.45 55.4297L849.206 57.2814L849.222 57.2748L849.238 57.268L848.45 55.4297ZM851.903 51.8184H861.499V47.8184H851.903V51.8184ZM859.502 49.7056C859.365 52.1223 858.682 54.1627 857.494 55.8896L860.789 58.1572C862.434 55.767 863.322 53.004 863.495 49.9311L859.502 49.7056ZM857.494 55.8896C856.301 57.622 854.637 59.0047 852.428 60.021L854.1 63.6548C856.894 62.369 859.148 60.542 860.789 58.1572L857.494 55.8896ZM852.442 60.015C850.252 61.0032 847.6 61.5312 844.432 61.5312V65.5312C848.038 65.5312 851.274 64.9304 854.087 63.6608L852.442 60.015ZM844.432 61.5312C841.873 61.5312 839.662 61.1321 837.767 60.3781L836.288 64.0946C838.732 65.0671 841.458 65.5312 844.432 65.5312V61.5312ZM837.774 60.3807C835.892 59.624 834.317 58.5407 833.022 57.1311L830.077 59.8376C831.792 61.7041 833.87 63.1221 836.282 64.092L837.774 60.3807ZM833.022 57.1311C831.722 55.7168 830.705 53.9827 829.988 51.8924L826.204 53.1897C827.081 55.7477 828.366 57.9759 830.077 59.8376L833.022 57.1311ZM829.994 51.9086C829.299 49.8246 828.934 47.4097 828.934 44.6387H824.934C824.934 47.7557 825.344 50.609 826.199 53.1735L829.994 51.9086ZM828.934 44.6387V42.7129H824.934V44.6387H828.934ZM828.934 42.7129C828.934 39.9524 829.318 37.5489 830.049 35.4752L826.276 34.1458C825.369 36.7206 824.934 39.5853 824.934 42.7129H828.934ZM830.051 35.4697C830.789 33.3564 831.827 31.6118 833.145 30.1979L830.219 27.4701C828.483 29.3322 827.175 31.572 826.274 34.1514L830.051 35.4697ZM833.145 30.1979C834.469 28.7778 836.051 27.6915 837.914 26.935L836.408 23.2291C834.02 24.1991 831.95 25.6141 830.219 27.4701L833.145 30.1979ZM837.93 26.9282C839.779 26.1579 841.892 25.7539 844.299 25.7539V21.7539C841.439 21.7539 838.793 22.2353 836.392 23.2359L837.93 26.9282ZM844.299 25.7539C847.668 25.7539 850.366 26.3269 852.476 27.3722L854.252 23.788C851.447 22.3984 848.102 21.7539 844.299 21.7539V25.7539ZM852.482 27.3753C854.664 28.4469 856.286 29.8815 857.42 31.6664L860.796 29.5211C859.23 27.056 857.022 25.1482 854.245 23.7849L852.482 27.3753ZM857.433 31.6868C858.613 33.4941 859.323 35.5771 859.54 37.9784L863.524 37.6192C863.253 34.6195 862.348 31.8991 860.783 29.5007L857.433 31.6868ZM861.532 35.7988H851.969V39.7988H861.532V35.7988ZM853.966 37.6918C853.887 36.2033 853.537 34.8109 852.879 33.552L849.334 35.405C849.694 36.0941 849.919 36.9152 849.972 37.9058L853.966 37.6918ZM852.887 33.5683C852.167 32.1597 851.036 31.0909 849.605 30.3467L847.76 33.8955C848.542 34.3023 849.027 34.8051 849.325 35.3887L852.887 33.5683ZM849.62 30.3544C848.138 29.5683 846.314 29.2578 844.299 29.2578V33.2578C845.959 33.2578 847.057 33.5228 847.745 33.8878L849.62 30.3544ZM844.299 29.2578C842.773 29.2578 841.341 29.5348 840.051 30.1501L841.774 33.76C842.433 33.4457 843.258 33.2578 844.299 33.2578V29.2578ZM840.051 30.1501C838.741 30.7752 837.662 31.7221 836.815 32.9357L840.096 35.2244C840.577 34.5344 841.136 34.0646 841.774 33.76L840.051 30.1501ZM836.798 32.9618C835.986 34.1657 835.418 35.6039 835.046 37.2163L838.944 38.1157C839.236 36.8506 839.642 35.8981 840.114 35.1984L836.798 32.9618ZM835.048 37.2096C834.671 38.815 834.497 40.6465 834.497 42.6797H838.497C838.497 40.8613 838.654 39.3503 838.942 38.1224L835.048 37.2096ZM834.497 42.6797V44.6387H838.497V42.6797H834.497ZM834.497 44.6387C834.497 46.6783 834.647 48.509 834.967 50.111L838.889 49.3265C838.634 48.0509 838.497 46.4949 838.497 44.6387H834.497ZM834.973 50.1399C835.322 51.7607 835.88 53.2095 836.698 54.423L840.014 52.1864C839.549 51.4963 839.154 50.5544 838.884 49.2976L834.973 50.1399ZM836.71 54.4411C837.548 55.6546 838.64 56.5894 839.967 57.2089L841.659 53.5841C840.994 53.2738 840.448 52.8141 840.002 52.1683L836.71 54.4411ZM839.983 57.2159C841.317 57.8252 842.82 58.0938 844.432 58.0938V54.0938C843.256 54.0938 842.345 53.8974 841.644 53.5771L839.983 57.2159ZM844.432 58.0938C846.198 58.0938 847.811 57.8504 849.206 57.2814L847.694 53.578C846.919 53.8944 845.854 54.0938 844.432 54.0938V58.0938ZM849.238 57.268C850.669 56.6548 851.831 55.6978 852.641 54.3906L849.24 52.2852C848.898 52.8374 848.4 53.2749 847.662 53.5914L849.238 57.268ZM852.641 54.3906C853.441 53.0983 853.823 51.5702 853.901 49.912L849.905 49.7247C849.85 50.8998 849.591 51.7181 849.24 52.2852L852.641 54.3906Z" fill="#08E8E1"/>
</g>
<line x1="500.001" y1="34" x2="0.00204474" y2="35.004" stroke="#F9FAFC" stroke-width="2"/>
<line x1="1440" y1="35" x2="939.998" y2="33.8399" stroke="#F9FAFC" stroke-width="2"/>
<defs>
<filter id="filter0_d_1_432" x="579.126" y="20.7539" width="287.406" height="47.7773" filterUnits="userSpaceOnUse" color-interpolation-filters="sRGB">
<feFlood flood-opacity="0" result="BackgroundImageFix"/>
<feColorMatrix in="SourceAlpha" type="matrix" values="0 0 0 0 0 0 0 0 0 0 0 0 0 0 0 0 0 0 127 0" result="hardAlpha"/>
<feOffset dx="1" dy="1"/>
<feGaussianBlur stdDeviation="2"/>
<feComposite in2="hardAlpha" operator="out"/>
<feColorMatrix type="matrix" values="0 0 0 0 0.0313726 0 0 0 0 0.909804 0 0 0 0 0.882353 0 0 0 1 0"/>
<feBlend mode="normal" in2="BackgroundImageFix" result="effect1_dropShadow_1_432"/>
<feBlend mode="normal" in="SourceGraphic" in2="effect1_dropShadow_1_432" result="shape"/>
</filter>
</defs>
</svg>
