<svg width="1440" height="69" viewBox="0 0 1440 69" fill="none" xmlns="http://www.w3.org/2000/svg">
<g filter="url(#filter0_d_1_436)">
<path d="M518.747 49.8184H528.343C528.188 52.5632 527.402 54.9648 525.986 57.0234C524.569 59.082 522.61 60.6868 520.109 61.8379C517.607 62.9668 514.663 63.5312 511.277 63.5312C508.51 63.5312 506.042 63.0996 503.872 62.2363C501.725 61.373 499.899 60.1224 498.394 58.4844C496.889 56.8464 495.738 54.8652 494.941 52.541C494.166 50.2168 493.779 47.5827 493.779 44.6387V42.7129C493.779 39.7689 494.188 37.1348 495.007 34.8105C495.826 32.4642 496.999 30.472 498.527 28.834C500.054 27.196 501.88 25.9453 504.005 25.082C506.13 24.1966 508.51 23.7539 511.144 23.7539C514.73 23.7539 517.751 24.3626 520.208 25.5801C522.687 26.7975 524.602 28.4688 525.952 30.5938C527.325 32.6966 528.133 35.0983 528.376 37.7988H518.814C518.747 36.5592 518.46 35.4525 517.95 34.4785C517.441 33.4824 516.633 32.6966 515.527 32.1211C514.442 31.5456 512.981 31.2578 511.144 31.2578C509.86 31.2578 508.731 31.4902 507.757 31.9551C506.783 32.4199 505.964 33.1283 505.3 34.0801C504.658 35.0319 504.171 36.2272 503.839 37.666C503.507 39.0827 503.341 40.7539 503.341 42.6797V44.6387C503.341 46.5866 503.485 48.2799 503.773 49.7188C504.083 51.1576 504.558 52.3529 505.2 53.3047C505.842 54.2344 506.661 54.9316 507.657 55.3965C508.676 55.8613 509.882 56.0938 511.277 56.0938C512.87 56.0938 514.21 55.8724 515.294 55.4297C516.379 54.9648 517.209 54.2676 517.784 53.3379C518.36 52.4082 518.681 51.235 518.747 49.8184ZM573.66 42.8789V44.4727C573.66 47.4167 573.217 50.0618 572.332 52.4082C571.469 54.7546 570.24 56.7578 568.646 58.418C567.053 60.0781 565.149 61.3509 562.935 62.2363C560.744 63.0996 558.32 63.5312 555.664 63.5312C553.008 63.5312 550.573 63.0996 548.359 62.2363C546.168 61.3509 544.264 60.0781 542.648 58.418C541.032 56.7578 539.782 54.7546 538.896 52.4082C538.011 50.0618 537.568 47.4167 537.568 44.4727V42.8789C537.568 39.9128 538 37.2676 538.863 34.9434C539.748 32.597 540.988 30.5938 542.582 28.9336C544.198 27.2513 546.101 25.9785 548.293 25.1152C550.506 24.2298 552.941 23.7871 555.597 23.7871C558.254 23.7871 560.678 24.2298 562.869 25.1152C565.082 25.9785 566.997 27.2513 568.613 28.9336C570.229 30.5938 571.469 32.597 572.332 34.9434C573.217 37.2676 573.66 39.9128 573.66 42.8789ZM564.064 44.4727V42.8125C564.064 40.9531 563.865 39.3151 563.467 37.8984C563.09 36.4596 562.537 35.2533 561.806 34.2793C561.098 33.2832 560.213 32.5306 559.15 32.0215C558.11 31.4902 556.926 31.2246 555.597 31.2246C554.247 31.2246 553.041 31.4902 551.978 32.0215C550.938 32.5306 550.064 33.2832 549.355 34.2793C548.647 35.2533 548.105 36.4596 547.728 37.8984C547.374 39.3151 547.197 40.9531 547.197 42.8125V44.4727C547.197 46.3099 547.374 47.9479 547.728 49.3867C548.105 50.8255 548.658 52.054 549.388 53.0723C550.119 54.0684 551.004 54.832 552.045 55.3633C553.107 55.8724 554.314 56.127 555.664 56.127C556.992 56.127 558.176 55.8724 559.217 55.3633C560.257 54.832 561.131 54.0684 561.84 53.0723C562.57 52.054 563.123 50.8255 563.5 49.3867C563.876 47.9479 564.064 46.3099 564.064 44.4727ZM619.076 24.3184V63H609.481L594.174 38.3633V63H584.612V24.3184H594.174L609.481 48.9551V24.3184H619.076ZM652.739 52.6406C652.739 52.0208 652.617 51.4564 652.374 50.9473C652.13 50.416 651.721 49.9401 651.145 49.5195C650.592 49.099 649.839 48.7005 648.888 48.3242C647.936 47.9479 646.752 47.5938 645.335 47.2617C642.9 46.6862 640.786 46.0553 638.993 45.3691C637.222 44.6608 635.75 43.8529 634.577 42.9453C633.426 42.0156 632.563 40.9089 631.987 39.625C631.412 38.3411 631.124 36.8359 631.124 35.1094C631.124 33.4492 631.489 31.9219 632.22 30.5273C632.95 29.1328 633.979 27.9375 635.308 26.9414C636.636 25.9453 638.207 25.1706 640.022 24.6172C641.837 24.0638 643.819 23.7871 645.966 23.7871C649.087 23.7871 651.843 24.2741 654.233 25.248C656.646 26.222 658.528 27.6055 659.878 29.3984C661.228 31.1693 661.903 33.3053 661.903 35.8066H652.341C652.341 34.877 652.086 34.0247 651.577 33.25C651.09 32.4753 650.382 31.8555 649.452 31.3906C648.522 30.9036 647.371 30.6602 645.999 30.6602C644.671 30.6602 643.575 30.8704 642.712 31.291C641.849 31.6895 641.207 32.2096 640.786 32.8516C640.388 33.4714 640.188 34.1133 640.188 34.7773C640.188 35.3307 640.31 35.8398 640.554 36.3047C640.819 36.7695 641.229 37.2012 641.782 37.5996C642.358 37.9759 643.099 38.3411 644.007 38.6953C644.936 39.0273 646.054 39.3594 647.36 39.6914C649.795 40.2227 651.909 40.8535 653.702 41.584C655.517 42.2923 657.022 43.1445 658.218 44.1406C659.435 45.1367 660.343 46.321 660.94 47.6934C661.538 49.0436 661.837 50.6042 661.837 52.375C661.837 54.1458 661.472 55.7285 660.741 57.123C660.033 58.4954 659.003 59.6576 657.653 60.6094C656.325 61.5612 654.72 62.2917 652.839 62.8008C650.979 63.2878 648.899 63.5312 646.597 63.5312C644.538 63.5312 642.513 63.2878 640.52 62.8008C638.528 62.3138 636.724 61.5612 635.108 60.543C633.492 59.5026 632.197 58.1745 631.224 56.5586C630.272 54.9427 629.796 53.0059 629.796 50.748H639.391C639.391 51.8105 639.546 52.7181 639.856 53.4707C640.188 54.2233 640.675 54.8431 641.317 55.3301C641.981 55.7949 642.789 56.138 643.741 56.3594C644.715 56.5807 645.833 56.6914 647.095 56.6914C648.511 56.6914 649.629 56.4922 650.448 56.0938C651.289 55.6732 651.876 55.153 652.208 54.5332C652.562 53.9134 652.739 53.2826 652.739 52.6406ZM692.843 24.3184V63H683.214V24.3184H692.843ZM705.427 24.3184V31.8223H670.896V24.3184H705.427ZM715.316 24.3184H731.486C733.877 24.3184 736.035 24.5729 737.961 25.082C739.887 25.569 741.525 26.2995 742.875 27.2734C744.247 28.2474 745.299 29.4648 746.029 30.9258C746.76 32.3646 747.125 34.0358 747.125 35.9395C747.125 38.1973 746.749 40.0788 745.996 41.584C745.243 43.0892 744.203 44.3177 742.875 45.2695C741.547 46.2214 740.008 47.0182 738.26 47.6602L735.072 49.5195H721.326L721.26 42.0488H731.553C732.881 42.0488 733.988 41.8496 734.873 41.4512C735.758 41.0306 736.423 40.4329 736.865 39.6582C737.308 38.8835 737.529 37.9648 737.529 36.9023C737.529 35.8177 737.297 34.8991 736.832 34.1465C736.367 33.3939 735.681 32.8184 734.773 32.4199C733.888 32.0215 732.792 31.8223 731.486 31.8223H724.912V63H715.316V24.3184ZM738.26 63L728.996 45.9336L739.156 45.834L748.586 62.6016V63H738.26ZM781.651 24.3184H791.247V49.4863C791.247 52.4967 790.56 55.0534 789.188 57.1562C787.838 59.2591 785.945 60.8529 783.51 61.9375C781.098 63 778.264 63.5312 775.01 63.5312C771.801 63.5312 768.967 63 766.51 61.9375C764.075 60.8529 762.172 59.2591 760.799 57.1562C759.427 55.0534 758.741 52.4967 758.741 49.4863V24.3184H768.303V49.4863C768.303 51.0137 768.569 52.2754 769.1 53.2715C769.631 54.2454 770.395 54.9648 771.391 55.4297C772.387 55.8724 773.594 56.0938 775.01 56.0938C776.449 56.0938 777.655 55.8724 778.629 55.4297C779.603 54.9648 780.345 54.2454 780.854 53.2715C781.385 52.2754 781.651 51.0137 781.651 49.4863V24.3184ZM826.968 49.8184H836.564C836.409 52.5632 835.623 54.9648 834.206 57.0234C832.79 59.082 830.831 60.6868 828.329 61.8379C825.828 62.9668 822.884 63.5312 819.497 63.5312C816.73 63.5312 814.262 63.0996 812.093 62.2363C809.946 61.373 808.12 60.1224 806.614 58.4844C805.109 56.8464 803.958 54.8652 803.161 52.541C802.387 50.2168 801.999 47.5827 801.999 44.6387V42.7129C801.999 39.7689 802.409 37.1348 803.228 34.8105C804.047 32.4642 805.22 30.472 806.747 28.834C808.275 27.196 810.101 25.9453 812.226 25.082C814.351 24.1966 816.73 23.7539 819.364 23.7539C822.95 23.7539 825.972 24.3626 828.429 25.5801C830.908 26.7975 832.823 28.4688 834.173 30.5938C835.545 32.6966 836.353 35.0983 836.597 37.7988H827.034C826.968 36.5592 826.68 35.4525 826.171 34.4785C825.662 33.4824 824.854 32.6966 823.747 32.1211C822.663 31.5456 821.202 31.2578 819.364 31.2578C818.081 31.2578 816.952 31.4902 815.978 31.9551C815.004 32.4199 814.185 33.1283 813.521 34.0801C812.879 35.0319 812.392 36.2272 812.06 37.666C811.728 39.0827 811.562 40.7539 811.562 42.6797V44.6387C811.562 46.5866 811.706 48.2799 811.993 49.7188C812.303 51.1576 812.779 52.3529 813.421 53.3047C814.063 54.2344 814.882 54.9316 815.878 55.3965C816.896 55.8613 818.103 56.0938 819.497 56.0938C821.091 56.0938 822.43 55.8724 823.515 55.4297C824.599 54.9648 825.429 54.2676 826.005 53.3379C826.581 52.4082 826.901 51.235 826.968 49.8184ZM866.74 24.3184V63H857.111V24.3184H866.74ZM879.324 24.3184V31.8223H844.793V24.3184H879.324ZM924.11 42.8789V44.4727C924.11 47.4167 923.667 50.0618 922.781 52.4082C921.918 54.7546 920.69 56.7578 919.096 58.418C917.502 60.0781 915.599 61.3509 913.385 62.2363C911.194 63.0996 908.77 63.5312 906.114 63.5312C903.457 63.5312 901.022 63.0996 898.809 62.2363C896.617 61.3509 894.714 60.0781 893.098 58.418C891.482 56.7578 890.231 54.7546 889.346 52.4082C888.461 50.0618 888.018 47.4167 888.018 44.4727V42.8789C888.018 39.9128 888.449 37.2676 889.313 34.9434C890.198 32.597 891.438 30.5938 893.031 28.9336C894.647 27.2513 896.551 25.9785 898.742 25.1152C900.956 24.2298 903.391 23.7871 906.047 23.7871C908.703 23.7871 911.127 24.2298 913.319 25.1152C915.532 25.9785 917.447 27.2513 919.063 28.9336C920.679 30.5938 921.918 32.597 922.781 34.9434C923.667 37.2676 924.11 39.9128 924.11 42.8789ZM914.514 44.4727V42.8125C914.514 40.9531 914.315 39.3151 913.916 37.8984C913.54 36.4596 912.987 35.2533 912.256 34.2793C911.548 33.2832 910.662 32.5306 909.6 32.0215C908.559 31.4902 907.375 31.2246 906.047 31.2246C904.697 31.2246 903.49 31.4902 902.428 32.0215C901.388 32.5306 900.513 33.2832 899.805 34.2793C899.097 35.2533 898.554 36.4596 898.178 37.8984C897.824 39.3151 897.647 40.9531 897.647 42.8125V44.4727C897.647 46.3099 897.824 47.9479 898.178 49.3867C898.554 50.8255 899.108 52.054 899.838 53.0723C900.569 54.0684 901.454 54.832 902.494 55.3633C903.557 55.8724 904.763 56.127 906.114 56.127C907.442 56.127 908.626 55.8724 909.666 55.3633C910.707 54.832 911.581 54.0684 912.289 53.0723C913.02 52.054 913.573 50.8255 913.949 49.3867C914.326 47.9479 914.514 46.3099 914.514 44.4727ZM944.192 12V17.0469C944.192 18.4857 943.916 19.9688 943.362 21.4961C942.831 23.0234 942.111 24.4733 941.204 25.8457C940.296 27.196 939.3 28.347 938.216 29.2988L933.733 26.709C934.552 25.403 935.249 23.9863 935.825 22.459C936.401 20.9095 936.688 19.1165 936.688 17.0801V12H944.192Z" fill="white"/>
<path d="M518.747 49.8184V47.8184H516.839L516.749 49.7247L518.747 49.8184ZM528.343 49.8184L530.34 49.9311L530.459 47.8184H528.343V49.8184ZM525.986 57.0234L524.338 55.8896L525.986 57.0234ZM520.109 61.8379L520.931 63.6608L520.938 63.6578L520.945 63.6548L520.109 61.8379ZM503.872 62.2363L503.126 64.092L503.133 64.0946L503.872 62.2363ZM494.941 52.541L493.043 53.1735L493.046 53.1816L493.049 53.1897L494.941 52.541ZM495.007 34.8105L496.893 35.4753L496.895 35.4697L495.007 34.8105ZM498.527 28.834L497.064 27.4701L498.527 28.834ZM504.005 25.082L504.758 26.935L504.766 26.9316L504.774 26.9282L504.005 25.082ZM520.208 25.5801L519.32 27.3722L519.327 27.3753L520.208 25.5801ZM525.952 30.5938L524.264 31.6664L524.271 31.6766L524.277 31.6868L525.952 30.5938ZM528.376 37.7988V39.7988H530.565L530.368 37.6192L528.376 37.7988ZM518.814 37.7988L516.817 37.9058L516.918 39.7988H518.814V37.7988ZM517.95 34.4785L516.17 35.3887L516.174 35.3969L516.178 35.405L517.95 34.4785ZM515.527 32.1211L514.589 33.8878L514.596 33.8917L514.604 33.8955L515.527 32.1211ZM507.757 31.9551L506.896 30.1501L507.757 31.9551ZM505.3 34.0801L503.66 32.9357L503.651 32.9487L503.642 32.9618L505.3 34.0801ZM503.839 37.666L505.786 38.1224L505.788 38.1157L503.839 37.666ZM503.773 49.7188L501.811 50.111L501.814 50.1254L501.817 50.1399L503.773 49.7188ZM505.2 53.3047L503.542 54.423L503.548 54.4321L503.555 54.4411L505.2 53.3047ZM507.657 55.3965L506.812 57.2089L506.819 57.2124L506.827 57.2159L507.657 55.3965ZM515.294 55.4297L516.05 57.2814L516.066 57.2748L516.082 57.268L515.294 55.4297ZM518.747 51.8184H528.343V47.8184H518.747V51.8184ZM526.346 49.7056C526.21 52.1223 525.526 54.1627 524.338 55.8896L527.633 58.1572C529.278 55.767 530.166 53.004 530.34 49.9311L526.346 49.7056ZM524.338 55.8896C523.146 57.622 521.481 59.0047 519.273 60.021L520.945 63.6548C523.739 62.369 525.992 60.542 527.633 58.1572L524.338 55.8896ZM519.286 60.015C517.096 61.0032 514.444 61.5312 511.277 61.5312V65.5312C514.882 65.5312 518.118 64.9304 520.931 63.6608L519.286 60.015ZM511.277 61.5312C508.717 61.5312 506.507 61.1321 504.612 60.3781L503.133 64.0946C505.577 65.0671 508.302 65.5312 511.277 65.5312V61.5312ZM504.618 60.3807C502.736 59.624 501.162 58.5407 499.866 57.1311L496.921 59.8376C498.636 61.7041 500.714 63.1221 503.126 64.092L504.618 60.3807ZM499.866 57.1311C498.567 55.7168 497.549 53.9827 496.833 51.8924L493.049 53.1897C493.926 55.7477 495.21 57.9759 496.921 59.8376L499.866 57.1311ZM496.838 51.9086C496.143 49.8246 495.779 47.4097 495.779 44.6387H491.779C491.779 47.7557 492.188 50.609 493.043 53.1735L496.838 51.9086ZM495.779 44.6387V42.7129H491.779V44.6387H495.779ZM495.779 42.7129C495.779 39.9524 496.163 37.5489 496.893 35.4752L493.121 34.1458C492.213 36.7206 491.779 39.5853 491.779 42.7129H495.779ZM496.895 35.4697C497.633 33.3564 498.671 31.6118 499.989 30.1979L497.064 27.4701C495.327 29.3322 494.019 31.572 493.119 34.1514L496.895 35.4697ZM499.989 30.1979C501.313 28.7778 502.896 27.6915 504.758 26.935L503.252 23.2291C500.865 24.1991 498.794 25.6141 497.064 27.4701L499.989 30.1979ZM504.774 26.9282C506.623 26.1579 508.736 25.7539 511.144 25.7539V21.7539C508.283 21.7539 505.637 22.2353 503.236 23.2359L504.774 26.9282ZM511.144 25.7539C514.513 25.7539 517.211 26.3269 519.32 27.3722L521.096 23.788C518.292 22.3984 514.947 21.7539 511.144 21.7539V25.7539ZM519.327 27.3753C521.509 28.4469 523.13 29.8815 524.264 31.6664L527.64 29.5211C526.074 27.056 523.866 25.1482 521.09 23.7849L519.327 27.3753ZM524.277 31.6868C525.457 33.4941 526.168 35.5771 526.384 37.9784L530.368 37.6192C530.098 34.6195 529.192 31.8991 527.627 29.5007L524.277 31.6868ZM528.376 35.7988H518.814V39.7988H528.376V35.7988ZM520.811 37.6918C520.731 36.2033 520.381 34.8109 519.723 33.552L516.178 35.405C516.538 36.0941 516.763 36.9152 516.817 37.9058L520.811 37.6918ZM519.731 33.5683C519.011 32.1597 517.881 31.0909 516.449 30.3467L514.604 33.8955C515.386 34.3023 515.871 34.8051 516.17 35.3887L519.731 33.5683ZM516.464 30.3544C514.983 29.5683 513.159 29.2578 511.144 29.2578V33.2578C512.803 33.2578 513.901 33.5228 514.589 33.8878L516.464 30.3544ZM511.144 29.2578C509.618 29.2578 508.185 29.5348 506.896 30.1501L508.618 33.76C509.277 33.4457 510.102 33.2578 511.144 33.2578V29.2578ZM506.896 30.1501C505.586 30.7752 504.506 31.7221 503.66 32.9357L506.94 35.2244C507.422 34.5344 507.98 34.0646 508.618 33.76L506.896 30.1501ZM503.642 32.9618C502.83 34.1657 502.262 35.6039 501.89 37.2163L505.788 38.1157C506.08 36.8506 506.486 35.8981 506.958 35.1984L503.642 32.9618ZM501.892 37.2096C501.516 38.815 501.341 40.6465 501.341 42.6797H505.341C505.341 40.8613 505.499 39.3503 505.786 38.1224L501.892 37.2096ZM501.341 42.6797V44.6387H505.341V42.6797H501.341ZM501.341 44.6387C501.341 46.6783 501.491 48.509 501.811 50.111L505.734 49.3265C505.479 48.0509 505.341 46.4949 505.341 44.6387H501.341ZM501.817 50.1399C502.167 51.7607 502.724 53.2095 503.542 54.423L506.859 52.1864C506.393 51.4963 505.999 50.5544 505.728 49.2976L501.817 50.1399ZM503.555 54.4411C504.393 55.6546 505.484 56.5894 506.812 57.2089L508.503 53.5841C507.838 53.2738 507.292 52.8141 506.846 52.1683L503.555 54.4411ZM506.827 57.2159C508.162 57.8252 509.664 58.0938 511.277 58.0938V54.0938C510.1 54.0938 509.19 53.8974 508.488 53.5771L506.827 57.2159ZM511.277 58.0938C513.042 58.0938 514.656 57.8504 516.05 57.2814L514.538 53.578C513.763 53.8944 512.699 54.0938 511.277 54.0938V58.0938ZM516.082 57.268C517.513 56.6548 518.676 55.6978 519.485 54.3906L516.084 52.2852C515.742 52.8374 515.245 53.2749 514.506 53.5914L516.082 57.268ZM519.485 54.3906C520.285 53.0983 520.667 51.5702 520.745 49.912L516.749 49.7247C516.694 50.8998 516.435 51.7181 516.084 52.2852L519.485 54.3906ZM572.332 52.4082L570.461 51.7021L570.458 51.7098L570.455 51.7176L572.332 52.4082ZM562.935 62.2363L563.668 64.0972L563.678 64.0933L562.935 62.2363ZM548.359 62.2363L547.61 64.0907L547.621 64.0952L547.632 64.0996L548.359 62.2363ZM542.648 58.418L541.215 59.8129L542.648 58.418ZM538.863 34.9434L536.992 34.2372L536.988 34.247L538.863 34.9434ZM542.582 28.9336L541.139 27.5481L541.139 27.5485L542.582 28.9336ZM548.293 25.1152L549.026 26.9761L549.036 26.9722L548.293 25.1152ZM562.869 25.1152L562.12 26.9696L562.131 26.9741L562.142 26.9785L562.869 25.1152ZM568.613 28.9336L567.171 30.3191L567.18 30.3286L568.613 28.9336ZM572.332 34.9434L570.455 35.6339L570.459 35.6447L570.463 35.6553L572.332 34.9434ZM563.467 37.8984L561.532 38.4045L561.536 38.4223L561.541 38.4399L563.467 37.8984ZM561.806 34.2793L560.176 35.4383L560.191 35.459L560.206 35.4793L561.806 34.2793ZM559.15 32.0215L558.241 33.8027L558.263 33.8142L558.286 33.8251L559.15 32.0215ZM551.978 32.0215L552.857 33.8179L552.865 33.8142L552.873 33.8103L551.978 32.0215ZM549.355 34.2793L550.973 35.4556L550.979 35.447L550.985 35.4383L549.355 34.2793ZM547.728 37.8984L545.793 37.3924L545.791 37.4029L545.788 37.4134L547.728 37.8984ZM547.728 49.3867L545.786 49.8648L545.79 49.8788L545.793 49.8928L547.728 49.3867ZM549.388 53.0723L547.763 54.2381L547.769 54.2466L547.776 54.255L549.388 53.0723ZM552.045 55.3633L551.135 57.1445L551.158 57.156L551.18 57.1669L552.045 55.3633ZM559.217 55.3633L560.096 57.1597L560.111 57.1522L560.126 57.1445L559.217 55.3633ZM561.84 53.0723L560.215 51.9064L560.21 51.9132L561.84 53.0723ZM571.66 42.8789V44.4727H575.66V42.8789H571.66ZM571.66 44.4727C571.66 47.2166 571.247 49.6169 570.461 51.7021L574.203 53.1143C575.187 50.5068 575.66 47.6167 575.66 44.4727H571.66ZM570.455 51.7176C569.678 53.8276 568.59 55.5885 567.203 57.0329L570.089 59.803C571.89 57.9272 573.259 55.6815 574.209 53.0988L570.455 51.7176ZM567.203 57.0329C565.814 58.4803 564.152 59.5958 562.193 60.3794L563.678 64.0933C566.146 63.1061 568.291 61.6759 570.089 59.803L567.203 57.0329ZM562.202 60.3755C560.272 61.1358 558.101 61.5312 555.664 61.5312V65.5312C558.539 65.5312 561.216 65.0634 563.668 64.0971L562.202 60.3755ZM555.664 61.5312C553.227 61.5312 551.042 61.1359 549.086 60.373L547.632 64.0996C550.103 65.0633 552.788 65.5312 555.664 65.5312V61.5312ZM549.108 60.382C547.169 59.5984 545.5 58.4801 544.081 57.023L541.215 59.8129C543.029 61.6761 545.166 63.1034 547.61 64.0907L549.108 60.382ZM544.081 57.023C542.673 55.5757 541.564 53.8126 540.767 51.7021L537.025 53.1143C537.999 55.6965 539.392 57.9399 541.215 59.8129L544.081 57.023ZM540.767 51.7021C539.981 49.6169 539.568 47.2166 539.568 44.4727H535.568C535.568 47.6167 536.041 50.5068 537.025 53.1143L540.767 51.7021ZM539.568 44.4727V42.8789H535.568V44.4727H539.568ZM539.568 42.8789C539.568 40.105 539.972 37.7021 540.738 35.6397L536.988 34.247C536.028 36.833 535.568 39.7205 535.568 42.8789H539.568ZM540.734 35.6495C541.533 33.5332 542.634 31.7669 544.025 30.3187L541.139 27.5485C539.342 29.4206 537.964 31.6608 536.992 34.2372L540.734 35.6495ZM544.024 30.3191C545.439 28.8465 547.1 27.7349 549.026 26.9761L547.56 23.2544C545.103 24.2222 542.957 25.6561 541.139 27.5481L544.024 30.3191ZM549.036 26.9722C550.987 26.1915 553.167 25.7871 555.597 25.7871V21.7871C552.716 21.7871 550.025 22.2682 547.55 23.2583L549.036 26.9722ZM555.597 25.7871C558.029 25.7871 560.194 26.1916 562.12 26.9696L563.618 23.2609C561.161 22.2681 558.479 21.7871 555.597 21.7871V25.7871ZM562.142 26.9785C564.091 27.7384 565.76 28.8501 567.171 30.3191L570.055 27.5481C568.235 25.6525 566.074 24.2187 563.596 23.2519L562.142 26.9785ZM567.18 30.3286C568.585 31.7721 569.681 33.5298 570.455 35.6339L574.209 34.2528C573.256 31.6642 571.873 29.4154 570.046 27.5386L567.18 30.3286ZM570.463 35.6553C571.247 37.713 571.66 40.1103 571.66 42.8789H575.66C575.66 39.7152 575.188 36.8221 574.201 34.2314L570.463 35.6553ZM566.064 44.4727V42.8125H562.064V44.4727H566.064ZM566.064 42.8125C566.064 40.8158 565.851 38.989 565.392 37.3569L561.541 38.4399C561.879 39.6412 562.064 41.0905 562.064 42.8125H566.064ZM565.401 37.3924C564.974 35.7568 564.323 34.3011 563.406 33.0793L560.206 35.4793C560.751 36.2054 561.207 37.1625 561.532 38.4045L565.401 37.3924ZM563.436 33.1203C562.539 31.8586 561.394 30.8791 560.014 30.2179L558.286 33.8251C559.031 34.1821 559.657 34.7078 560.176 35.4383L563.436 33.1203ZM560.06 30.2403C558.701 29.5466 557.198 29.2246 555.597 29.2246V33.2246C556.653 33.2246 557.518 33.4339 558.241 33.8027L560.06 30.2403ZM555.597 29.2246C553.979 29.2246 552.46 29.5446 551.084 30.2326L552.873 33.8103C553.622 33.4359 554.515 33.2246 555.597 33.2246V29.2246ZM551.099 30.2251C549.743 30.8889 548.616 31.868 547.725 33.1203L550.985 35.4383C551.511 34.6985 552.133 34.1723 552.857 33.8179L551.099 30.2251ZM547.738 33.103C546.853 34.3198 546.218 35.7671 545.793 37.3924L549.663 38.4045C549.991 37.1522 550.441 36.1867 550.973 35.4556L547.738 33.103ZM545.788 37.4134C545.385 39.0249 545.197 40.8318 545.197 42.8125H549.197C549.197 41.0745 549.363 39.6053 549.669 38.3835L545.788 37.4134ZM545.197 42.8125V44.4727H549.197V42.8125H545.197ZM545.197 44.4727C545.197 46.4342 545.386 48.2375 545.786 49.8648L549.67 48.9087C549.363 47.6584 549.197 46.1856 549.197 44.4727H545.197ZM545.793 49.8928C546.22 51.5253 546.866 52.9874 547.763 54.2381L551.014 51.9064C550.45 51.1207 549.989 50.1257 549.663 48.8807L545.793 49.8928ZM547.776 54.255C548.68 55.4879 549.801 56.4632 551.135 57.1445L552.954 53.5821C552.208 53.2009 551.558 52.6488 551.001 51.8895L547.776 54.255ZM551.18 57.1669C552.55 57.8229 554.058 58.127 555.664 58.127V54.127C554.569 54.127 553.665 53.9218 552.909 53.5597L551.18 57.1669ZM555.664 58.127C557.252 58.127 558.744 57.8212 560.096 57.1597L558.337 53.5668C557.608 53.9236 556.732 54.127 555.664 54.127V58.127ZM560.126 57.1445C561.467 56.46 562.584 55.4772 563.47 54.2313L560.21 51.9132C559.679 52.6595 559.047 53.2041 558.307 53.5821L560.126 57.1445ZM563.465 54.2381C564.362 52.9874 565.008 51.5253 565.435 49.8928L561.565 48.8807C561.239 50.1257 560.778 51.1207 560.215 51.9064L563.465 54.2381ZM565.435 49.8928C565.863 48.2554 566.064 46.4423 566.064 44.4727H562.064C562.064 46.1774 561.889 47.6404 561.565 48.8807L565.435 49.8928ZM619.076 24.3184H621.076V22.3184H619.076V24.3184ZM619.076 63V65H621.076V63H619.076ZM609.481 63L607.782 64.0555L608.369 65H609.481V63ZM594.174 38.3633L595.873 37.3078L592.174 31.3544V38.3633H594.174ZM594.174 63V65H596.174V63H594.174ZM584.612 63H582.612V65H584.612V63ZM584.612 24.3184V22.3184H582.612V24.3184H584.612ZM594.174 24.3184L595.873 23.2629L595.286 22.3184H594.174V24.3184ZM609.481 48.9551L607.782 50.0105L611.481 55.964V48.9551H609.481ZM609.481 24.3184V22.3184H607.481V24.3184H609.481ZM617.076 24.3184V63H621.076V24.3184H617.076ZM619.076 61H609.481V65H619.076V61ZM611.18 61.9445L595.873 37.3078L592.475 39.4187L607.782 64.0555L611.18 61.9445ZM592.174 38.3633V63H596.174V38.3633H592.174ZM594.174 61H584.612V65H594.174V61ZM586.612 63V24.3184H582.612V63H586.612ZM584.612 26.3184H594.174V22.3184H584.612V26.3184ZM592.475 25.3738L607.782 50.0105L611.18 47.8996L595.873 23.2629L592.475 25.3738ZM611.481 48.9551V24.3184H607.481V48.9551H611.481ZM609.481 26.3184H619.076V22.3184H609.481V26.3184ZM652.374 50.9473L650.556 51.7806L650.563 51.7954L650.57 51.8102L652.374 50.9473ZM651.145 49.5195L649.935 51.1119L649.95 51.1232L649.965 51.1343L651.145 49.5195ZM645.335 47.2617L644.875 49.2081L644.878 49.209L645.335 47.2617ZM638.993 45.3691L638.25 47.2261L638.264 47.2317L638.278 47.237L638.993 45.3691ZM634.577 42.9453L633.32 44.5012L633.337 44.5144L633.353 44.5272L634.577 42.9453ZM631.987 39.625L630.162 40.4431L631.987 39.625ZM654.233 25.248L653.479 27.1002L653.485 27.1026L654.233 25.248ZM659.878 29.3984L658.28 30.6016L658.287 30.6111L659.878 29.3984ZM661.903 35.8066V37.8066H663.903V35.8066H661.903ZM652.341 35.8066H650.341V37.8066H652.341V35.8066ZM651.577 33.25L649.884 34.3143L649.895 34.3315L649.906 34.3484L651.577 33.25ZM649.452 31.3906L648.524 33.1623L648.541 33.171L648.558 33.1795L649.452 31.3906ZM642.712 31.291L643.55 33.1069L643.569 33.0982L643.588 33.089L642.712 31.291ZM640.786 32.8516L639.113 31.7555L639.108 31.7628L639.104 31.77L640.786 32.8516ZM640.554 36.3047L638.782 37.2327L638.799 37.2652L638.817 37.297L640.554 36.3047ZM641.782 37.5996L640.614 39.2227L640.65 39.2489L640.688 39.2735L641.782 37.5996ZM644.007 38.6953L643.28 40.5585L643.307 40.569L643.334 40.5788L644.007 38.6953ZM647.36 39.6914L646.867 41.6297L646.901 41.6382L646.934 41.6454L647.36 39.6914ZM653.702 41.584L652.947 43.4362L652.961 43.4418L652.975 43.4471L653.702 41.584ZM658.218 44.1406L656.937 45.6771L656.944 45.6828L656.951 45.6885L658.218 44.1406ZM660.94 47.6934L659.107 48.4919L659.111 48.5029L660.94 47.6934ZM660.741 57.123L658.969 56.195L658.964 56.2058L660.741 57.123ZM657.653 60.6094L656.501 58.9747L656.495 58.9792L656.488 58.9837L657.653 60.6094ZM652.839 62.8008L653.345 64.7355L653.353 64.7335L653.361 64.7314L652.839 62.8008ZM635.108 60.543L634.026 62.2246L634.034 62.2299L634.042 62.235L635.108 60.543ZM631.224 56.5586L629.5 57.5737L629.505 57.5824L629.511 57.591L631.224 56.5586ZM629.796 50.748V48.748H627.796V50.748H629.796ZM639.391 50.748H641.391V48.748H639.391V50.748ZM639.856 53.4707L638.007 54.2322L638.016 54.2552L638.027 54.278L639.856 53.4707ZM641.317 55.3301L640.109 56.9235L640.139 56.9466L640.17 56.9685L641.317 55.3301ZM643.741 56.3594L643.288 58.3074L643.298 58.3096L643.741 56.3594ZM650.448 56.0938L651.323 57.8922L651.333 57.8875L651.343 57.8826L650.448 56.0938ZM652.208 54.5332L650.471 53.5409L650.458 53.5647L650.445 53.5888L652.208 54.5332ZM654.739 52.6406C654.739 51.7519 654.563 50.8885 654.178 50.0844L650.57 51.8102C650.672 52.0243 650.739 52.2898 650.739 52.6406H654.739ZM654.192 50.114C653.778 49.2105 653.117 48.483 652.325 47.9048L649.965 51.1343C650.325 51.3972 650.483 51.6215 650.556 51.7806L654.192 50.114ZM652.356 47.9272C651.606 47.3575 650.672 46.8792 649.623 46.4643L648.152 50.1841C649.006 50.5218 649.578 50.8404 649.935 51.1119L652.356 47.9272ZM649.623 46.4643C648.551 46.0407 647.267 45.6603 645.791 45.3145L644.878 49.209C646.236 49.5272 647.32 49.8552 648.152 50.1841L649.623 46.4643ZM645.795 45.3153C643.422 44.7545 641.397 44.1478 639.708 43.5013L638.278 47.237C640.175 47.9629 642.378 48.6179 644.875 49.2081L645.795 45.3153ZM639.736 43.5122C638.091 42.8542 636.792 42.1304 635.801 41.3634L633.353 44.5272C634.708 45.5753 636.354 46.4674 638.25 47.2261L639.736 43.5122ZM635.834 41.3894C634.915 40.647 634.252 39.7886 633.812 38.8069L630.162 40.4431C630.873 42.0291 631.937 43.3842 633.32 44.5012L635.834 41.3894ZM633.812 38.8069C633.375 37.8319 633.124 36.6165 633.124 35.1094H629.124C629.124 37.0554 629.448 38.8504 630.162 40.4431L633.812 38.8069ZM633.124 35.1094C633.124 33.7543 633.419 32.5479 633.991 31.4554L630.448 29.5993C629.559 31.2959 629.124 33.1442 629.124 35.1094H633.124ZM633.991 31.4554C634.576 30.3389 635.404 29.3688 636.508 28.5414L634.108 25.3414C632.554 26.5062 631.324 27.9267 630.448 29.5993L633.991 31.4554ZM636.508 28.5414C637.625 27.7031 638.981 27.0255 640.606 26.5303L639.439 22.7041C637.433 23.3157 635.646 24.1875 634.108 25.3414L636.508 28.5414ZM640.606 26.5303C642.209 26.0415 643.991 25.7871 645.966 25.7871V21.7871C643.646 21.7871 641.466 22.0861 639.439 22.7041L640.606 26.5303ZM645.966 25.7871C648.881 25.7871 651.372 26.242 653.479 27.1002L654.988 23.3959C652.313 22.3062 649.293 21.7871 645.966 21.7871V25.7871ZM653.485 27.1026C655.615 27.9626 657.181 29.1424 658.28 30.6016L661.475 28.1953C659.874 26.0685 657.677 24.4814 654.982 23.3934L653.485 27.1026ZM658.287 30.6111C659.34 31.9909 659.903 33.6868 659.903 35.8066H663.903C663.903 32.9239 663.117 30.3476 661.468 28.1858L658.287 30.6111ZM661.903 33.8066H652.341V37.8066H661.903V33.8066ZM654.341 35.8066C654.341 34.4878 653.973 33.2536 653.248 32.1516L649.906 34.3484C650.2 34.7959 650.341 35.2661 650.341 35.8066H654.341ZM653.27 32.1857C652.563 31.0604 651.558 30.2077 650.346 29.6018L648.558 33.1795C649.205 33.5033 649.617 33.8901 649.884 34.3143L653.27 32.1857ZM650.38 29.619C649.09 28.943 647.599 28.6602 645.999 28.6602V32.6602C647.144 32.6602 647.955 32.8643 648.524 33.1623L650.38 29.619ZM645.999 28.6602C644.477 28.6602 643.056 28.8987 641.836 29.493L643.588 33.089C644.094 32.8422 644.865 32.6602 645.999 32.6602V28.6602ZM641.874 29.4751C640.751 29.9931 639.783 30.733 639.113 31.7555L642.459 33.9476C642.63 33.6863 642.946 33.3858 643.55 33.1069L641.874 29.4751ZM639.104 31.77C638.521 32.6759 638.188 33.6885 638.188 34.7773H642.188C642.188 34.5381 642.254 34.2669 642.468 33.9331L639.104 31.77ZM638.188 34.7773C638.188 35.6358 638.38 36.4658 638.782 37.2327L642.325 35.3767C642.24 35.2139 642.188 35.0257 642.188 34.7773H638.188ZM638.817 37.297C639.258 38.0685 639.889 38.7012 640.614 39.2227L642.951 35.9765C642.568 35.7012 642.38 35.4706 642.29 35.3124L638.817 37.297ZM640.688 39.2735C641.415 39.7495 642.292 40.173 643.28 40.5585L644.734 36.8322C643.906 36.5092 643.3 36.2024 642.877 35.9257L640.688 39.2735ZM643.334 40.5788C644.34 40.9379 645.521 41.2874 646.867 41.6297L647.853 37.7531C646.588 37.4313 645.533 37.1167 644.679 36.8118L643.334 40.5788ZM646.934 41.6454C649.287 42.1588 651.286 42.7593 652.947 43.4362L654.457 39.7318C652.532 38.9478 650.304 38.2865 647.787 37.7374L646.934 41.6454ZM652.975 43.4471C654.638 44.096 655.943 44.8487 656.937 45.6771L659.498 42.6042C658.101 41.4403 656.397 40.4886 654.429 39.7208L652.975 43.4471ZM656.951 45.6885C657.936 46.494 658.642 47.4257 659.107 48.4919L662.774 46.8948C662.043 45.2162 660.935 43.7795 659.484 42.5927L656.951 45.6885ZM659.111 48.5029C659.576 49.5526 659.837 50.8284 659.837 52.375H663.837C663.837 50.3799 663.5 48.5346 662.769 46.8839L659.111 48.5029ZM659.837 52.375C659.837 53.8635 659.532 55.121 658.969 56.195L662.513 58.0511C663.411 56.3361 663.837 54.4282 663.837 52.375H659.837ZM658.964 56.2058C658.413 57.2725 657.607 58.195 656.501 58.9747L658.806 62.2441C660.4 61.1201 661.652 59.7184 662.518 58.0403L658.964 56.2058ZM656.488 58.9837C655.388 59.7723 654.011 60.4118 652.316 60.8702L653.361 64.7314C655.43 64.1716 657.262 63.35 658.818 62.235L656.488 58.9837ZM652.332 60.866C650.667 61.3022 648.76 61.5312 646.597 61.5312V65.5312C649.037 65.5312 651.292 65.2734 653.345 64.7355L652.332 60.866ZM646.597 61.5312C644.697 61.5312 642.831 61.3068 640.995 60.858L640.046 64.7436C642.194 65.2687 644.379 65.5312 646.597 65.5312V61.5312ZM640.995 60.858C639.197 60.4184 637.595 59.746 636.175 58.8509L634.042 62.235C635.853 63.3764 637.859 64.2092 640.046 64.7436L640.995 60.858ZM636.191 58.8614C634.827 57.9832 633.75 56.8754 632.936 55.5262L629.511 57.591C630.645 59.4736 632.158 61.022 634.026 62.2246L636.191 58.8614ZM632.947 55.5435C632.21 54.2925 631.796 52.7218 631.796 50.748H627.796C627.796 53.2899 628.334 55.5929 629.5 57.5737L632.947 55.5435ZM629.796 52.748H639.391V48.748H629.796V52.748ZM637.391 50.748C637.391 51.9958 637.572 53.1765 638.007 54.2322L641.706 52.7092C641.521 52.2597 641.391 51.6252 641.391 50.748H637.391ZM638.027 54.278C638.493 55.3343 639.19 56.2269 640.109 56.9235L642.526 53.7367C642.16 53.4593 641.884 53.1123 641.686 52.6634L638.027 54.278ZM640.17 56.9685C641.082 57.6067 642.137 58.0397 643.288 58.3074L644.194 54.4114C643.441 54.2363 642.881 53.9831 642.464 53.6916L640.17 56.9685ZM643.298 58.3096C644.449 58.5714 645.721 58.6914 647.095 58.6914V54.6914C645.945 54.6914 644.981 54.5901 644.184 54.4091L643.298 58.3096ZM647.095 58.6914C648.663 58.6914 650.122 58.4766 651.323 57.8922L649.573 54.2953C649.136 54.5077 648.36 54.6914 647.095 54.6914V58.6914ZM651.343 57.8826C652.431 57.3386 653.387 56.5668 653.971 55.4776L650.445 53.5888C650.364 53.7392 650.148 54.0078 649.554 54.3049L651.343 57.8826ZM653.944 55.5255C654.451 54.6381 654.739 53.6684 654.739 52.6406H650.739C650.739 52.8967 650.673 53.1887 650.471 53.5409L653.944 55.5255ZM692.843 24.3184H694.843V22.3184H692.843V24.3184ZM692.843 63V65H694.843V63H692.843ZM683.214 63H681.214V65H683.214V63ZM683.214 24.3184V22.3184H681.214V24.3184H683.214ZM705.427 24.3184H707.427V22.3184H705.427V24.3184ZM705.427 31.8223V33.8223H707.427V31.8223H705.427ZM670.896 31.8223H668.896V33.8223H670.896V31.8223ZM670.896 24.3184V22.3184H668.896V24.3184H670.896ZM690.843 24.3184V63H694.843V24.3184H690.843ZM692.843 61H683.214V65H692.843V61ZM685.214 63V24.3184H681.214V63H685.214ZM683.214 26.3184H692.843V22.3184H683.214V26.3184ZM703.427 24.3184V31.8223H707.427V24.3184H703.427ZM705.427 29.8223H670.896V33.8223H705.427V29.8223ZM672.896 31.8223V24.3184H668.896V31.8223H672.896ZM670.896 26.3184H705.427V22.3184H670.896V26.3184ZM715.316 24.3184V22.3184H713.316V24.3184H715.316ZM737.961 25.082L737.45 27.0156L737.46 27.0184L737.471 27.021L737.961 25.082ZM742.875 27.2734L741.705 28.8955L741.711 28.9L741.717 28.9045L742.875 27.2734ZM746.029 30.9258L744.24 31.8202L744.246 31.8312L746.029 30.9258ZM745.996 41.584L744.207 40.6896L745.996 41.584ZM742.875 45.2695L741.71 43.6439L742.875 45.2695ZM738.26 47.6602L737.571 45.7827L737.405 45.8436L737.252 45.9326L738.26 47.6602ZM735.072 49.5195V51.5195H735.613L736.08 51.2471L735.072 49.5195ZM721.326 49.5195L719.326 49.5373L719.344 51.5195H721.326V49.5195ZM721.26 42.0488V40.0488H719.242L719.26 42.0666L721.26 42.0488ZM734.873 41.4512L735.694 43.275L735.713 43.2666L735.731 43.2577L734.873 41.4512ZM734.773 32.4199L733.953 34.2438L733.961 34.2475L733.969 34.2512L734.773 32.4199ZM724.912 31.8223V29.8223H722.912V31.8223H724.912ZM724.912 63V65H726.912V63H724.912ZM715.316 63H713.316V65H715.316V63ZM738.26 63L736.502 63.9541L737.07 65H738.26V63ZM728.996 45.9336L728.977 43.9337L725.653 43.9663L727.238 46.8877L728.996 45.9336ZM739.156 45.834L740.9 44.8536L740.32 43.8225L739.137 43.8341L739.156 45.834ZM748.586 62.6016H750.586V62.0778L750.329 61.6212L748.586 62.6016ZM748.586 63V65H750.586V63H748.586ZM715.316 26.3184H731.486V22.3184H715.316V26.3184ZM731.486 26.3184C733.738 26.3184 735.72 26.5583 737.45 27.0156L738.472 23.1485C736.35 22.5875 734.016 22.3184 731.486 22.3184V26.3184ZM737.471 27.021C739.198 27.4578 740.595 28.0946 741.705 28.8955L744.045 25.6514C742.455 24.5044 740.575 23.6802 738.451 23.1431L737.471 27.021ZM741.717 28.9045C742.831 29.6944 743.661 30.662 744.24 31.8202L747.818 30.0314C746.936 28.2677 745.664 26.8004 744.033 25.6424L741.717 28.9045ZM744.246 31.8312C744.811 32.9432 745.125 34.2941 745.125 35.9395H749.125C749.125 33.7775 748.709 31.786 747.813 30.0204L744.246 31.8312ZM745.125 35.9395C745.125 37.988 744.782 39.5403 744.207 40.6896L747.785 42.4784C748.716 40.6173 749.125 38.4066 749.125 35.9395H745.125ZM744.207 40.6896C743.596 41.913 742.766 42.8873 741.71 43.6439L744.04 46.8952C745.641 45.7481 746.891 44.2654 747.785 42.4784L744.207 40.6896ZM741.71 43.6439C740.547 44.4772 739.173 45.1943 737.571 45.7827L738.949 49.5377C740.844 48.8421 742.547 47.9655 744.04 46.8952L741.71 43.6439ZM737.252 45.9326L734.065 47.792L736.08 51.2471L739.268 49.3877L737.252 45.9326ZM735.072 47.5195H721.326V51.5195H735.072V47.5195ZM723.326 49.5018L723.26 42.0311L719.26 42.0666L719.326 49.5373L723.326 49.5018ZM721.26 44.0488H731.553V40.0488H721.26V44.0488ZM731.553 44.0488C733.066 44.0488 734.474 43.824 735.694 43.275L734.052 39.6273C733.501 39.8752 732.696 40.0488 731.553 40.0488V44.0488ZM735.731 43.2577C736.948 42.6799 737.936 41.8149 738.602 40.6505L735.129 38.6659C734.909 39.051 734.569 39.3813 734.015 39.6446L735.731 43.2577ZM738.602 40.6505C739.247 39.5206 739.529 38.2463 739.529 36.9023H735.529C735.529 37.6833 735.368 38.2463 735.129 38.6659L738.602 40.6505ZM739.529 36.9023C739.529 35.5305 739.233 34.2285 738.534 33.0955L735.13 35.1975C735.36 35.5697 735.529 36.105 735.529 36.9023H739.529ZM738.534 33.0955C737.83 31.9569 736.81 31.1297 735.577 30.5886L733.969 34.2512C734.552 34.507 734.904 34.8308 735.13 35.1975L738.534 33.0955ZM735.594 30.5961C734.378 30.0488 732.983 29.8223 731.486 29.8223V33.8223C732.602 33.8223 733.398 33.9942 733.953 34.2438L735.594 30.5961ZM731.486 29.8223H724.912V33.8223H731.486V29.8223ZM722.912 31.8223V63H726.912V31.8223H722.912ZM724.912 61H715.316V65H724.912V61ZM717.316 63V24.3184H713.316V63H717.316ZM740.018 62.0459L730.754 44.9795L727.238 46.8877L736.502 63.9541L740.018 62.0459ZM729.016 47.9335L739.176 47.8339L739.137 43.8341L728.977 43.9337L729.016 47.9335ZM737.413 46.8143L746.843 63.5819L750.329 61.6212L740.9 44.8536L737.413 46.8143ZM746.586 62.6016V63H750.586V62.6016H746.586ZM748.586 61H738.26V65H748.586V61ZM781.651 24.3184V22.3184H779.651V24.3184H781.651ZM791.247 24.3184H793.247V22.3184H791.247V24.3184ZM789.188 57.1562L787.513 56.0632L787.509 56.0694L787.505 56.0756L789.188 57.1562ZM783.51 61.9375L784.316 63.7679L784.324 63.7644L783.51 61.9375ZM766.51 61.9375L765.697 63.7644L765.706 63.7689L765.716 63.7732L766.51 61.9375ZM760.799 57.1562L759.125 58.2493L760.799 57.1562ZM758.741 24.3184V22.3184H756.741V24.3184H758.741ZM768.303 24.3184H770.303V22.3184H768.303V24.3184ZM769.1 53.2715L767.335 54.2127L767.34 54.2209L767.344 54.2292L769.1 53.2715ZM771.391 55.4297L770.545 57.2421L770.562 57.2498L770.579 57.2573L771.391 55.4297ZM778.629 55.4297L779.457 57.2504L779.474 57.2427L779.491 57.2346L778.629 55.4297ZM780.854 53.2715L779.089 52.3303L779.085 52.3376L779.082 52.345L780.854 53.2715ZM781.651 26.3184H791.247V22.3184H781.651V26.3184ZM789.247 24.3184V49.4863H793.247V24.3184H789.247ZM789.247 49.4863C789.247 52.1867 788.634 54.3452 787.513 56.0632L790.863 58.2493C792.487 55.7616 793.247 52.8067 793.247 49.4863H789.247ZM787.505 56.0756C786.38 57.8281 784.8 59.1735 782.697 60.1106L784.324 63.7644C787.09 62.5322 789.296 60.6901 790.871 58.2369L787.505 56.0756ZM782.704 60.1071C780.598 61.0348 778.05 61.5312 775.01 61.5312V65.5312C778.479 65.5312 781.597 64.9652 784.316 63.7679L782.704 60.1071ZM775.01 61.5312C772.02 61.5312 769.466 61.0366 767.304 60.1018L765.716 63.7732C768.469 64.9634 771.581 65.5312 775.01 65.5312V61.5312ZM767.324 60.1106C765.218 59.1725 763.623 57.8235 762.474 56.0632L759.125 58.2493C760.72 60.6948 762.933 62.5333 765.697 63.7644L767.324 60.1106ZM762.474 56.0632C761.353 54.3452 760.741 52.1867 760.741 49.4863H756.741C756.741 52.8067 757.501 55.7616 759.125 58.2493L762.474 56.0632ZM760.741 49.4863V24.3184H756.741V49.4863H760.741ZM758.741 26.3184H768.303V22.3184H758.741V26.3184ZM766.303 24.3184V49.4863H770.303V24.3184H766.303ZM766.303 49.4863C766.303 51.2312 766.605 52.8428 767.335 54.2127L770.865 52.3303C770.533 51.7079 770.303 50.7961 770.303 49.4863H766.303ZM767.344 54.2292C768.078 55.5741 769.159 56.5949 770.545 57.2421L772.237 53.6173C771.631 53.3348 771.185 52.9168 770.856 52.3138L767.344 54.2292ZM770.579 57.2573C771.895 57.8423 773.394 58.0938 775.01 58.0938V54.0938C773.793 54.0938 772.879 53.9025 772.203 53.6021L770.579 57.2573ZM775.01 58.0938C776.641 58.0938 778.15 57.8446 779.457 57.2504L777.802 53.609C777.161 53.9002 776.257 54.0938 775.01 54.0938V58.0938ZM779.491 57.2346C780.863 56.5797 781.921 55.5481 782.627 54.198L779.082 52.345C778.769 52.9428 778.344 53.35 777.768 53.6247L779.491 57.2346ZM782.619 54.2127C783.349 52.8428 783.651 51.2312 783.651 49.4863H779.651C779.651 50.7961 779.421 51.7079 779.089 52.3303L782.619 54.2127ZM783.651 49.4863V24.3184H779.651V49.4863H783.651ZM826.968 49.8184V47.8184H825.059L824.97 49.7247L826.968 49.8184ZM836.564 49.8184L838.56 49.9311L838.68 47.8184H836.564V49.8184ZM834.206 57.0234L832.559 55.8896L834.206 57.0234ZM828.329 61.8379L829.152 63.6608L829.159 63.6578L829.165 63.6548L828.329 61.8379ZM812.093 62.2363L811.347 64.092L811.353 64.0946L812.093 62.2363ZM803.161 52.541L801.264 53.1735L801.267 53.1816L801.269 53.1897L803.161 52.541ZM803.228 34.8105L805.114 35.4753L805.116 35.4697L803.228 34.8105ZM806.747 28.834L805.284 27.4701L806.747 28.834ZM812.226 25.082L812.978 26.935L812.987 26.9316L812.995 26.9282L812.226 25.082ZM828.429 25.5801L827.541 27.3722L827.547 27.3753L828.429 25.5801ZM834.173 30.5938L832.485 31.6664L832.491 31.6766L832.498 31.6868L834.173 30.5938ZM836.597 37.7988V39.7988H838.785L838.589 37.6192L836.597 37.7988ZM827.034 37.7988L825.037 37.9058L825.139 39.7988H827.034V37.7988ZM826.171 34.4785L824.39 35.3887L824.394 35.3969L824.399 35.405L826.171 34.4785ZM823.747 32.1211L822.81 33.8878L822.817 33.8917L822.824 33.8955L823.747 32.1211ZM815.978 31.9551L815.116 30.1501L815.978 31.9551ZM813.521 34.0801L811.88 32.9357L811.871 32.9487L811.862 32.9618L813.521 34.0801ZM812.06 37.666L814.007 38.1224L814.008 38.1157L812.06 37.666ZM811.993 49.7188L810.032 50.111L810.035 50.1254L810.038 50.1399L811.993 49.7188ZM813.421 53.3047L811.763 54.423L811.769 54.4321L811.775 54.4411L813.421 53.3047ZM815.878 55.3965L815.032 57.2089L815.04 57.2124L815.047 57.2159L815.878 55.3965ZM823.515 55.4297L824.271 57.2814L824.287 57.2748L824.303 57.268L823.515 55.4297ZM826.968 51.8184H836.564V47.8184H826.968V51.8184ZM834.567 49.7056C834.43 52.1223 833.747 54.1627 832.559 55.8896L835.854 58.1572C837.499 55.767 838.387 53.004 838.56 49.9311L834.567 49.7056ZM832.559 55.8896C831.366 57.622 829.702 59.0047 827.493 60.021L829.165 63.6548C831.959 62.369 834.213 60.542 835.854 58.1572L832.559 55.8896ZM827.506 60.015C825.317 61.0032 822.665 61.5312 819.497 61.5312V65.5312C823.103 65.5312 826.339 64.9304 829.152 63.6608L827.506 60.015ZM819.497 61.5312C816.938 61.5312 814.727 61.1321 812.832 60.3781L811.353 64.0946C813.797 65.0671 816.523 65.5312 819.497 65.5312V61.5312ZM812.839 60.3807C810.957 59.624 809.382 58.5407 808.087 57.1311L805.142 59.8376C806.857 61.7041 808.935 63.1221 811.347 64.092L812.839 60.3807ZM808.087 57.1311C806.787 55.7168 805.77 53.9827 805.053 51.8924L801.269 53.1897C802.146 55.7477 803.431 57.9759 805.142 59.8376L808.087 57.1311ZM805.059 51.9086C804.364 49.8246 803.999 47.4097 803.999 44.6387H799.999C799.999 47.7557 800.409 50.609 801.264 53.1735L805.059 51.9086ZM803.999 44.6387V42.7129H799.999V44.6387H803.999ZM803.999 42.7129C803.999 39.9524 804.383 37.5489 805.114 35.4752L801.341 34.1458C800.434 36.7206 799.999 39.5853 799.999 42.7129H803.999ZM805.116 35.4697C805.854 33.3564 806.892 31.6118 808.21 30.1979L805.284 27.4701C803.548 29.3322 802.24 31.572 801.339 34.1514L805.116 35.4697ZM808.21 30.1979C809.534 28.7778 811.116 27.6915 812.978 26.935L811.473 23.2291C809.085 24.1991 807.015 25.6141 805.284 27.4701L808.21 30.1979ZM812.995 26.9282C814.844 26.1579 816.957 25.7539 819.364 25.7539V21.7539C816.504 21.7539 813.858 22.2353 811.456 23.2359L812.995 26.9282ZM819.364 25.7539C822.733 25.7539 825.431 26.3269 827.541 27.3722L829.317 23.788C826.512 22.3984 823.167 21.7539 819.364 21.7539V25.7539ZM827.547 27.3753C829.729 28.4469 831.351 29.8815 832.485 31.6664L835.861 29.5211C834.295 27.056 832.087 25.1482 829.31 23.7849L827.547 27.3753ZM832.498 31.6868C833.678 33.4941 834.388 35.5771 834.605 37.9784L838.589 37.6192C838.318 34.6195 837.413 31.8991 835.848 29.5007L832.498 31.6868ZM836.597 35.7988H827.034V39.7988H836.597V35.7988ZM829.031 37.6918C828.952 36.2033 828.602 34.8109 827.943 33.552L824.399 35.405C824.759 36.0941 824.984 36.9152 825.037 37.9058L829.031 37.6918ZM827.952 33.5683C827.232 32.1597 826.101 31.0909 824.67 30.3467L822.824 33.8955C823.607 34.3023 824.092 34.8051 824.39 35.3887L827.952 33.5683ZM824.685 30.3544C823.203 29.5683 821.379 29.2578 819.364 29.2578V33.2578C821.024 33.2578 822.122 33.5228 822.81 33.8878L824.685 30.3544ZM819.364 29.2578C817.838 29.2578 816.405 29.5348 815.116 30.1501L816.839 33.76C817.498 33.4457 818.323 33.2578 819.364 33.2578V29.2578ZM815.116 30.1501C813.806 30.7752 812.727 31.7221 811.88 32.9357L815.161 35.2244C815.642 34.5344 816.201 34.0646 816.839 33.76L815.116 30.1501ZM811.862 32.9618C811.051 34.1657 810.483 35.6039 810.111 37.2163L814.008 38.1157C814.3 36.8506 814.707 35.8981 815.179 35.1984L811.862 32.9618ZM810.112 37.2096C809.736 38.815 809.562 40.6465 809.562 42.6797H813.562C813.562 40.8613 813.719 39.3503 814.007 38.1224L810.112 37.2096ZM809.562 42.6797V44.6387H813.562V42.6797H809.562ZM809.562 44.6387C809.562 46.6783 809.712 48.509 810.032 50.111L813.954 49.3265C813.699 48.0509 813.562 46.4949 813.562 44.6387H809.562ZM810.038 50.1399C810.387 51.7607 810.944 53.2095 811.763 54.423L815.079 52.1864C814.614 51.4963 814.219 50.5544 813.948 49.2976L810.038 50.1399ZM811.775 54.4411C812.613 55.6546 813.705 56.5894 815.032 57.2089L816.724 53.5841C816.059 53.2738 815.513 52.8141 815.067 52.1683L811.775 54.4411ZM815.047 57.2159C816.382 57.8252 817.885 58.0938 819.497 58.0938V54.0938C818.321 54.0938 817.41 53.8974 816.709 53.5771L815.047 57.2159ZM819.497 58.0938C821.263 58.0938 822.876 57.8504 824.271 57.2814L822.759 53.578C821.984 53.8944 820.919 54.0938 819.497 54.0938V58.0938ZM824.303 57.268C825.733 56.6548 826.896 55.6978 827.706 54.3906L824.304 52.2852C823.963 52.8374 823.465 53.2749 822.727 53.5914L824.303 57.268ZM827.706 54.3906C828.506 53.0983 828.888 51.5702 828.966 49.912L824.97 49.7247C824.915 50.8998 824.655 51.7181 824.304 52.2852L827.706 54.3906ZM866.74 24.3184H868.74V22.3184H866.74V24.3184ZM866.74 63V65H868.74V63H866.74ZM857.111 63H855.111V65H857.111V63ZM857.111 24.3184V22.3184H855.111V24.3184H857.111ZM879.324 24.3184H881.324V22.3184H879.324V24.3184ZM879.324 31.8223V33.8223H881.324V31.8223H879.324ZM844.793 31.8223H842.793V33.8223H844.793V31.8223ZM844.793 24.3184V22.3184H842.793V24.3184H844.793ZM864.74 24.3184V63H868.74V24.3184H864.74ZM866.74 61H857.111V65H866.74V61ZM859.111 63V24.3184H855.111V63H859.111ZM857.111 26.3184H866.74V22.3184H857.111V26.3184ZM877.324 24.3184V31.8223H881.324V24.3184H877.324ZM879.324 29.8223H844.793V33.8223H879.324V29.8223ZM846.793 31.8223V24.3184H842.793V31.8223H846.793ZM844.793 26.3184H879.324V22.3184H844.793V26.3184ZM922.781 52.4082L920.91 51.7021L920.907 51.7098L920.905 51.7176L922.781 52.4082ZM913.385 62.2363L914.118 64.0972L914.128 64.0933L913.385 62.2363ZM898.809 62.2363L898.06 64.0907L898.071 64.0952L898.082 64.0996L898.809 62.2363ZM893.098 58.418L891.665 59.8129L893.098 58.418ZM889.313 34.9434L887.442 34.2372L887.438 34.247L889.313 34.9434ZM893.031 28.9336L891.589 27.5481L891.589 27.5485L893.031 28.9336ZM898.742 25.1152L899.475 26.9761L899.485 26.9722L898.742 25.1152ZM913.319 25.1152L912.569 26.9696L912.581 26.9741L912.592 26.9785L913.319 25.1152ZM919.063 28.9336L917.62 30.3191L917.63 30.3286L919.063 28.9336ZM922.781 34.9434L920.905 35.6339L920.908 35.6447L920.913 35.6553L922.781 34.9434ZM913.916 37.8984L911.981 38.4045L911.986 38.4223L911.991 38.4399L913.916 37.8984ZM912.256 34.2793L910.626 35.4383L910.641 35.459L910.656 35.4793L912.256 34.2793ZM909.6 32.0215L908.69 33.8027L908.713 33.8142L908.736 33.8251L909.6 32.0215ZM902.428 32.0215L903.307 33.8179L903.315 33.8142L903.322 33.8103L902.428 32.0215ZM899.805 34.2793L901.422 35.4556L901.429 35.447L901.435 35.4383L899.805 34.2793ZM898.178 37.8984L896.243 37.3924L896.24 37.4029L896.238 37.4134L898.178 37.8984ZM898.178 49.3867L896.236 49.8648L896.239 49.8788L896.243 49.8928L898.178 49.3867ZM899.838 53.0723L898.213 54.2381L898.219 54.2466L898.225 54.255L899.838 53.0723ZM902.494 55.3633L901.585 57.1445L901.607 57.156L901.63 57.1669L902.494 55.3633ZM909.666 55.3633L910.545 57.1597L910.561 57.1522L910.576 57.1445L909.666 55.3633ZM912.289 53.0723L910.664 51.9064L910.659 51.9132L912.289 53.0723ZM922.11 42.8789V44.4727H926.11V42.8789H922.11ZM922.11 44.4727C922.11 47.2166 921.697 49.6169 920.91 51.7021L924.653 53.1143C925.637 50.5068 926.11 47.6167 926.11 44.4727H922.11ZM920.905 51.7176C920.128 53.8276 919.04 55.5885 917.653 57.0329L920.539 59.803C922.34 57.9272 923.708 55.6815 924.658 53.0988L920.905 51.7176ZM917.653 57.0329C916.264 58.4803 914.601 59.5958 912.642 60.3794L914.128 64.0933C916.596 63.1061 918.741 61.6759 920.539 59.803L917.653 57.0329ZM912.652 60.3755C910.722 61.1358 908.551 61.5312 906.114 61.5312V65.5312C908.989 65.5312 911.665 65.0634 914.118 64.0971L912.652 60.3755ZM906.114 61.5312C903.677 61.5312 901.492 61.1359 899.536 60.373L898.082 64.0996C900.553 65.0633 903.238 65.5312 906.114 65.5312V61.5312ZM899.558 60.382C897.619 59.5984 895.949 58.4801 894.531 57.023L891.665 59.8129C893.478 61.6761 895.616 63.1034 898.06 64.0907L899.558 60.382ZM894.531 57.023C893.122 55.5757 892.014 53.8126 891.217 51.7021L887.475 53.1143C888.449 55.6965 889.842 57.9399 891.665 59.8129L894.531 57.023ZM891.217 51.7021C890.43 49.6169 890.018 47.2166 890.018 44.4727H886.018C886.018 47.6167 886.491 50.5068 887.475 53.1143L891.217 51.7021ZM890.018 44.4727V42.8789H886.018V44.4727H890.018ZM890.018 42.8789C890.018 40.105 890.422 37.7021 891.188 35.6397L887.438 34.247C886.477 36.833 886.018 39.7205 886.018 42.8789H890.018ZM891.184 35.6495C891.983 33.5332 893.084 31.7669 894.474 30.3187L891.589 27.5485C889.792 29.4206 888.414 31.6608 887.442 34.2372L891.184 35.6495ZM894.474 30.3191C895.888 28.8465 897.549 27.7349 899.475 26.9761L898.009 23.2544C895.553 24.2222 893.406 25.6561 891.589 27.5481L894.474 30.3191ZM899.485 26.9722C901.437 26.1915 903.616 25.7871 906.047 25.7871V21.7871C903.165 21.7871 900.475 22.2682 898 23.2583L899.485 26.9722ZM906.047 25.7871C908.478 25.7871 910.644 26.1916 912.569 26.9696L914.068 23.2609C911.611 22.2681 908.928 21.7871 906.047 21.7871V25.7871ZM912.592 26.9785C914.54 27.7384 916.209 28.8501 917.62 30.3191L920.505 27.5481C918.684 25.6525 916.524 24.2187 914.045 23.2519L912.592 26.9785ZM917.63 30.3286C919.035 31.7721 920.13 33.5298 920.905 35.6339L924.658 34.2528C923.706 31.6642 922.323 29.4154 920.496 27.5386L917.63 30.3286ZM920.913 35.6553C921.696 37.713 922.11 40.1103 922.11 42.8789H926.11C926.11 39.7152 925.637 36.8221 924.65 34.2314L920.913 35.6553ZM916.514 44.4727V42.8125H912.514V44.4727H916.514ZM916.514 42.8125C916.514 40.8158 916.301 38.989 915.842 37.3569L911.991 38.4399C912.329 39.6412 912.514 41.0905 912.514 42.8125H916.514ZM915.851 37.3924C915.423 35.7568 914.772 34.3011 913.856 33.0793L910.656 35.4793C911.201 36.2054 911.657 37.1625 911.981 38.4045L915.851 37.3924ZM913.886 33.1203C912.989 31.8586 911.844 30.8791 910.464 30.2179L908.736 33.8251C909.481 34.1821 910.107 34.7078 910.626 35.4383L913.886 33.1203ZM910.509 30.2403C909.151 29.5466 907.648 29.2246 906.047 29.2246V33.2246C907.103 33.2246 907.968 33.4339 908.69 33.8027L910.509 30.2403ZM906.047 29.2246C904.429 29.2246 902.91 29.5446 901.534 30.2326L903.322 33.8103C904.071 33.4359 904.965 33.2246 906.047 33.2246V29.2246ZM901.549 30.2251C900.192 30.8889 899.066 31.868 898.175 33.1203L901.435 35.4383C901.961 34.6985 902.583 34.1723 903.307 33.8179L901.549 30.2251ZM898.187 33.103C897.302 34.3198 896.668 35.7671 896.243 37.3924L900.113 38.4045C900.44 37.1522 900.891 36.1867 901.422 35.4556L898.187 33.103ZM896.238 37.4134C895.835 39.0249 895.647 40.8318 895.647 42.8125H899.647C899.647 41.0745 899.813 39.6053 900.118 38.3835L896.238 37.4134ZM895.647 42.8125V44.4727H899.647V42.8125H895.647ZM895.647 44.4727C895.647 46.4342 895.835 48.2375 896.236 49.8648L900.12 48.9087C899.812 47.6584 899.647 46.1856 899.647 44.4727H895.647ZM896.243 49.8928C896.67 51.5253 897.316 52.9874 898.213 54.2381L901.463 51.9064C900.9 51.1207 900.439 50.1257 900.113 48.8807L896.243 49.8928ZM898.225 54.255C899.129 55.4879 900.251 56.4632 901.585 57.1445L903.404 53.5821C902.657 53.2009 902.008 52.6488 901.451 51.8895L898.225 54.255ZM901.63 57.1669C902.999 57.8229 904.508 58.127 906.114 58.127V54.127C905.019 54.127 904.115 53.9218 903.359 53.5597L901.63 57.1669ZM906.114 58.127C907.702 58.127 909.194 57.8212 910.545 57.1597L908.787 53.5668C908.058 53.9236 907.182 54.127 906.114 54.127V58.127ZM910.576 57.1445C911.916 56.46 913.033 55.4772 913.919 54.2313L910.659 51.9132C910.129 52.6595 909.497 53.2041 908.757 53.5821L910.576 57.1445ZM913.914 54.2381C914.812 52.9874 915.457 51.5253 915.884 49.8928L912.015 48.8807C911.689 50.1257 911.228 51.1207 910.664 51.9064L913.914 54.2381ZM915.884 49.8928C916.313 48.2554 916.514 46.4423 916.514 44.4727H912.514C912.514 46.1774 912.339 47.6404 912.015 48.8807L915.884 49.8928ZM944.192 12H946.192V10H944.192V12ZM943.362 21.4961L941.482 20.8148L941.477 20.8269L941.473 20.8391L943.362 21.4961ZM941.204 25.8457L942.864 26.9614L942.868 26.9551L942.872 26.9489L941.204 25.8457ZM938.216 29.2988L937.215 31.0306L938.457 31.748L939.535 30.8021L938.216 29.2988ZM933.733 26.709L932.039 25.6464L930.937 27.4033L932.733 28.4407L933.733 26.709ZM935.825 22.459L937.697 23.1642L937.7 23.1554L935.825 22.459ZM936.688 12V10H934.688V12H936.688ZM942.192 12V17.0469H946.192V12H942.192ZM942.192 17.0469C942.192 18.2254 941.966 19.478 941.482 20.8148L945.242 22.1774C945.865 20.4595 946.192 18.7459 946.192 17.0469H942.192ZM941.473 20.8391C940.998 22.2063 940.353 23.5066 939.536 24.7425L942.872 26.9489C943.87 25.44 944.664 23.8405 945.251 22.1531L941.473 20.8391ZM939.544 24.73C938.721 25.9548 937.836 26.9711 936.896 27.7956L939.535 30.8021C940.765 29.7229 941.872 28.4371 942.864 26.9614L939.544 24.73ZM939.216 27.5671L934.734 24.9773L932.733 28.4407L937.215 31.0306L939.216 27.5671ZM935.428 27.7716C936.321 26.3462 937.077 24.809 937.697 23.1642L933.953 21.7538C933.422 23.1637 932.783 24.4597 932.039 25.6464L935.428 27.7716ZM937.7 23.1554C938.375 21.3381 938.688 19.301 938.688 17.0801H934.688C934.688 18.9321 934.426 20.481 933.95 21.7626L937.7 23.1554ZM938.688 17.0801V12H934.688V17.0801H938.688ZM936.688 14H944.192V10H936.688V14Z" fill="#08E8E1"/>
</g>
<line x1="458" y1="35" x2="3.92819e-05" y2="35.004" stroke="#F9FAFC" stroke-width="2"/>
<line x1="1440" y1="35" x2="980.998" y2="34.0556" stroke="#F9FAFC" stroke-width="2"/>
<defs>
<filter id="filter0_d_1_436" x="490.779" y="9" width="458.414" height="59.5312" filterUnits="userSpaceOnUse" color-interpolation-filters="sRGB">
<feFlood flood-opacity="0" result="BackgroundImageFix"/>
<feColorMatrix in="SourceAlpha" type="matrix" values="0 0 0 0 0 0 0 0 0 0 0 0 0 0 0 0 0 0 127 0" result="hardAlpha"/>
<feOffset dx="1" dy="1"/>
<feGaussianBlur stdDeviation="2"/>
<feComposite in2="hardAlpha" operator="out"/>
<feColorMatrix type="matrix" values="0 0 0 0 0.0313726 0 0 0 0 0.909804 0 0 0 0 0.882353 0 0 0 1 0"/>
<feBlend mode="normal" in2="BackgroundImageFix" result="effect1_dropShadow_1_436"/>
<feBlend mode="normal" in="SourceGraphic" in2="effect1_dropShadow_1_436" result="shape"/>
</filter>
</defs>
</svg>
