<svg width="1436" height="69" viewBox="0 0 1436 69" fill="none" xmlns="http://www.w3.org/2000/svg">
<g filter="url(#filter0_d_1_440)">
<path d="M567.172 49.8184H576.768C576.613 52.5632 575.827 54.9648 574.41 57.0234C572.993 59.082 571.034 60.6868 568.533 61.8379C566.032 62.9668 563.088 63.5312 559.701 63.5312C556.934 63.5312 554.466 63.0996 552.297 62.2363C550.15 61.373 548.324 60.1224 546.818 58.4844C545.313 56.8464 544.162 54.8652 543.365 52.541C542.59 50.2168 542.203 47.5827 542.203 44.6387V42.7129C542.203 39.7689 542.613 37.1348 543.432 34.8105C544.251 32.4642 545.424 30.472 546.951 28.834C548.479 27.196 550.305 25.9453 552.43 25.082C554.555 24.1966 556.934 23.7539 559.568 23.7539C563.154 23.7539 566.176 24.3626 568.633 25.5801C571.112 26.7975 573.027 28.4688 574.377 30.5938C575.749 32.6966 576.557 35.0983 576.801 37.7988H567.238C567.172 36.5592 566.884 35.4525 566.375 34.4785C565.866 33.4824 565.058 32.6966 563.951 32.1211C562.867 31.5456 561.406 31.2578 559.568 31.2578C558.284 31.2578 557.156 31.4902 556.182 31.9551C555.208 32.4199 554.389 33.1283 553.725 34.0801C553.083 35.0319 552.596 36.2272 552.264 37.666C551.932 39.0827 551.766 40.7539 551.766 42.6797V44.6387C551.766 46.5866 551.909 48.2799 552.197 49.7188C552.507 51.1576 552.983 52.3529 553.625 53.3047C554.267 54.2344 555.086 54.9316 556.082 55.3965C557.1 55.8613 558.307 56.0938 559.701 56.0938C561.295 56.0938 562.634 55.8724 563.719 55.4297C564.803 54.9648 565.633 54.2676 566.209 53.3379C566.784 52.4082 567.105 51.235 567.172 49.8184ZM622.085 42.8789V44.4727C622.085 47.4167 621.642 50.0618 620.756 52.4082C619.893 54.7546 618.665 56.7578 617.071 58.418C615.477 60.0781 613.573 61.3509 611.36 62.2363C609.168 63.0996 606.745 63.5312 604.088 63.5312C601.432 63.5312 598.997 63.0996 596.784 62.2363C594.592 61.3509 592.689 60.0781 591.073 58.418C589.457 56.7578 588.206 54.7546 587.321 52.4082C586.435 50.0618 585.993 47.4167 585.993 44.4727V42.8789C585.993 39.9128 586.424 37.2676 587.288 34.9434C588.173 32.597 589.413 30.5938 591.006 28.9336C592.622 27.2513 594.526 25.9785 596.717 25.1152C598.931 24.2298 601.366 23.7871 604.022 23.7871C606.678 23.7871 609.102 24.2298 611.293 25.1152C613.507 25.9785 615.422 27.2513 617.038 28.9336C618.654 30.5938 619.893 32.597 620.756 34.9434C621.642 37.2676 622.085 39.9128 622.085 42.8789ZM612.489 44.4727V42.8125C612.489 40.9531 612.29 39.3151 611.891 37.8984C611.515 36.4596 610.961 35.2533 610.231 34.2793C609.523 33.2832 608.637 32.5306 607.575 32.0215C606.534 31.4902 605.35 31.2246 604.022 31.2246C602.672 31.2246 601.465 31.4902 600.403 32.0215C599.363 32.5306 598.488 33.2832 597.78 34.2793C597.071 35.2533 596.529 36.4596 596.153 37.8984C595.799 39.3151 595.622 40.9531 595.622 42.8125V44.4727C595.622 46.3099 595.799 47.9479 596.153 49.3867C596.529 50.8255 597.083 52.054 597.813 53.0723C598.543 54.0684 599.429 54.832 600.469 55.3633C601.532 55.8724 602.738 56.127 604.088 56.127C605.417 56.127 606.601 55.8724 607.641 55.3633C608.682 54.832 609.556 54.0684 610.264 53.0723C610.995 52.054 611.548 50.8255 611.924 49.3867C612.301 47.9479 612.489 46.3099 612.489 44.4727ZM646.384 63H637.153L637.187 55.5293H646.384C648.642 55.5293 650.468 55.1198 651.862 54.3008C653.257 53.4818 654.264 52.2533 654.884 50.6152C655.526 48.9772 655.847 46.9297 655.847 44.4727V42.8125C655.847 41.0195 655.67 39.4368 655.316 38.0645C654.961 36.6699 654.408 35.5189 653.655 34.6113C652.903 33.6816 651.918 32.9844 650.7 32.5195C649.483 32.0547 648 31.8223 646.251 31.8223H636.954V24.3184H646.251C649.062 24.3184 651.641 24.7721 653.987 25.6797C656.334 26.5872 658.359 27.8711 660.064 29.5312C661.79 31.1693 663.118 33.1283 664.048 35.4082C664.978 37.666 665.442 40.1562 665.442 42.8789V44.4727C665.442 48.0807 664.623 51.2904 662.985 54.1016C661.37 56.8906 659.123 59.071 656.245 60.6426C653.368 62.2142 650.081 63 646.384 63ZM642.599 24.3184V63H633.036V24.3184H642.599ZM711.191 42.8789V44.4727C711.191 47.4167 710.748 50.0618 709.863 52.4082C709 54.7546 707.771 56.7578 706.177 58.418C704.584 60.0781 702.68 61.3509 700.466 62.2363C698.275 63.0996 695.851 63.5312 693.195 63.5312C690.539 63.5312 688.104 63.0996 685.89 62.2363C683.699 61.3509 681.795 60.0781 680.179 58.418C678.563 56.7578 677.313 54.7546 676.427 52.4082C675.542 50.0618 675.099 47.4167 675.099 44.4727V42.8789C675.099 39.9128 675.531 37.2676 676.394 34.9434C677.28 32.597 678.519 30.5938 680.113 28.9336C681.729 27.2513 683.632 25.9785 685.824 25.1152C688.037 24.2298 690.472 23.7871 693.129 23.7871C695.785 23.7871 698.209 24.2298 700.4 25.1152C702.614 25.9785 704.528 27.2513 706.144 28.9336C707.76 30.5938 709 32.597 709.863 34.9434C710.748 37.2676 711.191 39.9128 711.191 42.8789ZM701.595 44.4727V42.8125C701.595 40.9531 701.396 39.3151 700.998 37.8984C700.621 36.4596 700.068 35.2533 699.338 34.2793C698.629 33.2832 697.744 32.5306 696.681 32.0215C695.641 31.4902 694.457 31.2246 693.129 31.2246C691.778 31.2246 690.572 31.4902 689.509 32.0215C688.469 32.5306 687.595 33.2832 686.886 34.2793C686.178 35.2533 685.636 36.4596 685.259 37.8984C684.905 39.3151 684.728 40.9531 684.728 42.8125V44.4727C684.728 46.3099 684.905 47.9479 685.259 49.3867C685.636 50.8255 686.189 52.054 686.92 53.0723C687.65 54.0684 688.535 54.832 689.576 55.3633C690.638 55.8724 691.845 56.127 693.195 56.127C694.523 56.127 695.707 55.8724 696.748 55.3633C697.788 54.832 698.662 54.0684 699.371 53.0723C700.101 52.054 700.655 50.8255 701.031 49.3867C701.407 47.9479 701.595 46.3099 701.595 44.4727ZM741.268 24.3184V63H731.639V24.3184H741.268ZM753.852 24.3184V31.8223H719.321V24.3184H753.852ZM791.764 40.2891V47.7598H770.216V40.2891H791.764ZM773.337 24.3184V63H763.774V24.3184H773.337ZM798.272 24.3184V63H788.71V24.3184H798.272ZM845.183 42.8789V44.4727C845.183 47.4167 844.74 50.0618 843.855 52.4082C842.992 54.7546 841.763 56.7578 840.169 58.418C838.576 60.0781 836.672 61.3509 834.458 62.2363C832.267 63.0996 829.843 63.5312 827.187 63.5312C824.531 63.5312 822.096 63.0996 819.882 62.2363C817.691 61.3509 815.787 60.0781 814.171 58.418C812.555 56.7578 811.305 54.7546 810.419 52.4082C809.534 50.0618 809.091 47.4167 809.091 44.4727V42.8789C809.091 39.9128 809.523 37.2676 810.386 34.9434C811.272 32.597 812.511 30.5938 814.105 28.9336C815.721 27.2513 817.624 25.9785 819.816 25.1152C822.029 24.2298 824.464 23.7871 827.12 23.7871C829.777 23.7871 832.201 24.2298 834.392 25.1152C836.606 25.9785 838.52 27.2513 840.136 28.9336C841.752 30.5938 842.992 32.597 843.855 34.9434C844.74 37.2676 845.183 39.9128 845.183 42.8789ZM835.587 44.4727V42.8125C835.587 40.9531 835.388 39.3151 834.99 37.8984C834.613 36.4596 834.06 35.2533 833.329 34.2793C832.621 33.2832 831.736 32.5306 830.673 32.0215C829.633 31.4902 828.449 31.2246 827.12 31.2246C825.77 31.2246 824.564 31.4902 823.501 32.0215C822.461 32.5306 821.587 33.2832 820.878 34.2793C820.17 35.2533 819.628 36.4596 819.251 37.8984C818.897 39.3151 818.72 40.9531 818.72 42.8125V44.4727C818.72 46.3099 818.897 47.9479 819.251 49.3867C819.628 50.8255 820.181 52.054 820.911 53.0723C821.642 54.0684 822.527 54.832 823.568 55.3633C824.63 55.8724 825.837 56.127 827.187 56.127C828.515 56.127 829.699 55.8724 830.74 55.3633C831.78 54.832 832.654 54.0684 833.363 53.0723C834.093 52.054 834.647 50.8255 835.023 49.3867C835.399 47.9479 835.587 46.3099 835.587 44.4727ZM890.599 24.3184V63H881.004L865.697 38.3633V63H856.135V24.3184H865.697L881.004 48.9551V24.3184H890.599Z" fill="white"/>
<path d="M567.172 49.8184V47.8184H565.263L565.174 49.7247L567.172 49.8184ZM576.768 49.8184L578.764 49.9311L578.884 47.8184H576.768V49.8184ZM574.41 57.0234L572.763 55.8896L574.41 57.0234ZM568.533 61.8379L569.356 63.6608L569.363 63.6578L569.369 63.6548L568.533 61.8379ZM552.297 62.2363L551.551 64.092L551.557 64.0946L552.297 62.2363ZM543.365 52.541L541.468 53.1735L541.471 53.1816L541.473 53.1897L543.365 52.541ZM543.432 34.8105L545.318 35.4753L545.32 35.4697L543.432 34.8105ZM546.951 28.834L545.488 27.4701L546.951 28.834ZM552.43 25.082L553.182 26.935L553.191 26.9316L553.199 26.9282L552.43 25.082ZM568.633 25.5801L567.745 27.3722L567.751 27.3753L568.633 25.5801ZM574.377 30.5938L572.689 31.6664L572.695 31.6766L572.702 31.6868L574.377 30.5938ZM576.801 37.7988V39.7988H578.989L578.793 37.6192L576.801 37.7988ZM567.238 37.7988L565.241 37.9058L565.343 39.7988H567.238V37.7988ZM566.375 34.4785L564.594 35.3887L564.598 35.3969L564.603 35.405L566.375 34.4785ZM563.951 32.1211L563.014 33.8878L563.021 33.8917L563.028 33.8955L563.951 32.1211ZM556.182 31.9551L555.32 30.1501L556.182 31.9551ZM553.725 34.0801L552.084 32.9357L552.075 32.9487L552.066 32.9618L553.725 34.0801ZM552.264 37.666L554.211 38.1224L554.212 38.1157L552.264 37.666ZM552.197 49.7188L550.236 50.111L550.239 50.1254L550.242 50.1399L552.197 49.7188ZM553.625 53.3047L551.967 54.423L551.973 54.4321L551.979 54.4411L553.625 53.3047ZM556.082 55.3965L555.236 57.2089L555.244 57.2124L555.251 57.2159L556.082 55.3965ZM563.719 55.4297L564.475 57.2814L564.491 57.2748L564.507 57.268L563.719 55.4297ZM567.172 51.8184H576.768V47.8184H567.172V51.8184ZM574.771 49.7056C574.634 52.1223 573.951 54.1627 572.763 55.8896L576.058 58.1572C577.703 55.767 578.591 53.004 578.764 49.9311L574.771 49.7056ZM572.763 55.8896C571.57 57.622 569.906 59.0047 567.697 60.021L569.369 63.6548C572.163 62.369 574.417 60.542 576.058 58.1572L572.763 55.8896ZM567.71 60.015C565.521 61.0032 562.869 61.5312 559.701 61.5312V65.5312C563.307 65.5312 566.543 64.9304 569.356 63.6608L567.71 60.015ZM559.701 61.5312C557.142 61.5312 554.931 61.1321 553.036 60.3781L551.557 64.0946C554.001 65.0671 556.727 65.5312 559.701 65.5312V61.5312ZM553.043 60.3807C551.161 59.624 549.586 58.5407 548.291 57.1311L545.346 59.8376C547.061 61.7041 549.138 63.1221 551.551 64.092L553.043 60.3807ZM548.291 57.1311C546.991 55.7168 545.974 53.9827 545.257 51.8924L541.473 53.1897C542.35 55.7477 543.635 57.9759 545.346 59.8376L548.291 57.1311ZM545.263 51.9086C544.568 49.8246 544.203 47.4097 544.203 44.6387H540.203C540.203 47.7557 540.613 50.609 541.468 53.1735L545.263 51.9086ZM544.203 44.6387V42.7129H540.203V44.6387H544.203ZM544.203 42.7129C544.203 39.9524 544.587 37.5489 545.318 35.4752L541.545 34.1458C540.638 36.7206 540.203 39.5853 540.203 42.7129H544.203ZM545.32 35.4697C546.058 33.3564 547.096 31.6118 548.414 30.1979L545.488 27.4701C543.752 29.3322 542.444 31.572 541.543 34.1514L545.32 35.4697ZM548.414 30.1979C549.738 28.7778 551.32 27.6915 553.182 26.935L551.677 23.2291C549.289 24.1991 547.219 25.6141 545.488 27.4701L548.414 30.1979ZM553.199 26.9282C555.048 26.1579 557.16 25.7539 559.568 25.7539V21.7539C556.708 21.7539 554.062 22.2353 551.66 23.2359L553.199 26.9282ZM559.568 25.7539C562.937 25.7539 565.635 26.3269 567.745 27.3722L569.521 23.788C566.716 22.3984 563.371 21.7539 559.568 21.7539V25.7539ZM567.751 27.3753C569.933 28.4469 571.555 29.8815 572.689 31.6664L576.065 29.5211C574.499 27.056 572.291 25.1482 569.514 23.7849L567.751 27.3753ZM572.702 31.6868C573.882 33.4941 574.592 35.5771 574.809 37.9784L578.793 37.6192C578.522 34.6195 577.617 31.8991 576.052 29.5007L572.702 31.6868ZM576.801 35.7988H567.238V39.7988H576.801V35.7988ZM569.235 37.6918C569.156 36.2033 568.805 34.8109 568.147 33.552L564.603 35.405C564.963 36.0941 565.188 36.9152 565.241 37.9058L569.235 37.6918ZM568.156 33.5683C567.436 32.1597 566.305 31.0909 564.874 30.3467L563.028 33.8955C563.811 34.3023 564.296 34.8051 564.594 35.3887L568.156 33.5683ZM564.889 30.3544C563.407 29.5683 561.583 29.2578 559.568 29.2578V33.2578C561.228 33.2578 562.326 33.5228 563.014 33.8878L564.889 30.3544ZM559.568 29.2578C558.042 29.2578 556.609 29.5348 555.32 30.1501L557.043 33.76C557.702 33.4457 558.527 33.2578 559.568 33.2578V29.2578ZM555.32 30.1501C554.01 30.7752 552.931 31.7221 552.084 32.9357L555.365 35.2244C555.846 34.5344 556.405 34.0646 557.043 33.76L555.32 30.1501ZM552.066 32.9618C551.255 34.1657 550.687 35.6039 550.315 37.2163L554.212 38.1157C554.504 36.8506 554.911 35.8981 555.383 35.1984L552.066 32.9618ZM550.316 37.2096C549.94 38.815 549.766 40.6465 549.766 42.6797H553.766C553.766 40.8613 553.923 39.3503 554.211 38.1224L550.316 37.2096ZM549.766 42.6797V44.6387H553.766V42.6797H549.766ZM549.766 44.6387C549.766 46.6783 549.916 48.509 550.236 50.111L554.158 49.3265C553.903 48.0509 553.766 46.4949 553.766 44.6387H549.766ZM550.242 50.1399C550.591 51.7607 551.148 53.2095 551.967 54.423L555.283 52.1864C554.818 51.4963 554.423 50.5544 554.152 49.2976L550.242 50.1399ZM551.979 54.4411C552.817 55.6546 553.909 56.5894 555.236 57.2089L556.928 53.5841C556.263 53.2738 555.717 52.8141 555.271 52.1683L551.979 54.4411ZM555.251 57.2159C556.586 57.8252 558.089 58.0938 559.701 58.0938V54.0938C558.525 54.0938 557.614 53.8974 556.913 53.5771L555.251 57.2159ZM559.701 58.0938C561.466 58.0938 563.08 57.8504 564.475 57.2814L562.963 53.578C562.188 53.8944 561.123 54.0938 559.701 54.0938V58.0938ZM564.507 57.268C565.937 56.6548 567.1 55.6978 567.91 54.3906L564.508 52.2852C564.167 52.8374 563.669 53.2749 562.931 53.5914L564.507 57.268ZM567.91 54.3906C568.71 53.0983 569.092 51.5702 569.17 49.912L565.174 49.7247C565.119 50.8998 564.859 51.7181 564.508 52.2852L567.91 54.3906ZM620.756 52.4082L618.885 51.7021L618.882 51.7098L618.879 51.7176L620.756 52.4082ZM611.36 62.2363L612.093 64.0972L612.103 64.0933L611.36 62.2363ZM596.784 62.2363L596.035 64.0907L596.046 64.0952L596.057 64.0996L596.784 62.2363ZM591.073 58.418L589.64 59.8129L591.073 58.418ZM587.288 34.9434L585.416 34.2372L585.413 34.247L587.288 34.9434ZM591.006 28.9336L589.564 27.5481L589.564 27.5485L591.006 28.9336ZM596.717 25.1152L597.45 26.9761L597.46 26.9722L596.717 25.1152ZM611.294 25.1152L610.544 26.9696L610.556 26.9741L610.567 26.9785L611.294 25.1152ZM617.038 28.9336L615.595 30.3191L615.604 30.3286L617.038 28.9336ZM620.756 34.9434L618.879 35.6339L618.883 35.6447L618.887 35.6553L620.756 34.9434ZM611.891 37.8984L609.956 38.4045L609.961 38.4223L609.966 38.4399L611.891 37.8984ZM610.231 34.2793L608.601 35.4383L608.616 35.459L608.631 35.4793L610.231 34.2793ZM607.575 32.0215L606.665 33.8027L606.688 33.8142L606.711 33.8251L607.575 32.0215ZM600.403 32.0215L601.282 33.8179L601.29 33.8142L601.297 33.8103L600.403 32.0215ZM597.78 34.2793L599.397 35.4556L599.404 35.447L599.41 35.4383L597.78 34.2793ZM596.153 37.8984L594.218 37.3924L594.215 37.4029L594.213 37.4134L596.153 37.8984ZM596.153 49.3867L594.211 49.8648L594.214 49.8788L594.218 49.8928L596.153 49.3867ZM597.813 53.0723L596.188 54.2381L596.194 54.2466L596.2 54.255L597.813 53.0723ZM600.469 55.3633L599.56 57.1445L599.582 57.156L599.605 57.1669L600.469 55.3633ZM607.641 55.3633L608.52 57.1597L608.536 57.1522L608.551 57.1445L607.641 55.3633ZM610.264 53.0723L608.639 51.9064L608.634 51.9132L610.264 53.0723ZM620.085 42.8789V44.4727H624.085V42.8789H620.085ZM620.085 44.4727C620.085 47.2166 619.672 49.6169 618.885 51.7021L622.628 53.1143C623.612 50.5068 624.085 47.6167 624.085 44.4727H620.085ZM618.879 51.7176C618.103 53.8276 617.015 55.5885 615.628 57.0329L618.514 59.803C620.314 57.9272 621.683 55.6815 622.633 53.0988L618.879 51.7176ZM615.628 57.0329C614.239 58.4803 612.576 59.5958 610.617 60.3794L612.103 64.0933C614.571 63.1061 616.716 61.6759 618.514 59.803L615.628 57.0329ZM610.627 60.3755C608.697 61.1358 606.526 61.5312 604.088 61.5312V65.5312C606.964 65.5312 609.64 65.0634 612.093 64.0971L610.627 60.3755ZM604.088 61.5312C601.652 61.5312 599.467 61.1359 597.51 60.373L596.057 64.0996C598.528 65.0633 601.213 65.5312 604.088 65.5312V61.5312ZM597.533 60.382C595.594 59.5984 593.924 58.4801 592.506 57.023L589.64 59.8129C591.453 61.6761 593.591 63.1034 596.035 64.0907L597.533 60.382ZM592.506 57.023C591.097 55.5757 589.988 53.8126 589.192 51.7021L585.45 53.1143C586.424 55.6965 587.817 57.9399 589.64 59.8129L592.506 57.023ZM589.192 51.7021C588.405 49.6169 587.993 47.2166 587.993 44.4727H583.993C583.993 47.6167 584.466 50.5068 585.45 53.1143L589.192 51.7021ZM587.993 44.4727V42.8789H583.993V44.4727H587.993ZM587.993 42.8789C587.993 40.105 588.396 37.7021 589.162 35.6397L585.413 34.247C584.452 36.833 583.993 39.7205 583.993 42.8789H587.993ZM589.159 35.6495C589.957 33.5332 591.059 31.7669 592.449 30.3187L589.564 27.5485C587.766 29.4206 586.389 31.6608 585.416 34.2372L589.159 35.6495ZM592.449 30.3191C593.863 28.8465 595.524 27.7349 597.45 26.9761L595.984 23.2544C593.528 24.2222 591.381 25.6561 589.564 27.5481L592.449 30.3191ZM597.46 26.9722C599.412 26.1915 601.591 25.7871 604.022 25.7871V21.7871C601.14 21.7871 598.45 22.2682 595.975 23.2583L597.46 26.9722ZM604.022 25.7871C606.453 25.7871 608.619 26.1916 610.544 26.9696L612.043 23.2609C609.586 22.2681 606.903 21.7871 604.022 21.7871V25.7871ZM610.567 26.9785C612.515 27.7384 614.184 28.8501 615.595 30.3191L618.48 27.5481C616.659 25.6525 614.499 24.2187 612.02 23.2519L610.567 26.9785ZM615.604 30.3286C617.01 31.7721 618.105 33.5298 618.879 35.6339L622.633 34.2528C621.681 31.6642 620.298 29.4154 618.471 27.5386L615.604 30.3286ZM618.887 35.6553C619.671 37.713 620.085 40.1103 620.085 42.8789H624.085C624.085 39.7152 623.612 36.8221 622.625 34.2314L618.887 35.6553ZM614.489 44.4727V42.8125H610.489V44.4727H614.489ZM614.489 42.8125C614.489 40.8158 614.275 38.989 613.816 37.3569L609.966 38.4399C610.304 39.6412 610.489 41.0905 610.489 42.8125H614.489ZM613.826 37.3924C613.398 35.7568 612.747 34.3011 611.831 33.0793L608.631 35.4793C609.176 36.2054 609.631 37.1625 609.956 38.4045L613.826 37.3924ZM611.861 33.1203C610.964 31.8586 609.819 30.8791 608.439 30.2179L606.711 33.8251C607.456 34.1821 608.082 34.7078 608.601 35.4383L611.861 33.1203ZM608.484 30.2403C607.126 29.5466 605.623 29.2246 604.022 29.2246V33.2246C605.078 33.2246 605.943 33.4339 606.665 33.8027L608.484 30.2403ZM604.022 29.2246C602.404 29.2246 600.884 29.5446 599.508 30.2326L601.297 33.8103C602.046 33.4359 602.94 33.2246 604.022 33.2246V29.2246ZM599.524 30.2251C598.167 30.8889 597.04 31.868 596.15 33.1203L599.41 35.4383C599.936 34.6985 600.558 34.1723 601.282 33.8179L599.524 30.2251ZM596.162 33.103C595.277 34.3198 594.643 35.7671 594.218 37.3924L598.088 38.4045C598.415 37.1522 598.866 36.1867 599.397 35.4556L596.162 33.103ZM594.213 37.4134C593.81 39.0249 593.622 40.8318 593.622 42.8125H597.622C597.622 41.0745 597.788 39.6053 598.093 38.3835L594.213 37.4134ZM593.622 42.8125V44.4727H597.622V42.8125H593.622ZM593.622 44.4727C593.622 46.4342 593.81 48.2375 594.211 49.8648L598.095 48.9087C597.787 47.6584 597.622 46.1856 597.622 44.4727H593.622ZM594.218 49.8928C594.645 51.5253 595.291 52.9874 596.188 54.2381L599.438 51.9064C598.874 51.1207 598.413 50.1257 598.088 48.8807L594.218 49.8928ZM596.2 54.255C597.104 55.4879 598.226 56.4632 599.56 57.1445L601.379 53.5821C600.632 53.2009 599.983 52.6488 599.426 51.8895L596.2 54.255ZM599.605 57.1669C600.974 57.8229 602.483 58.127 604.088 58.127V54.127C602.994 54.127 602.089 53.9218 601.334 53.5597L599.605 57.1669ZM604.088 58.127C605.676 58.127 607.169 57.8212 608.52 57.1597L606.762 53.5668C606.033 53.9236 605.157 54.127 604.088 54.127V58.127ZM608.551 57.1445C609.891 56.46 611.008 55.4772 611.894 54.2313L608.634 51.9132C608.104 52.6595 607.472 53.2041 606.732 53.5821L608.551 57.1445ZM611.889 54.2381C612.787 52.9874 613.432 51.5253 613.859 49.8928L609.989 48.8807C609.664 50.1257 609.203 51.1207 608.639 51.9064L611.889 54.2381ZM613.859 49.8928C614.288 48.2554 614.489 46.4423 614.489 44.4727H610.489C610.489 46.1774 610.314 47.6404 609.989 48.8807L613.859 49.8928ZM637.153 63L635.153 62.9911L635.145 65H637.153V63ZM637.187 55.5293V53.5293H635.195L635.187 55.5204L637.187 55.5293ZM651.862 54.3008L652.875 56.0254L651.862 54.3008ZM654.884 50.6152L653.022 49.8855L653.017 49.8964L653.013 49.9075L654.884 50.6152ZM655.316 38.0645L653.377 38.5568L653.379 38.5642L655.316 38.0645ZM653.655 34.6113L652.101 35.8697L652.108 35.8789L652.116 35.888L653.655 34.6113ZM636.954 31.8223H634.954V33.8223H636.954V31.8223ZM636.954 24.3184V22.3184H634.954V24.3184H636.954ZM660.064 29.5312L658.668 30.9639L658.678 30.9731L658.687 30.9822L660.064 29.5312ZM664.048 35.4082L662.196 36.1634L662.199 36.1697L664.048 35.4082ZM662.985 54.1016L661.257 53.0947L661.255 53.0989L662.985 54.1016ZM656.245 60.6426L655.287 58.8873L656.245 60.6426ZM642.599 24.3184H644.599V22.3184H642.599V24.3184ZM642.599 63V65H644.599V63H642.599ZM633.036 63H631.036V65H633.036V63ZM633.036 24.3184V22.3184H631.036V24.3184H633.036ZM646.384 61H637.153V65H646.384V61ZM639.153 63.0089L639.187 55.5382L635.187 55.5204L635.153 62.9911L639.153 63.0089ZM637.187 57.5293H646.384V53.5293H637.187V57.5293ZM646.384 57.5293C648.863 57.5293 651.075 57.0824 652.875 56.0254L650.85 52.5762C649.86 53.1572 648.42 53.5293 646.384 53.5293V57.5293ZM652.875 56.0254C654.697 54.9555 655.987 53.35 656.754 51.323L653.013 49.9075C652.541 51.1565 651.817 52.008 650.85 52.5762L652.875 56.0254ZM656.746 51.345C657.507 49.402 657.847 47.0876 657.847 44.4727H653.847C653.847 46.7718 653.544 48.5524 653.022 49.8855L656.746 51.345ZM657.847 44.4727V42.8125H653.847V44.4727H657.847ZM657.847 42.8125C657.847 40.8932 657.658 39.1367 657.252 37.5647L653.379 38.5642C653.682 39.737 653.847 41.1459 653.847 42.8125H657.847ZM657.254 37.5721C656.843 35.952 656.174 34.5155 655.195 33.3347L652.116 35.888C652.642 36.5222 653.08 37.3878 653.377 38.5568L657.254 37.5721ZM655.21 33.3529C654.216 32.1252 652.93 31.23 651.414 30.6511L649.987 34.388C650.905 34.7387 651.59 35.2381 652.101 35.8697L655.21 33.3529ZM651.414 30.6511C649.905 30.0751 648.165 29.8223 646.251 29.8223V33.8223C647.834 33.8223 649.06 34.0342 649.987 34.388L651.414 30.6511ZM646.251 29.8223H636.954V33.8223H646.251V29.8223ZM638.954 31.8223V24.3184H634.954V31.8223H638.954ZM636.954 26.3184H646.251V22.3184H636.954V26.3184ZM646.251 26.3184C648.844 26.3184 651.175 26.7363 653.266 27.545L654.709 23.8144C652.107 22.8079 649.28 22.3184 646.251 22.3184V26.3184ZM653.266 27.545C655.375 28.3609 657.168 29.5026 658.668 30.9639L661.459 28.0986C659.55 26.2396 657.292 24.8135 654.709 23.8144L653.266 27.545ZM658.687 30.9822C660.2 32.4179 661.37 34.1371 662.196 36.1634L665.9 34.653C664.867 32.1194 663.38 29.9207 661.44 28.0803L658.687 30.9822ZM662.199 36.1697C663.018 38.1596 663.442 40.3874 663.442 42.8789H667.442C667.442 39.9251 666.937 37.1724 665.897 34.6467L662.199 36.1697ZM663.442 42.8789V44.4727H667.442V42.8789H663.442ZM663.442 44.4727C663.442 47.7665 662.698 50.6216 661.257 53.0947L664.714 55.1085C666.549 51.9592 667.442 48.395 667.442 44.4727H663.442ZM661.255 53.0989C659.826 55.5655 657.849 57.488 655.287 58.8873L657.204 62.3979C660.397 60.6539 662.913 58.2157 664.716 55.1042L661.255 53.0989ZM655.287 58.8873C652.739 60.2788 649.789 61 646.384 61V65C650.372 65 653.996 64.1496 657.204 62.3979L655.287 58.8873ZM640.599 24.3184V63H644.599V24.3184H640.599ZM642.599 61H633.036V65H642.599V61ZM635.036 63V24.3184H631.036V63H635.036ZM633.036 26.3184H642.599V22.3184H633.036V26.3184ZM709.863 52.4082L707.992 51.7021L707.989 51.7098L707.986 51.7176L709.863 52.4082ZM700.466 62.2363L701.2 64.0972L701.209 64.0933L700.466 62.2363ZM685.89 62.2363L685.141 64.0907L685.152 64.0952L685.164 64.0996L685.89 62.2363ZM680.179 58.418L678.746 59.8129L680.179 58.418ZM676.394 34.9434L674.523 34.2372L674.519 34.247L676.394 34.9434ZM680.113 28.9336L678.671 27.5481L678.67 27.5485L680.113 28.9336ZM685.824 25.1152L686.557 26.9761L686.567 26.9722L685.824 25.1152ZM700.4 25.1152L699.651 26.9696L699.662 26.9741L699.673 26.9785L700.4 25.1152ZM706.144 28.9336L704.702 30.3191L704.711 30.3286L706.144 28.9336ZM709.863 34.9434L707.986 35.6339L707.99 35.6447L707.994 35.6553L709.863 34.9434ZM700.998 37.8984L699.063 38.4045L699.067 38.4223L699.072 38.4399L700.998 37.8984ZM699.338 34.2793L697.708 35.4383L697.722 35.459L697.738 35.4793L699.338 34.2793ZM696.681 32.0215L695.772 33.8027L695.794 33.8142L695.817 33.8251L696.681 32.0215ZM689.509 32.0215L690.389 33.8179L690.396 33.8142L690.404 33.8103L689.509 32.0215ZM686.886 34.2793L688.504 35.4556L688.51 35.447L688.516 35.4383L686.886 34.2793ZM685.259 37.8984L683.325 37.3924L683.322 37.4029L683.319 37.4134L685.259 37.8984ZM685.259 49.3867L683.317 49.8648L683.321 49.8788L683.325 49.8928L685.259 49.3867ZM686.92 53.0723L685.295 54.2381L685.301 54.2466L685.307 54.255L686.92 53.0723ZM689.576 55.3633L688.666 57.1445L688.689 57.156L688.712 57.1669L689.576 55.3633ZM696.748 55.3633L697.627 57.1597L697.642 57.1522L697.657 57.1445L696.748 55.3633ZM699.371 53.0723L697.746 51.9064L697.741 51.9132L699.371 53.0723ZM709.191 42.8789V44.4727H713.191V42.8789H709.191ZM709.191 44.4727C709.191 47.2166 708.779 49.6169 707.992 51.7021L711.734 53.1143C712.718 50.5068 713.191 47.6167 713.191 44.4727H709.191ZM707.986 51.7176C707.21 53.8276 706.121 55.5885 704.735 57.0329L707.62 59.803C709.421 57.9272 710.79 55.6815 711.74 53.0988L707.986 51.7176ZM704.735 57.0329C703.345 58.4803 701.683 59.5958 699.724 60.3794L701.209 64.0933C703.677 63.1061 705.822 61.6759 707.62 59.803L704.735 57.0329ZM699.733 60.3755C697.803 61.1358 695.632 61.5312 693.195 61.5312V65.5312C696.07 65.5312 698.747 65.0634 701.2 64.0971L699.733 60.3755ZM693.195 61.5312C690.758 61.5312 688.573 61.1359 686.617 60.373L685.164 64.0996C687.635 65.0633 690.319 65.5312 693.195 65.5312V61.5312ZM686.64 60.382C684.7 59.5984 683.031 58.4801 681.613 57.023L678.746 59.8129C680.56 61.6761 682.698 63.1034 685.141 64.0907L686.64 60.382ZM681.613 57.023C680.204 55.5757 679.095 53.8126 678.299 51.7021L674.556 53.1143C675.531 55.6965 676.923 57.9399 678.746 59.8129L681.613 57.023ZM678.299 51.7021C677.512 49.6169 677.099 47.2166 677.099 44.4727H673.099C673.099 47.6167 673.572 50.5068 674.556 53.1143L678.299 51.7021ZM677.099 44.4727V42.8789H673.099V44.4727H677.099ZM677.099 42.8789C677.099 40.105 677.503 37.7021 678.269 35.6397L674.519 34.247C673.559 36.833 673.099 39.7205 673.099 42.8789H677.099ZM678.265 35.6495C679.064 33.5332 680.165 31.7669 681.556 30.3187L678.67 27.5485C676.873 29.4206 675.495 31.6608 674.523 34.2372L678.265 35.6495ZM681.555 30.3191C682.97 28.8465 684.631 27.7349 686.557 26.9761L685.091 23.2544C682.634 24.2222 680.488 25.6561 678.671 27.5481L681.555 30.3191ZM686.567 26.9722C688.518 26.1915 690.698 25.7871 693.129 25.7871V21.7871C690.247 21.7871 687.556 22.2682 685.081 23.2583L686.567 26.9722ZM693.129 25.7871C695.56 25.7871 697.725 26.1916 699.651 26.9696L701.149 23.2609C698.692 22.2681 696.01 21.7871 693.129 21.7871V25.7871ZM699.673 26.9785C701.622 27.7384 703.291 28.8501 704.702 30.3191L707.587 27.5481C705.766 25.6525 703.606 24.2187 701.127 23.2519L699.673 26.9785ZM704.711 30.3286C706.116 31.7721 707.212 33.5298 707.986 35.6339L711.74 34.2528C710.788 31.6642 709.404 29.4154 707.577 27.5386L704.711 30.3286ZM707.994 35.6553C708.778 37.713 709.191 40.1103 709.191 42.8789H713.191C713.191 39.7152 712.719 36.8221 711.732 34.2314L707.994 35.6553ZM703.595 44.4727V42.8125H699.595V44.4727H703.595ZM703.595 42.8125C703.595 40.8158 703.382 38.989 702.923 37.3569L699.072 38.4399C699.41 39.6412 699.595 41.0905 699.595 42.8125H703.595ZM702.933 37.3924C702.505 35.7568 701.854 34.3011 700.938 33.0793L697.738 35.4793C698.282 36.2054 698.738 37.1625 699.063 38.4045L702.933 37.3924ZM700.967 33.1203C700.07 31.8586 698.925 30.8791 697.546 30.2179L695.817 33.8251C696.562 34.1821 697.188 34.7078 697.708 35.4383L700.967 33.1203ZM697.591 30.2403C696.232 29.5466 694.729 29.2246 693.129 29.2246V33.2246C694.184 33.2246 695.049 33.4339 695.772 33.8027L697.591 30.2403ZM693.129 29.2246C691.511 29.2246 689.991 29.5446 688.615 30.2326L690.404 33.8103C691.153 33.4359 692.046 33.2246 693.129 33.2246V29.2246ZM688.63 30.2251C687.274 30.8889 686.147 31.868 685.256 33.1203L688.516 35.4383C689.042 34.6985 689.664 34.1723 690.389 33.8179L688.63 30.2251ZM685.269 33.103C684.384 34.3198 683.75 35.7671 683.325 37.3924L687.194 38.4045C687.522 37.1522 687.972 36.1867 688.504 35.4556L685.269 33.103ZM683.319 37.4134C682.916 39.0249 682.728 40.8318 682.728 42.8125H686.728C686.728 41.0745 686.894 39.6053 687.2 38.3835L683.319 37.4134ZM682.728 42.8125V44.4727H686.728V42.8125H682.728ZM682.728 44.4727C682.728 46.4342 682.917 48.2375 683.317 49.8648L687.201 48.9087C686.894 47.6584 686.728 46.1856 686.728 44.4727H682.728ZM683.325 49.8928C683.751 51.5253 684.397 52.9874 685.295 54.2381L688.545 51.9064C687.981 51.1207 687.52 50.1257 687.194 48.8807L683.325 49.8928ZM685.307 54.255C686.211 55.4879 687.332 56.4632 688.666 57.1445L690.485 53.5821C689.739 53.2009 689.089 52.6488 688.532 51.8895L685.307 54.255ZM688.712 57.1669C690.081 57.8229 691.589 58.127 693.195 58.127V54.127C692.1 54.127 691.196 53.9218 690.44 53.5597L688.712 57.1669ZM693.195 58.127C694.783 58.127 696.275 57.8212 697.627 57.1597L695.869 53.5668C695.14 53.9236 694.263 54.127 693.195 54.127V58.127ZM697.657 57.1445C698.998 56.46 700.115 55.4772 701.001 54.2313L697.741 51.9132C697.21 52.6595 696.578 53.2041 695.838 53.5821L697.657 57.1445ZM700.996 54.2381C701.893 52.9874 702.539 51.5253 702.966 49.8928L699.096 48.8807C698.77 50.1257 698.309 51.1207 697.746 51.9064L700.996 54.2381ZM702.966 49.8928C703.394 48.2554 703.595 46.4423 703.595 44.4727H699.595C699.595 46.1774 699.42 47.6404 699.096 48.8807L702.966 49.8928ZM741.268 24.3184H743.268V22.3184H741.268V24.3184ZM741.268 63V65H743.268V63H741.268ZM731.639 63H729.639V65H731.639V63ZM731.639 24.3184V22.3184H729.639V24.3184H731.639ZM753.852 24.3184H755.852V22.3184H753.852V24.3184ZM753.852 31.8223V33.8223H755.852V31.8223H753.852ZM719.321 31.8223H717.321V33.8223H719.321V31.8223ZM719.321 24.3184V22.3184H717.321V24.3184H719.321ZM739.268 24.3184V63H743.268V24.3184H739.268ZM741.268 61H731.639V65H741.268V61ZM733.639 63V24.3184H729.639V63H733.639ZM731.639 26.3184H741.268V22.3184H731.639V26.3184ZM751.852 24.3184V31.8223H755.852V24.3184H751.852ZM753.852 29.8223H719.321V33.8223H753.852V29.8223ZM721.321 31.8223V24.3184H717.321V31.8223H721.321ZM719.321 26.3184H753.852V22.3184H719.321V26.3184ZM791.764 40.2891H793.764V38.2891H791.764V40.2891ZM791.764 47.7598V49.7598H793.764V47.7598H791.764ZM770.216 47.7598H768.216V49.7598H770.216V47.7598ZM770.216 40.2891V38.2891H768.216V40.2891H770.216ZM773.337 24.3184H775.337V22.3184H773.337V24.3184ZM773.337 63V65H775.337V63H773.337ZM763.774 63H761.774V65H763.774V63ZM763.774 24.3184V22.3184H761.774V24.3184H763.774ZM798.272 24.3184H800.272V22.3184H798.272V24.3184ZM798.272 63V65H800.272V63H798.272ZM788.71 63H786.71V65H788.71V63ZM788.71 24.3184V22.3184H786.71V24.3184H788.71ZM789.764 40.2891V47.7598H793.764V40.2891H789.764ZM791.764 45.7598H770.216V49.7598H791.764V45.7598ZM772.216 47.7598V40.2891H768.216V47.7598H772.216ZM770.216 42.2891H791.764V38.2891H770.216V42.2891ZM771.337 24.3184V63H775.337V24.3184H771.337ZM773.337 61H763.774V65H773.337V61ZM765.774 63V24.3184H761.774V63H765.774ZM763.774 26.3184H773.337V22.3184H763.774V26.3184ZM796.272 24.3184V63H800.272V24.3184H796.272ZM798.272 61H788.71V65H798.272V61ZM790.71 63V24.3184H786.71V63H790.71ZM788.71 26.3184H798.272V22.3184H788.71V26.3184ZM843.855 52.4082L841.984 51.7021L841.981 51.7098L841.978 51.7176L843.855 52.4082ZM834.458 62.2363L835.191 64.0972L835.201 64.0933L834.458 62.2363ZM819.882 62.2363L819.133 64.0907L819.144 64.0952L819.156 64.0996L819.882 62.2363ZM814.171 58.418L812.738 59.8129L814.171 58.418ZM810.386 34.9434L808.515 34.2372L808.511 34.247L810.386 34.9434ZM814.105 28.9336L812.662 27.5481L812.662 27.5485L814.105 28.9336ZM819.816 25.1152L820.549 26.9761L820.559 26.9722L819.816 25.1152ZM834.392 25.1152L833.643 26.9696L833.654 26.9741L833.665 26.9785L834.392 25.1152ZM840.136 28.9336L838.694 30.3191L838.703 30.3286L840.136 28.9336ZM843.855 34.9434L841.978 35.6339L841.982 35.6447L841.986 35.6553L843.855 34.9434ZM834.99 37.8984L833.055 38.4045L833.059 38.4223L833.064 38.4399L834.99 37.8984ZM833.329 34.2793L831.7 35.4383L831.714 35.459L831.729 35.4793L833.329 34.2793ZM830.673 32.0215L829.764 33.8027L829.786 33.8142L829.809 33.8251L830.673 32.0215ZM823.501 32.0215L824.38 33.8179L824.388 33.8142L824.396 33.8103L823.501 32.0215ZM820.878 34.2793L822.496 35.4556L822.502 35.447L822.508 35.4383L820.878 34.2793ZM819.251 37.8984L817.316 37.3924L817.314 37.4029L817.311 37.4134L819.251 37.8984ZM819.251 49.3867L817.309 49.8648L817.313 49.8788L817.316 49.8928L819.251 49.3867ZM820.911 53.0723L819.286 54.2381L819.293 54.2466L819.299 54.255L820.911 53.0723ZM823.568 55.3633L822.658 57.1445L822.681 57.156L822.704 57.1669L823.568 55.3633ZM830.74 55.3633L831.619 57.1597L831.634 57.1522L831.649 57.1445L830.74 55.3633ZM833.363 53.0723L831.738 51.9064L831.733 51.9132L833.363 53.0723ZM843.183 42.8789V44.4727H847.183V42.8789H843.183ZM843.183 44.4727C843.183 47.2166 842.771 49.6169 841.984 51.7021L845.726 53.1143C846.71 50.5068 847.183 47.6167 847.183 44.4727H843.183ZM841.978 51.7176C841.202 53.8276 840.113 55.5885 838.727 57.0329L841.612 59.803C843.413 57.9272 844.782 55.6815 845.732 53.0988L841.978 51.7176ZM838.727 57.0329C837.337 58.4803 835.675 59.5958 833.716 60.3794L835.201 64.0933C837.669 63.1061 839.814 61.6759 841.612 59.803L838.727 57.0329ZM833.725 60.3755C831.795 61.1358 829.624 61.5312 827.187 61.5312V65.5312C830.062 65.5312 832.739 65.0634 835.191 64.0971L833.725 60.3755ZM827.187 61.5312C824.75 61.5312 822.565 61.1359 820.609 60.373L819.156 64.0996C821.626 65.0633 824.311 65.5312 827.187 65.5312V61.5312ZM820.631 60.382C818.692 59.5984 817.023 58.4801 815.604 57.023L812.738 59.8129C814.552 61.6761 816.69 63.1034 819.133 64.0907L820.631 60.382ZM815.604 57.023C814.196 55.5757 813.087 53.8126 812.291 51.7021L808.548 53.1143C809.523 55.6965 810.915 57.9399 812.738 59.8129L815.604 57.023ZM812.291 51.7021C811.504 49.6169 811.091 47.2166 811.091 44.4727H807.091C807.091 47.6167 807.564 50.5068 808.548 53.1143L812.291 51.7021ZM811.091 44.4727V42.8789H807.091V44.4727H811.091ZM811.091 42.8789C811.091 40.105 811.495 37.7021 812.261 35.6397L808.511 34.247C807.551 36.833 807.091 39.7205 807.091 42.8789H811.091ZM812.257 35.6495C813.056 33.5332 814.157 31.7669 815.548 30.3187L812.662 27.5485C810.865 29.4206 809.487 31.6608 808.515 34.2372L812.257 35.6495ZM815.547 30.3191C816.962 28.8465 818.623 27.7349 820.549 26.9761L819.083 23.2544C816.626 24.2222 814.48 25.6561 812.662 27.5481L815.547 30.3191ZM820.559 26.9722C822.51 26.1915 824.69 25.7871 827.12 25.7871V21.7871C824.239 21.7871 821.548 22.2682 819.073 23.2583L820.559 26.9722ZM827.12 25.7871C829.552 25.7871 831.717 26.1916 833.643 26.9696L835.141 23.2609C832.684 22.2681 830.002 21.7871 827.12 21.7871V25.7871ZM833.665 26.9785C835.614 27.7384 837.283 28.8501 838.694 30.3191L841.578 27.5481C839.758 25.6525 837.597 24.2187 835.119 23.2519L833.665 26.9785ZM838.703 30.3286C840.108 31.7721 841.204 33.5298 841.978 35.6339L845.732 34.2528C844.779 31.6642 843.396 29.4154 841.569 27.5386L838.703 30.3286ZM841.986 35.6553C842.77 37.713 843.183 40.1103 843.183 42.8789H847.183C847.183 39.7152 846.711 36.8221 845.724 34.2314L841.986 35.6553ZM837.587 44.4727V42.8125H833.587V44.4727H837.587ZM837.587 42.8125C837.587 40.8158 837.374 38.989 836.915 37.3569L833.064 38.4399C833.402 39.6412 833.587 41.0905 833.587 42.8125H837.587ZM836.925 37.3924C836.497 35.7568 835.846 34.3011 834.929 33.0793L831.729 35.4793C832.274 36.2054 832.73 37.1625 833.055 38.4045L836.925 37.3924ZM834.959 33.1203C834.062 31.8586 832.917 30.8791 831.537 30.2179L829.809 33.8251C830.554 34.1821 831.18 34.7078 831.7 35.4383L834.959 33.1203ZM831.583 30.2403C830.224 29.5466 828.721 29.2246 827.12 29.2246V33.2246C828.176 33.2246 829.041 33.4339 829.764 33.8027L831.583 30.2403ZM827.12 29.2246C825.502 29.2246 823.983 29.5446 822.607 30.2326L824.396 33.8103C825.145 33.4359 826.038 33.2246 827.12 33.2246V29.2246ZM822.622 30.2251C821.266 30.8889 820.139 31.868 819.248 33.1203L822.508 35.4383C823.034 34.6985 823.656 34.1723 824.38 33.8179L822.622 30.2251ZM819.261 33.103C818.376 34.3198 817.741 35.7671 817.316 37.3924L821.186 38.4045C821.514 37.1522 821.964 36.1867 822.496 35.4556L819.261 33.103ZM817.311 37.4134C816.908 39.0249 816.72 40.8318 816.72 42.8125H820.72C820.72 41.0745 820.886 39.6053 821.192 38.3835L817.311 37.4134ZM816.72 42.8125V44.4727H820.72V42.8125H816.72ZM816.72 44.4727C816.72 46.4342 816.909 48.2375 817.309 49.8648L821.193 48.9087C820.886 47.6584 820.72 46.1856 820.72 44.4727H816.72ZM817.316 49.8928C817.743 51.5253 818.389 52.9874 819.286 54.2381L822.537 51.9064C821.973 51.1207 821.512 50.1257 821.186 48.8807L817.316 49.8928ZM819.299 54.255C820.203 55.4879 821.324 56.4632 822.658 57.1445L824.477 53.5821C823.731 53.2009 823.081 52.6488 822.524 51.8895L819.299 54.255ZM822.704 57.1669C824.073 57.8229 825.581 58.127 827.187 58.127V54.127C826.092 54.127 825.188 53.9218 824.432 53.5597L822.704 57.1669ZM827.187 58.127C828.775 58.127 830.267 57.8212 831.619 57.1597L829.861 53.5668C829.131 53.9236 828.255 54.127 827.187 54.127V58.127ZM831.649 57.1445C832.99 56.46 834.107 55.4772 834.993 54.2313L831.733 51.9132C831.202 52.6595 830.57 53.2041 829.83 53.5821L831.649 57.1445ZM834.988 54.2381C835.885 52.9874 836.531 51.5253 836.958 49.8928L833.088 48.8807C832.762 50.1257 832.301 51.1207 831.738 51.9064L834.988 54.2381ZM836.958 49.8928C837.386 48.2554 837.587 46.4423 837.587 44.4727H833.587C833.587 46.1774 833.412 47.6404 833.088 48.8807L836.958 49.8928ZM890.599 24.3184H892.599V22.3184H890.599V24.3184ZM890.599 63V65H892.599V63H890.599ZM881.004 63L879.305 64.0555L879.892 65H881.004V63ZM865.697 38.3633L867.396 37.3078L863.697 31.3544V38.3633H865.697ZM865.697 63V65H867.697V63H865.697ZM856.135 63H854.135V65H856.135V63ZM856.135 24.3184V22.3184H854.135V24.3184H856.135ZM865.697 24.3184L867.396 23.2629L866.809 22.3184H865.697V24.3184ZM881.004 48.9551L879.305 50.0105L883.004 55.964V48.9551H881.004ZM881.004 24.3184V22.3184H879.004V24.3184H881.004ZM888.599 24.3184V63H892.599V24.3184H888.599ZM890.599 61H881.004V65H890.599V61ZM882.703 61.9445L867.396 37.3078L863.998 39.4187L879.305 64.0555L882.703 61.9445ZM863.697 38.3633V63H867.697V38.3633H863.697ZM865.697 61H856.135V65H865.697V61ZM858.135 63V24.3184H854.135V63H858.135ZM856.135 26.3184H865.697V22.3184H856.135V26.3184ZM863.998 25.3738L879.305 50.0105L882.703 47.8996L867.396 23.2629L863.998 25.3738ZM883.004 48.9551V24.3184H879.004V48.9551H883.004ZM881.004 26.3184H890.599V22.3184H881.004V26.3184Z" fill="#08E8E1"/>
</g>
<line x1="496.001" y1="34" x2="-3.99796" y2="35.004" stroke="#F9FAFC" stroke-width="2"/>
<line x1="1436" y1="35" x2="935.998" y2="33.8399" stroke="#F9FAFC" stroke-width="2"/>
<defs>
<filter id="filter0_d_1_440" x="539.203" y="20.7539" width="356.396" height="47.7773" filterUnits="userSpaceOnUse" color-interpolation-filters="sRGB">
<feFlood flood-opacity="0" result="BackgroundImageFix"/>
<feColorMatrix in="SourceAlpha" type="matrix" values="0 0 0 0 0 0 0 0 0 0 0 0 0 0 0 0 0 0 127 0" result="hardAlpha"/>
<feOffset dx="1" dy="1"/>
<feGaussianBlur stdDeviation="2"/>
<feComposite in2="hardAlpha" operator="out"/>
<feColorMatrix type="matrix" values="0 0 0 0 0.0313726 0 0 0 0 0.909804 0 0 0 0 0.882353 0 0 0 1 0"/>
<feBlend mode="normal" in2="BackgroundImageFix" result="effect1_dropShadow_1_440"/>
<feBlend mode="normal" in="SourceGraphic" in2="effect1_dropShadow_1_440" result="shape"/>
</filter>
</defs>
</svg>
