<svg width="1440" height="69" viewBox="0 0 1440 69" fill="none" xmlns="http://www.w3.org/2000/svg">
<g filter="url(#filter0_d_1_428)">
<path d="M571.504 49.8184H581.1C580.945 52.5632 580.159 54.9648 578.742 57.0234C577.326 59.082 575.367 60.6868 572.865 61.8379C570.364 62.9668 567.42 63.5312 564.033 63.5312C561.266 63.5312 558.798 63.0996 556.629 62.2363C554.482 61.373 552.656 60.1224 551.15 58.4844C549.645 56.8464 548.494 54.8652 547.697 52.541C546.923 50.2168 546.535 47.5827 546.535 44.6387V42.7129C546.535 39.7689 546.945 37.1348 547.764 34.8105C548.583 32.4642 549.756 30.472 551.283 28.834C552.811 27.196 554.637 25.9453 556.762 25.082C558.887 24.1966 561.266 23.7539 563.9 23.7539C567.486 23.7539 570.508 24.3626 572.965 25.5801C575.444 26.7975 577.359 28.4688 578.709 30.5938C580.081 32.6966 580.889 35.0983 581.133 37.7988H571.57C571.504 36.5592 571.216 35.4525 570.707 34.4785C570.198 33.4824 569.39 32.6966 568.283 32.1211C567.199 31.5456 565.738 31.2578 563.9 31.2578C562.617 31.2578 561.488 31.4902 560.514 31.9551C559.54 32.4199 558.721 33.1283 558.057 34.0801C557.415 35.0319 556.928 36.2272 556.596 37.666C556.264 39.0827 556.098 40.7539 556.098 42.6797V44.6387C556.098 46.5866 556.242 48.2799 556.529 49.7188C556.839 51.1576 557.315 52.3529 557.957 53.3047C558.599 54.2344 559.418 54.9316 560.414 55.3965C561.432 55.8613 562.639 56.0938 564.033 56.0938C565.627 56.0938 566.966 55.8724 568.051 55.4297C569.135 54.9648 569.965 54.2676 570.541 53.3379C571.117 52.4082 571.437 51.235 571.504 49.8184ZM608.122 34.3789L597.829 63H588.167L603.44 24.3184H610.014L608.122 34.3789ZM618.282 63L607.79 34.3789L605.864 24.3184H612.538L627.911 63H618.282ZM618.083 48.623V55.4297H596.7V48.623H618.083ZM650.052 63H640.821L640.855 55.5293H650.052C652.31 55.5293 654.136 55.1198 655.53 54.3008C656.925 53.4818 657.932 52.2533 658.552 50.6152C659.194 48.9772 659.515 46.9297 659.515 44.4727V42.8125C659.515 41.0195 659.338 39.4368 658.983 38.0645C658.629 36.6699 658.076 35.5189 657.323 34.6113C656.571 33.6816 655.586 32.9844 654.368 32.5195C653.151 32.0547 651.668 31.8223 649.919 31.8223H640.622V24.3184H649.919C652.73 24.3184 655.309 24.7721 657.655 25.6797C660.002 26.5872 662.027 27.8711 663.732 29.5312C665.458 31.1693 666.786 33.1283 667.716 35.4082C668.646 37.666 669.11 40.1562 669.11 42.8789V44.4727C669.11 48.0807 668.291 51.2904 666.653 54.1016C665.038 56.8906 662.791 59.071 659.913 60.6426C657.036 62.2142 653.748 63 650.052 63ZM646.267 24.3184V63H636.704V24.3184H646.267ZM714.859 42.8789V44.4727C714.859 47.4167 714.416 50.0618 713.531 52.4082C712.668 54.7546 711.439 56.7578 709.845 58.418C708.252 60.0781 706.348 61.3509 704.134 62.2363C701.943 63.0996 699.519 63.5312 696.863 63.5312C694.207 63.5312 691.772 63.0996 689.558 62.2363C687.367 61.3509 685.463 60.0781 683.847 58.418C682.231 56.7578 680.981 54.7546 680.095 52.4082C679.21 50.0618 678.767 47.4167 678.767 44.4727V42.8789C678.767 39.9128 679.199 37.2676 680.062 34.9434C680.948 32.597 682.187 30.5938 683.781 28.9336C685.397 27.2513 687.3 25.9785 689.492 25.1152C691.705 24.2298 694.14 23.7871 696.797 23.7871C699.453 23.7871 701.877 24.2298 704.068 25.1152C706.282 25.9785 708.196 27.2513 709.812 28.9336C711.428 30.5938 712.668 32.597 713.531 34.9434C714.416 37.2676 714.859 39.9128 714.859 42.8789ZM705.263 44.4727V42.8125C705.263 40.9531 705.064 39.3151 704.666 37.8984C704.289 36.4596 703.736 35.2533 703.006 34.2793C702.297 33.2832 701.412 32.5306 700.349 32.0215C699.309 31.4902 698.125 31.2246 696.797 31.2246C695.446 31.2246 694.24 31.4902 693.177 32.0215C692.137 32.5306 691.263 33.2832 690.554 34.2793C689.846 35.2533 689.304 36.4596 688.927 37.8984C688.573 39.3151 688.396 40.9531 688.396 42.8125V44.4727C688.396 46.3099 688.573 47.9479 688.927 49.3867C689.304 50.8255 689.857 52.054 690.588 53.0723C691.318 54.0684 692.203 54.832 693.244 55.3633C694.306 55.8724 695.513 56.127 696.863 56.127C698.191 56.127 699.375 55.8724 700.416 55.3633C701.456 54.832 702.33 54.0684 703.039 53.0723C703.769 52.054 704.323 50.8255 704.699 49.3867C705.075 47.9479 705.263 46.3099 705.263 44.4727ZM744.936 24.3184V63H735.307V24.3184H744.936ZM757.52 24.3184V31.8223H722.988V24.3184H757.52ZM795.432 40.2891V47.7598H773.884V40.2891H795.432ZM777.005 24.3184V63H767.442V24.3184H777.005ZM801.94 24.3184V63H792.378V24.3184H801.94ZM848.851 42.8789V44.4727C848.851 47.4167 848.408 50.0618 847.523 52.4082C846.66 54.7546 845.431 56.7578 843.837 58.418C842.244 60.0781 840.34 61.3509 838.126 62.2363C835.935 63.0996 833.511 63.5312 830.855 63.5312C828.199 63.5312 825.764 63.0996 823.55 62.2363C821.359 61.3509 819.455 60.0781 817.839 58.418C816.223 56.7578 814.973 54.7546 814.087 52.4082C813.202 50.0618 812.759 47.4167 812.759 44.4727V42.8789C812.759 39.9128 813.191 37.2676 814.054 34.9434C814.939 32.597 816.179 30.5938 817.773 28.9336C819.389 27.2513 821.292 25.9785 823.484 25.1152C825.697 24.2298 828.132 23.7871 830.788 23.7871C833.445 23.7871 835.869 24.2298 838.06 25.1152C840.273 25.9785 842.188 27.2513 843.804 28.9336C845.42 30.5938 846.66 32.597 847.523 34.9434C848.408 37.2676 848.851 39.9128 848.851 42.8789ZM839.255 44.4727V42.8125C839.255 40.9531 839.056 39.3151 838.658 37.8984C838.281 36.4596 837.728 35.2533 836.997 34.2793C836.289 33.2832 835.404 32.5306 834.341 32.0215C833.301 31.4902 832.117 31.2246 830.788 31.2246C829.438 31.2246 828.232 31.4902 827.169 32.0215C826.129 32.5306 825.255 33.2832 824.546 34.2793C823.838 35.2533 823.296 36.4596 822.919 37.8984C822.565 39.3151 822.388 40.9531 822.388 42.8125V44.4727C822.388 46.3099 822.565 47.9479 822.919 49.3867C823.296 50.8255 823.849 52.054 824.579 53.0723C825.31 54.0684 826.195 54.832 827.236 55.3633C828.298 55.8724 829.505 56.127 830.855 56.127C832.183 56.127 833.367 55.8724 834.408 55.3633C835.448 54.832 836.322 54.0684 837.031 53.0723C837.761 52.054 838.314 50.8255 838.691 49.3867C839.067 47.9479 839.255 46.3099 839.255 44.4727ZM894.267 24.3184V63H884.672L869.365 38.3633V63H859.803V24.3184H869.365L884.672 48.9551V24.3184H894.267Z" fill="white"/>
<path d="M571.504 49.8184V47.8184H569.595L569.506 49.7247L571.504 49.8184ZM581.1 49.8184L583.096 49.9311L583.216 47.8184H581.1V49.8184ZM578.742 57.0234L577.095 55.8896L578.742 57.0234ZM572.865 61.8379L573.688 63.6608L573.695 63.6578L573.701 63.6548L572.865 61.8379ZM556.629 62.2363L555.883 64.092L555.889 64.0946L556.629 62.2363ZM547.697 52.541L545.8 53.1735L545.803 53.1816L545.805 53.1897L547.697 52.541ZM547.764 34.8105L549.65 35.4753L549.652 35.4697L547.764 34.8105ZM551.283 28.834L549.82 27.4701L551.283 28.834ZM556.762 25.082L557.514 26.935L557.523 26.9316L557.531 26.9282L556.762 25.082ZM572.965 25.5801L572.077 27.3722L572.083 27.3753L572.965 25.5801ZM578.709 30.5938L577.021 31.6664L577.027 31.6766L577.034 31.6868L578.709 30.5938ZM581.133 37.7988V39.7988H583.321L583.125 37.6192L581.133 37.7988ZM571.57 37.7988L569.573 37.9058L569.675 39.7988H571.57V37.7988ZM570.707 34.4785L568.926 35.3887L568.93 35.3969L568.935 35.405L570.707 34.4785ZM568.283 32.1211L567.346 33.8878L567.353 33.8917L567.36 33.8955L568.283 32.1211ZM560.514 31.9551L559.652 30.1501L560.514 31.9551ZM558.057 34.0801L556.416 32.9357L556.407 32.9487L556.398 32.9618L558.057 34.0801ZM556.596 37.666L558.543 38.1224L558.544 38.1157L556.596 37.666ZM556.529 49.7188L554.568 50.111L554.571 50.1254L554.574 50.1399L556.529 49.7188ZM557.957 53.3047L556.299 54.423L556.305 54.4321L556.311 54.4411L557.957 53.3047ZM560.414 55.3965L559.568 57.2089L559.576 57.2124L559.583 57.2159L560.414 55.3965ZM568.051 55.4297L568.807 57.2814L568.823 57.2748L568.839 57.268L568.051 55.4297ZM571.504 51.8184H581.1V47.8184H571.504V51.8184ZM579.103 49.7056C578.966 52.1223 578.283 54.1627 577.095 55.8896L580.39 58.1572C582.035 55.767 582.923 53.004 583.096 49.9311L579.103 49.7056ZM577.095 55.8896C575.902 57.622 574.238 59.0047 572.029 60.021L573.701 63.6548C576.495 62.369 578.749 60.542 580.39 58.1572L577.095 55.8896ZM572.042 60.015C569.853 61.0032 567.201 61.5312 564.033 61.5312V65.5312C567.639 65.5312 570.875 64.9304 573.688 63.6608L572.042 60.015ZM564.033 61.5312C561.474 61.5312 559.263 61.1321 557.368 60.3781L555.889 64.0946C558.333 65.0671 561.059 65.5312 564.033 65.5312V61.5312ZM557.375 60.3807C555.493 59.624 553.918 58.5407 552.623 57.1311L549.678 59.8376C551.393 61.7041 553.471 63.1221 555.883 64.092L557.375 60.3807ZM552.623 57.1311C551.323 55.7168 550.306 53.9827 549.589 51.8924L545.805 53.1897C546.682 55.7477 547.967 57.9759 549.678 59.8376L552.623 57.1311ZM549.595 51.9086C548.9 49.8246 548.535 47.4097 548.535 44.6387H544.535C544.535 47.7557 544.945 50.609 545.8 53.1735L549.595 51.9086ZM548.535 44.6387V42.7129H544.535V44.6387H548.535ZM548.535 42.7129C548.535 39.9524 548.919 37.5489 549.65 35.4752L545.877 34.1458C544.97 36.7206 544.535 39.5853 544.535 42.7129H548.535ZM549.652 35.4697C550.39 33.3564 551.428 31.6118 552.746 30.1979L549.82 27.4701C548.084 29.3322 546.776 31.572 545.875 34.1514L549.652 35.4697ZM552.746 30.1979C554.07 28.7778 555.652 27.6915 557.514 26.935L556.009 23.2291C553.621 24.1991 551.551 25.6141 549.82 27.4701L552.746 30.1979ZM557.531 26.9282C559.38 26.1579 561.493 25.7539 563.9 25.7539V21.7539C561.04 21.7539 558.394 22.2353 555.992 23.2359L557.531 26.9282ZM563.9 25.7539C567.269 25.7539 569.967 26.3269 572.077 27.3722L573.853 23.788C571.048 22.3984 567.703 21.7539 563.9 21.7539V25.7539ZM572.083 27.3753C574.265 28.4469 575.887 29.8815 577.021 31.6664L580.397 29.5211C578.831 27.056 576.623 25.1482 573.846 23.7849L572.083 27.3753ZM577.034 31.6868C578.214 33.4941 578.924 35.5771 579.141 37.9784L583.125 37.6192C582.854 34.6195 581.949 31.8991 580.384 29.5007L577.034 31.6868ZM581.133 35.7988H571.57V39.7988H581.133V35.7988ZM573.567 37.6918C573.488 36.2033 573.138 34.8109 572.479 33.552L568.935 35.405C569.295 36.0941 569.52 36.9152 569.573 37.9058L573.567 37.6918ZM572.488 33.5683C571.768 32.1597 570.637 31.0909 569.206 30.3467L567.36 33.8955C568.143 34.3023 568.628 34.8051 568.926 35.3887L572.488 33.5683ZM569.221 30.3544C567.739 29.5683 565.915 29.2578 563.9 29.2578V33.2578C565.56 33.2578 566.658 33.5228 567.346 33.8878L569.221 30.3544ZM563.9 29.2578C562.374 29.2578 560.941 29.5348 559.652 30.1501L561.375 33.76C562.034 33.4457 562.859 33.2578 563.9 33.2578V29.2578ZM559.652 30.1501C558.342 30.7752 557.263 31.7221 556.416 32.9357L559.697 35.2244C560.178 34.5344 560.737 34.0646 561.375 33.76L559.652 30.1501ZM556.398 32.9618C555.587 34.1657 555.019 35.6039 554.647 37.2163L558.544 38.1157C558.836 36.8506 559.243 35.8981 559.715 35.1984L556.398 32.9618ZM554.648 37.2096C554.272 38.815 554.098 40.6465 554.098 42.6797H558.098C558.098 40.8613 558.255 39.3503 558.543 38.1224L554.648 37.2096ZM554.098 42.6797V44.6387H558.098V42.6797H554.098ZM554.098 44.6387C554.098 46.6783 554.248 48.509 554.568 50.111L558.49 49.3265C558.235 48.0509 558.098 46.4949 558.098 44.6387H554.098ZM554.574 50.1399C554.923 51.7607 555.48 53.2095 556.299 54.423L559.615 52.1864C559.15 51.4963 558.755 50.5544 558.484 49.2976L554.574 50.1399ZM556.311 54.4411C557.149 55.6546 558.241 56.5894 559.568 57.2089L561.26 53.5841C560.595 53.2738 560.049 52.8141 559.603 52.1683L556.311 54.4411ZM559.583 57.2159C560.918 57.8252 562.421 58.0938 564.033 58.0938V54.0938C562.857 54.0938 561.946 53.8974 561.245 53.5771L559.583 57.2159ZM564.033 58.0938C565.798 58.0938 567.412 57.8504 568.807 57.2814L567.295 53.578C566.52 53.8944 565.455 54.0938 564.033 54.0938V58.0938ZM568.839 57.268C570.269 56.6548 571.432 55.6978 572.242 54.3906L568.84 52.2852C568.499 52.8374 568.001 53.2749 567.263 53.5914L568.839 57.268ZM572.242 54.3906C573.042 53.0983 573.424 51.5702 573.502 49.912L569.506 49.7247C569.451 50.8998 569.191 51.7181 568.84 52.2852L572.242 54.3906ZM608.122 34.3789L610.004 35.0557L610.058 34.9055L610.087 34.7487L608.122 34.3789ZM597.829 63V65H599.235L599.711 63.6768L597.829 63ZM588.167 63L586.306 62.2655L585.227 65H588.167V63ZM603.44 24.3184V22.3184H602.079L601.58 23.5838L603.44 24.3184ZM610.014 24.3184L611.98 24.6881L612.426 22.3184H610.014V24.3184ZM618.282 63L616.404 63.6884L616.885 65H618.282V63ZM607.79 34.3789L605.825 34.7549L605.856 34.9146L605.912 35.0673L607.79 34.3789ZM605.864 24.3184V22.3184H603.445L603.899 24.6944L605.864 24.3184ZM612.538 24.3184L614.396 23.5797L613.895 22.3184H612.538V24.3184ZM627.911 63V65H630.858L629.769 62.2613L627.911 63ZM618.083 48.623H620.083V46.623H618.083V48.623ZM618.083 55.4297V57.4297H620.083V55.4297H618.083ZM596.7 55.4297H594.7V57.4297H596.7V55.4297ZM596.7 48.623V46.623H594.7V48.623H596.7ZM606.24 33.7021L595.947 62.3232L599.711 63.6768L610.004 35.0557L606.24 33.7021ZM597.829 61H588.167V65H597.829V61ZM590.027 63.7345L605.3 25.0529L601.58 23.5838L586.306 62.2655L590.027 63.7345ZM603.44 26.3184H610.014V22.3184H603.44V26.3184ZM608.049 23.9486L606.156 34.0092L610.087 34.7487L611.98 24.6881L608.049 23.9486ZM620.16 62.3116L609.667 33.6905L605.912 35.0673L616.404 63.6884L620.16 62.3116ZM609.754 34.0029L607.828 23.9423L603.899 24.6944L605.825 34.7549L609.754 34.0029ZM605.864 26.3184H612.538V22.3184H605.864V26.3184ZM610.679 25.057L626.052 63.7387L629.769 62.2613L614.396 23.5797L610.679 25.057ZM627.911 61H618.282V65H627.911V61ZM616.083 48.623V55.4297H620.083V48.623H616.083ZM618.083 53.4297H596.7V57.4297H618.083V53.4297ZM598.7 55.4297V48.623H594.7V55.4297H598.7ZM596.7 50.623H618.083V46.623H596.7V50.623ZM640.821 63L638.821 62.9911L638.812 65H640.821V63ZM640.855 55.5293V53.5293H638.863L638.855 55.5204L640.855 55.5293ZM655.53 54.3008L656.543 56.0254L655.53 54.3008ZM658.552 50.6152L656.69 49.8855L656.685 49.8964L656.681 49.9075L658.552 50.6152ZM658.983 38.0645L657.045 38.5568L657.047 38.5642L658.983 38.0645ZM657.323 34.6113L655.769 35.8697L655.776 35.8789L655.784 35.888L657.323 34.6113ZM640.622 31.8223H638.622V33.8223H640.622V31.8223ZM640.622 24.3184V22.3184H638.622V24.3184H640.622ZM663.732 29.5312L662.336 30.9639L662.345 30.9731L662.355 30.9822L663.732 29.5312ZM667.716 35.4082L665.864 36.1634L665.867 36.1697L667.716 35.4082ZM666.653 54.1016L664.925 53.0947L664.923 53.0989L666.653 54.1016ZM659.913 60.6426L658.955 58.8873L659.913 60.6426ZM646.267 24.3184H648.267V22.3184H646.267V24.3184ZM646.267 63V65H648.267V63H646.267ZM636.704 63H634.704V65H636.704V63ZM636.704 24.3184V22.3184H634.704V24.3184H636.704ZM650.052 61H640.821V65H650.052V61ZM642.821 63.0089L642.855 55.5382L638.855 55.5204L638.821 62.9911L642.821 63.0089ZM640.855 57.5293H650.052V53.5293H640.855V57.5293ZM650.052 57.5293C652.531 57.5293 654.743 57.0824 656.543 56.0254L654.518 52.5762C653.528 53.1572 652.088 53.5293 650.052 53.5293V57.5293ZM656.543 56.0254C658.365 54.9555 659.655 53.35 660.422 51.323L656.681 49.9075C656.209 51.1565 655.485 52.008 654.518 52.5762L656.543 56.0254ZM660.414 51.345C661.175 49.402 661.515 47.0876 661.515 44.4727H657.515C657.515 46.7718 657.212 48.5524 656.69 49.8855L660.414 51.345ZM661.515 44.4727V42.8125H657.515V44.4727H661.515ZM661.515 42.8125C661.515 40.8932 661.326 39.1367 660.92 37.5647L657.047 38.5642C657.35 39.737 657.515 41.1459 657.515 42.8125H661.515ZM660.922 37.5721C660.51 35.952 659.842 34.5155 658.863 33.3347L655.784 35.888C656.31 36.5222 656.748 37.3878 657.045 38.5568L660.922 37.5721ZM658.878 33.3529C657.884 32.1252 656.598 31.23 655.082 30.6511L653.655 34.388C654.573 34.7387 655.258 35.2381 655.769 35.8697L658.878 33.3529ZM655.082 30.6511C653.573 30.0751 651.833 29.8223 649.919 29.8223V33.8223C651.502 33.8223 652.728 34.0342 653.655 34.388L655.082 30.6511ZM649.919 29.8223H640.622V33.8223H649.919V29.8223ZM642.622 31.8223V24.3184H638.622V31.8223H642.622ZM640.622 26.3184H649.919V22.3184H640.622V26.3184ZM649.919 26.3184C652.512 26.3184 654.843 26.7363 656.934 27.545L658.377 23.8144C655.775 22.8079 652.948 22.3184 649.919 22.3184V26.3184ZM656.934 27.545C659.043 28.3609 660.836 29.5026 662.336 30.9639L665.127 28.0986C663.218 26.2396 660.96 24.8135 658.377 23.8144L656.934 27.545ZM662.355 30.9822C663.868 32.4179 665.038 34.1371 665.864 36.1634L669.568 34.653C668.535 32.1194 667.048 29.9207 665.108 28.0803L662.355 30.9822ZM665.867 36.1697C666.686 38.1596 667.11 40.3874 667.11 42.8789H671.11C671.11 39.9251 670.605 37.1724 669.565 34.6467L665.867 36.1697ZM667.11 42.8789V44.4727H671.11V42.8789H667.11ZM667.11 44.4727C667.11 47.7665 666.366 50.6216 664.925 53.0947L668.381 55.1085C670.217 51.9592 671.11 48.395 671.11 44.4727H667.11ZM664.923 53.0989C663.494 55.5655 661.517 57.488 658.955 58.8873L660.872 62.3979C664.065 60.6539 666.581 58.2157 668.384 55.1042L664.923 53.0989ZM658.955 58.8873C656.407 60.2788 653.457 61 650.052 61V65C654.04 65 657.664 64.1496 660.872 62.3979L658.955 58.8873ZM644.267 24.3184V63H648.267V24.3184H644.267ZM646.267 61H636.704V65H646.267V61ZM638.704 63V24.3184H634.704V63H638.704ZM636.704 26.3184H646.267V22.3184H636.704V26.3184ZM713.531 52.4082L711.66 51.7021L711.657 51.7098L711.654 51.7176L713.531 52.4082ZM704.134 62.2363L704.868 64.0972L704.877 64.0933L704.134 62.2363ZM689.558 62.2363L688.809 64.0907L688.82 64.0952L688.832 64.0996L689.558 62.2363ZM683.847 58.418L682.414 59.8129L683.847 58.418ZM680.062 34.9434L678.191 34.2372L678.187 34.247L680.062 34.9434ZM683.781 28.9336L682.339 27.5481L682.338 27.5485L683.781 28.9336ZM689.492 25.1152L690.225 26.9761L690.235 26.9722L689.492 25.1152ZM704.068 25.1152L703.319 26.9696L703.33 26.9741L703.341 26.9785L704.068 25.1152ZM709.812 28.9336L708.37 30.3191L708.379 30.3286L709.812 28.9336ZM713.531 34.9434L711.654 35.6339L711.658 35.6447L711.662 35.6553L713.531 34.9434ZM704.666 37.8984L702.731 38.4045L702.735 38.4223L702.74 38.4399L704.666 37.8984ZM703.006 34.2793L701.376 35.4383L701.39 35.459L701.406 35.4793L703.006 34.2793ZM700.349 32.0215L699.44 33.8027L699.462 33.8142L699.485 33.8251L700.349 32.0215ZM693.177 32.0215L694.057 33.8179L694.064 33.8142L694.072 33.8103L693.177 32.0215ZM690.554 34.2793L692.172 35.4556L692.178 35.447L692.184 35.4383L690.554 34.2793ZM688.927 37.8984L686.992 37.3924L686.99 37.4029L686.987 37.4134L688.927 37.8984ZM688.927 49.3867L686.985 49.8648L686.989 49.8788L686.992 49.8928L688.927 49.3867ZM690.588 53.0723L688.962 54.2381L688.969 54.2466L688.975 54.255L690.588 53.0723ZM693.244 55.3633L692.334 57.1445L692.357 57.156L692.38 57.1669L693.244 55.3633ZM700.416 55.3633L701.295 57.1597L701.31 57.1522L701.325 57.1445L700.416 55.3633ZM703.039 53.0723L701.414 51.9064L701.409 51.9132L703.039 53.0723ZM712.859 42.8789V44.4727H716.859V42.8789H712.859ZM712.859 44.4727C712.859 47.2166 712.447 49.6169 711.66 51.7021L715.402 53.1143C716.386 50.5068 716.859 47.6167 716.859 44.4727H712.859ZM711.654 51.7176C710.878 53.8276 709.789 55.5885 708.403 57.0329L711.288 59.803C713.089 57.9272 714.458 55.6815 715.408 53.0988L711.654 51.7176ZM708.403 57.0329C707.013 58.4803 705.351 59.5958 703.392 60.3794L704.877 64.0933C707.345 63.1061 709.49 61.6759 711.288 59.803L708.403 57.0329ZM703.401 60.3755C701.471 61.1358 699.3 61.5312 696.863 61.5312V65.5312C699.738 65.5312 702.415 65.0634 704.867 64.0971L703.401 60.3755ZM696.863 61.5312C694.426 61.5312 692.241 61.1359 690.285 60.373L688.832 64.0996C691.303 65.0633 693.987 65.5312 696.863 65.5312V61.5312ZM690.308 60.382C688.368 59.5984 686.699 58.4801 685.281 57.023L682.414 59.8129C684.228 61.6761 686.366 63.1034 688.809 64.0907L690.308 60.382ZM685.281 57.023C683.872 55.5757 682.763 53.8126 681.967 51.7021L678.224 53.1143C679.199 55.6965 680.591 57.9399 682.414 59.8129L685.281 57.023ZM681.967 51.7021C681.18 49.6169 680.767 47.2166 680.767 44.4727H676.767C676.767 47.6167 677.24 50.5068 678.224 53.1143L681.967 51.7021ZM680.767 44.4727V42.8789H676.767V44.4727H680.767ZM680.767 42.8789C680.767 40.105 681.171 37.7021 681.937 35.6397L678.187 34.247C677.227 36.833 676.767 39.7205 676.767 42.8789H680.767ZM681.933 35.6495C682.732 33.5332 683.833 31.7669 685.224 30.3187L682.338 27.5485C680.541 29.4206 679.163 31.6608 678.191 34.2372L681.933 35.6495ZM685.223 30.3191C686.638 28.8465 688.299 27.7349 690.225 26.9761L688.759 23.2544C686.302 24.2222 684.156 25.6561 682.339 27.5481L685.223 30.3191ZM690.235 26.9722C692.186 26.1915 694.366 25.7871 696.797 25.7871V21.7871C693.915 21.7871 691.224 22.2682 688.749 23.2583L690.235 26.9722ZM696.797 25.7871C699.228 25.7871 701.393 26.1916 703.319 26.9696L704.817 23.2609C702.36 22.2681 699.678 21.7871 696.797 21.7871V25.7871ZM703.341 26.9785C705.29 27.7384 706.959 28.8501 708.37 30.3191L711.255 27.5481C709.434 25.6525 707.274 24.2187 704.795 23.2519L703.341 26.9785ZM708.379 30.3286C709.784 31.7721 710.88 33.5298 711.654 35.6339L715.408 34.2528C714.456 31.6642 713.072 29.4154 711.245 27.5386L708.379 30.3286ZM711.662 35.6553C712.446 37.713 712.859 40.1103 712.859 42.8789H716.859C716.859 39.7152 716.387 36.8221 715.4 34.2314L711.662 35.6553ZM707.263 44.4727V42.8125H703.263V44.4727H707.263ZM707.263 42.8125C707.263 40.8158 707.05 38.989 706.591 37.3569L702.74 38.4399C703.078 39.6412 703.263 41.0905 703.263 42.8125H707.263ZM706.601 37.3924C706.173 35.7568 705.522 34.3011 704.606 33.0793L701.406 35.4793C701.95 36.2054 702.406 37.1625 702.731 38.4045L706.601 37.3924ZM704.635 33.1203C703.738 31.8586 702.593 30.8791 701.214 30.2179L699.485 33.8251C700.23 34.1821 700.856 34.7078 701.376 35.4383L704.635 33.1203ZM701.259 30.2403C699.9 29.5466 698.397 29.2246 696.797 29.2246V33.2246C697.852 33.2246 698.717 33.4339 699.44 33.8027L701.259 30.2403ZM696.797 29.2246C695.178 29.2246 693.659 29.5446 692.283 30.2326L694.072 33.8103C694.821 33.4359 695.714 33.2246 696.797 33.2246V29.2246ZM692.298 30.2251C690.942 30.8889 689.815 31.868 688.924 33.1203L692.184 35.4383C692.71 34.6985 693.332 34.1723 694.057 33.8179L692.298 30.2251ZM688.937 33.103C688.052 34.3198 687.418 35.7671 686.992 37.3924L690.862 38.4045C691.19 37.1522 691.64 36.1867 692.172 35.4556L688.937 33.103ZM686.987 37.4134C686.584 39.0249 686.396 40.8318 686.396 42.8125H690.396C690.396 41.0745 690.562 39.6053 690.868 38.3835L686.987 37.4134ZM686.396 42.8125V44.4727H690.396V42.8125H686.396ZM686.396 44.4727C686.396 46.4342 686.585 48.2375 686.985 49.8648L690.869 48.9087C690.562 47.6584 690.396 46.1856 690.396 44.4727H686.396ZM686.992 49.8928C687.419 51.5253 688.065 52.9874 688.962 54.2381L692.213 51.9064C691.649 51.1207 691.188 50.1257 690.862 48.8807L686.992 49.8928ZM688.975 54.255C689.879 55.4879 691 56.4632 692.334 57.1445L694.153 53.5821C693.407 53.2009 692.757 52.6488 692.2 51.8895L688.975 54.255ZM692.38 57.1669C693.749 57.8229 695.257 58.127 696.863 58.127V54.127C695.768 54.127 694.864 53.9218 694.108 53.5597L692.38 57.1669ZM696.863 58.127C698.451 58.127 699.943 57.8212 701.295 57.1597L699.537 53.5668C698.807 53.9236 697.931 54.127 696.863 54.127V58.127ZM701.325 57.1445C702.666 56.46 703.783 55.4772 704.669 54.2313L701.409 51.9132C700.878 52.6595 700.246 53.2041 699.506 53.5821L701.325 57.1445ZM704.664 54.2381C705.561 52.9874 706.207 51.5253 706.634 49.8928L702.764 48.8807C702.438 50.1257 701.977 51.1207 701.414 51.9064L704.664 54.2381ZM706.634 49.8928C707.062 48.2554 707.263 46.4423 707.263 44.4727H703.263C703.263 46.1774 703.088 47.6404 702.764 48.8807L706.634 49.8928ZM744.936 24.3184H746.936V22.3184H744.936V24.3184ZM744.936 63V65H746.936V63H744.936ZM735.307 63H733.307V65H735.307V63ZM735.307 24.3184V22.3184H733.307V24.3184H735.307ZM757.52 24.3184H759.52V22.3184H757.52V24.3184ZM757.52 31.8223V33.8223H759.52V31.8223H757.52ZM722.988 31.8223H720.988V33.8223H722.988V31.8223ZM722.988 24.3184V22.3184H720.988V24.3184H722.988ZM742.936 24.3184V63H746.936V24.3184H742.936ZM744.936 61H735.307V65H744.936V61ZM737.307 63V24.3184H733.307V63H737.307ZM735.307 26.3184H744.936V22.3184H735.307V26.3184ZM755.52 24.3184V31.8223H759.52V24.3184H755.52ZM757.52 29.8223H722.988V33.8223H757.52V29.8223ZM724.988 31.8223V24.3184H720.988V31.8223H724.988ZM722.988 26.3184H757.52V22.3184H722.988V26.3184ZM795.432 40.2891H797.432V38.2891H795.432V40.2891ZM795.432 47.7598V49.7598H797.432V47.7598H795.432ZM773.884 47.7598H771.884V49.7598H773.884V47.7598ZM773.884 40.2891V38.2891H771.884V40.2891H773.884ZM777.005 24.3184H779.005V22.3184H777.005V24.3184ZM777.005 63V65H779.005V63H777.005ZM767.442 63H765.442V65H767.442V63ZM767.442 24.3184V22.3184H765.442V24.3184H767.442ZM801.94 24.3184H803.94V22.3184H801.94V24.3184ZM801.94 63V65H803.94V63H801.94ZM792.378 63H790.378V65H792.378V63ZM792.378 24.3184V22.3184H790.378V24.3184H792.378ZM793.432 40.2891V47.7598H797.432V40.2891H793.432ZM795.432 45.7598H773.884V49.7598H795.432V45.7598ZM775.884 47.7598V40.2891H771.884V47.7598H775.884ZM773.884 42.2891H795.432V38.2891H773.884V42.2891ZM775.005 24.3184V63H779.005V24.3184H775.005ZM777.005 61H767.442V65H777.005V61ZM769.442 63V24.3184H765.442V63H769.442ZM767.442 26.3184H777.005V22.3184H767.442V26.3184ZM799.94 24.3184V63H803.94V24.3184H799.94ZM801.94 61H792.378V65H801.94V61ZM794.378 63V24.3184H790.378V63H794.378ZM792.378 26.3184H801.94V22.3184H792.378V26.3184ZM847.523 52.4082L845.652 51.7021L845.649 51.7098L845.646 51.7176L847.523 52.4082ZM838.126 62.2363L838.859 64.0972L838.869 64.0933L838.126 62.2363ZM823.55 62.2363L822.801 64.0907L822.812 64.0952L822.823 64.0996L823.55 62.2363ZM817.839 58.418L816.406 59.8129L817.839 58.418ZM814.054 34.9434L812.183 34.2372L812.179 34.247L814.054 34.9434ZM817.773 28.9336L816.33 27.5481L816.33 27.5485L817.773 28.9336ZM823.484 25.1152L824.217 26.9761L824.227 26.9722L823.484 25.1152ZM838.06 25.1152L837.311 26.9696L837.322 26.9741L837.333 26.9785L838.06 25.1152ZM843.804 28.9336L842.362 30.3191L842.371 30.3286L843.804 28.9336ZM847.523 34.9434L845.646 35.6339L845.65 35.6447L845.654 35.6553L847.523 34.9434ZM838.658 37.8984L836.723 38.4045L836.727 38.4223L836.732 38.4399L838.658 37.8984ZM836.997 34.2793L835.368 35.4383L835.382 35.459L835.397 35.4793L836.997 34.2793ZM834.341 32.0215L833.432 33.8027L833.454 33.8142L833.477 33.8251L834.341 32.0215ZM827.169 32.0215L828.048 33.8179L828.056 33.8142L828.064 33.8103L827.169 32.0215ZM824.546 34.2793L826.164 35.4556L826.17 35.447L826.176 35.4383L824.546 34.2793ZM822.919 37.8984L820.984 37.3924L820.982 37.4029L820.979 37.4134L822.919 37.8984ZM822.919 49.3867L820.977 49.8648L820.981 49.8788L820.984 49.8928L822.919 49.3867ZM824.579 53.0723L822.954 54.2381L822.96 54.2466L822.967 54.255L824.579 53.0723ZM827.236 55.3633L826.326 57.1445L826.349 57.156L826.371 57.1669L827.236 55.3633ZM834.408 55.3633L835.287 57.1597L835.302 57.1522L835.317 57.1445L834.408 55.3633ZM837.031 53.0723L835.406 51.9064L835.401 51.9132L837.031 53.0723ZM846.851 42.8789V44.4727H850.851V42.8789H846.851ZM846.851 44.4727C846.851 47.2166 846.438 49.6169 845.652 51.7021L849.394 53.1143C850.378 50.5068 850.851 47.6167 850.851 44.4727H846.851ZM845.646 51.7176C844.87 53.8276 843.781 55.5885 842.395 57.0329L845.28 59.803C847.081 57.9272 848.45 55.6815 849.4 53.0988L845.646 51.7176ZM842.395 57.0329C841.005 58.4803 839.343 59.5958 837.384 60.3794L838.869 64.0933C841.337 63.1061 843.482 61.6759 845.28 59.803L842.395 57.0329ZM837.393 60.3755C835.463 61.1358 833.292 61.5312 830.855 61.5312V65.5312C833.73 65.5312 836.407 65.0634 838.859 64.0971L837.393 60.3755ZM830.855 61.5312C828.418 61.5312 826.233 61.1359 824.277 60.373L822.823 64.0996C825.294 65.0633 827.979 65.5312 830.855 65.5312V61.5312ZM824.299 60.382C822.36 59.5984 820.691 58.4801 819.272 57.023L816.406 59.8129C818.22 61.6761 820.357 63.1034 822.801 64.0907L824.299 60.382ZM819.272 57.023C817.864 55.5757 816.755 53.8126 815.958 51.7021L812.216 53.1143C813.19 55.6965 814.583 57.9399 816.406 59.8129L819.272 57.023ZM815.958 51.7021C815.172 49.6169 814.759 47.2166 814.759 44.4727H810.759C810.759 47.6167 811.232 50.5068 812.216 53.1143L815.958 51.7021ZM814.759 44.4727V42.8789H810.759V44.4727H814.759ZM814.759 42.8789C814.759 40.105 815.163 37.7021 815.929 35.6397L812.179 34.247C811.219 36.833 810.759 39.7205 810.759 42.8789H814.759ZM815.925 35.6495C816.724 33.5332 817.825 31.7669 819.216 30.3187L816.33 27.5485C814.533 29.4206 813.155 31.6608 812.183 34.2372L815.925 35.6495ZM819.215 30.3191C820.63 28.8465 822.291 27.7349 824.217 26.9761L822.751 23.2544C820.294 24.2222 818.148 25.6561 816.33 27.5481L819.215 30.3191ZM824.227 26.9722C826.178 26.1915 828.358 25.7871 830.788 25.7871V21.7871C827.907 21.7871 825.216 22.2682 822.741 23.2583L824.227 26.9722ZM830.788 25.7871C833.22 25.7871 835.385 26.1916 837.311 26.9696L838.809 23.2609C836.352 22.2681 833.67 21.7871 830.788 21.7871V25.7871ZM837.333 26.9785C839.282 27.7384 840.951 28.8501 842.362 30.3191L845.246 27.5481C843.426 25.6525 841.265 24.2187 838.787 23.2519L837.333 26.9785ZM842.371 30.3286C843.776 31.7721 844.872 33.5298 845.646 35.6339L849.4 34.2528C848.447 31.6642 847.064 29.4154 845.237 27.5386L842.371 30.3286ZM845.654 35.6553C846.438 37.713 846.851 40.1103 846.851 42.8789H850.851C850.851 39.7152 850.379 36.8221 849.392 34.2314L845.654 35.6553ZM841.255 44.4727V42.8125H837.255V44.4727H841.255ZM841.255 42.8125C841.255 40.8158 841.042 38.989 840.583 37.3569L836.732 38.4399C837.07 39.6412 837.255 41.0905 837.255 42.8125H841.255ZM840.592 37.3924C840.165 35.7568 839.514 34.3011 838.597 33.0793L835.397 35.4793C835.942 36.2054 836.398 37.1625 836.723 38.4045L840.592 37.3924ZM838.627 33.1203C837.73 31.8586 836.585 30.8791 835.205 30.2179L833.477 33.8251C834.222 34.1821 834.848 34.7078 835.368 35.4383L838.627 33.1203ZM835.251 30.2403C833.892 29.5466 832.389 29.2246 830.788 29.2246V33.2246C831.844 33.2246 832.709 33.4339 833.432 33.8027L835.251 30.2403ZM830.788 29.2246C829.17 29.2246 827.651 29.5446 826.275 30.2326L828.064 33.8103C828.813 33.4359 829.706 33.2246 830.788 33.2246V29.2246ZM826.29 30.2251C824.934 30.8889 823.807 31.868 822.916 33.1203L826.176 35.4383C826.702 34.6985 827.324 34.1723 828.048 33.8179L826.29 30.2251ZM822.929 33.103C822.044 34.3198 821.409 35.7671 820.984 37.3924L824.854 38.4045C825.182 37.1522 825.632 36.1867 826.164 35.4556L822.929 33.103ZM820.979 37.4134C820.576 39.0249 820.388 40.8318 820.388 42.8125H824.388C824.388 41.0745 824.554 39.6053 824.86 38.3835L820.979 37.4134ZM820.388 42.8125V44.4727H824.388V42.8125H820.388ZM820.388 44.4727C820.388 46.4342 820.577 48.2375 820.977 49.8648L824.861 48.9087C824.554 47.6584 824.388 46.1856 824.388 44.4727H820.388ZM820.984 49.8928C821.411 51.5253 822.057 52.9874 822.954 54.2381L826.205 51.9064C825.641 51.1207 825.18 50.1257 824.854 48.8807L820.984 49.8928ZM822.967 54.255C823.871 55.4879 824.992 56.4632 826.326 57.1445L828.145 53.5821C827.399 53.2009 826.749 52.6488 826.192 51.8895L822.967 54.255ZM826.371 57.1669C827.741 57.8229 829.249 58.127 830.855 58.127V54.127C829.76 54.127 828.856 53.9218 828.1 53.5597L826.371 57.1669ZM830.855 58.127C832.443 58.127 833.935 57.8212 835.287 57.1597L833.528 53.5668C832.799 53.9236 831.923 54.127 830.855 54.127V58.127ZM835.317 57.1445C836.658 56.46 837.775 55.4772 838.661 54.2313L835.401 51.9132C834.87 52.6595 834.238 53.2041 833.498 53.5821L835.317 57.1445ZM838.656 54.2381C839.553 52.9874 840.199 51.5253 840.626 49.8928L836.756 48.8807C836.43 50.1257 835.969 51.1207 835.406 51.9064L838.656 54.2381ZM840.626 49.8928C841.054 48.2554 841.255 46.4423 841.255 44.4727H837.255C837.255 46.1774 837.08 47.6404 836.756 48.8807L840.626 49.8928ZM894.267 24.3184H896.267V22.3184H894.267V24.3184ZM894.267 63V65H896.267V63H894.267ZM884.672 63L882.973 64.0555L883.56 65H884.672V63ZM869.365 38.3633L871.064 37.3078L867.365 31.3544V38.3633H869.365ZM869.365 63V65H871.365V63H869.365ZM859.803 63H857.803V65H859.803V63ZM859.803 24.3184V22.3184H857.803V24.3184H859.803ZM869.365 24.3184L871.064 23.2629L870.477 22.3184H869.365V24.3184ZM884.672 48.9551L882.973 50.0105L886.672 55.964V48.9551H884.672ZM884.672 24.3184V22.3184H882.672V24.3184H884.672ZM892.267 24.3184V63H896.267V24.3184H892.267ZM894.267 61H884.672V65H894.267V61ZM886.371 61.9445L871.064 37.3078L867.666 39.4187L882.973 64.0555L886.371 61.9445ZM867.365 38.3633V63H871.365V38.3633H867.365ZM869.365 61H859.803V65H869.365V61ZM861.803 63V24.3184H857.803V63H861.803ZM859.803 26.3184H869.365V22.3184H859.803V26.3184ZM867.666 25.3738L882.973 50.0105L886.371 47.8996L871.064 23.2629L867.666 25.3738ZM886.672 48.9551V24.3184H882.672V48.9551H886.672ZM884.672 26.3184H894.267V22.3184H884.672V26.3184Z" fill="#08E8E1"/>
</g>
<line x1="500.001" y1="34" x2="0.00204474" y2="35.004" stroke="#F9FAFC" stroke-width="2"/>
<line x1="1440" y1="35" x2="939.998" y2="33.8399" stroke="#F9FAFC" stroke-width="2"/>
<defs>
<filter id="filter0_d_1_428" x="543.535" y="20.7539" width="355.732" height="47.7773" filterUnits="userSpaceOnUse" color-interpolation-filters="sRGB">
<feFlood flood-opacity="0" result="BackgroundImageFix"/>
<feColorMatrix in="SourceAlpha" type="matrix" values="0 0 0 0 0 0 0 0 0 0 0 0 0 0 0 0 0 0 127 0" result="hardAlpha"/>
<feOffset dx="1" dy="1"/>
<feGaussianBlur stdDeviation="2"/>
<feComposite in2="hardAlpha" operator="out"/>
<feColorMatrix type="matrix" values="0 0 0 0 0.0313726 0 0 0 0 0.909804 0 0 0 0 0.882353 0 0 0 1 0"/>
<feBlend mode="normal" in2="BackgroundImageFix" result="effect1_dropShadow_1_428"/>
<feBlend mode="normal" in="SourceGraphic" in2="effect1_dropShadow_1_428" result="shape"/>
</filter>
</defs>
</svg>
