<svg width="1437" height="69" viewBox="0 0 1437 69" fill="none" xmlns="http://www.w3.org/2000/svg">
<g filter="url(#filter0_d_1_424)">
<path d="M547.598 24.3184H563.768C566.158 24.3184 568.316 24.5729 570.242 25.082C572.168 25.569 573.806 26.2995 575.156 27.2734C576.529 28.2474 577.58 29.4648 578.311 30.9258C579.041 32.3646 579.406 34.0358 579.406 35.9395C579.406 38.1973 579.03 40.0788 578.277 41.584C577.525 43.0892 576.484 44.3177 575.156 45.2695C573.828 46.2214 572.29 47.0182 570.541 47.6602L567.354 49.5195H553.607L553.541 42.0488H563.834C565.162 42.0488 566.269 41.8496 567.154 41.4512C568.04 41.0306 568.704 40.4329 569.146 39.6582C569.589 38.8835 569.811 37.9648 569.811 36.9023C569.811 35.8177 569.578 34.8991 569.113 34.1465C568.648 33.3939 567.962 32.8184 567.055 32.4199C566.169 32.0215 565.074 31.8223 563.768 31.8223H557.193V63H547.598V24.3184ZM570.541 63L561.277 45.9336L571.437 45.834L580.867 62.6016V63H570.541ZM626.051 42.8789V44.4727C626.051 47.4167 625.609 50.0618 624.723 52.4082C623.86 54.7546 622.631 56.7578 621.038 58.418C619.444 60.0781 617.54 61.3509 615.327 62.2363C613.135 63.0996 610.711 63.5312 608.055 63.5312C605.399 63.5312 602.964 63.0996 600.751 62.2363C598.559 61.3509 596.655 60.0781 595.04 58.418C593.424 56.7578 592.173 54.7546 591.288 52.4082C590.402 50.0618 589.96 47.4167 589.96 44.4727V42.8789C589.96 39.9128 590.391 37.2676 591.254 34.9434C592.14 32.597 593.379 30.5938 594.973 28.9336C596.589 27.2513 598.493 25.9785 600.684 25.1152C602.898 24.2298 605.333 23.7871 607.989 23.7871C610.645 23.7871 613.069 24.2298 615.26 25.1152C617.474 25.9785 619.389 27.2513 621.004 28.9336C622.62 30.5938 623.86 32.597 624.723 34.9434C625.609 37.2676 626.051 39.9128 626.051 42.8789ZM616.456 44.4727V42.8125C616.456 40.9531 616.256 39.3151 615.858 37.8984C615.482 36.4596 614.928 35.2533 614.198 34.2793C613.489 33.2832 612.604 32.5306 611.542 32.0215C610.501 31.4902 609.317 31.2246 607.989 31.2246C606.639 31.2246 605.432 31.4902 604.37 32.0215C603.329 32.5306 602.455 33.2832 601.747 34.2793C601.038 35.2533 600.496 36.4596 600.12 37.8984C599.766 39.3151 599.588 40.9531 599.588 42.8125V44.4727C599.588 46.3099 599.766 47.9479 600.12 49.3867C600.496 50.8255 601.049 52.054 601.78 53.0723C602.51 54.0684 603.396 54.832 604.436 55.3633C605.499 55.8724 606.705 56.127 608.055 56.127C609.383 56.127 610.568 55.8724 611.608 55.3633C612.648 54.832 613.523 54.0684 614.231 53.0723C614.961 52.054 615.515 50.8255 615.891 49.3867C616.267 47.9479 616.456 46.3099 616.456 44.4727ZM653.804 46.7305H643.013L642.946 40.4551H652.509C653.837 40.4551 654.933 40.3001 655.796 39.9902C656.659 39.6582 657.301 39.1823 657.722 38.5625C658.142 37.9427 658.353 37.168 658.353 36.2383C658.353 35.1758 658.142 34.3236 657.722 33.6816C657.323 33.0176 656.692 32.5417 655.829 32.2539C654.988 31.9661 653.926 31.8223 652.642 31.8223H646.566V63H637.003V24.3184H651.878C654.401 24.3184 656.648 24.5397 658.618 24.9824C660.61 25.403 662.304 26.056 663.698 26.9414C665.093 27.8268 666.155 28.9447 666.886 30.2949C667.616 31.623 667.982 33.1836 667.982 34.9766C667.982 36.5482 667.605 38.0423 666.853 39.459C666.122 40.8757 664.916 42.0156 663.233 42.8789C661.573 43.7422 659.327 44.1738 656.493 44.1738L653.804 46.7305ZM653.372 63H640.655L644.009 55.5293H653.372C654.789 55.5293 655.929 55.3411 656.792 54.9648C657.655 54.5664 658.286 54.0462 658.685 53.4043C659.083 52.7402 659.282 52.0319 659.282 51.2793C659.282 50.3496 659.094 49.5527 658.718 48.8887C658.364 48.2025 657.777 47.6712 656.958 47.2949C656.161 46.9186 655.11 46.7305 653.804 46.7305H645.437L645.47 40.4551H655.564L657.788 43.0117C660.533 42.8346 662.713 43.1999 664.329 44.1074C665.945 44.9928 667.096 46.1549 667.782 47.5938C668.491 49.0104 668.845 50.4492 668.845 51.9102C668.845 53.8138 668.513 55.4629 667.849 56.8574C667.185 58.252 666.2 59.403 664.894 60.3105C663.588 61.2181 661.972 61.8932 660.046 62.3359C658.12 62.7786 655.896 63 653.372 63ZM714.959 42.8789V44.4727C714.959 47.4167 714.516 50.0618 713.631 52.4082C712.767 54.7546 711.539 56.7578 709.945 58.418C708.351 60.0781 706.448 61.3509 704.234 62.2363C702.043 63.0996 699.619 63.5312 696.963 63.5312C694.306 63.5312 691.871 63.0996 689.658 62.2363C687.466 61.3509 685.563 60.0781 683.947 58.418C682.331 56.7578 681.08 54.7546 680.195 52.4082C679.31 50.0618 678.867 47.4167 678.867 44.4727V42.8789C678.867 39.9128 679.299 37.2676 680.162 34.9434C681.047 32.597 682.287 30.5938 683.881 28.9336C685.496 27.2513 687.4 25.9785 689.591 25.1152C691.805 24.2298 694.24 23.7871 696.896 23.7871C699.552 23.7871 701.976 24.2298 704.168 25.1152C706.381 25.9785 708.296 27.2513 709.912 28.9336C711.528 30.5938 712.767 32.597 713.631 34.9434C714.516 37.2676 714.959 39.9128 714.959 42.8789ZM705.363 44.4727V42.8125C705.363 40.9531 705.164 39.3151 704.765 37.8984C704.389 36.4596 703.836 35.2533 703.105 34.2793C702.397 33.2832 701.511 32.5306 700.449 32.0215C699.409 31.4902 698.224 31.2246 696.896 31.2246C695.546 31.2246 694.34 31.4902 693.277 32.0215C692.237 32.5306 691.362 33.2832 690.654 34.2793C689.946 35.2533 689.403 36.4596 689.027 37.8984C688.673 39.3151 688.496 40.9531 688.496 42.8125V44.4727C688.496 46.3099 688.673 47.9479 689.027 49.3867C689.403 50.8255 689.957 52.054 690.687 53.0723C691.418 54.0684 692.303 54.832 693.343 55.3633C694.406 55.8724 695.612 56.127 696.963 56.127C698.291 56.127 699.475 55.8724 700.515 55.3633C701.556 54.832 702.43 54.0684 703.138 53.0723C703.869 52.054 704.422 50.8255 704.799 49.3867C705.175 47.9479 705.363 46.3099 705.363 44.4727ZM745.035 24.3184V63H735.406V24.3184H745.035ZM757.619 24.3184V31.8223H723.088V24.3184H757.619ZM795.532 40.2891V47.7598H773.983V40.2891H795.532ZM777.104 24.3184V63H767.542V24.3184H777.104ZM802.04 24.3184V63H792.477V24.3184H802.04ZM848.951 42.8789V44.4727C848.951 47.4167 848.508 50.0618 847.622 52.4082C846.759 54.7546 845.531 56.7578 843.937 58.418C842.343 60.0781 840.439 61.3509 838.226 62.2363C836.035 63.0996 833.611 63.5312 830.954 63.5312C828.298 63.5312 825.863 63.0996 823.65 62.2363C821.458 61.3509 819.555 60.0781 817.939 58.418C816.323 56.7578 815.072 54.7546 814.187 52.4082C813.301 50.0618 812.859 47.4167 812.859 44.4727V42.8789C812.859 39.9128 813.29 37.2676 814.154 34.9434C815.039 32.597 816.279 30.5938 817.872 28.9336C819.488 27.2513 821.392 25.9785 823.583 25.1152C825.797 24.2298 828.232 23.7871 830.888 23.7871C833.544 23.7871 835.968 24.2298 838.16 25.1152C840.373 25.9785 842.288 27.2513 843.904 28.9336C845.52 30.5938 846.759 32.597 847.622 34.9434C848.508 37.2676 848.951 39.9128 848.951 42.8789ZM839.355 44.4727V42.8125C839.355 40.9531 839.156 39.3151 838.757 37.8984C838.381 36.4596 837.828 35.2533 837.097 34.2793C836.389 33.2832 835.503 32.5306 834.441 32.0215C833.4 31.4902 832.216 31.2246 830.888 31.2246C829.538 31.2246 828.331 31.4902 827.269 32.0215C826.229 32.5306 825.354 33.2832 824.646 34.2793C823.938 35.2533 823.395 36.4596 823.019 37.8984C822.665 39.3151 822.488 40.9531 822.488 42.8125V44.4727C822.488 46.3099 822.665 47.9479 823.019 49.3867C823.395 50.8255 823.949 52.054 824.679 53.0723C825.41 54.0684 826.295 54.832 827.335 55.3633C828.398 55.8724 829.604 56.127 830.954 56.127C832.283 56.127 833.467 55.8724 834.507 55.3633C835.548 54.832 836.422 54.0684 837.13 53.0723C837.861 52.054 838.414 50.8255 838.79 49.3867C839.167 47.9479 839.355 46.3099 839.355 44.4727ZM894.367 24.3184V63H884.771L869.465 38.3633V63H859.902V24.3184H869.465L884.771 48.9551V24.3184H894.367Z" fill="white"/>
<path d="M547.598 24.3184V22.3184H545.598V24.3184H547.598ZM570.242 25.082L569.731 27.0156L569.741 27.0184L569.752 27.021L570.242 25.082ZM575.156 27.2734L573.986 28.8955L573.992 28.9L573.999 28.9045L575.156 27.2734ZM578.311 30.9258L576.522 31.8202L576.527 31.8312L578.311 30.9258ZM578.277 41.584L576.488 40.6896L578.277 41.584ZM575.156 45.2695L573.991 43.6439L575.156 45.2695ZM570.541 47.6602L569.852 45.7827L569.686 45.8436L569.533 45.9326L570.541 47.6602ZM567.354 49.5195V51.5195H567.894L568.361 51.2471L567.354 49.5195ZM553.607 49.5195L551.607 49.5373L551.625 51.5195H553.607V49.5195ZM553.541 42.0488V40.0488H551.523L551.541 42.0666L553.541 42.0488ZM567.154 41.4512L567.975 43.275L567.994 43.2666L568.012 43.2577L567.154 41.4512ZM567.055 32.4199L566.234 34.2438L566.242 34.2475L566.251 34.2512L567.055 32.4199ZM557.193 31.8223V29.8223H555.193V31.8223H557.193ZM557.193 63V65H559.193V63H557.193ZM547.598 63H545.598V65H547.598V63ZM570.541 63L568.783 63.9541L569.351 65H570.541V63ZM561.277 45.9336L561.258 43.9337L557.934 43.9663L559.52 46.8877L561.277 45.9336ZM571.437 45.834L573.181 44.8536L572.601 43.8225L571.418 43.8341L571.437 45.834ZM580.867 62.6016H582.867V62.0778L582.61 61.6212L580.867 62.6016ZM580.867 63V65H582.867V63H580.867ZM547.598 26.3184H563.768V22.3184H547.598V26.3184ZM563.768 26.3184C566.019 26.3184 568.001 26.5583 569.731 27.0156L570.753 23.1485C568.631 22.5875 566.297 22.3184 563.768 22.3184V26.3184ZM569.752 27.021C571.479 27.4578 572.876 28.0946 573.986 28.8955L576.326 25.6514C574.736 24.5044 572.857 23.6802 570.732 23.1431L569.752 27.021ZM573.999 28.9045C575.112 29.6944 575.943 30.662 576.522 31.8202L580.099 30.0314C579.218 28.2677 577.945 26.8004 576.314 25.6424L573.999 28.9045ZM576.527 31.8312C577.092 32.9432 577.406 34.2941 577.406 35.9395H581.406C581.406 33.7775 580.99 31.786 580.094 30.0204L576.527 31.8312ZM577.406 35.9395C577.406 37.988 577.063 39.5403 576.488 40.6896L580.066 42.4784C580.997 40.6173 581.406 38.4066 581.406 35.9395H577.406ZM576.488 40.6896C575.877 41.913 575.047 42.8873 573.991 43.6439L576.321 46.8952C577.922 45.7481 579.173 44.2654 580.066 42.4784L576.488 40.6896ZM573.991 43.6439C572.828 44.4772 571.454 45.1943 569.852 45.7827L571.23 49.5377C573.125 48.8421 574.828 47.9655 576.321 46.8952L573.991 43.6439ZM569.533 45.9326L566.346 47.792L568.361 51.2471L571.549 49.3877L569.533 45.9326ZM567.354 47.5195H553.607V51.5195H567.354V47.5195ZM555.607 49.5018L555.541 42.0311L551.541 42.0666L551.607 49.5373L555.607 49.5018ZM553.541 44.0488H563.834V40.0488H553.541V44.0488ZM563.834 44.0488C565.347 44.0488 566.755 43.824 567.975 43.275L566.334 39.6273C565.783 39.8752 564.977 40.0488 563.834 40.0488V44.0488ZM568.012 43.2577C569.229 42.6799 570.218 41.8149 570.883 40.6505L567.41 38.6659C567.19 39.051 566.851 39.3813 566.296 39.6446L568.012 43.2577ZM570.883 40.6505C571.529 39.5206 571.811 38.2463 571.811 36.9023H567.811C567.811 37.6833 567.65 38.2463 567.41 38.6659L570.883 40.6505ZM571.811 36.9023C571.811 35.5305 571.515 34.2285 570.815 33.0955L567.412 35.1975C567.642 35.5697 567.811 36.105 567.811 36.9023H571.811ZM570.815 33.0955C570.112 31.9569 569.091 31.1297 567.859 30.5886L566.251 34.2512C566.833 34.507 567.185 34.8308 567.412 35.1975L570.815 33.0955ZM567.875 30.5961C566.659 30.0488 565.264 29.8223 563.768 29.8223V33.8223C564.883 33.8223 565.679 33.9942 566.234 34.2438L567.875 30.5961ZM563.768 29.8223H557.193V33.8223H563.768V29.8223ZM555.193 31.8223V63H559.193V31.8223H555.193ZM557.193 61H547.598V65H557.193V61ZM549.598 63V24.3184H545.598V63H549.598ZM572.299 62.0459L563.035 44.9795L559.52 46.8877L568.783 63.9541L572.299 62.0459ZM561.297 47.9335L571.457 47.8339L571.418 43.8341L561.258 43.9337L561.297 47.9335ZM569.694 46.8143L579.124 63.5819L582.61 61.6212L573.181 44.8536L569.694 46.8143ZM578.867 62.6016V63H582.867V62.6016H578.867ZM580.867 61H570.541V65H580.867V61ZM624.723 52.4082L622.852 51.7021L622.849 51.7098L622.846 51.7176L624.723 52.4082ZM615.327 62.2363L616.06 64.0972L616.069 64.0933L615.327 62.2363ZM600.751 62.2363L600.001 64.0907L600.013 64.0952L600.024 64.0996L600.751 62.2363ZM595.04 58.418L593.606 59.8129L595.04 58.418ZM591.254 34.9434L589.383 34.2372L589.38 34.247L591.254 34.9434ZM594.973 28.9336L593.531 27.5481L593.53 27.5485L594.973 28.9336ZM600.684 25.1152L601.417 26.9761L601.427 26.9722L600.684 25.1152ZM615.26 25.1152L614.511 26.9696L614.522 26.9741L614.534 26.9785L615.26 25.1152ZM621.004 28.9336L619.562 30.3191L619.571 30.3286L621.004 28.9336ZM624.723 34.9434L622.846 35.6339L622.85 35.6447L622.854 35.6553L624.723 34.9434ZM615.858 37.8984L613.923 38.4045L613.928 38.4223L613.933 38.4399L615.858 37.8984ZM614.198 34.2793L612.568 35.4383L612.583 35.459L612.598 35.4793L614.198 34.2793ZM611.542 32.0215L610.632 33.8027L610.655 33.8142L610.677 33.8251L611.542 32.0215ZM604.37 32.0215L605.249 33.8179L605.256 33.8142L605.264 33.8103L604.37 32.0215ZM601.747 34.2793L603.364 35.4556L603.37 35.447L603.377 35.4383L601.747 34.2793ZM600.12 37.8984L598.185 37.3924L598.182 37.4029L598.179 37.4134L600.12 37.8984ZM600.12 49.3867L598.178 49.8648L598.181 49.8788L598.185 49.8928L600.12 49.3867ZM601.78 53.0723L600.155 54.2381L600.161 54.2466L600.167 54.255L601.78 53.0723ZM604.436 55.3633L603.527 57.1445L603.549 57.156L603.572 57.1669L604.436 55.3633ZM611.608 55.3633L612.487 57.1597L612.502 57.1522L612.518 57.1445L611.608 55.3633ZM614.231 53.0723L612.606 51.9064L612.601 51.9132L614.231 53.0723ZM624.051 42.8789V44.4727H628.051V42.8789H624.051ZM624.051 44.4727C624.051 47.2166 623.639 49.6169 622.852 51.7021L626.594 53.1143C627.578 50.5068 628.051 47.6167 628.051 44.4727H624.051ZM622.846 51.7176C622.07 53.8276 620.982 55.5885 619.595 57.0329L622.48 59.803C624.281 57.9272 625.65 55.6815 626.6 53.0988L622.846 51.7176ZM619.595 57.0329C618.205 58.4803 616.543 59.5958 614.584 60.3794L616.069 64.0933C618.538 63.1061 620.682 61.6759 622.48 59.803L619.595 57.0329ZM614.594 60.3755C612.664 61.1358 610.492 61.5312 608.055 61.5312V65.5312C610.931 65.5312 613.607 65.0634 616.06 64.0971L614.594 60.3755ZM608.055 61.5312C605.618 61.5312 603.433 61.1359 601.477 60.373L600.024 64.0996C602.495 65.0633 605.18 65.5312 608.055 65.5312V61.5312ZM601.5 60.382C599.56 59.5984 597.891 58.4801 596.473 57.023L593.606 59.8129C595.42 61.6761 597.558 63.1034 600.001 64.0907L601.5 60.382ZM596.473 57.023C595.064 55.5757 593.955 53.8126 593.159 51.7021L589.416 53.1143C590.391 55.6965 591.783 57.9399 593.606 59.8129L596.473 57.023ZM593.159 51.7021C592.372 49.6169 591.96 47.2166 591.96 44.4727H587.96C587.96 47.6167 588.432 50.5068 589.416 53.1143L593.159 51.7021ZM591.96 44.4727V42.8789H587.96V44.4727H591.96ZM591.96 42.8789C591.96 40.105 592.363 37.7021 593.129 35.6397L589.38 34.247C588.419 36.833 587.96 39.7205 587.96 42.8789H591.96ZM593.126 35.6495C593.924 33.5332 595.026 31.7669 596.416 30.3187L593.53 27.5485C591.733 29.4206 590.355 31.6608 589.383 34.2372L593.126 35.6495ZM596.416 30.3191C597.83 28.8465 599.491 27.7349 601.417 26.9761L599.951 23.2544C597.494 24.2222 595.348 25.6561 593.531 27.5481L596.416 30.3191ZM601.427 26.9722C603.379 26.1915 605.558 25.7871 607.989 25.7871V21.7871C605.107 21.7871 602.417 22.2682 599.941 23.2583L601.427 26.9722ZM607.989 25.7871C610.42 25.7871 612.585 26.1916 614.511 26.9696L616.01 23.2609C613.552 22.2681 610.87 21.7871 607.989 21.7871V25.7871ZM614.534 26.9785C616.482 27.7384 618.151 28.8501 619.562 30.3191L622.447 27.5481C620.626 25.6525 618.466 24.2187 615.987 23.2519L614.534 26.9785ZM619.571 30.3286C620.976 31.7721 622.072 33.5298 622.846 35.6339L626.6 34.2528C625.648 31.6642 624.264 29.4154 622.438 27.5386L619.571 30.3286ZM622.854 35.6553C623.638 37.713 624.051 40.1103 624.051 42.8789H628.051C628.051 39.7152 627.579 36.8221 626.592 34.2314L622.854 35.6553ZM618.456 44.4727V42.8125H614.456V44.4727H618.456ZM618.456 42.8125C618.456 40.8158 618.242 38.989 617.783 37.3569L613.933 38.4399C614.271 39.6412 614.456 41.0905 614.456 42.8125H618.456ZM617.793 37.3924C617.365 35.7568 616.714 34.3011 615.798 33.0793L612.598 35.4793C613.142 36.2054 613.598 37.1625 613.923 38.4045L617.793 37.3924ZM615.828 33.1203C614.931 31.8586 613.786 30.8791 612.406 30.2179L610.677 33.8251C611.422 34.1821 612.048 34.7078 612.568 35.4383L615.828 33.1203ZM612.451 30.2403C611.093 29.5466 609.59 29.2246 607.989 29.2246V33.2246C609.044 33.2246 609.91 33.4339 610.632 33.8027L612.451 30.2403ZM607.989 29.2246C606.371 29.2246 604.851 29.5446 603.475 30.2326L605.264 33.8103C606.013 33.4359 606.906 33.2246 607.989 33.2246V29.2246ZM603.491 30.2251C602.134 30.8889 601.007 31.868 600.117 33.1203L603.377 35.4383C603.903 34.6985 604.525 34.1723 605.249 33.8179L603.491 30.2251ZM600.129 33.103C599.244 34.3198 598.61 35.7671 598.185 37.3924L602.055 38.4045C602.382 37.1522 602.832 36.1867 603.364 35.4556L600.129 33.103ZM598.179 37.4134C597.776 39.0249 597.588 40.8318 597.588 42.8125H601.588C601.588 41.0745 601.755 39.6053 602.06 38.3835L598.179 37.4134ZM597.588 42.8125V44.4727H601.588V42.8125H597.588ZM597.588 44.4727C597.588 46.4342 597.777 48.2375 598.178 49.8648L602.062 48.9087C601.754 47.6584 601.588 46.1856 601.588 44.4727H597.588ZM598.185 49.8928C598.612 51.5253 599.258 52.9874 600.155 54.2381L603.405 51.9064C602.841 51.1207 602.38 50.1257 602.055 48.8807L598.185 49.8928ZM600.167 54.255C601.071 55.4879 602.192 56.4632 603.527 57.1445L605.346 53.5821C604.599 53.2009 603.949 52.6488 603.393 51.8895L600.167 54.255ZM603.572 57.1669C604.941 57.8229 606.45 58.127 608.055 58.127V54.127C606.96 54.127 606.056 53.9218 605.3 53.5597L603.572 57.1669ZM608.055 58.127C609.643 58.127 611.135 57.8212 612.487 57.1597L610.729 53.5668C610 53.9236 609.123 54.127 608.055 54.127V58.127ZM612.518 57.1445C613.858 56.46 614.975 55.4772 615.861 54.2313L612.601 51.9132C612.07 52.6595 611.439 53.2041 610.698 53.5821L612.518 57.1445ZM615.856 54.2381C616.753 52.9874 617.399 51.5253 617.826 49.8928L613.956 48.8807C613.631 50.1257 613.17 51.1207 612.606 51.9064L615.856 54.2381ZM617.826 49.8928C618.254 48.2554 618.456 46.4423 618.456 44.4727H614.456C614.456 46.1774 614.281 47.6404 613.956 48.8807L617.826 49.8928ZM653.804 46.7305V48.7305H654.603L655.182 48.18L653.804 46.7305ZM643.013 46.7305L641.013 46.7516L641.034 48.7305H643.013V46.7305ZM642.946 40.4551V38.4551H640.925L640.947 40.4762L642.946 40.4551ZM655.796 39.9902L656.472 41.8726L656.493 41.865L656.514 41.8569L655.796 39.9902ZM657.722 33.6816L656.007 34.7106L656.027 34.7446L656.049 34.7777L657.722 33.6816ZM655.829 32.2539L655.182 34.1462L655.189 34.1488L655.197 34.1513L655.829 32.2539ZM646.566 31.8223V29.8223H644.566V31.8223H646.566ZM646.566 63V65H648.566V63H646.566ZM637.003 63H635.003V65H637.003V63ZM637.003 24.3184V22.3184H635.003V24.3184H637.003ZM658.618 24.9824L658.18 26.9338L658.192 26.9366L658.205 26.9393L658.618 24.9824ZM666.886 30.2949L665.127 31.2466L665.133 31.2588L666.886 30.2949ZM666.853 39.459L665.086 38.5207L665.081 38.5315L665.075 38.5424L666.853 39.459ZM663.233 42.8789L662.32 41.0995L662.311 41.1045L663.233 42.8789ZM656.493 44.1738V42.1738H655.694L655.115 42.7243L656.493 44.1738ZM640.655 63L638.831 62.181L637.565 65H640.655V63ZM644.009 55.5293V53.5293H642.714L642.184 54.7103L644.009 55.5293ZM656.792 54.9648L657.591 56.7982L657.611 56.7897L657.63 56.7808L656.792 54.9648ZM658.685 53.4043L660.384 54.459L660.392 54.4462L660.4 54.4333L658.685 53.4043ZM658.718 48.8887L656.941 49.806L656.959 49.8407L656.978 49.8747L658.718 48.8887ZM656.958 47.2949L656.104 49.1034L656.114 49.1079L656.123 49.1123L656.958 47.2949ZM645.437 46.7305L643.437 46.7199L643.426 48.7305H645.437V46.7305ZM645.47 40.4551V38.4551H643.48L643.47 40.4445L645.47 40.4551ZM655.564 40.4551L657.072 39.1422L656.474 38.4551H655.564V40.4551ZM657.788 43.0117L656.279 44.3246L656.929 45.0713L657.917 45.0076L657.788 43.0117ZM664.329 44.1074L663.35 45.8512L663.359 45.8563L663.368 45.8614L664.329 44.1074ZM667.782 47.5938L665.977 48.4547L665.985 48.4715L665.993 48.4882L667.782 47.5938ZM653.804 44.7305H643.013V48.7305H653.804V44.7305ZM645.013 46.7093L644.946 40.4339L640.947 40.4762L641.013 46.7516L645.013 46.7093ZM642.946 42.4551H652.509V38.4551H642.946V42.4551ZM652.509 42.4551C653.973 42.4551 655.318 42.2868 656.472 41.8726L655.12 38.1078C654.547 38.3135 653.701 38.4551 652.509 38.4551V42.4551ZM656.514 41.8569C657.668 41.4132 658.678 40.7151 659.377 39.6855L656.067 37.4395C655.924 37.6495 655.651 37.9032 655.078 38.1235L656.514 41.8569ZM659.377 39.6855C660.071 38.6622 660.353 37.4712 660.353 36.2383H656.353C656.353 36.8647 656.214 37.2232 656.067 37.4395L659.377 39.6855ZM660.353 36.2383C660.353 34.9309 660.096 33.6561 659.395 32.5856L656.049 34.7777C656.189 34.991 656.353 35.4207 656.353 36.2383H660.353ZM659.437 32.6526C658.751 31.5096 657.694 30.7674 656.462 30.3565L655.197 34.1513C655.691 34.3159 655.896 34.5256 656.007 34.7106L659.437 32.6526ZM656.477 30.3616C655.357 29.9785 654.057 29.8223 652.642 29.8223V33.8223C653.794 33.8223 654.619 33.9538 655.182 34.1462L656.477 30.3616ZM652.642 29.8223H646.566V33.8223H652.642V29.8223ZM644.566 31.8223V63H648.566V31.8223H644.566ZM646.566 61H637.003V65H646.566V61ZM639.003 63V24.3184H635.003V63H639.003ZM637.003 26.3184H651.878V22.3184H637.003V26.3184ZM651.878 26.3184C654.289 26.3184 656.384 26.5302 658.18 26.9338L659.057 23.0311C656.912 22.5492 654.514 22.3184 651.878 22.3184V26.3184ZM658.205 26.9393C660.016 27.3216 661.474 27.8985 662.626 28.6298L664.77 25.253C663.133 24.2135 661.205 23.4844 659.031 23.0256L658.205 26.9393ZM662.626 28.6298C663.755 29.3466 664.571 30.2192 665.127 31.2466L668.645 29.3433C667.74 27.6702 666.43 26.307 664.77 25.253L662.626 28.6298ZM665.133 31.2588C665.674 32.2419 665.982 33.4589 665.982 34.9766H669.982C669.982 32.9083 669.559 31.0042 668.638 29.3311L665.133 31.2588ZM665.982 34.9766C665.982 36.214 665.689 37.3867 665.086 38.5207L668.619 40.3973C669.522 38.6979 669.982 36.8823 669.982 34.9766H665.982ZM665.075 38.5424C664.569 39.5233 663.703 40.3902 662.32 41.0995L664.147 44.6583C666.129 43.641 667.675 42.228 668.63 40.3756L665.075 38.5424ZM662.311 41.1045C661.045 41.7628 659.156 42.1738 656.493 42.1738V46.1738C659.497 46.1738 662.102 45.7216 664.156 44.6533L662.311 41.1045ZM655.115 42.7243L652.426 45.2809L655.182 48.18L657.871 45.6234L655.115 42.7243ZM653.372 61H640.655V65H653.372V61ZM642.48 63.819L645.833 56.3483L642.184 54.7103L638.831 62.181L642.48 63.819ZM644.009 57.5293H653.372V53.5293H644.009V57.5293ZM653.372 57.5293C654.938 57.5293 656.382 57.3255 657.591 56.7982L655.993 53.1315C655.476 53.3568 654.64 53.5293 653.372 53.5293V57.5293ZM657.63 56.7808C658.757 56.2606 659.732 55.51 660.384 54.459L656.985 52.3496C656.841 52.5825 656.554 52.8722 655.954 53.1489L657.63 56.7808ZM660.4 54.4333C660.979 53.4679 661.282 52.4053 661.282 51.2793H657.282C657.282 51.6585 657.187 52.0126 656.97 52.3753L660.4 54.4333ZM661.282 51.2793C661.282 50.0789 661.038 48.9265 660.458 47.9026L656.978 49.8747C657.15 50.179 657.282 50.6203 657.282 51.2793H661.282ZM660.495 47.9714C659.903 46.8244 658.947 46.0078 657.793 45.4776L656.123 49.1123C656.607 49.3347 656.824 49.5806 656.941 49.806L660.495 47.9714ZM657.812 45.4864C656.651 44.9382 655.275 44.7305 653.804 44.7305V48.7305C654.945 48.7305 655.671 48.8991 656.104 49.1034L657.812 45.4864ZM653.804 44.7305H645.437V48.7305H653.804V44.7305ZM647.437 46.7411L647.47 40.4657L643.47 40.4445L643.437 46.7199L647.437 46.7411ZM645.47 42.4551H655.564V38.4551H645.47V42.4551ZM654.055 41.7679L656.279 44.3246L659.297 41.6989L657.072 39.1422L654.055 41.7679ZM657.917 45.0076C660.451 44.8441 662.197 45.2039 663.35 45.8512L665.309 42.3636C663.229 41.1958 660.615 40.8252 657.659 41.0159L657.917 45.0076ZM663.368 45.8614C664.675 46.5776 665.499 47.4517 665.977 48.4547L669.588 46.7328C668.694 44.8582 667.215 43.408 665.29 42.3535L663.368 45.8614ZM665.993 48.4882C666.575 49.651 666.845 50.7853 666.845 51.9102H670.845C670.845 50.1131 670.406 48.3699 669.571 46.6993L665.993 48.4882ZM666.845 51.9102C666.845 53.584 666.553 54.9267 666.043 55.9976L669.654 57.7173C670.473 55.9991 670.845 54.0437 670.845 51.9102H666.845ZM666.043 55.9976C665.533 57.0683 664.781 57.9531 663.752 58.6682L666.035 61.9529C667.618 60.8529 668.836 59.4356 669.654 57.7173L666.043 55.9976ZM663.752 58.6682C662.7 59.3996 661.333 59.9878 659.598 60.3868L660.494 64.2851C662.61 63.7986 664.476 63.0366 666.035 61.9529L663.752 58.6682ZM659.598 60.3868C657.853 60.7879 655.784 61 653.372 61V65C656.007 65 658.387 64.7694 660.494 64.2851L659.598 60.3868ZM713.631 52.4082L711.759 51.7021L711.756 51.7098L711.754 51.7176L713.631 52.4082ZM704.234 62.2363L704.967 64.0972L704.977 64.0933L704.234 62.2363ZM689.658 62.2363L688.909 64.0907L688.92 64.0952L688.931 64.0996L689.658 62.2363ZM683.947 58.418L682.514 59.8129L683.947 58.418ZM680.162 34.9434L678.291 34.2372L678.287 34.247L680.162 34.9434ZM683.881 28.9336L682.438 27.5481L682.438 27.5485L683.881 28.9336ZM689.591 25.1152L690.325 26.9761L690.334 26.9722L689.591 25.1152ZM704.168 25.1152L703.418 26.9696L703.43 26.9741L703.441 26.9785L704.168 25.1152ZM709.912 28.9336L708.469 30.3191L708.479 30.3286L709.912 28.9336ZM713.631 34.9434L711.754 35.6339L711.757 35.6447L711.762 35.6553L713.631 34.9434ZM704.765 37.8984L702.83 38.4045L702.835 38.4223L702.84 38.4399L704.765 37.8984ZM703.105 34.2793L701.475 35.4383L701.49 35.459L701.505 35.4793L703.105 34.2793ZM700.449 32.0215L699.539 33.8027L699.562 33.8142L699.585 33.8251L700.449 32.0215ZM693.277 32.0215L694.156 33.8179L694.164 33.8142L694.171 33.8103L693.277 32.0215ZM690.654 34.2793L692.271 35.4556L692.278 35.447L692.284 35.4383L690.654 34.2793ZM689.027 37.8984L687.092 37.3924L687.089 37.4029L687.087 37.4134L689.027 37.8984ZM689.027 49.3867L687.085 49.8648L687.088 49.8788L687.092 49.8928L689.027 49.3867ZM690.687 53.0723L689.062 54.2381L689.068 54.2466L689.074 54.255L690.687 53.0723ZM693.343 55.3633L692.434 57.1445L692.456 57.156L692.479 57.1669L693.343 55.3633ZM700.515 55.3633L701.394 57.1597L701.41 57.1522L701.425 57.1445L700.515 55.3633ZM703.138 53.0723L701.513 51.9064L701.508 51.9132L703.138 53.0723ZM712.959 42.8789V44.4727H716.959V42.8789H712.959ZM712.959 44.4727C712.959 47.2166 712.546 49.6169 711.759 51.7021L715.502 53.1143C716.486 50.5068 716.959 47.6167 716.959 44.4727H712.959ZM711.754 51.7176C710.977 53.8276 709.889 55.5885 708.502 57.0329L711.388 59.803C713.189 57.9272 714.557 55.6815 715.508 53.0988L711.754 51.7176ZM708.502 57.0329C707.113 58.4803 705.45 59.5958 703.491 60.3794L704.977 64.0933C707.445 63.1061 709.59 61.6759 711.388 59.803L708.502 57.0329ZM703.501 60.3755C701.571 61.1358 699.4 61.5312 696.963 61.5312V65.5312C699.838 65.5312 702.514 65.0634 704.967 64.0971L703.501 60.3755ZM696.963 61.5312C694.526 61.5312 692.341 61.1359 690.385 60.373L688.931 64.0996C691.402 65.0633 694.087 65.5312 696.963 65.5312V61.5312ZM690.407 60.382C688.468 59.5984 686.798 58.4801 685.38 57.023L682.514 59.8129C684.327 61.6761 686.465 63.1034 688.909 64.0907L690.407 60.382ZM685.38 57.023C683.971 55.5757 682.863 53.8126 682.066 51.7021L678.324 53.1143C679.298 55.6965 680.691 57.9399 682.514 59.8129L685.38 57.023ZM682.066 51.7021C681.279 49.6169 680.867 47.2166 680.867 44.4727H676.867C676.867 47.6167 677.34 50.5068 678.324 53.1143L682.066 51.7021ZM680.867 44.4727V42.8789H676.867V44.4727H680.867ZM680.867 42.8789C680.867 40.105 681.271 37.7021 682.037 35.6397L678.287 34.247C677.326 36.833 676.867 39.7205 676.867 42.8789H680.867ZM682.033 35.6495C682.832 33.5332 683.933 31.7669 685.323 30.3187L682.438 27.5485C680.641 29.4206 679.263 31.6608 678.291 34.2372L682.033 35.6495ZM685.323 30.3191C686.737 28.8465 688.398 27.7349 690.325 26.9761L688.858 23.2544C686.402 24.2222 684.255 25.6561 682.438 27.5481L685.323 30.3191ZM690.334 26.9722C692.286 26.1915 694.465 25.7871 696.896 25.7871V21.7871C694.014 21.7871 691.324 22.2682 688.849 23.2583L690.334 26.9722ZM696.896 25.7871C699.327 25.7871 701.493 26.1916 703.418 26.9696L704.917 23.2609C702.46 22.2681 699.777 21.7871 696.896 21.7871V25.7871ZM703.441 26.9785C705.389 27.7384 707.058 28.8501 708.469 30.3191L711.354 27.5481C709.533 25.6525 707.373 24.2187 704.894 23.2519L703.441 26.9785ZM708.479 30.3286C709.884 31.7721 710.979 33.5298 711.754 35.6339L715.508 34.2528C714.555 31.6642 713.172 29.4154 711.345 27.5386L708.479 30.3286ZM711.762 35.6553C712.545 37.713 712.959 40.1103 712.959 42.8789H716.959C716.959 39.7152 716.486 36.8221 715.5 34.2314L711.762 35.6553ZM707.363 44.4727V42.8125H703.363V44.4727H707.363ZM707.363 42.8125C707.363 40.8158 707.15 38.989 706.691 37.3569L702.84 38.4399C703.178 39.6412 703.363 41.0905 703.363 42.8125H707.363ZM706.7 37.3924C706.272 35.7568 705.622 34.3011 704.705 33.0793L701.505 35.4793C702.05 36.2054 702.506 37.1625 702.83 38.4045L706.7 37.3924ZM704.735 33.1203C703.838 31.8586 702.693 30.8791 701.313 30.2179L699.585 33.8251C700.33 34.1821 700.956 34.7078 701.475 35.4383L704.735 33.1203ZM701.358 30.2403C700 29.5466 698.497 29.2246 696.896 29.2246V33.2246C697.952 33.2246 698.817 33.4339 699.539 33.8027L701.358 30.2403ZM696.896 29.2246C695.278 29.2246 693.759 29.5446 692.383 30.2326L694.171 33.8103C694.92 33.4359 695.814 33.2246 696.896 33.2246V29.2246ZM692.398 30.2251C691.041 30.8889 689.915 31.868 689.024 33.1203L692.284 35.4383C692.81 34.6985 693.432 34.1723 694.156 33.8179L692.398 30.2251ZM689.036 33.103C688.152 34.3198 687.517 35.7671 687.092 37.3924L690.962 38.4045C691.289 37.1522 691.74 36.1867 692.271 35.4556L689.036 33.103ZM687.087 37.4134C686.684 39.0249 686.496 40.8318 686.496 42.8125H690.496C690.496 41.0745 690.662 39.6053 690.967 38.3835L687.087 37.4134ZM686.496 42.8125V44.4727H690.496V42.8125H686.496ZM686.496 44.4727C686.496 46.4342 686.684 48.2375 687.085 49.8648L690.969 48.9087C690.661 47.6584 690.496 46.1856 690.496 44.4727H686.496ZM687.092 49.8928C687.519 51.5253 688.165 52.9874 689.062 54.2381L692.312 51.9064C691.749 51.1207 691.288 50.1257 690.962 48.8807L687.092 49.8928ZM689.074 54.255C689.978 55.4879 691.1 56.4632 692.434 57.1445L694.253 53.5821C693.506 53.2009 692.857 52.6488 692.3 51.8895L689.074 54.255ZM692.479 57.1669C693.848 57.8229 695.357 58.127 696.963 58.127V54.127C695.868 54.127 694.964 53.9218 694.208 53.5597L692.479 57.1669ZM696.963 58.127C698.551 58.127 700.043 57.8212 701.394 57.1597L699.636 53.5668C698.907 53.9236 698.031 54.127 696.963 54.127V58.127ZM701.425 57.1445C702.765 56.46 703.882 55.4772 704.768 54.2313L701.508 51.9132C700.978 52.6595 700.346 53.2041 699.606 53.5821L701.425 57.1445ZM704.763 54.2381C705.661 52.9874 706.306 51.5253 706.733 49.8928L702.864 48.8807C702.538 50.1257 702.077 51.1207 701.513 51.9064L704.763 54.2381ZM706.733 49.8928C707.162 48.2554 707.363 46.4423 707.363 44.4727H703.363C703.363 46.1774 703.188 47.6404 702.864 48.8807L706.733 49.8928ZM745.035 24.3184H747.035V22.3184H745.035V24.3184ZM745.035 63V65H747.035V63H745.035ZM735.406 63H733.406V65H735.406V63ZM735.406 24.3184V22.3184H733.406V24.3184H735.406ZM757.619 24.3184H759.619V22.3184H757.619V24.3184ZM757.619 31.8223V33.8223H759.619V31.8223H757.619ZM723.088 31.8223H721.088V33.8223H723.088V31.8223ZM723.088 24.3184V22.3184H721.088V24.3184H723.088ZM743.035 24.3184V63H747.035V24.3184H743.035ZM745.035 61H735.406V65H745.035V61ZM737.406 63V24.3184H733.406V63H737.406ZM735.406 26.3184H745.035V22.3184H735.406V26.3184ZM755.619 24.3184V31.8223H759.619V24.3184H755.619ZM757.619 29.8223H723.088V33.8223H757.619V29.8223ZM725.088 31.8223V24.3184H721.088V31.8223H725.088ZM723.088 26.3184H757.619V22.3184H723.088V26.3184ZM795.532 40.2891H797.532V38.2891H795.532V40.2891ZM795.532 47.7598V49.7598H797.532V47.7598H795.532ZM773.983 47.7598H771.983V49.7598H773.983V47.7598ZM773.983 40.2891V38.2891H771.983V40.2891H773.983ZM777.104 24.3184H779.104V22.3184H777.104V24.3184ZM777.104 63V65H779.104V63H777.104ZM767.542 63H765.542V65H767.542V63ZM767.542 24.3184V22.3184H765.542V24.3184H767.542ZM802.04 24.3184H804.04V22.3184H802.04V24.3184ZM802.04 63V65H804.04V63H802.04ZM792.477 63H790.477V65H792.477V63ZM792.477 24.3184V22.3184H790.477V24.3184H792.477ZM793.532 40.2891V47.7598H797.532V40.2891H793.532ZM795.532 45.7598H773.983V49.7598H795.532V45.7598ZM775.983 47.7598V40.2891H771.983V47.7598H775.983ZM773.983 42.2891H795.532V38.2891H773.983V42.2891ZM775.104 24.3184V63H779.104V24.3184H775.104ZM777.104 61H767.542V65H777.104V61ZM769.542 63V24.3184H765.542V63H769.542ZM767.542 26.3184H777.104V22.3184H767.542V26.3184ZM800.04 24.3184V63H804.04V24.3184H800.04ZM802.04 61H792.477V65H802.04V61ZM794.477 63V24.3184H790.477V63H794.477ZM792.477 26.3184H802.04V22.3184H792.477V26.3184ZM847.622 52.4082L845.751 51.7021L845.748 51.7098L845.745 51.7176L847.622 52.4082ZM838.226 62.2363L838.959 64.0972L838.969 64.0933L838.226 62.2363ZM823.65 62.2363L822.901 64.0907L822.912 64.0952L822.923 64.0996L823.65 62.2363ZM817.939 58.418L816.506 59.8129L817.939 58.418ZM814.154 34.9434L812.282 34.2372L812.279 34.247L814.154 34.9434ZM817.872 28.9336L816.43 27.5481L816.43 27.5485L817.872 28.9336ZM823.583 25.1152L824.316 26.9761L824.326 26.9722L823.583 25.1152ZM838.16 25.1152L837.41 26.9696L837.422 26.9741L837.433 26.9785L838.16 25.1152ZM843.904 28.9336L842.461 30.3191L842.47 30.3286L843.904 28.9336ZM847.622 34.9434L845.745 35.6339L845.749 35.6447L845.753 35.6553L847.622 34.9434ZM838.757 37.8984L836.822 38.4045L836.827 38.4223L836.832 38.4399L838.757 37.8984ZM837.097 34.2793L835.467 35.4383L835.482 35.459L835.497 35.4793L837.097 34.2793ZM834.441 32.0215L833.531 33.8027L833.554 33.8142L833.577 33.8251L834.441 32.0215ZM827.269 32.0215L828.148 33.8179L828.156 33.8142L828.163 33.8103L827.269 32.0215ZM824.646 34.2793L826.263 35.4556L826.27 35.447L826.276 35.4383L824.646 34.2793ZM823.019 37.8984L821.084 37.3924L821.081 37.4029L821.079 37.4134L823.019 37.8984ZM823.019 49.3867L821.077 49.8648L821.08 49.8788L821.084 49.8928L823.019 49.3867ZM824.679 53.0723L823.054 54.2381L823.06 54.2466L823.066 54.255L824.679 53.0723ZM827.335 55.3633L826.426 57.1445L826.448 57.156L826.471 57.1669L827.335 55.3633ZM834.507 55.3633L835.386 57.1597L835.402 57.1522L835.417 57.1445L834.507 55.3633ZM837.13 53.0723L835.505 51.9064L835.5 51.9132L837.13 53.0723ZM846.951 42.8789V44.4727H850.951V42.8789H846.951ZM846.951 44.4727C846.951 47.2166 846.538 49.6169 845.751 51.7021L849.494 53.1143C850.478 50.5068 850.951 47.6167 850.951 44.4727H846.951ZM845.745 51.7176C844.969 53.8276 843.881 55.5885 842.494 57.0329L845.38 59.803C847.181 57.9272 848.549 55.6815 849.499 53.0988L845.745 51.7176ZM842.494 57.0329C841.105 58.4803 839.442 59.5958 837.483 60.3794L838.969 64.0933C841.437 63.1061 843.582 61.6759 845.38 59.803L842.494 57.0329ZM837.493 60.3755C835.563 61.1358 833.392 61.5312 830.954 61.5312V65.5312C833.83 65.5312 836.506 65.0634 838.959 64.0971L837.493 60.3755ZM830.954 61.5312C828.518 61.5312 826.333 61.1359 824.376 60.373L822.923 64.0996C825.394 65.0633 828.079 65.5312 830.954 65.5312V61.5312ZM824.399 60.382C822.46 59.5984 820.79 58.4801 819.372 57.023L816.506 59.8129C818.319 61.6761 820.457 63.1034 822.901 64.0907L824.399 60.382ZM819.372 57.023C817.963 55.5757 816.855 53.8126 816.058 51.7021L812.316 53.1143C813.29 55.6965 814.683 57.9399 816.506 59.8129L819.372 57.023ZM816.058 51.7021C815.271 49.6169 814.859 47.2166 814.859 44.4727H810.859C810.859 47.6167 811.332 50.5068 812.316 53.1143L816.058 51.7021ZM814.859 44.4727V42.8789H810.859V44.4727H814.859ZM814.859 42.8789C814.859 40.105 815.263 37.7021 816.029 35.6397L812.279 34.247C811.318 36.833 810.859 39.7205 810.859 42.8789H814.859ZM816.025 35.6495C816.823 33.5332 817.925 31.7669 819.315 30.3187L816.43 27.5485C814.632 29.4206 813.255 31.6608 812.282 34.2372L816.025 35.6495ZM819.315 30.3191C820.729 28.8465 822.39 27.7349 824.316 26.9761L822.85 23.2544C820.394 24.2222 818.247 25.6561 816.43 27.5481L819.315 30.3191ZM824.326 26.9722C826.278 26.1915 828.457 25.7871 830.888 25.7871V21.7871C828.006 21.7871 825.316 22.2682 822.841 23.2583L824.326 26.9722ZM830.888 25.7871C833.319 25.7871 835.485 26.1916 837.41 26.9696L838.909 23.2609C836.452 22.2681 833.769 21.7871 830.888 21.7871V25.7871ZM837.433 26.9785C839.381 27.7384 841.05 28.8501 842.461 30.3191L845.346 27.5481C843.525 25.6525 841.365 24.2187 838.886 23.2519L837.433 26.9785ZM842.47 30.3286C843.876 31.7721 844.971 33.5298 845.745 35.6339L849.499 34.2528C848.547 31.6642 847.164 29.4154 845.337 27.5386L842.47 30.3286ZM845.753 35.6553C846.537 37.713 846.951 40.1103 846.951 42.8789H850.951C850.951 39.7152 850.478 36.8221 849.491 34.2314L845.753 35.6553ZM841.355 44.4727V42.8125H837.355V44.4727H841.355ZM841.355 42.8125C841.355 40.8158 841.142 38.989 840.682 37.3569L836.832 38.4399C837.17 39.6412 837.355 41.0905 837.355 42.8125H841.355ZM840.692 37.3924C840.264 35.7568 839.613 34.3011 838.697 33.0793L835.497 35.4793C836.042 36.2054 836.497 37.1625 836.822 38.4045L840.692 37.3924ZM838.727 33.1203C837.83 31.8586 836.685 30.8791 835.305 30.2179L833.577 33.8251C834.322 34.1821 834.948 34.7078 835.467 35.4383L838.727 33.1203ZM835.35 30.2403C833.992 29.5466 832.489 29.2246 830.888 29.2246V33.2246C831.944 33.2246 832.809 33.4339 833.531 33.8027L835.35 30.2403ZM830.888 29.2246C829.27 29.2246 827.751 29.5446 826.374 30.2326L828.163 33.8103C828.912 33.4359 829.806 33.2246 830.888 33.2246V29.2246ZM826.39 30.2251C825.033 30.8889 823.906 31.868 823.016 33.1203L826.276 35.4383C826.802 34.6985 827.424 34.1723 828.148 33.8179L826.39 30.2251ZM823.028 33.103C822.143 34.3198 821.509 35.7671 821.084 37.3924L824.954 38.4045C825.281 37.1522 825.732 36.1867 826.263 35.4556L823.028 33.103ZM821.079 37.4134C820.676 39.0249 820.488 40.8318 820.488 42.8125H824.488C824.488 41.0745 824.654 39.6053 824.959 38.3835L821.079 37.4134ZM820.488 42.8125V44.4727H824.488V42.8125H820.488ZM820.488 44.4727C820.488 46.4342 820.676 48.2375 821.077 49.8648L824.961 48.9087C824.653 47.6584 824.488 46.1856 824.488 44.4727H820.488ZM821.084 49.8928C821.511 51.5253 822.157 52.9874 823.054 54.2381L826.304 51.9064C825.74 51.1207 825.279 50.1257 824.954 48.8807L821.084 49.8928ZM823.066 54.255C823.97 55.4879 825.092 56.4632 826.426 57.1445L828.245 53.5821C827.498 53.2009 826.849 52.6488 826.292 51.8895L823.066 54.255ZM826.471 57.1669C827.84 57.8229 829.349 58.127 830.954 58.127V54.127C829.86 54.127 828.955 53.9218 828.2 53.5597L826.471 57.1669ZM830.954 58.127C832.543 58.127 834.035 57.8212 835.386 57.1597L833.628 53.5668C832.899 53.9236 832.023 54.127 830.954 54.127V58.127ZM835.417 57.1445C836.757 56.46 837.874 55.4772 838.76 54.2313L835.5 51.9132C834.97 52.6595 834.338 53.2041 833.598 53.5821L835.417 57.1445ZM838.755 54.2381C839.653 52.9874 840.298 51.5253 840.725 49.8928L836.855 48.8807C836.53 50.1257 836.069 51.1207 835.505 51.9064L838.755 54.2381ZM840.725 49.8928C841.154 48.2554 841.355 46.4423 841.355 44.4727H837.355C837.355 46.1774 837.18 47.6404 836.855 48.8807L840.725 49.8928ZM894.367 24.3184H896.367V22.3184H894.367V24.3184ZM894.367 63V65H896.367V63H894.367ZM884.771 63L883.073 64.0555L883.659 65H884.771V63ZM869.465 38.3633L871.164 37.3078L867.465 31.3544V38.3633H869.465ZM869.465 63V65H871.465V63H869.465ZM859.902 63H857.902V65H859.902V63ZM859.902 24.3184V22.3184H857.902V24.3184H859.902ZM869.465 24.3184L871.164 23.2629L870.577 22.3184H869.465V24.3184ZM884.771 48.9551L883.073 50.0105L886.771 55.964V48.9551H884.771ZM884.771 24.3184V22.3184H882.771V24.3184H884.771ZM892.367 24.3184V63H896.367V24.3184H892.367ZM894.367 61H884.771V65H894.367V61ZM886.47 61.9445L871.164 37.3078L867.766 39.4187L883.073 64.0555L886.47 61.9445ZM867.465 38.3633V63H871.465V38.3633H867.465ZM869.465 61H859.902V65H869.465V61ZM861.902 63V24.3184H857.902V63H861.902ZM859.902 26.3184H869.465V22.3184H859.902V26.3184ZM867.766 25.3738L883.073 50.0105L886.47 47.8996L871.164 23.2629L867.766 25.3738ZM886.771 48.9551V24.3184H882.771V48.9551H886.771ZM884.771 26.3184H894.367V22.3184H884.771V26.3184Z" fill="#08E8E1"/>
</g>
<line x1="500.001" y1="34" x2="0.00204474" y2="35.004" stroke="#F9FAFC" stroke-width="2"/>
<line x1="1440" y1="35" x2="939.998" y2="33.8399" stroke="#F9FAFC" stroke-width="2"/>
<defs>
<filter id="filter0_d_1_424" x="544.598" y="20.7871" width="354.769" height="47.7441" filterUnits="userSpaceOnUse" color-interpolation-filters="sRGB">
<feFlood flood-opacity="0" result="BackgroundImageFix"/>
<feColorMatrix in="SourceAlpha" type="matrix" values="0 0 0 0 0 0 0 0 0 0 0 0 0 0 0 0 0 0 127 0" result="hardAlpha"/>
<feOffset dx="1" dy="1"/>
<feGaussianBlur stdDeviation="2"/>
<feComposite in2="hardAlpha" operator="out"/>
<feColorMatrix type="matrix" values="0 0 0 0 0.0313726 0 0 0 0 0.909804 0 0 0 0 0.882353 0 0 0 1 0"/>
<feBlend mode="normal" in2="BackgroundImageFix" result="effect1_dropShadow_1_424"/>
<feBlend mode="normal" in="SourceGraphic" in2="effect1_dropShadow_1_424" result="shape"/>
</filter>
</defs>
</svg>
