<svg width="1440" height="101" viewBox="0 0 1440 101" fill="none" xmlns="http://www.w3.org/2000/svg">
<g filter="url(#filter0_d_1_9)">
<path d="M578.379 56.0625V57.5625C578.379 60.3333 577.962 62.8229 577.129 65.0312C576.316 67.2396 575.16 69.125 573.66 70.6875C572.16 72.25 570.368 73.4479 568.285 74.2812C566.223 75.0938 563.941 75.5 561.441 75.5C558.941 75.5 556.65 75.0938 554.566 74.2812C552.504 73.4479 550.712 72.25 549.191 70.6875C547.67 69.125 546.493 67.2396 545.66 65.0312C544.827 62.8229 544.41 60.3333 544.41 57.5625V56.0625C544.41 53.2708 544.816 50.7812 545.629 48.5938C546.462 46.3854 547.629 44.5 549.129 42.9375C550.65 41.3542 552.441 40.1562 554.504 39.3438C556.587 38.5104 558.879 38.0938 561.379 38.0938C563.879 38.0938 566.16 38.5104 568.223 39.3438C570.306 40.1562 572.108 41.3542 573.629 42.9375C575.15 44.5 576.316 46.3854 577.129 48.5938C577.962 50.7812 578.379 53.2708 578.379 56.0625ZM569.348 57.5625V56C569.348 54.25 569.16 52.7083 568.785 51.375C568.431 50.0208 567.91 48.8854 567.223 47.9688C566.556 47.0312 565.723 46.3229 564.723 45.8438C563.743 45.3438 562.629 45.0938 561.379 45.0938C560.108 45.0938 558.973 45.3438 557.973 45.8438C556.993 46.3229 556.17 47.0312 555.504 47.9688C554.837 48.8854 554.327 50.0208 553.973 51.375C553.639 52.7083 553.473 54.25 553.473 56V57.5625C553.473 59.2917 553.639 60.8333 553.973 62.1875C554.327 63.5417 554.848 64.6979 555.535 65.6562C556.223 66.5938 557.056 67.3125 558.035 67.8125C559.035 68.2917 560.17 68.5312 561.441 68.5312C562.691 68.5312 563.806 68.2917 564.785 67.8125C565.764 67.3125 566.587 66.5938 567.254 65.6562C567.941 64.6979 568.462 63.5417 568.816 62.1875C569.17 60.8333 569.348 59.2917 569.348 57.5625ZM615.213 38.5938H624.244V62.2812C624.244 65.1146 623.598 67.5208 622.306 69.5C621.035 71.4792 619.254 72.9792 616.963 74C614.692 75 612.025 75.5 608.963 75.5C605.942 75.5 603.275 75 600.963 74C598.671 72.9792 596.879 71.4792 595.588 69.5C594.296 67.5208 593.65 65.1146 593.65 62.2812V38.5938H602.65V62.2812C602.65 63.7188 602.9 64.9062 603.4 65.8438C603.9 66.7604 604.619 67.4375 605.556 67.875C606.494 68.2917 607.629 68.5 608.963 68.5C610.317 68.5 611.452 68.2917 612.369 67.875C613.285 67.4375 613.983 66.7604 614.463 65.8438C614.963 64.9062 615.213 63.7188 615.213 62.2812V38.5938ZM640.577 38.5938H655.796C658.046 38.5938 660.077 38.8333 661.89 39.3125C663.702 39.7708 665.244 40.4583 666.515 41.375C667.807 42.2917 668.796 43.4375 669.484 44.8125C670.171 46.1667 670.515 47.7396 670.515 49.5312C670.515 51.6562 670.161 53.4271 669.452 54.8438C668.744 56.2604 667.765 57.4167 666.515 58.3125C665.265 59.2083 663.817 59.9583 662.171 60.5625L659.171 62.3125H646.234L646.171 55.2812H655.859C657.109 55.2812 658.15 55.0938 658.984 54.7188C659.817 54.3229 660.442 53.7604 660.859 53.0312C661.275 52.3021 661.484 51.4375 661.484 50.4375C661.484 49.4167 661.265 48.5521 660.827 47.8438C660.39 47.1354 659.744 46.5938 658.89 46.2188C658.057 45.8438 657.025 45.6562 655.796 45.6562H649.609V75H640.577V38.5938ZM662.171 75L653.452 58.9375L663.015 58.8438L671.89 74.625V75H662.171ZM731.464 38.5938V75H722.401V38.5938H731.464ZM743.307 38.5938V45.6562H710.807V38.5938H743.307ZM784.516 67.9688V75H763.579V67.9688H784.516ZM766.766 38.5938V75H757.766V38.5938H766.766ZM781.829 52.6562V59.6875H763.579V52.6562H781.829ZM784.548 38.5938V45.6562H763.579V38.5938H784.548ZM814.413 48.0625L804.725 75H795.631L810.006 38.5938H816.194L814.413 48.0625ZM823.975 75L814.1 48.0625L812.288 38.5938H818.569L833.038 75H823.975ZM823.788 61.4688V67.875H803.663V61.4688H823.788ZM850.871 38.5938H858.309L867.371 63.5L876.465 38.5938H883.871L870.371 75H864.402L850.871 38.5938ZM846.434 38.5938H854.027L855.465 67.125V75H846.434V38.5938ZM880.746 38.5938H888.402V75H879.34V67.125L880.746 38.5938Z" fill="white"/>
<path d="M577.129 65.0312L576.193 64.6782L576.19 64.686L577.129 65.0312ZM568.285 74.2812L568.652 75.2117L568.656 75.2097L568.285 74.2812ZM554.566 74.2812L554.192 75.2085L554.203 75.2129L554.566 74.2812ZM549.191 70.6875L548.475 71.385L549.191 70.6875ZM545.629 48.5938L544.693 48.2407L544.691 48.2456L545.629 48.5938ZM549.129 42.9375L548.408 42.2448L548.407 42.245L549.129 42.9375ZM554.504 39.3438L554.87 40.2742L554.875 40.2722L554.504 39.3438ZM568.223 39.3438L567.848 40.271L567.859 40.2754L568.223 39.3438ZM573.629 42.9375L572.908 43.6302L572.912 43.635L573.629 42.9375ZM577.129 48.5938L576.19 48.9391L576.194 48.9497L577.129 48.5938ZM568.785 51.375L567.818 51.628L567.82 51.6369L567.822 51.6457L568.785 51.375ZM567.223 47.9688L566.408 48.5483L566.415 48.5586L566.423 48.5687L567.223 47.9688ZM564.723 45.8438L564.268 46.7344L564.279 46.7401L564.29 46.7456L564.723 45.8438ZM557.973 45.8438L558.412 46.742L558.42 46.7382L557.973 45.8438ZM555.504 47.9688L556.313 48.557L556.319 48.5483L555.504 47.9688ZM553.973 51.375L553.005 51.122L553.002 51.1325L553.973 51.375ZM553.973 62.1875L553.001 62.4265L553.003 62.4335L553.005 62.4405L553.973 62.1875ZM555.535 65.6562L554.722 66.2392L554.729 66.2476L555.535 65.6562ZM558.035 67.8125L557.58 68.7031L557.591 68.7089L557.603 68.7143L558.035 67.8125ZM564.785 67.8125L565.225 68.7107L565.232 68.707L565.24 68.7031L564.785 67.8125ZM567.254 65.6562L566.441 65.0733L566.439 65.0767L567.254 65.6562ZM577.379 56.0625V57.5625H579.379V56.0625H577.379ZM577.379 57.5625C577.379 60.2333 576.977 62.6005 576.193 64.6782L578.064 65.3843C578.947 63.0454 579.379 60.4334 579.379 57.5625H577.379ZM576.19 64.686C575.421 66.7761 574.335 68.5403 572.939 69.995L574.381 71.38C575.985 69.7097 577.211 67.7031 578.067 65.3765L576.19 64.686ZM572.939 69.995C571.541 71.4511 569.87 72.5703 567.914 73.3528L568.656 75.2097C570.867 74.3255 572.779 73.0489 574.381 71.38L572.939 69.995ZM567.918 73.3508C565.987 74.1119 563.832 74.5 561.441 74.5V76.5C564.051 76.5 566.458 76.0756 568.652 75.2117L567.918 73.3508ZM561.441 74.5C559.051 74.5 556.884 74.1119 554.93 73.3496L554.203 75.2129C556.415 76.0756 558.832 76.5 561.441 76.5V74.5ZM554.941 73.3541C553.004 72.5717 551.33 71.451 549.908 69.99L548.475 71.385C550.094 73.049 552.003 74.3242 554.192 75.2084L554.941 73.3541ZM549.908 69.99C548.491 68.5339 547.384 66.7686 546.596 64.6782L544.724 65.3843C545.602 67.7106 546.85 69.7161 548.475 71.385L549.908 69.99ZM546.596 64.6782C545.812 62.6005 545.41 60.2333 545.41 57.5625H543.41C543.41 60.4334 543.842 63.0454 544.724 65.3843L546.596 64.6782ZM545.41 57.5625V56.0625H543.41V57.5625H545.41ZM545.41 56.0625C545.41 53.367 545.802 50.9985 546.566 48.9419L544.691 48.2456C543.83 50.564 543.41 53.1747 543.41 56.0625H545.41ZM546.564 48.9468C547.354 46.8535 548.452 45.0866 549.85 43.63L548.407 42.245C546.806 43.9134 545.57 45.9173 544.693 48.2407L546.564 48.9468ZM549.85 43.6302C551.27 42.1518 552.94 41.0344 554.87 40.2742L554.137 38.4133C551.942 39.2781 550.029 40.5566 548.408 42.2448L549.85 43.6302ZM554.875 40.2722C556.828 39.4912 558.991 39.0938 561.379 39.0938V37.0938C558.766 37.0938 556.347 37.5296 554.132 38.4153L554.875 40.2722ZM561.379 39.0938C563.766 39.0938 565.918 39.4913 567.848 40.2709L568.597 38.4166C566.402 37.5295 563.991 37.0938 561.379 37.0938V39.0938ZM567.859 40.2754C569.81 41.0362 571.489 42.1535 572.908 43.6302L574.35 42.2448C572.727 40.5548 570.802 39.2763 568.586 38.4121L567.859 40.2754ZM572.912 43.635C574.328 45.0892 575.422 46.8518 576.19 48.939L578.067 48.2485C577.21 45.919 575.972 43.9108 574.345 42.24L572.912 43.635ZM576.194 48.9497C576.977 51.004 577.379 53.3696 577.379 56.0625H579.379C579.379 53.172 578.947 50.5585 578.063 48.2378L576.194 48.9497ZM570.348 57.5625V56H568.348V57.5625H570.348ZM570.348 56C570.348 54.1813 570.153 52.5453 569.748 51.1043L567.822 51.6457C568.167 52.8714 568.348 54.3187 568.348 56H570.348ZM569.752 51.122C569.373 49.6694 568.803 48.4093 568.023 47.3687L566.423 48.5687C567.017 49.3615 567.489 50.3723 567.818 51.628L569.752 51.122ZM568.037 47.3892C567.276 46.319 566.313 45.4971 565.155 44.9419L564.29 46.7456C565.132 47.1487 565.835 47.7435 566.408 48.5483L568.037 47.3892ZM565.177 44.9531C564.039 44.3719 562.765 44.0938 561.379 44.0938V46.0938C562.492 46.0938 563.448 46.3156 564.268 46.7344L565.177 44.9531ZM561.379 44.0938C559.974 44.0938 558.682 44.3709 557.525 44.9493L558.42 46.7382C559.263 46.3166 560.242 46.0938 561.379 46.0938V44.0938ZM557.533 44.9455C556.396 45.5021 555.447 46.3236 554.689 47.3892L556.319 48.5483C556.894 47.7389 557.591 47.1438 558.412 46.742L557.533 44.9455ZM554.695 47.3806C553.94 48.4187 553.384 49.6746 553.005 51.122L554.94 51.628C555.27 50.3671 555.734 49.3521 556.312 48.5569L554.695 47.3806ZM553.002 51.1325C552.645 52.5632 552.473 54.1893 552.473 56H554.473C554.473 54.3107 554.634 52.8534 554.943 51.6175L553.002 51.1325ZM552.473 56V57.5625H554.473V56H552.473ZM552.473 57.5625C552.473 59.3538 552.645 60.9781 553.001 62.4265L554.944 61.9485C554.633 60.6886 554.473 59.2295 554.473 57.5625H552.473ZM553.005 62.4405C553.385 63.8916 553.952 65.1646 554.722 66.2392L556.348 65.0733C555.743 64.2312 555.269 63.1918 554.94 61.9345L553.005 62.4405ZM554.729 66.2476C555.503 67.3035 556.454 68.1281 557.58 68.7031L558.49 66.9219C557.658 66.4969 556.942 65.884 556.341 65.0649L554.729 66.2476ZM557.603 68.7143C558.756 69.2669 560.043 69.5312 561.441 69.5312V67.5312C560.298 67.5312 559.314 67.3164 558.467 66.9107L557.603 68.7143ZM561.441 69.5312C562.821 69.5312 564.09 69.266 565.225 68.7107L564.345 66.9143C563.522 67.3173 562.561 67.5312 561.441 67.5312V69.5312ZM565.24 68.7031C566.369 68.1265 567.313 67.2982 568.069 66.2358L566.439 65.0767C565.861 65.8893 565.159 66.4985 564.33 66.9219L565.24 68.7031ZM568.066 66.2392C568.837 65.1646 569.404 63.8916 569.784 62.4405L567.849 61.9345C567.52 63.1918 567.045 64.2312 566.441 65.0733L568.066 66.2392ZM569.784 62.4405C570.164 60.9871 570.348 59.3579 570.348 57.5625H568.348C568.348 59.2254 568.177 60.6796 567.849 61.9345L569.784 62.4405ZM615.213 38.5938V37.5938H614.213V38.5938H615.213ZM624.244 38.5938H625.244V37.5938H624.244V38.5938ZM622.306 69.5L621.469 68.9534L621.465 68.9597L622.306 69.5ZM616.963 74L617.366 74.9152L617.369 74.9135L616.963 74ZM600.963 74L600.556 74.9135L600.566 74.9179L600.963 74ZM595.588 69.5L594.75 70.0465L595.588 69.5ZM593.65 38.5938V37.5938H592.65V38.5938H593.65ZM602.65 38.5938H603.65V37.5938H602.65V38.5938ZM603.4 65.8438L602.518 66.3144L602.522 66.3226L603.4 65.8438ZM605.556 67.875L605.133 68.7812L605.142 68.7851L605.15 68.7888L605.556 67.875ZM612.369 67.875L612.783 68.7854L612.791 68.7815L612.799 68.7775L612.369 67.875ZM614.463 65.8438L613.58 65.3731L613.576 65.3805L614.463 65.8438ZM615.213 39.5938H624.244V37.5938H615.213V39.5938ZM623.244 38.5938V62.2812H625.244V38.5938H623.244ZM623.244 62.2812C623.244 64.9596 622.635 67.1667 621.469 68.9535L623.144 70.0465C624.561 67.8749 625.244 65.2696 625.244 62.2812H623.244ZM621.465 68.9597C620.306 70.7637 618.682 72.1395 616.556 73.0865L617.369 74.9135C619.827 73.8188 621.764 72.1947 623.148 70.0403L621.465 68.9597ZM616.559 73.0848C614.442 74.0174 611.918 74.5 608.963 74.5V76.5C612.132 76.5 614.942 75.9826 617.366 74.9152L616.559 73.0848ZM608.963 74.5C606.052 74.5 603.524 74.0183 601.359 73.0821L600.566 74.9179C603.026 75.9817 605.832 76.5 608.963 76.5V74.5ZM601.369 73.0865C599.242 72.139 597.605 70.7613 596.425 68.9535L594.75 70.0465C596.154 72.197 598.099 73.8194 600.556 74.9135L601.369 73.0865ZM596.425 68.9535C595.259 67.1667 594.65 64.9596 594.65 62.2812H592.65C592.65 65.2696 593.333 67.8749 594.75 70.0465L596.425 68.9535ZM594.65 62.2812V38.5938H592.65V62.2812H594.65ZM593.65 39.5938H602.65V37.5938H593.65V39.5938ZM601.65 38.5938V62.2812H603.65V38.5938H601.65ZM601.65 62.2812C601.65 63.8275 601.918 65.19 602.518 66.3143L604.282 65.3732C603.882 64.6225 603.65 63.61 603.65 62.2812H601.65ZM602.522 66.3226C603.123 67.4247 604.001 68.2525 605.133 68.7812L605.979 66.9688C605.237 66.6225 604.677 66.0961 604.278 65.3649L602.522 66.3226ZM605.15 68.7888C606.248 69.2766 607.529 69.5 608.963 69.5V67.5C607.729 67.5 606.74 67.3067 605.962 66.9612L605.15 68.7888ZM608.963 69.5C610.413 69.5 611.699 69.2778 612.783 68.7854L611.955 66.9646C611.205 67.3056 610.221 67.5 608.963 67.5V69.5ZM612.799 68.7775C613.915 68.2449 614.771 67.4117 615.349 66.307L613.576 65.3805C613.195 66.1091 612.655 66.6301 611.938 66.9725L612.799 68.7775ZM615.345 66.3143C615.945 65.19 616.213 63.8275 616.213 62.2812H614.213C614.213 63.61 613.98 64.6225 613.58 65.3732L615.345 66.3143ZM616.213 62.2812V38.5938H614.213V62.2812H616.213ZM640.577 38.5938V37.5938H639.577V38.5938H640.577ZM661.89 39.3125L661.634 40.2793L661.645 40.282L661.89 39.3125ZM666.515 41.375L665.93 42.1861L665.936 42.1905L666.515 41.375ZM669.484 44.8125L668.589 45.2597L668.592 45.2652L669.484 44.8125ZM669.452 54.8438L668.558 54.3965L669.452 54.8438ZM666.515 58.3125L665.932 57.4997L666.515 58.3125ZM662.171 60.5625L661.827 59.6238L661.744 59.6542L661.667 59.6987L662.171 60.5625ZM659.171 62.3125V63.3125H659.442L659.675 63.1763L659.171 62.3125ZM646.234 62.3125L645.234 62.3214L645.243 63.3125H646.234V62.3125ZM646.171 55.2812V54.2812H645.162L645.171 55.2901L646.171 55.2812ZM658.984 54.7188L659.394 55.6307L659.404 55.6264L659.413 55.622L658.984 54.7188ZM658.89 46.2188L658.48 47.1307L658.488 47.1344L658.89 46.2188ZM649.609 45.6562V44.6562H648.609V45.6562H649.609ZM649.609 75V76H650.609V75H649.609ZM640.577 75H639.577V76H640.577V75ZM662.171 75L661.292 75.4771L661.576 76H662.171V75ZM653.452 58.9375L653.443 57.9375L651.781 57.9538L652.574 59.4146L653.452 58.9375ZM663.015 58.8438L663.887 58.3536L663.597 57.838L663.005 57.8438L663.015 58.8438ZM671.89 74.625H672.89V74.3631L672.762 74.1348L671.89 74.625ZM671.89 75V76H672.89V75H671.89ZM640.577 39.5938H655.796V37.5938H640.577V39.5938ZM655.796 39.5938C657.977 39.5938 659.92 39.826 661.634 40.2793L662.146 38.3457C660.235 37.8406 658.116 37.5938 655.796 37.5938V39.5938ZM661.645 40.282C663.358 40.7152 664.779 41.3559 665.93 42.186L667.1 40.564C665.709 39.5608 664.047 38.8264 662.135 38.343L661.645 40.282ZM665.936 42.1905C667.098 43.0152 667.978 44.0361 668.589 45.2597L670.378 44.3653C669.615 42.8389 668.515 41.5682 667.094 40.5595L665.936 42.1905ZM668.592 45.2652C669.197 46.456 669.515 47.8687 669.515 49.5312H671.515C671.515 47.6104 671.146 45.8774 670.375 44.3598L668.592 45.2652ZM669.515 49.5312C669.515 51.5516 669.177 53.1578 668.558 54.3965L670.347 55.291C671.144 53.6963 671.515 51.7609 671.515 49.5312H669.515ZM668.558 54.3965C667.92 55.6723 667.046 56.7015 665.932 57.4997L667.098 59.1253C668.484 58.1319 669.568 56.8485 670.347 55.291L668.558 54.3965ZM665.932 57.4997C664.765 58.3363 663.399 59.0464 661.827 59.6238L662.516 61.5012C664.235 60.8703 665.765 60.0804 667.098 59.1253L665.932 57.4997ZM661.667 59.6987L658.667 61.4487L659.675 63.1763L662.675 61.4263L661.667 59.6987ZM659.171 61.3125H646.234V63.3125H659.171V61.3125ZM647.234 62.3036L647.171 55.2724L645.171 55.2901L645.234 62.3214L647.234 62.3036ZM646.171 56.2812H655.859V54.2812H646.171V56.2812ZM655.859 56.2812C657.201 56.2812 658.394 56.0809 659.394 55.6307L658.573 53.8068C657.907 54.1066 657.016 54.2812 655.859 54.2812V56.2812ZM659.413 55.622C660.412 55.1476 661.199 54.4514 661.727 53.5274L659.991 52.5351C659.685 53.0694 659.223 53.4983 658.555 53.8155L659.413 55.622ZM661.727 53.5274C662.245 52.6206 662.484 51.5783 662.484 50.4375H660.484C660.484 51.2967 660.306 51.9835 659.991 52.5351L661.727 53.5274ZM662.484 50.4375C662.484 49.273 662.233 48.2168 661.678 47.3183L659.977 48.3692C660.297 48.8874 660.484 49.5603 660.484 50.4375H662.484ZM661.678 47.3183C661.122 46.4169 660.309 45.7494 659.292 45.3031L658.488 47.1344C659.18 47.4381 659.658 47.8539 659.977 48.3692L661.678 47.3183ZM659.3 45.3068C658.302 44.8574 657.121 44.6562 655.796 44.6562V46.6562C656.93 46.6562 657.812 46.8301 658.48 47.1307L659.3 45.3068ZM655.796 44.6562H649.609V46.6562H655.796V44.6562ZM648.609 45.6562V75H650.609V45.6562H648.609ZM649.609 74H640.577V76H649.609V74ZM641.577 75V38.5938H639.577V75H641.577ZM663.05 74.5229L654.331 58.4604L652.574 59.4146L661.292 75.4771L663.05 74.5229ZM653.462 59.9375L663.025 59.8437L663.005 57.8438L653.443 57.9375L653.462 59.9375ZM662.143 59.3339L671.018 75.1152L672.762 74.1348L663.887 58.3536L662.143 59.3339ZM670.89 74.625V75H672.89V74.625H670.89ZM671.89 74H662.171V76H671.89V74ZM731.464 38.5938H732.464V37.5938H731.464V38.5938ZM731.464 75V76H732.464V75H731.464ZM722.401 75H721.401V76H722.401V75ZM722.401 38.5938V37.5938H721.401V38.5938H722.401ZM743.307 38.5938H744.307V37.5938H743.307V38.5938ZM743.307 45.6562V46.6562H744.307V45.6562H743.307ZM710.807 45.6562H709.807V46.6562H710.807V45.6562ZM710.807 38.5938V37.5938H709.807V38.5938H710.807ZM730.464 38.5938V75H732.464V38.5938H730.464ZM731.464 74H722.401V76H731.464V74ZM723.401 75V38.5938H721.401V75H723.401ZM722.401 39.5938H731.464V37.5938H722.401V39.5938ZM742.307 38.5938V45.6562H744.307V38.5938H742.307ZM743.307 44.6562H710.807V46.6562H743.307V44.6562ZM711.807 45.6562V38.5938H709.807V45.6562H711.807ZM710.807 39.5938H743.307V37.5938H710.807V39.5938ZM784.516 67.9688H785.516V66.9688H784.516V67.9688ZM784.516 75V76H785.516V75H784.516ZM763.579 75H762.579V76H763.579V75ZM763.579 67.9688V66.9688H762.579V67.9688H763.579ZM766.766 38.5938H767.766V37.5938H766.766V38.5938ZM766.766 75V76H767.766V75H766.766ZM757.766 75H756.766V76H757.766V75ZM757.766 38.5938V37.5938H756.766V38.5938H757.766ZM781.829 52.6562H782.829V51.6562H781.829V52.6562ZM781.829 59.6875V60.6875H782.829V59.6875H781.829ZM763.579 59.6875H762.579V60.6875H763.579V59.6875ZM763.579 52.6562V51.6562H762.579V52.6562H763.579ZM784.548 38.5938H785.548V37.5938H784.548V38.5938ZM784.548 45.6562V46.6562H785.548V45.6562H784.548ZM763.579 45.6562H762.579V46.6562H763.579V45.6562ZM763.579 38.5938V37.5938H762.579V38.5938H763.579ZM783.516 67.9688V75H785.516V67.9688H783.516ZM784.516 74H763.579V76H784.516V74ZM764.579 75V67.9688H762.579V75H764.579ZM763.579 68.9688H784.516V66.9688H763.579V68.9688ZM765.766 38.5938V75H767.766V38.5938H765.766ZM766.766 74H757.766V76H766.766V74ZM758.766 75V38.5938H756.766V75H758.766ZM757.766 39.5938H766.766V37.5938H757.766V39.5938ZM780.829 52.6562V59.6875H782.829V52.6562H780.829ZM781.829 58.6875H763.579V60.6875H781.829V58.6875ZM764.579 59.6875V52.6562H762.579V59.6875H764.579ZM763.579 53.6562H781.829V51.6562H763.579V53.6562ZM783.548 38.5938V45.6562H785.548V38.5938H783.548ZM784.548 44.6562H763.579V46.6562H784.548V44.6562ZM764.579 45.6562V38.5938H762.579V45.6562H764.579ZM763.579 39.5938H784.548V37.5938H763.579V39.5938ZM814.413 48.0625L815.354 48.4009L815.381 48.3258L815.395 48.2474L814.413 48.0625ZM804.725 75V76H805.428L805.666 75.3384L804.725 75ZM795.631 75L794.701 74.6327L794.161 76H795.631V75ZM810.006 38.5938V37.5938H809.326L809.076 38.2265L810.006 38.5938ZM816.194 38.5938L817.177 38.7786L817.399 37.5938H816.194V38.5938ZM823.975 75L823.036 75.3442L823.277 76H823.975V75ZM814.1 48.0625L813.118 48.2505L813.133 48.3304L813.161 48.4067L814.1 48.0625ZM812.288 38.5938V37.5938H811.078L811.305 38.7818L812.288 38.5938ZM818.569 38.5938L819.498 38.2244L819.247 37.5938H818.569V38.5938ZM833.038 75V76H834.511L833.967 74.6307L833.038 75ZM823.788 61.4688H824.788V60.4688H823.788V61.4688ZM823.788 67.875V68.875H824.788V67.875H823.788ZM803.663 67.875H802.663V68.875H803.663V67.875ZM803.663 61.4688V60.4688H802.663V61.4688H803.663ZM813.471 47.7241L803.784 74.6616L805.666 75.3384L815.354 48.4009L813.471 47.7241ZM804.725 74H795.631V76H804.725V74ZM796.561 75.3673L810.936 38.961L809.076 38.2265L794.701 74.6327L796.561 75.3673ZM810.006 39.5938H816.194V37.5938H810.006V39.5938ZM815.211 38.4089L813.43 47.8776L815.395 48.2474L817.177 38.7786L815.211 38.4089ZM824.914 74.6558L815.039 47.7183L813.161 48.4067L823.036 75.3442L824.914 74.6558ZM815.082 47.8745L813.27 38.4057L811.305 38.7818L813.118 48.2505L815.082 47.8745ZM812.288 39.5938H818.569V37.5938H812.288V39.5938ZM817.639 38.9631L832.108 75.3693L833.967 74.6307L819.498 38.2244L817.639 38.9631ZM833.038 74H823.975V76H833.038V74ZM822.788 61.4688V67.875H824.788V61.4688H822.788ZM823.788 66.875H803.663V68.875H823.788V66.875ZM804.663 67.875V61.4688H802.663V67.875H804.663ZM803.663 62.4688H823.788V60.4688H803.663V62.4688ZM850.871 38.5938V37.5938H849.433L849.934 38.9421L850.871 38.5938ZM858.309 38.5938L859.248 38.2518L859.009 37.5938H858.309V38.5938ZM867.371 63.5L866.432 63.8419L867.37 66.4201L868.311 63.843L867.371 63.5ZM876.465 38.5938V37.5938H875.766L875.526 38.2508L876.465 38.5938ZM883.871 38.5938L884.809 38.9414L885.309 37.5938H883.871V38.5938ZM870.371 75V76H871.067L871.309 75.3477L870.371 75ZM864.402 75L863.465 75.3484L863.707 76H864.402V75ZM846.434 38.5938V37.5938H845.434V38.5938H846.434ZM854.027 38.5938L855.026 38.5434L854.978 37.5938H854.027V38.5938ZM855.465 67.125H856.465V67.0998L856.464 67.0747L855.465 67.125ZM855.465 75V76H856.465V75H855.465ZM846.434 75H845.434V76H846.434V75ZM880.746 38.5938V37.5938H879.794L879.747 38.5445L880.746 38.5938ZM888.402 38.5938H889.402V37.5938H888.402V38.5938ZM888.402 75V76H889.402V75H888.402ZM879.34 75H878.34V76H879.34V75ZM879.34 67.125L878.341 67.0758L878.34 67.1004V67.125H879.34ZM850.871 39.5938H858.309V37.5938H850.871V39.5938ZM857.369 38.9357L866.432 63.8419L868.311 63.1581L859.248 38.2518L857.369 38.9357ZM868.311 63.843L877.404 38.9367L875.526 38.2508L866.432 63.157L868.311 63.843ZM876.465 39.5938H883.871V37.5938H876.465V39.5938ZM882.934 38.2461L869.434 74.6523L871.309 75.3477L884.809 38.9414L882.934 38.2461ZM870.371 74H864.402V76H870.371V74ZM865.34 74.6516L851.809 38.2454L849.934 38.9421L863.465 75.3484L865.34 74.6516ZM846.434 39.5938H854.027V37.5938H846.434V39.5938ZM853.029 38.6441L854.466 67.1753L856.464 67.0747L855.026 38.5434L853.029 38.6441ZM854.465 67.125V75H856.465V67.125H854.465ZM855.465 74H846.434V76H855.465V74ZM847.434 75V38.5938H845.434V75H847.434ZM880.746 39.5938H888.402V37.5938H880.746V39.5938ZM887.402 38.5938V75H889.402V38.5938H887.402ZM888.402 74H879.34V76H888.402V74ZM880.34 75V67.125H878.34V75H880.34ZM880.339 67.1742L881.745 38.643L879.747 38.5445L878.341 67.0758L880.339 67.1742Z" fill="#FDC32D"/>
</g>
<g filter="url(#filter1_d_1_9)">
<path d="M350.069 16H-169L-155.069 22.5H336.539L303.631 75H147.807L134.392 83H308.275L350.069 16Z" fill="#D9D9D9"/>
<path d="M350.069 16H-169L-155.069 22.5H336.539L303.631 75H147.807L134.392 83H308.275L350.069 16Z" stroke="#00FFFF"/>
</g>
<g filter="url(#filter2_d_1_9)">
<path d="M1082.93 16H1602L1588.07 22.5H1097.08L1129.37 75H1285.19L1298.61 83H1124.73L1082.93 16Z" fill="#D9D9D9"/>
<path d="M1082.93 16H1602L1588.07 22.5H1097.08L1129.37 75H1285.19L1298.61 83H1124.73L1082.93 16Z" stroke="#00FFFF"/>
</g>
<g filter="url(#filter3_d_1_9)">
<path d="M350 82.5L391.206 17H401.046L360.455 82.5H350Z" fill="white"/>
<path d="M378.29 82.5L416.421 17H426.876L388.131 82.5H378.29Z" fill="white"/>
<path d="M350 82.5L391.206 17H401.046L360.455 82.5H350Z" stroke="#FF037D"/>
<path d="M378.29 82.5L416.421 17H426.876L388.131 82.5H378.29Z" stroke="#FF037D"/>
</g>
<g filter="url(#filter4_d_1_9)">
<path d="M1082.88 82.5L1041.67 17H1031.83L1072.42 82.5H1082.88Z" fill="white"/>
<path d="M1054.59 82.5L1016.46 17H1006L1044.75 82.5H1054.59Z" fill="white"/>
<path d="M1082.88 82.5L1041.67 17H1031.83L1072.42 82.5H1082.88Z" stroke="#FF037D"/>
<path d="M1054.59 82.5L1016.46 17H1006L1044.75 82.5H1054.59Z" stroke="#FF037D"/>
</g>
<defs>
<filter id="filter0_d_1_9" x="537.41" y="31.0938" width="359.992" height="53.4062" filterUnits="userSpaceOnUse" color-interpolation-filters="sRGB">
<feFlood flood-opacity="0" result="BackgroundImageFix"/>
<feColorMatrix in="SourceAlpha" type="matrix" values="0 0 0 0 0 0 0 0 0 0 0 0 0 0 0 0 0 0 127 0" result="hardAlpha"/>
<feOffset dx="1" dy="1"/>
<feGaussianBlur stdDeviation="4"/>
<feComposite in2="hardAlpha" operator="out"/>
<feColorMatrix type="matrix" values="0 0 0 0 0.992157 0 0 0 0 0.764706 0 0 0 0 0.176471 0 0 0 1 0"/>
<feBlend mode="normal" in2="BackgroundImageFix" result="effect1_dropShadow_1_9"/>
<feBlend mode="normal" in="SourceGraphic" in2="effect1_dropShadow_1_9" result="shape"/>
</filter>
<filter id="filter1_d_1_9" x="-184.211" y="0.5" width="552.181" height="100" filterUnits="userSpaceOnUse" color-interpolation-filters="sRGB">
<feFlood flood-opacity="0" result="BackgroundImageFix"/>
<feColorMatrix in="SourceAlpha" type="matrix" values="0 0 0 0 0 0 0 0 0 0 0 0 0 0 0 0 0 0 127 0" result="hardAlpha"/>
<feOffset dx="1" dy="1"/>
<feGaussianBlur stdDeviation="8"/>
<feComposite in2="hardAlpha" operator="out"/>
<feColorMatrix type="matrix" values="0 0 0 0 0 0 0 0 0 1 0 0 0 0 1 0 0 0 1 0"/>
<feBlend mode="normal" in2="BackgroundImageFix" result="effect1_dropShadow_1_9"/>
<feBlend mode="normal" in="SourceGraphic" in2="effect1_dropShadow_1_9" result="shape"/>
</filter>
<filter id="filter2_d_1_9" x="1067.03" y="0.5" width="552.181" height="100" filterUnits="userSpaceOnUse" color-interpolation-filters="sRGB">
<feFlood flood-opacity="0" result="BackgroundImageFix"/>
<feColorMatrix in="SourceAlpha" type="matrix" values="0 0 0 0 0 0 0 0 0 0 0 0 0 0 0 0 0 0 127 0" result="hardAlpha"/>
<feOffset dx="1" dy="1"/>
<feGaussianBlur stdDeviation="8"/>
<feComposite in2="hardAlpha" operator="out"/>
<feColorMatrix type="matrix" values="0 0 0 0 0 0 0 0 0 1 0 0 0 0 1 0 0 0 1 0"/>
<feBlend mode="normal" in2="BackgroundImageFix" result="effect1_dropShadow_1_9"/>
<feBlend mode="normal" in="SourceGraphic" in2="effect1_dropShadow_1_9" result="shape"/>
</filter>
<filter id="filter3_d_1_9" x="334.095" y="1.5" width="110.658" height="98.5" filterUnits="userSpaceOnUse" color-interpolation-filters="sRGB">
<feFlood flood-opacity="0" result="BackgroundImageFix"/>
<feColorMatrix in="SourceAlpha" type="matrix" values="0 0 0 0 0 0 0 0 0 0 0 0 0 0 0 0 0 0 127 0" result="hardAlpha"/>
<feOffset dx="1" dy="1"/>
<feGaussianBlur stdDeviation="8"/>
<feComposite in2="hardAlpha" operator="out"/>
<feColorMatrix type="matrix" values="0 0 0 0 1 0 0 0 0 0.0100001 0 0 0 0 0.491905 0 0 0 1 0"/>
<feBlend mode="normal" in2="BackgroundImageFix" result="effect1_dropShadow_1_9"/>
<feBlend mode="normal" in="SourceGraphic" in2="effect1_dropShadow_1_9" result="shape"/>
</filter>
<filter id="filter4_d_1_9" x="990.123" y="1.5" width="110.658" height="98.5" filterUnits="userSpaceOnUse" color-interpolation-filters="sRGB">
<feFlood flood-opacity="0" result="BackgroundImageFix"/>
<feColorMatrix in="SourceAlpha" type="matrix" values="0 0 0 0 0 0 0 0 0 0 0 0 0 0 0 0 0 0 127 0" result="hardAlpha"/>
<feOffset dx="1" dy="1"/>
<feGaussianBlur stdDeviation="8"/>
<feComposite in2="hardAlpha" operator="out"/>
<feColorMatrix type="matrix" values="0 0 0 0 1 0 0 0 0 0.0100001 0 0 0 0 0.491905 0 0 0 1 0"/>
<feBlend mode="normal" in2="BackgroundImageFix" result="effect1_dropShadow_1_9"/>
<feBlend mode="normal" in="SourceGraphic" in2="effect1_dropShadow_1_9" result="shape"/>
</filter>
</defs>
</svg>
