<svg width="228" height="50" viewBox="0 0 228 50" fill="none" xmlns="http://www.w3.org/2000/svg">
<path d="M17.5 18.75L24.5 6.25L25.3725 6.7386L28.5861 1H34.25V0H46.75V1H59.25V0H71.75V1H84.25V0H96.75V1H109.25V0H121.75V1H134.25V0H146.75V1H159.25V0H171.75V1H184.25V0H196.75V1H209.25V0H221.75V1H226.294L223.627 5.7614L224.5 6.25L217.5 18.75L216.627 18.2614L209.627 30.7614L210.5 31.25L203.5 43.75L202.627 43.2614L199.414 49H193.75V50H181.25V49H168.75V50H156.25V49H143.75V50H131.25V49H118.75V50H106.25V49H93.75V50H81.25V49H68.75V50H56.25V49H43.75V50H31.25V49H18.75V50H6.25V49H1.70612L4.37251 44.2386L3.5 43.75L10.5 31.25L11.3725 31.7386L18.3725 19.2386L17.5 18.75Z" fill="#020310" stroke="#08E8E1" stroke-width="2" stroke-dasharray="12 12"/>
</svg>
