<svg width="434" height="101" viewBox="0 0 434 101" fill="none" xmlns="http://www.w3.org/2000/svg">
<path d="M23.5 36.2871H434L411 81.3952H1L23.5 36.2871Z" fill="#FF037D"/>
<rect width="2.13219" height="64.4029" transform="matrix(0.795471 0.605991 -0.456127 0.889915 431.703 30.5928)" fill="#020310"/>
<rect width="2.13219" height="64.4029" transform="matrix(0.795471 0.605991 -0.456127 0.889915 427.554 30.4785)" fill="#020310"/>
<rect width="4.29368" height="64.4029" transform="matrix(0.795471 0.605991 -0.456127 0.889915 419.376 30.1914)" fill="#020310"/>
<rect width="4.29368" height="64.4029" transform="matrix(0.795471 0.605991 -0.456127 0.889915 411.376 28.9727)" fill="#020310"/>
<rect width="14.953" height="78.9752" transform="matrix(0.795471 0.605991 -0.456127 0.889915 394.023 18)" fill="#020310"/>
<rect width="14.953" height="78.9752" transform="matrix(0.795471 0.605991 -0.456127 0.889915 39.0227 21.6572)" fill="#020310"/>
<path d="M124.312 51.3477H130.195C131.03 51.3477 131.792 51.4336 132.48 51.6055C133.167 51.7773 133.757 52.0352 134.249 52.3789C134.741 52.7227 135.12 53.1484 135.386 53.6562C135.652 54.1641 135.784 54.7539 135.784 55.4258C135.784 56.2539 135.652 56.9375 135.386 57.4766C135.12 58.0156 134.757 58.4531 134.296 58.7891C133.835 59.1172 133.304 59.3984 132.702 59.6328L131.472 60.3594H126.562L126.538 57.5117H130.195C130.616 57.5117 130.968 57.4492 131.249 57.3242C131.538 57.1914 131.753 57 131.894 56.75C132.034 56.5 132.105 56.1953 132.105 55.8359C132.105 55.4844 132.027 55.1875 131.87 54.9453C131.722 54.7031 131.503 54.5195 131.214 54.3945C130.933 54.2617 130.593 54.1953 130.195 54.1953H127.991V65H124.312V51.3477ZM132.304 65L129.093 58.9883L132.995 58.9531L136.265 64.8477V65H132.304ZM150.466 62.1641V65H142.602V62.1641H150.466ZM143.962 51.3477V65H140.282V51.3477H143.962ZM149.47 56.5273V59.3633H142.602V56.5273H149.47ZM150.501 51.3477V54.1953H142.602V51.3477H150.501ZM166.342 57.5703V63.3594C166.084 63.6172 165.69 63.8906 165.159 64.1797C164.635 64.4609 163.979 64.6992 163.19 64.8945C162.409 65.0898 161.491 65.1875 160.436 65.1875C159.459 65.1875 158.573 65.043 157.776 64.7539C156.979 64.4648 156.295 64.0352 155.725 63.4648C155.155 62.8945 154.717 62.1992 154.413 61.3789C154.108 60.5508 153.955 59.6016 153.955 58.5312V57.8281C153.955 56.7578 154.112 55.8086 154.424 54.9805C154.745 54.1523 155.186 53.4531 155.748 52.8828C156.319 52.3125 156.987 51.8828 157.752 51.5938C158.518 51.2969 159.35 51.1484 160.248 51.1484C161.623 51.1484 162.741 51.3516 163.6 51.7578C164.459 52.1641 165.104 52.7305 165.534 53.457C165.971 54.1758 166.237 55.0039 166.33 55.9414H162.815C162.745 55.4961 162.62 55.1328 162.44 54.8516C162.26 54.5625 162.002 54.3477 161.666 54.207C161.338 54.0664 160.913 53.9961 160.389 53.9961C159.991 53.9961 159.623 54.0703 159.288 54.2188C158.952 54.3672 158.659 54.5977 158.409 54.9102C158.159 55.2148 157.967 55.6094 157.834 56.0938C157.702 56.5703 157.635 57.1406 157.635 57.8047V58.5312C157.635 59.1797 157.694 59.7461 157.811 60.2305C157.936 60.707 158.123 61.1055 158.373 61.4258C158.623 61.7383 158.944 61.9727 159.334 62.1289C159.725 62.2773 160.186 62.3516 160.717 62.3516C161.233 62.3516 161.651 62.3008 161.971 62.1992C162.291 62.0977 162.518 62 162.651 61.9062V60.0547H160.155V57.5703H166.342ZM174.414 51.3477V65H170.746V51.3477H174.414ZM186.787 61.3086C186.787 61.0977 186.744 60.9062 186.658 60.7344C186.572 60.5625 186.435 60.4102 186.248 60.2773C186.06 60.1367 185.806 60.0039 185.486 59.8789C185.166 59.7539 184.771 59.6367 184.302 59.5273C183.42 59.3164 182.658 59.0898 182.017 58.8477C181.384 58.6055 180.865 58.3242 180.459 58.0039C180.06 57.6758 179.763 57.2852 179.568 56.832C179.373 56.3789 179.275 55.8398 179.275 55.2148C179.275 54.6133 179.404 54.0664 179.662 53.5742C179.927 53.0742 180.298 52.6445 180.775 52.2852C181.252 51.9258 181.81 51.6484 182.451 51.4531C183.091 51.2578 183.791 51.1602 184.548 51.1602C185.658 51.1602 186.642 51.3281 187.502 51.6641C188.369 51.9922 189.048 52.4727 189.541 53.1055C190.033 53.7383 190.279 54.5117 190.279 55.4258H186.611C186.611 55.1289 186.529 54.8555 186.365 54.6055C186.201 54.3477 185.966 54.1406 185.662 53.9844C185.365 53.8281 184.998 53.75 184.56 53.75C184.138 53.75 183.791 53.8203 183.517 53.9609C183.244 54.0938 183.041 54.2617 182.908 54.4648C182.783 54.668 182.72 54.8672 182.72 55.0625C182.72 55.25 182.759 55.4219 182.838 55.5781C182.916 55.7266 183.045 55.8633 183.224 55.9883C183.412 56.1055 183.654 56.2227 183.951 56.3398C184.248 56.4492 184.611 56.5586 185.041 56.668C185.916 56.8555 186.677 57.0781 187.326 57.3359C187.982 57.5859 188.521 57.8906 188.943 58.25C189.373 58.6016 189.693 59.0195 189.904 59.5039C190.123 59.9883 190.232 60.5547 190.232 61.2031C190.232 61.8359 190.103 62.3984 189.845 62.8906C189.588 63.3828 189.22 63.8008 188.744 64.1445C188.267 64.4805 187.697 64.7383 187.033 64.918C186.369 65.0977 185.627 65.1875 184.806 65.1875C184.072 65.1875 183.345 65.1055 182.627 64.9414C181.916 64.7695 181.271 64.5 180.693 64.1328C180.123 63.7656 179.666 63.293 179.322 62.7148C178.978 62.1289 178.806 61.4297 178.806 60.6172H182.486C182.486 60.9688 182.533 61.2734 182.627 61.5312C182.728 61.7812 182.88 61.9883 183.084 62.1523C183.287 62.3086 183.548 62.4258 183.869 62.5039C184.197 62.5742 184.58 62.6094 185.017 62.6094C185.486 62.6094 185.845 62.5391 186.095 62.3984C186.353 62.2578 186.533 62.0898 186.634 61.8945C186.736 61.6914 186.787 61.4961 186.787 61.3086ZM201.878 51.3477V65H198.187V51.3477H201.878ZM206.273 51.3477V54.1953H193.909V51.3477H206.273ZM220.286 62.1641V65H212.423V62.1641H220.286ZM213.782 51.3477V65H210.102V51.3477H213.782ZM219.29 56.5273V59.3633H212.423V56.5273H219.29ZM220.321 51.3477V54.1953H212.423V51.3477H220.321ZM224.034 51.3477H229.916C230.752 51.3477 231.514 51.4336 232.202 51.6055C232.889 51.7773 233.479 52.0352 233.971 52.3789C234.463 52.7227 234.842 53.1484 235.108 53.6562C235.373 54.1641 235.506 54.7539 235.506 55.4258C235.506 56.2539 235.373 56.9375 235.108 57.4766C234.842 58.0156 234.479 58.4531 234.018 58.7891C233.557 59.1172 233.026 59.3984 232.424 59.6328L231.194 60.3594H226.284L226.26 57.5117H229.916C230.338 57.5117 230.69 57.4492 230.971 57.3242C231.26 57.1914 231.475 57 231.616 56.75C231.756 56.5 231.827 56.1953 231.827 55.8359C231.827 55.4844 231.748 55.1875 231.592 54.9453C231.444 54.7031 231.225 54.5195 230.936 54.3945C230.655 54.2617 230.315 54.1953 229.916 54.1953H227.713V65H224.034V51.3477ZM232.026 65L228.815 58.9883L232.717 58.9531L235.987 64.8477V65H232.026ZM260.732 51.3477V65H257.064L252.06 56.6797V65H248.38V51.3477H252.06L257.064 59.668V51.3477H260.732ZM277.769 57.9219V58.4375C277.769 59.4766 277.609 60.4141 277.288 61.25C276.976 62.0781 276.53 62.7852 275.952 63.3711C275.382 63.957 274.702 64.4062 273.913 64.7188C273.132 65.0312 272.269 65.1875 271.323 65.1875C270.363 65.1875 269.488 65.0312 268.698 64.7188C267.909 64.4062 267.226 63.957 266.648 63.3711C266.07 62.7852 265.624 62.0781 265.312 61.25C264.999 60.4141 264.843 59.4766 264.843 58.4375V57.9219C264.843 56.875 264.999 55.9375 265.312 55.1094C265.624 54.2812 266.066 53.5742 266.636 52.9883C267.206 52.3945 267.886 51.9414 268.675 51.6289C269.464 51.3164 270.339 51.1602 271.3 51.1602C272.245 51.1602 273.109 51.3164 273.89 51.6289C274.679 51.9414 275.363 52.3945 275.941 52.9883C276.519 53.5742 276.968 54.2812 277.288 55.1094C277.609 55.9375 277.769 56.875 277.769 57.9219ZM274.077 58.4375V57.9102C274.077 57.2773 274.015 56.7188 273.89 56.2344C273.765 55.75 273.581 55.3398 273.339 55.0039C273.097 54.668 272.804 54.4141 272.46 54.2422C272.124 54.0703 271.738 53.9844 271.3 53.9844C270.847 53.9844 270.445 54.0703 270.093 54.2422C269.749 54.4141 269.46 54.668 269.226 55.0039C268.999 55.3398 268.827 55.75 268.71 56.2344C268.593 56.7188 268.534 57.2773 268.534 57.9102V58.4375C268.534 59.0547 268.593 59.6055 268.71 60.0898C268.827 60.5742 269.003 60.9883 269.238 61.332C269.472 61.6758 269.765 61.9375 270.116 62.1172C270.468 62.2891 270.87 62.375 271.323 62.375C271.753 62.375 272.136 62.2891 272.472 62.1172C272.816 61.9375 273.105 61.6758 273.339 61.332C273.581 60.9883 273.765 60.5742 273.89 60.0898C274.015 59.6055 274.077 59.0547 274.077 58.4375ZM285.384 63.8281L288.126 51.3477H289.907L290.716 52.8828L287.938 65H285.993L285.384 63.8281ZM284.669 51.3477L286.954 63.793L286.391 65H284.235L281.141 51.3477H284.669ZM292.555 63.793L294.841 51.3477H298.345L295.274 65H293.141L292.555 63.793ZM291.348 51.3477L294.149 63.8281L293.528 65H291.583L288.712 52.8828L289.544 51.3477H291.348Z" fill="white"/>
</svg>