<svg width="1263" height="397" viewBox="0 0 1263 397" fill="none" xmlns="http://www.w3.org/2000/svg">
<path d="M61 140H870L796.637 269H61V140Z" fill="#300E57"/>
<path d="M376.648 296.901L384.432 298.66L384.322 299.148L387.342 299.83L385.181 302.047L385.539 302.396L379.968 308.111L379.61 307.762L374.039 313.477L374.397 313.826L368.827 319.54L368.469 319.191L362.898 324.906L363.256 325.255L357.686 330.969L357.327 330.62L351.757 336.335L352.115 336.684L346.544 342.399L346.186 342.05L340.616 347.764L340.974 348.113L335.403 353.828L335.045 353.479L329.474 359.193L329.832 359.542L324.262 365.257L323.904 364.908L318.333 370.623L318.691 370.972L313.12 376.686L312.762 376.337L310.572 378.584L309.708 375.665L309.228 375.807L307.014 368.334L307.494 368.192L305.28 360.718L304.801 360.86L302.587 353.387L303.066 353.245L300.853 345.772L300.373 345.914L298.16 338.441L298.639 338.299L296.425 330.825L295.946 330.967L293.732 323.494L294.212 323.352L291.998 315.879L291.519 316.021L289.305 308.548L289.784 308.406L287.571 300.932L287.091 301.074L284.878 293.601L285.357 293.459L283.143 285.986L282.664 286.128L280.45 278.654L280.93 278.512L280.065 275.593L283.125 276.285L283.236 275.797L291.02 277.556L290.91 278.044L298.694 279.802L298.804 279.315L306.589 281.073L306.478 281.561L314.263 283.32L314.373 282.832L322.157 284.591L322.047 285.078L329.831 286.837L329.942 286.349L337.726 288.108L337.616 288.596L345.4 290.354L345.51 289.867L353.295 291.625L353.184 292.113L360.969 293.872L361.079 293.384L368.863 295.143L368.753 295.63L376.537 297.389L376.648 296.901Z" stroke="white" stroke-dasharray="8 8"/>
<path d="M266.745 354.48L244.304 369.312L241.23 345.963L266.745 354.48Z" fill="white"/>
<path d="M176.34 26.4001L164.994 37.0567L162.622 19.0432L176.34 26.4001Z" fill="white"/>
<path d="M209.919 79.9657L216.187 75.5858L216.474 75.9957L218.805 74.3665L218.758 77.2104L219.258 77.2187L219.132 84.8642L218.632 84.856L218.506 92.5015L219.006 92.5097L218.88 100.155L218.38 100.147L218.254 107.793L218.754 107.801L218.627 115.446L218.128 115.438L218.001 123.084L218.501 123.092L218.375 130.737L217.875 130.729L217.749 138.375L218.249 138.383L218.123 146.029L217.623 146.02L217.497 153.666L217.997 153.674L217.871 161.32L217.371 161.311L217.245 168.957L217.745 168.965L217.618 176.611L217.119 176.602L217.069 179.608L214.207 178.087L213.973 178.528L206.807 174.719L207.042 174.277L199.877 170.467L199.642 170.909L192.476 167.099L192.711 166.657L185.546 162.847L185.311 163.289L178.146 159.479L178.38 159.037L171.215 155.227L170.98 155.669L163.815 151.859L164.05 151.418L156.884 147.608L156.649 148.049L149.484 144.239L149.719 143.798L142.553 139.988L142.319 140.429L135.153 136.619L135.388 136.178L132.526 134.656L134.991 132.934L134.704 132.524L140.972 128.145L141.259 128.554L147.527 124.175L147.24 123.765L153.508 119.385L153.795 119.795L160.062 115.415L159.776 115.005L166.044 110.625L166.33 111.035L172.598 106.655L172.312 106.245L178.58 101.865L178.866 102.275L185.134 97.8952L184.848 97.4853L191.116 93.1054L191.402 93.5153L197.67 89.1354L197.383 88.7255L203.651 84.3456L203.938 84.7555L210.206 80.3756L209.919 79.9657Z" stroke="#FF037D" stroke-dasharray="8 8"/>
<path d="M164.719 211.409L172.699 208.74L172.858 209.214L175.937 208.184L175.015 211.298L175.495 211.44L173.105 219.508L172.626 219.366L170.237 227.434L170.716 227.576L168.327 235.645L167.847 235.503L165.458 243.571L165.938 243.713L163.548 251.782L163.069 251.64L160.68 259.708L161.159 259.85L158.77 267.918L158.29 267.776L155.901 275.845L156.381 275.987L153.991 284.055L153.512 283.913L151.123 291.982L151.602 292.123L149.213 300.192L148.733 300.05L147.773 303.294L145.57 301.167L145.223 301.527L139.632 296.128L139.979 295.768L134.388 290.369L134.041 290.729L128.45 285.33L128.798 284.97L123.207 279.571L122.859 279.931L117.269 274.532L117.616 274.172L112.025 268.773L111.678 269.133L106.087 263.734L106.434 263.374L100.843 257.975L100.496 258.335L94.9052 252.936L95.2526 252.576L89.6617 247.177L89.3144 247.537L83.7236 242.138L84.0709 241.778L81.8683 239.651L85.0768 238.578L84.9182 238.103L92.8983 235.434L93.0569 235.908L101.037 233.239L100.878 232.765L108.858 230.095L109.017 230.569L116.997 227.9L116.839 227.426L124.819 224.756L124.977 225.231L132.957 222.561L132.799 222.087L140.779 219.418L140.937 219.892L148.918 217.222L148.759 216.748L156.739 214.079L156.898 214.553L164.878 211.884L164.719 211.409Z" stroke="#FDC32D" stroke-dasharray="8 8"/>
<path d="M274.186 70.3923L318.633 92.9858L281.938 119.646L274.186 70.3923Z" fill="#FDC32D"/>
<path d="M91.707 278.895L115.345 257.933L122.483 286.038L91.707 278.895Z" fill="#FF037D"/>
<path d="M157.121 163.439L180.759 142.477L187.897 170.581L157.121 163.439Z" fill="#FF037D"/>
<path d="M89.1027 155.493L101.377 144.742L105.02 159.084L89.1027 155.493Z" fill="#FDC32D"/>
<path d="M382 81H1286L1183.98 232H161L382 81Z" fill="url(#paint0_linear_1_1023)"/>
<g filter="url(#filter0_f_1_1023)">
<path d="M414.225 165.938H416.225V163.938H414.225V165.938ZM414.225 180V182H416.225V180H414.225ZM372.35 180H370.35V182H372.35V180ZM372.35 165.938V163.938H370.35V165.938H372.35ZM378.725 107.188H380.725V105.188H378.725V107.188ZM378.725 180V182H380.725V180H378.725ZM360.725 180H358.725V182H360.725V180ZM360.725 107.188V105.188H358.725V107.188H360.725ZM408.85 135.312H410.85V133.312H408.85V135.312ZM408.85 149.375V151.375H410.85V149.375H408.85ZM372.35 149.375H370.35V151.375H372.35V149.375ZM372.35 135.312V133.312H370.35V135.312H372.35ZM414.288 107.188H416.288V105.188H414.288V107.188ZM414.288 121.312V123.312H416.288V121.312H414.288ZM372.35 121.312H370.35V123.312H372.35V121.312ZM372.35 107.188V105.188H370.35V107.188H372.35ZM412.225 165.938V180H416.225V165.938H412.225ZM414.225 178H372.35V182H414.225V178ZM374.35 180V165.938H370.35V180H374.35ZM372.35 167.938H414.225V163.938H372.35V167.938ZM376.725 107.188V180H380.725V107.188H376.725ZM378.725 178H360.725V182H378.725V178ZM362.725 180V107.188H358.725V180H362.725ZM360.725 109.188H378.725V105.188H360.725V109.188ZM406.85 135.312V149.375H410.85V135.312H406.85ZM408.85 147.375H372.35V151.375H408.85V147.375ZM374.35 149.375V135.312H370.35V149.375H374.35ZM372.35 137.312H408.85V133.312H372.35V137.312ZM412.288 107.188V121.312H416.288V107.188H412.288ZM414.288 119.312H372.35V123.312H414.288V119.312ZM374.35 121.312V107.188H370.35V121.312H374.35ZM372.35 109.188H414.288V105.188H372.35V109.188ZM479.138 126.125L481.02 126.802L481.074 126.652L481.103 126.495L479.138 126.125ZM459.763 180V182H461.169L461.645 180.677L459.763 180ZM441.575 180L439.715 179.265L438.635 182H441.575V180ZM470.325 107.188V105.188H468.964L468.465 106.453L470.325 107.188ZM482.7 107.188L484.666 107.557L485.111 105.188H482.7V107.188ZM498.263 180L496.385 180.688L496.866 182H498.263V180ZM478.513 126.125L476.548 126.501L476.579 126.661L476.635 126.813L478.513 126.125ZM474.888 107.188V105.188H472.468L472.923 107.564L474.888 107.188ZM487.45 107.188L489.309 106.449L488.807 105.188H487.45V107.188ZM516.388 180V182H519.335L518.246 179.261L516.388 180ZM497.888 152.938H499.888V150.938H497.888V152.938ZM497.888 165.75V167.75H499.888V165.75H497.888ZM457.638 165.75H455.638V167.75H457.638V165.75ZM457.638 152.938V150.938H455.638V152.938H457.638ZM477.256 125.448L457.881 179.323L461.645 180.677L481.02 126.802L477.256 125.448ZM459.763 178H441.575V182H459.763V178ZM443.435 180.735L472.185 107.922L468.465 106.453L439.715 179.265L443.435 180.735ZM470.325 109.188H482.7V105.188H470.325V109.188ZM480.734 106.818L477.172 125.755L481.103 126.495L484.666 107.557L480.734 106.818ZM500.14 179.312L480.39 125.437L476.635 126.813L496.385 180.688L500.14 179.312ZM480.477 125.749L476.852 106.811L472.923 107.564L476.548 126.501L480.477 125.749ZM474.888 109.188H487.45V105.188H474.888V109.188ZM485.591 107.926L514.529 180.739L518.246 179.261L489.309 106.449L485.591 107.926ZM516.388 178H498.263V182H516.388V178ZM495.888 152.938V165.75H499.888V152.938H495.888ZM497.888 163.75H457.638V167.75H497.888V163.75ZM459.638 165.75V152.938H455.638V165.75H459.638ZM457.638 154.938H497.888V150.938H457.638V154.938ZM588.238 157.312L586.419 158.146L586.426 158.161L586.433 158.175L588.238 157.312ZM585.925 154.625L584.715 156.217L584.73 156.229L584.745 156.24L585.925 154.625ZM574.988 150.375L574.527 152.321L574.531 152.322L574.988 150.375ZM563.05 146.812L562.307 148.669L562.321 148.675L562.335 148.68L563.05 146.812ZM554.738 142.25L553.481 143.806L553.497 143.819L553.514 143.832L554.738 142.25ZM549.863 136L548.037 136.818L549.863 136ZM591.738 108.938L590.983 110.79L590.989 110.792L591.738 108.938ZM602.363 116.75L600.765 117.953L600.772 117.963L602.363 116.75ZM606.175 128.812V130.812H608.175V128.812H606.175ZM588.175 128.812H586.175V130.812H588.175V128.812ZM586.738 124L585.044 125.064L585.055 125.081L585.066 125.098L586.738 124ZM582.738 120.5L581.809 122.272L581.826 122.28L581.843 122.289L582.738 120.5ZM570.05 120.312L570.888 122.128L570.907 122.12L570.926 122.11L570.05 120.312ZM566.425 123.25L564.752 122.154L564.747 122.161L564.743 122.168L566.425 123.25ZM565.988 129.75L564.216 130.678L564.233 130.71L564.251 130.742L565.988 129.75ZM568.3 132.188L567.131 133.811L567.168 133.837L567.206 133.861L568.3 132.188ZM572.488 134.25L571.76 136.113L571.787 136.124L571.815 136.133L572.488 134.25ZM578.8 136.125L578.307 138.063L578.34 138.072L578.374 138.079L578.8 136.125ZM590.738 139.688L589.983 141.54L589.997 141.545L590.01 141.551L590.738 139.688ZM599.238 144.5L597.957 146.036L597.964 146.042L597.971 146.048L599.238 144.5ZM604.363 151.188L602.529 151.986L602.534 151.997L604.363 151.188ZM603.988 168.938L602.216 168.009L602.21 168.02L603.988 168.938ZM598.175 175.5L597.023 173.865L597.016 173.87L597.01 173.874L598.175 175.5ZM589.113 179.625L589.619 181.56L589.627 181.558L589.635 181.556L589.113 179.625ZM555.738 175.375L554.655 177.057L554.663 177.062L554.671 177.067L555.738 175.375ZM548.425 167.875L546.702 168.89L546.707 168.899L546.712 168.907L548.425 167.875ZM545.738 156.938V154.938H543.738V156.938H545.738ZM563.8 156.938H565.8V154.938H563.8V156.938ZM564.675 162.062L562.826 162.824L562.835 162.847L562.845 162.87L564.675 162.062ZM567.425 165.562L566.216 167.156L566.247 167.179L566.278 167.201L567.425 165.562ZM571.988 167.5L571.534 169.448L571.544 169.45L571.988 167.5ZM584.613 167L585.487 168.798L585.497 168.794L585.507 168.789L584.613 167ZM587.925 164.062L586.189 163.07L586.175 163.094L586.162 163.118L587.925 164.062ZM590.925 160.5C590.925 159.064 590.641 157.703 590.042 156.45L586.433 158.175C586.75 158.839 586.925 159.602 586.925 160.5H590.925ZM590.056 156.479C589.427 155.107 588.404 153.96 587.105 153.01L584.745 156.24C585.613 156.874 586.132 157.518 586.419 158.146L590.056 156.479ZM587.135 153.033C585.897 152.092 584.3 151.262 582.41 150.515L580.94 154.235C582.634 154.905 583.869 155.575 584.715 156.217L587.135 153.033ZM582.41 150.515C580.499 149.759 578.169 149.067 575.444 148.428L574.531 152.322C577.139 152.933 579.268 153.574 580.94 154.235L582.41 150.515ZM575.448 148.429C570.926 147.36 567.036 146.197 563.765 144.945L562.335 148.68C565.814 150.012 569.882 151.223 574.527 152.321L575.448 148.429ZM563.793 144.956C560.585 143.673 557.988 142.236 555.961 140.668L553.514 143.832C555.904 145.681 558.848 147.286 562.307 148.669L563.793 144.956ZM555.994 140.694C554.059 139.131 552.635 137.296 551.688 135.182L548.037 136.818C549.256 139.537 551.082 141.869 553.481 143.806L555.994 140.694ZM551.688 135.182C550.743 133.074 550.238 130.531 550.238 127.5H546.238C546.238 130.969 546.816 134.093 548.037 136.818L551.688 135.182ZM550.238 127.5C550.238 124.68 550.855 122.126 552.072 119.803L548.528 117.947C546.995 120.874 546.238 124.07 546.238 127.5H550.238ZM552.072 119.803C553.301 117.456 555.037 115.431 557.312 113.725L554.913 110.525C552.188 112.569 550.049 115.044 548.528 117.947L552.072 119.803ZM557.312 113.725C559.602 112.008 562.345 110.647 565.571 109.663L564.404 105.837C560.797 106.937 557.623 108.492 554.913 110.525L557.312 113.725ZM565.571 109.663C568.775 108.686 572.305 108.188 576.175 108.188V104.188C571.961 104.188 568.033 104.731 564.404 105.837L565.571 109.663ZM576.175 108.188C581.844 108.188 586.767 109.072 590.983 110.79L592.492 107.085C587.708 105.136 582.256 104.188 576.175 104.188V108.188ZM590.989 110.792C595.248 112.511 598.475 114.912 600.765 117.953L603.96 115.547C601.167 111.838 597.31 109.03 592.486 107.083L590.989 110.792ZM600.772 117.963C603.016 120.905 604.175 124.486 604.175 128.812H608.175C608.175 123.723 606.793 119.262 603.953 115.537L600.772 117.963ZM606.175 126.812H588.175V130.812H606.175V126.812ZM590.175 128.812C590.175 126.673 589.582 124.687 588.409 122.902L585.066 125.098C585.809 126.229 586.175 127.452 586.175 128.812H590.175ZM588.431 122.936C587.294 121.127 585.664 119.727 583.632 118.711L581.843 122.289C583.311 123.023 584.348 123.957 585.044 125.064L588.431 122.936ZM583.666 118.728C581.555 117.623 579.048 117.125 576.238 117.125V121.125C578.594 121.125 580.42 121.544 581.809 122.272L583.666 118.728ZM576.238 117.125C573.544 117.125 571.156 117.549 569.174 118.515L570.926 122.11C572.194 121.493 573.932 121.125 576.238 121.125V117.125ZM569.212 118.497C567.328 119.366 565.793 120.565 564.752 122.154L568.098 124.346C568.64 123.518 569.522 122.759 570.888 122.128L569.212 118.497ZM564.743 122.168C563.809 123.621 563.3 125.2 563.3 126.875H567.3C567.3 126.05 567.541 125.212 568.107 124.332L564.743 122.168ZM563.3 126.875C563.3 128.222 563.599 129.501 564.216 130.678L567.759 128.822C567.459 128.249 567.3 127.612 567.3 126.875H563.3ZM564.251 130.742C564.926 131.924 565.919 132.938 567.131 133.811L569.469 130.564C568.598 129.937 568.049 129.326 567.724 128.758L564.251 130.742ZM567.206 133.861C568.441 134.669 569.972 135.415 571.76 136.113L573.215 132.387C571.586 131.751 570.326 131.122 569.395 130.514L567.206 133.861ZM571.815 136.133C573.641 136.786 575.808 137.428 578.307 138.063L579.293 134.187C576.875 133.572 574.834 132.964 573.16 132.367L571.815 136.133ZM578.374 138.079C582.875 139.061 586.739 140.218 589.983 141.54L591.492 137.835C587.986 136.407 583.892 135.189 579.226 134.171L578.374 138.079ZM590.01 141.551C593.275 142.825 595.908 144.329 597.957 146.036L600.518 142.964C598.067 140.921 595.034 139.217 591.465 137.824L590.01 141.551ZM597.971 146.048C600.03 147.732 601.537 149.709 602.529 151.986L606.196 150.389C604.938 147.499 603.029 145.018 600.504 142.952L597.971 146.048ZM602.534 151.997C603.526 154.238 604.05 156.891 604.05 160H608.05C608.05 156.442 607.449 153.22 606.191 150.378L602.534 151.997ZM604.05 160C604.05 163.051 603.423 165.705 602.216 168.009L605.759 169.866C607.302 166.92 608.05 163.616 608.05 160H604.05ZM602.21 168.02C601.035 170.298 599.32 172.246 597.023 173.865L599.327 177.135C602.113 175.171 604.274 172.744 605.765 169.855L602.21 168.02ZM597.01 173.874C594.738 175.503 591.944 176.787 588.59 177.694L589.635 181.556C593.364 180.547 596.612 179.081 599.34 177.126L597.01 173.874ZM588.606 177.69C585.3 178.556 581.557 179 577.363 179V183C581.834 183 585.925 182.527 589.619 181.56L588.606 177.69ZM577.363 179C573.647 179 569.994 178.561 566.4 177.682L565.45 181.568C569.356 182.523 573.328 183 577.363 183V179ZM566.4 177.682C562.844 176.813 559.65 175.477 556.804 173.683L554.671 177.067C557.908 179.107 561.506 180.604 565.45 181.568L566.4 177.682ZM556.82 173.693C554.03 171.897 551.811 169.618 550.138 166.843L546.712 168.907C548.706 172.216 551.361 174.936 554.655 177.057L556.82 173.693ZM550.148 166.86C548.572 164.183 547.738 160.903 547.738 156.938H543.738C543.738 161.472 544.695 165.484 546.702 168.89L550.148 166.86ZM545.738 158.938H563.8V154.938H545.738V158.938ZM561.8 156.938C561.8 159.123 562.118 161.104 562.826 162.824L566.524 161.301C566.066 160.187 565.8 158.752 565.8 156.938H561.8ZM562.845 162.87C563.604 164.59 564.732 166.03 566.216 167.156L568.634 163.969C567.702 163.262 566.996 162.368 566.505 161.255L562.845 162.87ZM566.278 167.201C567.776 168.249 569.544 168.985 571.534 169.448L572.441 165.552C570.848 165.182 569.574 164.626 568.572 163.924L566.278 167.201ZM571.544 169.45C573.555 169.907 575.813 170.125 578.3 170.125V166.125C576.037 166.125 574.086 165.926 572.431 165.55L571.544 169.45ZM578.3 170.125C581.118 170.125 583.563 169.734 585.487 168.798L583.738 165.202C582.578 165.766 580.815 166.125 578.3 166.125V170.125ZM585.507 168.789C587.337 167.874 588.812 166.643 589.688 165.007L586.162 163.118C585.788 163.815 585.055 164.543 583.718 165.211L585.507 168.789ZM589.661 165.055C590.481 163.621 590.925 162.094 590.925 160.5H586.925C586.925 161.322 586.702 162.171 586.189 163.07L589.661 165.055ZM695.337 137.25H697.337V135.25H695.337V137.25ZM695.337 151.312V153.312H697.337V151.312H695.337ZM654.775 151.312H652.775V153.312H654.775V151.312ZM654.775 137.25V135.25H652.775V137.25H654.775ZM660.65 107.188H662.65V105.188H660.65V107.188ZM660.65 180V182H662.65V180H660.65ZM642.65 180H640.65V182H642.65V180ZM642.65 107.188V105.188H640.65V107.188H642.65ZM707.587 107.188H709.587V105.188H707.587V107.188ZM707.587 180V182H709.587V180H707.587ZM689.587 180H687.587V182H689.587V180ZM689.587 107.188V105.188H687.587V107.188H689.587ZM693.337 137.25V151.312H697.337V137.25H693.337ZM695.337 149.312H654.775V153.312H695.337V149.312ZM656.775 151.312V137.25H652.775V151.312H656.775ZM654.775 139.25H695.337V135.25H654.775V139.25ZM658.65 107.188V180H662.65V107.188H658.65ZM660.65 178H642.65V182H660.65V178ZM644.65 180V107.188H640.65V180H644.65ZM642.65 109.188H660.65V105.188H642.65V109.188ZM705.587 107.188V180H709.587V107.188H705.587ZM707.587 178H689.587V182H707.587V178ZM691.587 180V107.188H687.587V180H691.587ZM689.587 109.188H707.587V105.188H689.587V109.188ZM858.788 165.938H860.788V163.938H858.788V165.938ZM858.788 180V182H860.788V180H858.788ZM802.038 180H800.038V182H802.038V180ZM802.038 168.188L800.687 166.712L800.038 167.307V168.188H802.038ZM828.475 144L827.14 142.511L827.132 142.518L827.125 142.524L828.475 144ZM834.288 137.938L835.866 139.165L835.873 139.157L835.879 139.149L834.288 137.938ZM837.475 132.75L835.649 131.933L835.644 131.945L835.639 131.956L837.475 132.75ZM823.163 121.75L824.198 123.461L824.214 123.451L824.23 123.441L823.163 121.75ZM819.6 125.625L817.802 124.749L817.793 124.768L817.784 124.787L819.6 125.625ZM818.475 131.062V133.062H820.475V131.062H818.475ZM800.413 131.062H798.413V133.062H800.413V131.062ZM803.788 118.562L805.507 119.583L803.788 118.562ZM813.413 109.5L812.47 107.736L812.462 107.74L813.413 109.5ZM843.6 108.812L842.81 110.65L842.817 110.653L843.6 108.812ZM853.225 116.562L851.551 117.658L851.558 117.667L853.225 116.562ZM855.288 135.938L853.412 135.243L853.406 135.258L853.401 135.274L855.288 135.938ZM851.6 142.5L850.026 141.266L850.023 141.27L851.6 142.5ZM845.475 148.938L846.812 150.425L845.475 148.938ZM836.913 156.125L835.668 154.559L835.634 154.586L835.602 154.614L836.913 156.125ZM825.6 165.938L824.29 164.427L820.242 167.938H825.6V165.938ZM856.788 165.938V180H860.788V165.938H856.788ZM858.788 178H802.038V182H858.788V178ZM804.038 180V168.188H800.038V180H804.038ZM803.388 169.663L829.825 145.476L827.125 142.524L800.687 166.712L803.388 169.663ZM829.81 145.489C832.286 143.27 834.314 141.162 835.866 139.165L832.709 136.71C831.345 138.463 829.498 140.397 827.14 142.511L829.81 145.489ZM835.879 139.149C837.397 137.154 838.559 135.283 839.311 133.544L835.639 131.956C835.058 133.301 834.095 134.888 832.696 136.726L835.879 139.149ZM839.301 133.567C840.063 131.863 840.538 130.234 840.538 128.75H836.538C836.538 129.433 836.304 130.47 835.649 131.933L839.301 133.567ZM840.538 128.75C840.538 125.726 839.593 123.111 837.558 121.13L834.767 123.995C835.898 125.097 836.538 126.608 836.538 128.75H840.538ZM837.558 121.13C835.47 119.097 832.529 118.25 829.1 118.25V122.25C831.921 122.25 833.689 122.945 834.767 123.995L837.558 121.13ZM829.1 118.25C826.448 118.25 824.073 118.809 822.095 120.059L824.23 123.441C825.419 122.691 827.003 122.25 829.1 122.25V118.25ZM822.127 120.039C820.223 121.192 818.766 122.77 817.802 124.749L821.398 126.501C822.017 125.23 822.936 124.225 824.198 123.461L822.127 120.039ZM817.784 124.787C816.899 126.704 816.475 128.807 816.475 131.062H820.475C820.475 129.318 820.801 127.796 821.416 126.463L817.784 124.787ZM818.475 129.062H800.413V133.062H818.475V129.062ZM802.413 131.062C802.413 126.869 803.446 123.056 805.507 119.583L802.068 117.542C799.629 121.652 798.413 126.173 798.413 131.062H802.413ZM805.507 119.583C807.559 116.126 810.49 113.351 814.363 111.26L812.462 107.74C808.001 110.149 804.516 113.416 802.068 117.542L805.507 119.583ZM814.355 111.264C818.218 109.199 822.88 108.125 828.413 108.125V104.125C822.362 104.125 817.024 105.301 812.47 107.736L814.355 111.264ZM828.413 108.125C834.18 108.125 838.958 108.993 842.81 110.65L844.39 106.975C839.909 105.048 834.561 104.125 828.413 104.125V108.125ZM842.817 110.653C846.711 112.311 849.588 114.656 851.551 117.658L854.899 115.467C852.446 111.719 848.905 108.897 844.383 106.972L842.817 110.653ZM851.558 117.667C853.513 120.618 854.538 124.238 854.538 128.625H858.538C858.538 123.595 857.354 119.173 854.892 115.458L851.558 117.667ZM854.538 128.625C854.538 131.035 854.156 133.235 853.412 135.243L857.163 136.632C858.086 134.14 858.538 131.465 858.538 128.625H854.538ZM853.401 135.274C852.691 137.292 851.576 139.29 850.026 141.266L853.174 143.734C854.958 141.46 856.301 139.083 857.174 136.601L853.401 135.274ZM850.023 141.27C848.486 143.241 846.53 145.301 844.138 147.45L846.812 150.425C849.337 148.157 851.464 145.926 853.177 143.73L850.023 141.27ZM844.138 147.45C841.716 149.625 838.894 151.995 835.668 154.559L838.157 157.691C841.431 155.088 844.317 152.666 846.812 150.425L844.138 147.45ZM835.602 154.614L824.29 164.427L826.91 167.448L838.223 157.636L835.602 154.614ZM825.6 167.938H858.788V163.938H825.6V167.938ZM913.2 107.188H915.2V105.188H913.2V107.188ZM913.2 180V182H915.2V180H913.2ZM895.2 180H893.2V182H895.2V180ZM895.2 107.188V105.188H893.2V107.188H895.2ZM959.575 107.188L961.131 108.444L963.759 105.188H959.575V107.188ZM929.512 144.438L930.914 145.865L930.996 145.784L931.069 145.694L929.512 144.438ZM912.45 161.188L910.526 161.734L911.447 164.975L913.851 162.615L912.45 161.188ZM907.887 145.125L906.287 143.926L905.693 144.719L905.964 145.671L907.887 145.125ZM919.45 129.688L917.873 128.457L917.861 128.473L917.849 128.489L919.45 129.688ZM937.012 107.188V105.188H936.036L935.436 105.957L937.012 107.188ZM938.887 180L937.207 181.084L937.797 182H938.887V180ZM917.887 147.438L916.704 145.825L915.186 146.939L916.207 148.521L917.887 147.438ZM931.762 137.25L933.427 136.141L932.266 134.399L930.579 135.638L931.762 137.25ZM960.262 180V182H964L961.927 178.891L960.262 180ZM911.2 107.188V180H915.2V107.188H911.2ZM913.2 178H895.2V182H913.2V178ZM897.2 180V107.188H893.2V180H897.2ZM895.2 109.188H913.2V105.188H895.2V109.188ZM958.019 105.931L927.956 143.181L931.069 145.694L961.131 108.444L958.019 105.931ZM928.111 143.01L911.049 159.76L913.851 162.615L930.914 145.865L928.111 143.01ZM914.374 160.641L909.811 144.579L905.964 145.671L910.526 161.734L914.374 160.641ZM909.488 146.324L921.051 130.886L917.849 128.489L906.287 143.926L909.488 146.324ZM921.027 130.918L938.589 108.418L935.436 105.957L917.873 128.457L921.027 130.918ZM937.012 109.188H959.575V105.188H937.012V109.188ZM940.568 178.916L919.568 146.354L916.207 148.521L937.207 181.084L940.568 178.916ZM919.071 149.05L932.946 138.862L930.579 135.638L916.704 145.825L919.071 149.05ZM930.098 138.359L958.598 181.109L961.927 178.891L933.427 136.141L930.098 138.359ZM960.262 178H938.887V182H960.262V178ZM1046.86 165.938H1048.86V163.938H1046.86V165.938ZM1046.86 180V182H1048.86V180H1046.86ZM990.113 180H988.113V182H990.113V180ZM990.113 168.188L988.763 166.712L988.113 167.307V168.188H990.113ZM1016.55 144L1015.21 142.511L1015.21 142.518L1015.2 142.524L1016.55 144ZM1022.36 137.938L1023.94 139.165L1023.95 139.157L1023.95 139.149L1022.36 137.938ZM1025.55 132.75L1023.72 131.933L1023.72 131.945L1023.71 131.956L1025.55 132.75ZM1011.24 121.75L1012.27 123.461L1012.29 123.451L1012.31 123.441L1011.24 121.75ZM1007.68 125.625L1005.88 124.749L1005.87 124.768L1005.86 124.787L1007.68 125.625ZM1006.55 131.062V133.062H1008.55V131.062H1006.55ZM988.488 131.062H986.488V133.062H988.488V131.062ZM991.863 118.562L993.583 119.583L991.863 118.562ZM1001.49 109.5L1000.54 107.736L1000.54 107.74L1001.49 109.5ZM1031.68 108.812L1030.89 110.65L1030.89 110.653L1031.68 108.812ZM1041.3 116.562L1039.63 117.658L1039.63 117.667L1041.3 116.562ZM1043.36 135.938L1041.49 135.243L1041.48 135.258L1041.48 135.274L1043.36 135.938ZM1039.68 142.5L1038.1 141.266L1038.1 141.27L1039.68 142.5ZM1033.55 148.938L1034.89 150.425L1033.55 148.938ZM1024.99 156.125L1023.74 154.559L1023.71 154.586L1023.68 154.614L1024.99 156.125ZM1013.68 165.938L1012.36 164.427L1008.32 167.938H1013.68V165.938ZM1044.86 165.938V180H1048.86V165.938H1044.86ZM1046.86 178H990.113V182H1046.86V178ZM992.113 180V168.188H988.113V180H992.113ZM991.463 169.663L1017.9 145.476L1015.2 142.524L988.763 166.712L991.463 169.663ZM1017.89 145.489C1020.36 143.27 1022.39 141.162 1023.94 139.165L1020.78 136.71C1019.42 138.463 1017.57 140.397 1015.21 142.511L1017.89 145.489ZM1023.95 139.149C1025.47 137.154 1026.63 135.283 1027.39 133.544L1023.71 131.956C1023.13 133.301 1022.17 134.888 1020.77 136.726L1023.95 139.149ZM1027.38 133.567C1028.14 131.863 1028.61 130.234 1028.61 128.75H1024.61C1024.61 129.433 1024.38 130.47 1023.72 131.933L1027.38 133.567ZM1028.61 128.75C1028.61 125.726 1027.67 123.111 1025.63 121.13L1022.84 123.995C1023.97 125.097 1024.61 126.608 1024.61 128.75H1028.61ZM1025.63 121.13C1023.54 119.097 1020.6 118.25 1017.18 118.25V122.25C1020 122.25 1021.76 122.945 1022.84 123.995L1025.63 121.13ZM1017.18 118.25C1014.52 118.25 1012.15 118.809 1010.17 120.059L1012.31 123.441C1013.49 122.691 1015.08 122.25 1017.18 122.25V118.25ZM1010.2 120.039C1008.3 121.192 1006.84 122.77 1005.88 124.749L1009.47 126.501C1010.09 125.23 1011.01 124.225 1012.27 123.461L1010.2 120.039ZM1005.86 124.787C1004.97 126.704 1004.55 128.807 1004.55 131.062H1008.55C1008.55 129.318 1008.88 127.796 1009.49 126.463L1005.86 124.787ZM1006.55 129.062H988.488V133.062H1006.55V129.062ZM990.488 131.062C990.488 126.869 991.521 123.056 993.583 119.583L990.143 117.542C987.704 121.652 986.488 126.173 986.488 131.062H990.488ZM993.583 119.583C995.634 116.126 998.565 113.351 1002.44 111.26L1000.54 107.74C996.076 110.149 992.591 113.416 990.143 117.542L993.583 119.583ZM1002.43 111.264C1006.29 109.199 1010.96 108.125 1016.49 108.125V104.125C1010.44 104.125 1005.1 105.301 1000.54 107.736L1002.43 111.264ZM1016.49 108.125C1022.26 108.125 1027.03 108.993 1030.89 110.65L1032.47 106.975C1027.98 105.048 1022.64 104.125 1016.49 104.125V108.125ZM1030.89 110.653C1034.79 112.311 1037.66 114.656 1039.63 117.658L1042.97 115.467C1040.52 111.719 1036.98 108.897 1032.46 106.972L1030.89 110.653ZM1039.63 117.667C1041.59 120.618 1042.61 124.238 1042.61 128.625H1046.61C1046.61 123.595 1045.43 119.173 1042.97 115.458L1039.63 117.667ZM1042.61 128.625C1042.61 131.035 1042.23 133.235 1041.49 135.243L1045.24 136.632C1046.16 134.14 1046.61 131.465 1046.61 128.625H1042.61ZM1041.48 135.274C1040.77 137.292 1039.65 139.29 1038.1 141.266L1041.25 143.734C1043.03 141.46 1044.38 139.083 1045.25 136.601L1041.48 135.274ZM1038.1 141.27C1036.56 143.241 1034.6 145.301 1032.21 147.45L1034.89 150.425C1037.41 148.157 1039.54 145.926 1041.25 143.73L1038.1 141.27ZM1032.21 147.45C1029.79 149.625 1026.97 151.995 1023.74 154.559L1026.23 157.691C1029.51 155.088 1032.39 152.666 1034.89 150.425L1032.21 147.45ZM1023.68 154.614L1012.36 164.427L1014.99 167.448L1026.3 157.636L1023.68 154.614ZM1013.68 167.938H1046.86V163.938H1013.68V167.938ZM1100.28 136.938V134.938H1098.28V136.938H1100.28ZM1114.53 135.875L1115.32 137.708L1115.34 137.7L1115.36 137.691L1114.53 135.875ZM1118.15 132.75L1116.45 131.69L1116.44 131.709L1116.43 131.729L1118.15 132.75ZM1115.15 121.375L1114.26 123.164L1114.28 123.174L1114.3 123.183L1115.15 121.375ZM1100.53 123.25L1102 124.599L1102.02 124.583L1102.03 124.567L1100.53 123.25ZM1099.21 126.75V128.75H1101.21V126.75H1099.21ZM1081.15 126.75H1079.15V128.75H1081.15V126.75ZM1084.96 115.562L1086.5 116.845L1086.51 116.835L1084.96 115.562ZM1095.03 108.562L1095.74 110.432L1095.74 110.429L1095.75 110.426L1095.03 108.562ZM1120.28 107.5L1119.77 109.435L1119.78 109.438L1119.8 109.442L1120.28 107.5ZM1129.4 111.5L1128.25 113.135L1128.26 113.145L1128.28 113.156L1129.4 111.5ZM1135.34 118L1137.1 117.06L1135.34 118ZM1135.46 134.312L1137.18 135.337L1137.18 135.329L1137.19 135.322L1135.46 134.312ZM1130.03 139.938L1131.13 141.606L1131.14 141.599L1131.15 141.592L1130.03 139.938ZM1121.71 143.562L1122.22 145.497L1122.23 145.494L1122.24 145.492L1121.71 143.562ZM1100.28 144.812H1098.28V146.812H1100.28V144.812ZM1100.28 148.812H1098.28V150.812H1100.28V148.812ZM1100.28 141.062V139.062H1098.28V141.062H1100.28ZM1122.59 142.125L1122.17 144.081L1122.18 144.082L1122.59 142.125ZM1131.28 145.438L1130.22 147.137L1130.23 147.143L1130.24 147.15L1131.28 145.438ZM1136.84 151.188L1135.08 152.143L1135.08 152.15L1135.09 152.156L1136.84 151.188ZM1136.46 168.688L1134.73 167.686L1134.73 167.695L1136.46 168.688ZM1130.09 175.375L1128.98 173.711L1128.97 173.719L1130.09 175.375ZM1089.15 175.875L1088.07 177.558L1088.08 177.564L1088.09 177.57L1089.15 175.875ZM1082.4 168.938L1080.67 169.941L1080.68 169.955L1080.69 169.97L1082.4 168.938ZM1079.9 158.625V156.625H1077.9V158.625H1079.9ZM1098.03 158.625H1100.03V156.625H1098.03V158.625ZM1099.4 162.812L1097.77 163.97L1097.79 164L1097.81 164.029L1099.4 162.812ZM1103.46 165.875L1102.64 167.697L1102.66 167.705L1102.67 167.713L1103.46 165.875ZM1119.46 162.625L1117.73 161.627L1117.72 161.636L1117.72 161.644L1119.46 162.625ZM1119.78 153.812L1117.96 154.655L1117.97 154.681L1117.99 154.707L1119.78 153.812ZM1117.34 151L1116.17 152.623L1116.21 152.649L1116.24 152.674L1117.34 151ZM1113.53 149.375L1113.04 151.315L1113.07 151.322L1113.09 151.327L1113.53 149.375ZM1100.28 138.938H1108.34V134.938H1100.28V138.938ZM1108.34 138.938C1111.01 138.938 1113.37 138.562 1115.32 137.708L1113.73 134.042C1112.43 134.605 1110.67 134.938 1108.34 134.938V138.938ZM1115.36 137.691C1117.3 136.798 1118.84 135.504 1119.87 133.771L1116.43 131.729C1115.88 132.663 1115 133.452 1113.69 134.059L1115.36 137.691ZM1119.85 133.81C1120.9 132.124 1121.4 130.206 1121.4 128.125H1117.4C1117.4 129.544 1117.07 130.71 1116.45 131.69L1119.85 133.81ZM1121.4 128.125C1121.4 126.411 1120.98 124.787 1120.15 123.284L1116.65 125.216C1117.15 126.13 1117.4 127.089 1117.4 128.125H1121.4ZM1120.15 123.284C1119.24 121.638 1117.81 120.417 1116 119.567L1114.3 123.183C1115.49 123.749 1116.22 124.445 1116.65 125.216L1120.15 123.284ZM1116.04 119.586C1114.16 118.646 1111.82 118.25 1109.15 118.25V122.25C1111.48 122.25 1113.14 122.604 1114.26 123.164L1116.04 119.586ZM1109.15 118.25C1107.1 118.25 1105.19 118.523 1103.46 119.103L1104.72 122.897C1105.98 122.477 1107.45 122.25 1109.15 122.25V118.25ZM1103.46 119.103C1101.68 119.694 1100.17 120.619 1099.02 121.933L1102.03 124.567C1102.63 123.881 1103.49 123.306 1104.72 122.897L1103.46 119.103ZM1099.05 121.901C1097.82 123.252 1097.21 124.909 1097.21 126.75H1101.21C1101.21 125.841 1101.48 125.165 1102 124.599L1099.05 121.901ZM1099.21 124.75H1081.15V128.75H1099.21V124.75ZM1083.15 126.75C1083.15 122.745 1084.29 119.485 1086.5 116.845L1083.43 114.28C1080.55 117.723 1079.15 121.922 1079.15 126.75H1083.15ZM1086.51 116.835C1088.8 114.049 1091.86 111.907 1095.74 110.432L1094.31 106.693C1089.86 108.385 1086.21 110.909 1083.42 114.29L1086.51 116.835ZM1095.75 110.426C1099.67 108.899 1103.94 108.125 1108.59 108.125V104.125C1103.49 104.125 1098.72 104.976 1094.3 106.699L1095.75 110.426ZM1108.59 108.125C1112.74 108.125 1116.46 108.569 1119.77 109.435L1120.78 105.565C1117.09 104.598 1113.02 104.125 1108.59 104.125V108.125ZM1119.8 109.442C1123.14 110.267 1125.94 111.509 1128.25 113.135L1130.55 109.865C1127.78 107.908 1124.5 106.483 1120.75 105.558L1119.8 109.442ZM1128.28 113.156C1130.61 114.736 1132.36 116.663 1133.57 118.94L1137.1 117.06C1135.56 114.17 1133.36 111.764 1130.52 109.844L1128.28 113.156ZM1133.57 118.94C1134.77 121.189 1135.4 123.856 1135.4 127H1139.4C1139.4 123.311 1138.66 119.978 1137.1 117.06L1133.57 118.94ZM1135.4 127C1135.4 129.327 1134.84 131.414 1133.74 133.303L1137.19 135.322C1138.67 132.794 1139.4 130.006 1139.4 127H1135.4ZM1133.74 133.288C1132.62 135.176 1131.02 136.844 1128.9 138.283L1131.15 141.592C1133.69 139.864 1135.72 137.783 1137.18 135.337L1133.74 133.288ZM1128.92 138.269C1126.8 139.674 1124.23 140.804 1121.19 141.633L1122.24 145.492C1125.61 144.571 1128.59 143.285 1131.13 141.606L1128.92 138.269ZM1121.2 141.628C1118.22 142.412 1114.94 142.812 1111.34 142.812V146.812C1115.23 146.812 1118.87 146.379 1122.22 145.497L1121.2 141.628ZM1111.34 142.812H1100.28V146.812H1111.34V142.812ZM1102.28 144.812V136.938H1098.28V144.812H1102.28ZM1102.28 148.812V141.062H1098.28V148.812H1102.28ZM1100.28 143.062H1111.34V139.062H1100.28V143.062ZM1111.34 143.062C1115.39 143.062 1119 143.408 1122.17 144.081L1123 140.169C1119.51 139.426 1115.61 139.062 1111.34 139.062V143.062ZM1122.18 144.082C1125.37 144.753 1128.04 145.783 1130.22 147.137L1132.33 143.738C1129.68 142.092 1126.55 140.914 1123 140.168L1122.18 144.082ZM1130.24 147.15C1132.37 148.433 1133.97 150.094 1135.08 152.143L1138.59 150.232C1137.13 147.531 1135.02 145.359 1132.31 143.725L1130.24 147.15ZM1135.09 152.156C1136.18 154.131 1136.78 156.594 1136.78 159.625H1140.78C1140.78 156.073 1140.08 152.91 1138.59 150.219L1135.09 152.156ZM1136.78 159.625C1136.78 162.683 1136.08 165.353 1134.73 167.686L1138.19 169.689C1139.93 166.689 1140.78 163.317 1140.78 159.625H1136.78ZM1134.73 167.695C1133.39 170.026 1131.49 172.033 1128.98 173.711L1131.2 177.039C1134.18 175.05 1136.53 172.599 1138.2 169.68L1134.73 167.695ZM1128.97 173.719C1126.47 175.407 1123.5 176.718 1120.02 177.628L1121.03 181.497C1124.88 180.491 1128.29 179.01 1131.21 177.031L1128.97 173.719ZM1120.02 177.628C1116.54 178.537 1112.73 179 1108.59 179V183C1113.03 183 1117.18 182.504 1121.03 181.497L1120.02 177.628ZM1108.59 179C1105.34 179 1102.1 178.604 1098.88 177.808L1097.92 181.692C1101.45 182.563 1105.01 183 1108.59 183V179ZM1098.88 177.808C1095.7 177.023 1092.81 175.812 1090.21 174.18L1088.09 177.57C1091.07 179.438 1094.35 180.81 1097.92 181.692L1098.88 177.808ZM1090.23 174.192C1087.7 172.565 1085.66 170.475 1084.11 167.905L1080.69 169.97C1082.55 173.067 1085.02 175.601 1088.07 177.558L1090.23 174.192ZM1084.13 167.934C1082.67 165.421 1081.9 162.345 1081.9 158.625H1077.9C1077.9 162.905 1078.79 166.704 1080.67 169.941L1084.13 167.934ZM1079.9 160.625H1098.03V156.625H1079.9V160.625ZM1096.03 158.625C1096.03 160.564 1096.63 162.36 1097.77 163.97L1101.03 161.655C1100.34 160.682 1100.03 159.686 1100.03 158.625H1096.03ZM1097.81 164.029C1099.01 165.592 1100.65 166.799 1102.64 167.697L1104.29 164.053C1102.77 163.367 1101.71 162.533 1100.99 161.596L1097.81 164.029ZM1102.67 167.713C1104.73 168.593 1107.07 169 1109.65 169V165C1107.48 165 1105.7 164.657 1104.25 164.037L1102.67 167.713ZM1109.65 169C1112.38 169 1114.79 168.578 1116.78 167.61L1115.02 164.015C1113.76 164.631 1112 165 1109.65 165V169ZM1116.78 167.61C1118.7 166.674 1120.22 165.354 1121.21 163.606L1117.72 161.644C1117.2 162.563 1116.35 163.368 1115.02 164.015L1116.78 167.61ZM1121.2 163.623C1122.17 161.937 1122.65 160.091 1122.65 158.125H1118.65C1118.65 159.409 1118.34 160.563 1117.73 161.627L1121.2 163.623ZM1122.65 158.125C1122.65 156.199 1122.32 154.435 1121.56 152.918L1117.99 154.707C1118.39 155.524 1118.65 156.635 1118.65 158.125H1122.65ZM1121.59 152.97C1120.89 151.462 1119.83 150.238 1118.43 149.326L1116.24 152.674C1117.02 153.179 1117.58 153.829 1117.96 154.655L1121.59 152.97ZM1118.51 149.377C1117.21 148.44 1115.67 147.803 1113.96 147.423L1113.09 151.327C1114.38 151.613 1115.39 152.06 1116.17 152.623L1118.51 149.377ZM1114.01 147.435C1112.32 147.011 1110.42 146.812 1108.34 146.812V150.812C1110.17 150.812 1111.73 150.989 1113.04 151.315L1114.01 147.435ZM1108.34 146.812H1100.28V150.812H1108.34V146.812Z" fill="white"/>
</g>
<g filter="url(#filter1_d_1_1023)">
<path d="M658.175 175.594H667.988V199.094C667.988 201.969 667.352 204.406 666.081 206.406C664.81 208.406 663.019 209.927 660.706 210.969C658.415 211.99 655.685 212.5 652.519 212.5C649.415 212.5 646.685 211.99 644.331 210.969C641.998 209.927 640.175 208.406 638.863 206.406C637.571 204.406 636.925 201.969 636.925 199.094V175.594H646.738V199.094C646.738 200.469 646.956 201.594 647.394 202.469C647.831 203.344 648.477 203.979 649.331 204.375C650.206 204.75 651.269 204.938 652.519 204.938C653.769 204.938 654.81 204.75 655.644 204.375C656.477 203.979 657.102 203.344 657.519 202.469C657.956 201.594 658.175 200.469 658.175 199.094V175.594ZM712.981 175.594V212H703.2L689.856 189.812V212H680.044V175.594H689.856L703.2 197.781V175.594H712.981ZM751.038 204.438V212H731.194V204.438H751.038ZM734.819 175.594V212H725.006V175.594H734.819ZM788.375 204.438V212H767.406V204.438H788.375ZM771.031 175.594V212H761.219V175.594H771.031ZM785.719 189.406V196.969H767.406V189.406H785.719ZM788.469 175.594V183.188H767.406V175.594H788.469ZM814.244 186.094L805.181 212H795.306L809.588 175.594H816.306L814.244 186.094ZM823.494 212L814.213 186.125L812.088 175.594H818.931L833.338 212H823.494ZM823.463 198.438V205.25H803.713V198.438H823.463ZM862.644 202.156C862.644 201.594 862.529 201.083 862.3 200.625C862.071 200.167 861.706 199.76 861.206 199.406C860.706 199.031 860.029 198.677 859.175 198.344C858.321 198.01 857.269 197.698 856.019 197.406C853.665 196.844 851.633 196.24 849.925 195.594C848.238 194.948 846.852 194.198 845.769 193.344C844.706 192.469 843.915 191.427 843.394 190.219C842.873 189.01 842.613 187.573 842.613 185.906C842.613 184.302 842.956 182.844 843.644 181.531C844.352 180.198 845.342 179.052 846.613 178.094C847.883 177.135 849.373 176.396 851.081 175.875C852.79 175.354 854.654 175.094 856.675 175.094C859.633 175.094 862.258 175.542 864.55 176.438C866.863 177.312 868.675 178.594 869.988 180.281C871.3 181.969 871.956 184.031 871.956 186.469H862.175C862.175 185.677 861.956 184.948 861.519 184.281C861.081 183.594 860.456 183.042 859.644 182.625C858.852 182.208 857.873 182 856.706 182C855.581 182 854.654 182.188 853.925 182.562C853.196 182.917 852.654 183.365 852.3 183.906C851.967 184.448 851.8 184.979 851.8 185.5C851.8 186 851.904 186.458 852.113 186.875C852.321 187.271 852.665 187.635 853.144 187.969C853.644 188.281 854.29 188.594 855.081 188.906C855.873 189.198 856.842 189.49 857.988 189.781C860.321 190.281 862.352 190.875 864.081 191.562C865.831 192.229 867.269 193.042 868.394 194C869.54 194.938 870.394 196.052 870.956 197.344C871.54 198.635 871.831 200.146 871.831 201.875C871.831 203.562 871.488 205.062 870.8 206.375C870.113 207.688 869.133 208.802 867.863 209.719C866.592 210.615 865.071 211.302 863.3 211.781C861.529 212.26 859.55 212.5 857.363 212.5C855.404 212.5 853.467 212.281 851.55 211.844C849.654 211.385 847.935 210.667 846.394 209.688C844.873 208.708 843.654 207.448 842.738 205.906C841.821 204.344 841.363 202.479 841.363 200.312H851.175C851.175 201.25 851.3 202.062 851.55 202.75C851.821 203.417 852.227 203.969 852.769 204.406C853.31 204.823 854.008 205.135 854.863 205.344C855.738 205.531 856.758 205.625 857.925 205.625C859.175 205.625 860.133 205.438 860.8 205.062C861.488 204.688 861.967 204.24 862.238 203.719C862.508 203.177 862.644 202.656 862.644 202.156ZM910.012 190.375V197.969H889.887V190.375H910.012ZM893.294 175.594V212H883.481V175.594H893.294ZM916.45 175.594V212H906.7V175.594H916.45ZM979.156 204.438V212H950.469V205.656L963.625 193.781C964.75 192.76 965.656 191.792 966.344 190.875C967.031 189.958 967.542 189.125 967.875 188.375C968.229 187.625 968.406 187.01 968.406 186.531C968.406 185.323 968.052 184.375 967.344 183.688C966.635 183 965.562 182.656 964.125 182.656C963.104 182.656 962.24 182.896 961.531 183.375C960.844 183.854 960.323 184.479 959.969 185.25C959.615 186 959.438 186.833 959.438 187.75H949.625C949.625 185.417 950.198 183.292 951.344 181.375C952.49 179.458 954.115 177.927 956.219 176.781C958.344 175.635 960.844 175.062 963.719 175.062C966.781 175.062 969.396 175.51 971.562 176.406C973.729 177.302 975.375 178.604 976.5 180.312C977.625 182 978.188 184.062 978.188 186.5C978.188 187.854 977.979 189.104 977.562 190.25C977.146 191.375 976.521 192.469 975.688 193.531C974.854 194.594 973.781 195.677 972.469 196.781C971.177 197.885 969.656 199.094 967.906 200.406L963.375 204.438H979.156ZM1000.49 175.594V212H990.681V175.594H1000.49ZM1023.59 175.594L1008.81 194.531L1000.37 202.812L997.806 194.281L1003.37 186.438L1011.28 175.594H1023.59ZM1012.21 212L1002.46 195.969L1010.15 190.656L1023.74 212H1012.21ZM1060.71 204.438V212H1032.02V205.656L1045.17 193.781C1046.3 192.76 1047.21 191.792 1047.89 190.875C1048.58 189.958 1049.09 189.125 1049.42 188.375C1049.78 187.625 1049.96 187.01 1049.96 186.531C1049.96 185.323 1049.6 184.375 1048.89 183.688C1048.19 183 1047.11 182.656 1045.67 182.656C1044.65 182.656 1043.79 182.896 1043.08 183.375C1042.39 183.854 1041.87 184.479 1041.52 185.25C1041.16 186 1040.99 186.833 1040.99 187.75H1031.17C1031.17 185.417 1031.75 183.292 1032.89 181.375C1034.04 179.458 1035.66 177.927 1037.77 176.781C1039.89 175.635 1042.39 175.062 1045.27 175.062C1048.33 175.062 1050.95 175.51 1053.11 176.406C1055.28 177.302 1056.92 178.604 1058.05 180.312C1059.17 182 1059.74 184.062 1059.74 186.5C1059.74 187.854 1059.53 189.104 1059.11 190.25C1058.7 191.375 1058.07 192.469 1057.24 193.531C1056.4 194.594 1055.33 195.677 1054.02 196.781C1052.73 197.885 1051.21 199.094 1049.46 200.406L1044.92 204.438H1060.71ZM1081.2 190.312H1085.29C1086.42 190.312 1087.35 190.146 1088.08 189.812C1088.83 189.458 1089.38 188.979 1089.73 188.375C1090.09 187.75 1090.26 187.031 1090.26 186.219C1090.26 185.635 1090.12 185.073 1089.83 184.531C1089.53 183.99 1089.04 183.542 1088.36 183.188C1087.67 182.833 1086.73 182.656 1085.54 182.656C1084.73 182.656 1083.98 182.771 1083.29 183C1082.63 183.208 1082.09 183.521 1081.67 183.938C1081.27 184.333 1081.08 184.844 1081.08 185.469H1071.29C1071.29 183.177 1071.95 181.26 1073.26 179.719C1074.58 178.177 1076.28 177.021 1078.39 176.25C1080.51 175.458 1082.79 175.062 1085.23 175.062C1087.42 175.062 1089.42 175.292 1091.23 175.75C1093.04 176.188 1094.61 176.854 1095.92 177.75C1097.25 178.625 1098.27 179.719 1098.98 181.031C1099.69 182.323 1100.04 183.812 1100.04 185.5C1100.04 186.917 1099.7 188.177 1099.01 189.281C1098.35 190.365 1097.41 191.292 1096.2 192.062C1094.99 192.833 1093.59 193.417 1091.98 193.812C1090.4 194.208 1088.69 194.406 1086.86 194.406H1081.2V190.312ZM1081.2 196.531V192.562H1086.86C1088.84 192.562 1090.67 192.719 1092.36 193.031C1094.04 193.344 1095.51 193.854 1096.76 194.562C1098.01 195.271 1098.98 196.219 1099.67 197.406C1100.38 198.594 1100.73 200.052 1100.73 201.781C1100.73 203.49 1100.34 205.01 1099.54 206.344C1098.77 207.656 1097.68 208.771 1096.26 209.688C1094.87 210.604 1093.22 211.302 1091.33 211.781C1089.45 212.26 1087.42 212.5 1085.23 212.5C1083.54 212.5 1081.84 212.302 1080.11 211.906C1078.4 211.49 1076.83 210.833 1075.39 209.938C1073.97 209.021 1072.83 207.844 1071.95 206.406C1071.08 204.948 1070.64 203.188 1070.64 201.125H1080.45C1080.45 201.792 1080.67 202.417 1081.11 203C1081.54 203.562 1082.17 204.031 1082.98 204.406C1083.81 204.76 1084.77 204.938 1085.86 204.938C1087.09 204.938 1088.06 204.75 1088.79 204.375C1089.52 204 1090.05 203.5 1090.39 202.875C1090.74 202.25 1090.92 201.573 1090.92 200.844C1090.92 200.073 1090.79 199.417 1090.54 198.875C1090.29 198.333 1089.92 197.896 1089.42 197.562C1088.94 197.208 1088.35 196.948 1087.64 196.781C1086.95 196.615 1086.17 196.531 1085.29 196.531H1081.2Z" fill="white"/>
</g>
<defs>
<filter id="filter0_f_1_1023" x="356.725" y="102.125" width="786.05" height="82.875" filterUnits="userSpaceOnUse" color-interpolation-filters="sRGB">
<feFlood flood-opacity="0" result="BackgroundImageFix"/>
<feBlend mode="normal" in="SourceGraphic" in2="BackgroundImageFix" result="shape"/>
<feGaussianBlur stdDeviation="2" result="effect1_foregroundBlur_1_1023"/>
</filter>
<filter id="filter1_d_1_1023" x="636.925" y="175.062" width="471.806" height="45.4375" filterUnits="userSpaceOnUse" color-interpolation-filters="sRGB">
<feFlood flood-opacity="0" result="BackgroundImageFix"/>
<feColorMatrix in="SourceAlpha" type="matrix" values="0 0 0 0 0 0 0 0 0 0 0 0 0 0 0 0 0 0 127 0" result="hardAlpha"/>
<feOffset dx="4" dy="4"/>
<feGaussianBlur stdDeviation="2"/>
<feComposite in2="hardAlpha" operator="out"/>
<feColorMatrix type="matrix" values="0 0 0 0 0 0 0 0 0 0 0 0 0 0 0 0 0 0 0.75 0"/>
<feBlend mode="normal" in2="BackgroundImageFix" result="effect1_dropShadow_1_1023"/>
<feBlend mode="normal" in="SourceGraphic" in2="effect1_dropShadow_1_1023" result="shape"/>
</filter>
<linearGradient id="paint0_linear_1_1023" x1="459" y1="153.5" x2="985" y2="157" gradientUnits="userSpaceOnUse">
<stop stop-color="#FDC32D"/>
<stop offset="1" stop-color="#FDC32D" stop-opacity="0"/>
</linearGradient>
</defs>
</svg>
